<?xml version="1.0" encoding="UTF-8"?><svg id="a" xmlns="http://www.w3.org/2000/svg" viewBox="0 0 1370.37 855.97"><rect x="42.11" y="26.93" width="1280" height="800" fill="#1a2a66"/><rect width="1370.37" height="855.97" fill="none"/><path d="M373,275.93c-.54-.38-1.23-.57-2.08-.57-.58,0-1.09.09-1.54.28-.44.18-.78.44-1.02.76-.24.32-.36.69-.36,1.11,0,.62.25,1.09.75,1.42.5.33,1.13.59,1.9.77l1.4.38c1.17.27,2.16.73,2.97,1.36.81.64,1.22,1.55,1.22,2.73,0,.82-.22,1.56-.65,2.2-.43.64-1.05,1.15-1.86,1.51-.81.36-1.77.55-2.89.55s-2.02-.17-2.82-.52c-.8-.34-1.43-.84-1.88-1.48-.45-.64-.7-1.4-.75-2.28h2.21c.07.76.4,1.34.99,1.75.6.4,1.34.6,2.24.6.61,0,1.16-.1,1.64-.3.48-.2.87-.47,1.14-.83.28-.36.42-.77.43-1.24,0-.58-.24-1.04-.71-1.36-.47-.32-1.15-.6-2.04-.83l-1.73-.46c-2.53-.7-3.79-1.98-3.79-3.85,0-.82.23-1.54.68-2.18.45-.64,1.07-1.13,1.86-1.48.79-.35,1.67-.52,2.64-.52s1.84.17,2.6.52,1.36.82,1.8,1.44c.43.61.66,1.31.68,2.08h-2.15c-.07-.66-.37-1.18-.91-1.56Z" fill="#5b6b8c"/><path d="M377.91,273.66h11.26v1.91h-4.52v12.63h-2.21v-12.63h-4.54v-1.91Z" fill="#5b6b8c"/><path d="M391.42,273.66h5.18c1.1,0,2.02.19,2.77.57s1.32.92,1.7,1.6c.38.69.57,1.48.57,2.38,0,.99-.22,1.84-.67,2.55-.45.71-1.11,1.23-1.98,1.56l3.21,5.87h-2.51l-2.95-5.48h-3.11v5.48h-2.21v-14.53ZM396.38,280.81c1.04,0,1.81-.22,2.3-.66.49-.44.73-1.08.73-1.93s-.25-1.52-.74-1.98-1.26-.69-2.29-.69h-2.75v5.26h2.75Z" fill="#5b6b8c"/><path d="M406.29,288.19h-2.21v-14.53h2.21v14.53Z" fill="#5b6b8c"/><path d="M418.37,276.83c-.35-.44-.79-.77-1.32-1-.53-.23-1.1-.34-1.72-.34-.84,0-1.6.21-2.26.64-.66.42-1.18,1.05-1.56,1.86-.38.82-.56,1.8-.56,2.94s.19,2.13.57,2.95c.38.82.9,1.44,1.56,1.86.66.42,1.41.63,2.25.63.62,0,1.18-.11,1.71-.34.52-.22.96-.55,1.32-.98s.6-.95.73-1.55l2.23.02c-.15.95-.5,1.8-1.05,2.53s-1.24,1.31-2.1,1.73-1.8.62-2.86.62c-1.26,0-2.39-.3-3.38-.9s-1.76-1.47-2.32-2.59-.84-2.45-.84-3.97.28-2.84.84-3.97,1.34-1.99,2.33-2.59,2.11-.9,3.37-.9c1.02,0,1.96.2,2.81.59.85.39,1.55.96,2.11,1.7.56.74.92,1.63,1.08,2.65h-2.23c-.12-.61-.36-1.13-.71-1.57Z" fill="#5b6b8c"/><path d="M422.97,273.66h11.26v1.91h-4.52v12.63h-2.21v-12.63h-4.54v-1.91Z" fill="#5b6b8c"/><path d="M436.48,273.66h2.21v12.63h6.56v1.91h-8.77v-14.53Z" fill="#5b6b8c"/><path d="M447.82,273.66l3.77,6.58h.16l3.79-6.58h2.51l-5.28,8.83v5.7h-2.21v-5.7l-5.26-8.83h2.51Z" fill="#5b6b8c"/><path d="M464.9,273.66h5.18c1.09,0,2.01.2,2.77.61.76.4,1.32.96,1.7,1.67.38.71.57,1.52.57,2.44s-.19,1.72-.57,2.43c-.38.71-.95,1.27-1.7,1.68-.76.41-1.68.61-2.77.61h-2.97v5.1h-2.21v-14.53ZM469.86,281.21c1.02,0,1.79-.26,2.28-.77.5-.51.75-1.2.75-2.06s-.25-1.56-.74-2.07-1.26-.76-2.29-.76h-2.75v5.66h2.75Z" fill="#5b6b8c"/><path d="M477.44,273.66h5.18c1.1,0,2.02.19,2.77.57s1.32.92,1.7,1.6c.38.69.57,1.48.57,2.38,0,.99-.22,1.84-.67,2.55-.45.71-1.11,1.23-1.98,1.56l3.21,5.87h-2.51l-2.95-5.48h-3.11v5.48h-2.21v-14.53ZM482.4,280.81c1.04,0,1.81-.22,2.3-.66.49-.44.73-1.08.73-1.93s-.25-1.52-.74-1.98-1.26-.69-2.29-.69h-2.75v5.26h2.75Z" fill="#5b6b8c"/><path d="M492.32,288.19h-2.21v-14.53h2.21v14.53Z" fill="#5b6b8c"/><path d="M500.59,285.48h.16l4.03-11.82h2.39l-5.24,14.53h-2.55l-5.22-14.53h2.39l4.03,11.82Z" fill="#5b6b8c"/><path d="M506.43,288.19l5.22-14.53h2.55l5.24,14.53h-2.35l-1.33-3.83h-5.66l-1.32,3.83h-2.35ZM515.12,282.51l-2.15-6.2h-.1l-2.14,6.2h4.39Z" fill="#5b6b8c"/><path d="M518.82,273.66h11.26v1.91h-4.52v12.63h-2.21v-12.63h-4.54v-1.91Z" fill="#5b6b8c"/><path d="M532.33,273.66h9.11v1.91h-6.91v4.4h6.42v1.89h-6.42v4.44h6.99v1.91h-9.19v-14.53Z" fill="#5b6b8c"/><path d="M550.74,287.87c-.71-.35-1.26-.83-1.65-1.45-.38-.62-.58-1.31-.58-2.09,0-.56.11-1.06.34-1.51s.54-.87.94-1.24c.4-.38.9-.77,1.52-1.19-.53-.64-.93-1.23-1.19-1.75s-.4-1.09-.4-1.69c0-.66.15-1.26.46-1.78.3-.53.74-.94,1.29-1.23s1.2-.44,1.92-.44,1.37.14,1.91.43c.55.29.96.67,1.26,1.15.29.48.44,1.01.44,1.59,0,.66-.16,1.26-.49,1.79-.32.53-.8,1.02-1.44,1.49l-1,.73,2.91,3.47c.4-.78.6-1.64.6-2.56h1.93c0,.93-.11,1.73-.34,2.41-.22.68-.52,1.25-.88,1.71l2.08,2.48h-2.41l-.98-1.15c-.48.44-1.05.78-1.71,1.01-.67.23-1.35.35-2.04.35-.95,0-1.78-.17-2.49-.52ZM550.99,285.43c.22.35.52.64.91.84.39.21.84.31,1.35.31.44,0,.88-.08,1.31-.25s.84-.4,1.21-.71l-3.25-3.81-.36.27c-.52.38-.9.77-1.14,1.17-.24.4-.36.74-.36,1.02,0,.41.11.8.33,1.15ZM552.03,278.01c.2.36.5.77.88,1.25l.88-.62c.43-.28.75-.57.95-.86s.31-.64.31-1.05c0-.23-.07-.46-.21-.68-.14-.22-.33-.4-.58-.55-.25-.14-.53-.22-.84-.22s-.61.08-.87.24c-.26.16-.46.37-.61.63-.15.26-.22.53-.22.81,0,.33.1.68.3,1.04Z" fill="#5b6b8c"/><path d="M576.1,276.83c-.35-.44-.79-.77-1.32-1-.53-.23-1.1-.34-1.72-.34-.84,0-1.6.21-2.26.64-.66.42-1.18,1.05-1.56,1.86-.38.82-.56,1.8-.56,2.94s.19,2.13.57,2.95c.38.82.9,1.44,1.56,1.86.66.42,1.41.63,2.25.63.62,0,1.18-.11,1.71-.34.52-.22.96-.55,1.32-.98s.6-.95.73-1.55l2.23.02c-.15.95-.5,1.8-1.05,2.53s-1.24,1.31-2.1,1.73-1.8.62-2.86.62c-1.26,0-2.39-.3-3.38-.9s-1.76-1.47-2.32-2.59-.84-2.45-.84-3.97.28-2.84.84-3.97,1.34-1.99,2.33-2.59,2.11-.9,3.37-.9c1.02,0,1.96.2,2.81.59.85.39,1.55.96,2.11,1.7.56.74.92,1.63,1.08,2.65h-2.23c-.12-.61-.36-1.13-.71-1.57Z" fill="#5b6b8c"/><path d="M593.22,284.89c-.56,1.13-1.34,1.99-2.33,2.6s-2.12.91-3.37.91-2.39-.3-3.39-.91-1.77-1.47-2.33-2.6-.84-2.45-.84-3.96.28-2.84.84-3.97,1.34-1.99,2.33-2.59,2.12-.9,3.39-.9,2.37.3,3.37.9,1.77,1.47,2.33,2.59.84,2.45.84,3.97-.28,2.83-.84,3.96ZM591.31,277.97c-.37-.82-.89-1.44-1.55-1.86-.66-.42-1.41-.63-2.24-.63s-1.6.21-2.26.63c-.66.42-1.18,1.04-1.56,1.86-.38.82-.56,1.8-.56,2.95s.19,2.13.56,2.95c.37.82.89,1.44,1.56,1.86.66.42,1.42.63,2.26.63s1.58-.21,2.24-.63c.66-.42,1.18-1.04,1.55-1.86.38-.82.56-1.8.56-2.95s-.19-2.13-.56-2.95Z" fill="#5b6b8c"/><path d="M608.27,288.19h-2.03l-7.37-10.62h-.12v10.62h-2.21v-14.53h2.05l7.37,10.64h.14v-10.64h2.17v14.53Z" fill="#5b6b8c"/><path d="M611.24,273.66h9.01v1.91h-6.81v4.4h6.16v1.89h-6.16v6.34h-2.21v-14.53Z" fill="#5b6b8c"/><path d="M624.93,288.19h-2.21v-14.53h2.21v14.53Z" fill="#5b6b8c"/><path d="M627.88,288.19v-14.53h4.86c1.42,0,2.64.29,3.67.87,1.03.58,1.81,1.41,2.36,2.5s.82,2.38.82,3.88-.28,2.81-.83,3.9c-.55,1.09-1.35,1.93-2.4,2.51-1.05.58-2.3.87-3.76.87h-4.72ZM632.48,286.26c1.63,0,2.85-.46,3.68-1.38.83-.92,1.24-2.25,1.24-3.98s-.41-3.04-1.22-3.95c-.81-.91-2.01-1.37-3.58-1.37h-2.51v10.68h2.39Z" fill="#5b6b8c"/><path d="M642.07,273.66h9.11v1.91h-6.91v4.4h6.42v1.89h-6.42v4.44h6.99v1.91h-9.19v-14.53Z" fill="#5b6b8c"/><path d="M665.62,288.19h-2.03l-7.37-10.62h-.12v10.62h-2.21v-14.53h2.05l7.37,10.64h.14v-10.64h2.17v14.53Z" fill="#5b6b8c"/><path d="M667.87,273.66h11.26v1.91h-4.52v12.63h-2.21v-12.63h-4.54v-1.91Z" fill="#5b6b8c"/><path d="M683.59,288.19h-2.21v-14.53h2.21v14.53Z" fill="#5b6b8c"/><path d="M685.43,288.19l5.22-14.53h2.55l5.24,14.53h-2.35l-1.32-3.83h-5.66l-1.33,3.83h-2.35ZM694.12,282.51l-2.15-6.2h-.1l-2.14,6.2h4.39Z" fill="#5b6b8c"/><path d="M700.29,273.66h2.21v12.63h6.56v1.91h-8.77v-14.53Z" fill="#5b6b8c"/><path d="M716.85,283.06c-.22-.13-.4-.3-.53-.52-.13-.22-.19-.46-.18-.71,0-.25.05-.49.18-.71.13-.22.3-.4.53-.52s.46-.19.72-.19.48.06.7.19.4.3.53.52.2.46.2.71-.06.49-.2.71c-.13.22-.31.39-.53.52-.22.13-.46.19-.7.19s-.49-.06-.72-.19Z" fill="#5b6b8c"/><path d="M728.99,288.19h-2.21v-14.53h2.21v14.53Z" fill="#5b6b8c"/><path d="M743.66,288.19h-2.03l-7.37-10.62h-.12v10.62h-2.21v-14.53h2.05l7.37,10.64h.14v-10.64h2.17v14.53Z" fill="#5b6b8c"/><path d="M751.96,285.48h.16l4.03-11.82h2.39l-5.24,14.53h-2.55l-5.22-14.53h2.39l4.03,11.82Z" fill="#5b6b8c"/><path d="M760.39,273.66h9.11v1.91h-6.91v4.4h6.42v1.89h-6.42v4.44h6.99v1.91h-9.19v-14.53Z" fill="#5b6b8c"/><path d="M779.2,275.93c-.54-.38-1.23-.57-2.08-.57-.58,0-1.09.09-1.54.28-.44.18-.78.44-1.02.76-.24.32-.36.69-.36,1.11,0,.62.25,1.09.75,1.42.5.33,1.13.59,1.9.77l1.41.38c1.17.27,2.16.73,2.97,1.36s1.22,1.55,1.22,2.73c0,.82-.22,1.56-.65,2.2-.43.64-1.05,1.15-1.86,1.51s-1.77.55-2.89.55-2.02-.17-2.81-.52c-.8-.34-1.43-.84-1.88-1.48-.45-.64-.7-1.4-.75-2.28h2.21c.07.76.4,1.34.99,1.75.59.4,1.34.6,2.24.6.61,0,1.16-.1,1.64-.3.48-.2.87-.47,1.14-.83.28-.36.42-.77.43-1.24,0-.58-.24-1.04-.71-1.36-.47-.32-1.15-.6-2.04-.83l-1.73-.46c-2.53-.7-3.79-1.98-3.79-3.85,0-.82.23-1.54.68-2.18.45-.64,1.07-1.13,1.86-1.48.79-.35,1.67-.52,2.64-.52s1.84.17,2.6.52c.76.34,1.36.82,1.8,1.44.44.61.66,1.31.68,2.08h-2.15c-.07-.66-.37-1.18-.91-1.56Z" fill="#5b6b8c"/><path d="M784.11,273.66h11.26v1.91h-4.52v12.63h-2.21v-12.63h-4.54v-1.91Z" fill="#5b6b8c"/><path d="M800.31,273.66l4.6,11.26h.18l4.6-11.26h2.69v14.53h-2.11v-10.5h-.14l-4.26,10.48h-1.75l-4.28-10.5h-.12v10.52h-2.11v-14.53h2.69Z" fill="#5b6b8c"/><path d="M815.35,273.66h9.11v1.91h-6.91v4.4h6.42v1.89h-6.42v4.44h6.99v1.91h-9.19v-14.53Z" fill="#5b6b8c"/><path d="M838.89,288.19h-2.03l-7.37-10.62h-.12v10.62h-2.21v-14.53h2.05l7.37,10.64h.14v-10.64h2.17v14.53Z" fill="#5b6b8c"/><path d="M841.14,273.66h11.26v1.91h-4.52v12.63h-2.21v-12.63h-4.54v-1.91Z" fill="#5b6b8c"/><path d="M862.36,273.66l4.6,11.26h.18l4.6-11.26h2.69v14.53h-2.11v-10.5h-.14l-4.26,10.48h-1.75l-4.28-10.5h-.12v10.52h-2.11v-14.53h2.69Z" fill="#5b6b8c"/><path d="M877.39,273.66h9.11v1.91h-6.91v4.4h6.42v1.89h-6.42v4.44h6.99v1.91h-9.19v-14.53Z" fill="#5b6b8c"/><path d="M891.91,273.66l4.6,11.26h.18l4.6-11.26h2.69v14.53h-2.11v-10.5h-.14l-4.26,10.48h-1.75l-4.28-10.5h-.12v10.52h-2.11v-14.53h2.69Z" fill="#5b6b8c"/><path d="M918.72,284.89c-.56,1.13-1.34,1.99-2.33,2.6-.99.61-2.12.91-3.37.91s-2.39-.3-3.39-.91c-.99-.61-1.77-1.47-2.33-2.6-.56-1.13-.84-2.45-.84-3.96s.28-2.84.84-3.97c.56-1.13,1.34-1.99,2.33-2.59.99-.6,2.12-.9,3.39-.9s2.37.3,3.37.9c.99.6,1.77,1.47,2.33,2.59.56,1.13.84,2.45.84,3.97s-.28,2.83-.84,3.96ZM916.82,277.97c-.38-.82-.89-1.44-1.55-1.86-.66-.42-1.41-.63-2.24-.63s-1.6.21-2.26.63c-.66.42-1.18,1.04-1.56,1.86-.38.82-.56,1.8-.56,2.95s.19,2.13.56,2.95c.37.82.89,1.44,1.56,1.86.66.42,1.42.63,2.26.63s1.58-.21,2.24-.63,1.18-1.04,1.55-1.86c.38-.82.56-1.8.56-2.95s-.19-2.13-.56-2.95Z" fill="#5b6b8c"/><path d="M922.06,273.66h5.18c1.1,0,2.02.19,2.78.57s1.32.92,1.7,1.6c.38.69.57,1.48.57,2.38,0,.99-.22,1.84-.67,2.55-.45.71-1.11,1.23-1.98,1.56l3.21,5.87h-2.51l-2.95-5.48h-3.11v5.48h-2.21v-14.53ZM927.01,280.81c1.04,0,1.81-.22,2.3-.66.49-.44.73-1.08.73-1.93s-.25-1.52-.74-1.98c-.49-.46-1.26-.69-2.29-.69h-2.75v5.26h2.75Z" fill="#5b6b8c"/><path d="M933.62,288.19l5.22-14.53h2.55l5.24,14.53h-2.35l-1.32-3.83h-5.66l-1.33,3.83h-2.35ZM942.31,282.51l-2.15-6.2h-.1l-2.14,6.2h4.39Z" fill="#5b6b8c"/><path d="M960.19,288.19h-2.03l-7.37-10.62h-.12v10.62h-2.21v-14.53h2.05l7.37,10.64h.14v-10.64h2.17v14.53Z" fill="#5b6b8c"/><path d="M963.17,288.19v-14.53h4.86c1.42,0,2.64.29,3.67.87,1.03.58,1.81,1.41,2.36,2.5s.82,2.38.82,3.88-.28,2.81-.83,3.9c-.55,1.09-1.35,1.93-2.4,2.51-1.05.58-2.3.87-3.76.87h-4.72ZM967.76,286.26c1.63,0,2.85-.46,3.68-1.38s1.24-2.25,1.24-3.98-.41-3.04-1.22-3.95c-.81-.91-2-1.37-3.58-1.37h-2.51v10.68h2.39Z" fill="#5b6b8c"/><path d="M988.9,273.66v9.56c0,1.01-.24,1.91-.72,2.7s-1.15,1.41-2.03,1.85c-.87.45-1.88.67-3.02.67s-2.17-.22-3.04-.66c-.88-.44-1.55-1.06-2.03-1.85-.48-.79-.71-1.69-.71-2.7v-9.56h2.21v9.37c0,.66.15,1.24.44,1.75.29.51.71.91,1.25,1.2.54.29,1.17.44,1.89.44s1.34-.15,1.88-.44.95-.69,1.24-1.2c.29-.51.44-1.1.44-1.75v-9.37h2.21Z" fill="#5b6b8c"/><path d="M994.56,273.66l4.6,11.26h.18l4.6-11.26h2.69v14.53h-2.11v-10.5h-.14l-4.26,10.48h-1.75l-4.28-10.5h-.12v10.52h-2.11v-14.53h2.69Z" fill="#5b6b8c"/><path d="M947.92,689.98c-.63-.44-1.44-.66-2.43-.66-.68,0-1.28.11-1.79.32s-.91.51-1.19.89-.42.81-.42,1.29c0,.72.29,1.27.88,1.65s1.32.68,2.21.9l1.64.45c1.37.32,2.52.85,3.47,1.59s1.42,1.8,1.43,3.19c0,.96-.26,1.82-.76,2.57s-1.22,1.34-2.17,1.76-2.07.64-3.38.64-2.35-.2-3.29-.6-1.66-.98-2.19-1.73-.82-1.64-.87-2.66h2.58c.08.89.46,1.57,1.16,2.04s1.57.7,2.61.7c.71,0,1.35-.12,1.92-.35s1.01-.55,1.34-.97.49-.9.5-1.45c0-.68-.29-1.21-.83-1.59s-1.34-.7-2.38-.97l-2.02-.54c-2.95-.81-4.43-2.31-4.43-4.5,0-.95.26-1.8.79-2.54s1.25-1.32,2.17-1.72,1.95-.61,3.08-.61,2.14.2,3.04.6,1.59.96,2.1,1.68.77,1.53.8,2.43h-2.51c-.08-.77-.43-1.38-1.07-1.82Z" fill="#5b6b8c"/><path d="M954.49,687.32h6.05c1.27,0,2.35.24,3.23.71s1.54,1.12,1.99,1.95.66,1.78.66,2.85-.22,2.01-.66,2.84-1.1,1.48-1.99,1.96-1.96.71-3.23.71h-3.47v5.95h-2.58v-16.97ZM960.28,696.14c1.2,0,2.08-.3,2.67-.9s.87-1.4.87-2.41-.29-1.82-.87-2.41-1.47-.89-2.67-.89h-3.21v6.61h3.21Z" fill="#5b6b8c"/><path d="M979.79,691.02c-.41-.51-.93-.9-1.54-1.17s-1.28-.4-2.01-.4c-.98,0-1.86.25-2.64.74s-1.38,1.22-1.82,2.17-.66,2.1-.66,3.43.22,2.48.66,3.44,1.05,1.68,1.82,2.17,1.65.74,2.63.74c.72,0,1.38-.13,1.99-.39s1.12-.64,1.54-1.15.7-1.11.85-1.81l2.6.02c-.18,1.11-.59,2.1-1.22,2.96s-1.45,1.54-2.45,2.02-2.11.72-3.33.72c-1.48,0-2.79-.35-3.95-1.05s-2.06-1.71-2.71-3.03-.98-2.86-.98-4.63.33-3.32.98-4.63,1.56-2.33,2.72-3.03,2.47-1.05,3.94-1.05c1.2,0,2.29.23,3.28.69s1.81,1.12,2.46,1.99,1.07,1.9,1.27,3.09h-2.6c-.14-.71-.42-1.32-.83-1.83Z" fill="#5b6b8c"/><path d="M999.23,686.73c.76.33,1.39.79,1.89,1.39s.82,1.29.98,2.07h4.1v-4.9h2.23v11.27h-2.23v-4.55h-4.09c-.15.8-.47,1.5-.97,2.11s-1.12,1.08-1.89,1.42-1.6.5-2.53.5c-1.06,0-2.01-.21-2.85-.63s-1.49-1-1.96-1.75-.7-1.6-.7-2.55.24-1.79.71-2.53,1.13-1.32,1.96-1.73,1.78-.62,2.84-.61c.91,0,1.74.15,2.5.48ZM994.98,688.48c-.51.25-.91.61-1.2,1.07s-.43.98-.43,1.58.14,1.12.43,1.58.68.82,1.2,1.08,1.1.39,1.75.39,1.21-.13,1.72-.39.9-.62,1.18-1.08.43-.99.43-1.58-.14-1.12-.42-1.58-.68-.81-1.18-1.07-1.08-.38-1.72-.38-1.24.13-1.75.38ZM996.94,700h9.26v-2.44h2.23v8.46h-13.69v-8.46h2.2v2.44ZM1006.2,704.2v-2.44h-9.26v2.44h9.26Z" fill="#5b6b8c"/><path d="M1030.85,699.14h-8.58v7.12h-2.18v-7.12h-8.46v-1.8h19.22v1.8ZM1028.44,694.66h-14.39v-8.25h14.39v8.25ZM1016.23,692.93h9.98v-4.73h-9.98v4.73Z" fill="#5b6b8c"/><path d="M1051.55,698.81h-8.53v7.48h-2.18v-7.48h-8.44v-1.83h19.15v1.83ZM1044.16,689.78c.68.85,1.59,1.57,2.75,2.16s2.41.97,3.77,1.15l-.87,1.83c-1.14-.18-2.22-.49-3.25-.94s-1.93-1-2.72-1.65-1.41-1.39-1.85-2.2c-.45.81-1.07,1.55-1.86,2.2s-1.69,1.21-2.7,1.65-2.09.76-3.23.94l-.89-1.83c1.36-.18,2.61-.56,3.76-1.15s2.06-1.3,2.74-2.15,1.02-1.73,1.03-2.65v-1.15h2.32v1.15c0,.91.33,1.79,1,2.64Z" fill="#5b6b8c"/><path d="M1063.81,688.5h-7.52v2.41h7.12v1.73h-7.12v2.53c2.03,0,3.69-.05,4.97-.13s2.57-.23,3.86-.46l.23,1.78c-1.3.22-2.6.37-3.9.46s-2.88.13-4.78.13h-2.62v-10.27h9.75v1.8ZM1069.64,706.28h-2.23v-5.51h-11.65v-1.8h13.88v7.31ZM1069.64,690.72h3.05v1.88h-3.05v5.41h-2.23v-12.73h2.23v5.44Z" fill="#5b6b8c"/><path d="M1098.94,698.97h-4.88v7.31h-2.25v-7.31h-5.02v7.31h-2.3v-7.31h-4.78v-1.83h19.22v1.83ZM1093.18,686.65c1.13.38,2.01.92,2.64,1.62s.94,1.52.94,2.45-.31,1.72-.94,2.41-1.51,1.22-2.64,1.59-2.43.55-3.9.54c-1.48,0-2.78-.17-3.91-.54s-2.01-.9-2.63-1.59-.94-1.49-.94-2.41.31-1.75.94-2.45,1.5-1.24,2.63-1.62,2.43-.57,3.91-.57,2.77.19,3.9.57ZM1086.55,688.23c-.78.23-1.39.56-1.82.99s-.64.93-.63,1.51c0,.56.2,1.05.63,1.48s1.04.75,1.82.97,1.69.34,2.72.34,1.94-.11,2.72-.34,1.39-.55,1.83-.97.65-.91.65-1.48-.21-1.08-.64-1.51-1.04-.76-1.82-.99-1.7-.35-2.74-.36c-1.04,0-1.95.13-2.73.36Z" fill="#999"/><path d="M1109.23,687.38c.85.45,1.52,1.06,2.01,1.86s.74,1.69.75,2.7c0,1-.26,1.9-.75,2.69s-1.16,1.41-2.01,1.86-1.79.67-2.84.67-2-.22-2.85-.67-1.52-1.07-2.01-1.86-.73-1.69-.72-2.69c0-1.01.23-1.91.72-2.7s1.16-1.41,2.01-1.86,1.8-.67,2.85-.67,1.99.22,2.84.67ZM1104.65,689.08c-.52.28-.93.67-1.22,1.17s-.44,1.07-.43,1.7c0,.63.14,1.2.43,1.7s.71.89,1.22,1.17,1.1.42,1.74.42,1.22-.14,1.75-.42.93-.67,1.23-1.17.45-1.07.45-1.7-.15-1.2-.45-1.7-.71-.89-1.23-1.17-1.11-.42-1.75-.42-1.22.14-1.74.42ZM1117.88,705.84h-14.2v-6.75h2.23v4.95h11.98v1.8ZM1116.99,691.54h3.05v1.88h-3.05v7.29h-2.23v-15.45h2.23v6.28Z" fill="#999"/><path d="M1132.01,688.96h-7.64v4.05h7.22v1.78h-7.22v4.71c1.82,0,3.43-.06,4.83-.15s2.84-.26,4.31-.5l.21,1.8c-1.53.26-3.05.43-4.55.52s-3.29.13-5.37.13h-1.69v-14.18h9.89v1.83ZM1137.59,693.56h3.38v1.88h-3.38v10.85h-2.23v-21h2.23v8.27Z" fill="#999"/><path d="M1161.12,696.98h-19.15v-1.8h19.15v1.8ZM1159.41,688.14h-6.39c.09.67.45,1.3,1.08,1.89s1.48,1.08,2.53,1.48,2.22.67,3.5.8l-.8,1.76c-1.21-.14-2.34-.4-3.38-.78s-1.95-.86-2.71-1.44-1.33-1.23-1.71-1.96c-.38.73-.96,1.38-1.72,1.96s-1.66,1.06-2.7,1.44-2.16.64-3.38.78l-.77-1.76c1.26-.13,2.41-.4,3.46-.8s1.89-.89,2.53-1.48,1-1.22,1.08-1.89h-6.32v-1.83h15.68v1.83ZM1155.41,699.05c1.09.3,1.92.74,2.5,1.32s.87,1.27.87,2.07-.29,1.49-.87,2.06-1.41,1-2.5,1.3-2.38.44-3.88.43c-1.51,0-2.81-.14-3.9-.43s-1.93-.73-2.51-1.3-.87-1.26-.87-2.06.29-1.5.87-2.07,1.42-1.02,2.51-1.32,2.39-.45,3.9-.45,2.79.15,3.88.45ZM1147.8,700.89c-.87.36-1.31.88-1.31,1.55s.44,1.17,1.31,1.52,2.12.52,3.73.52,2.83-.17,3.7-.52,1.31-.85,1.31-1.52-.44-1.19-1.31-1.55-2.11-.55-3.71-.56c-1.62.02-2.86.2-3.73.56Z" fill="#999"/><path d="M1171.74,693.23c.29-1.74.44-3.39.46-4.95h-7.72v-1.8h9.96v.82c0,.89-.03,1.78-.08,2.67s-.17,1.92-.37,3.08c1-.11,1.76-.2,2.27-.27l.16,1.62c-1.62.28-3.55.5-5.77.67v4.72h-2.23v-4.61c-1.72.07-3.57.11-5.55.11l-.3-1.8c3.72-.02,6.77-.1,9.16-.26ZM1180.81,705.84h-15.16v-6.4h2.23v4.59h12.94v1.8ZM1180.29,701.15h-2.25v-2.74h-4.45v-1.78h4.45v-11.32h2.25v15.84Z" fill="#999"/><path d="M1197.57,691.47c.42.93,1.02,1.75,1.8,2.46s1.7,1.25,2.77,1.62l-1.15,1.78c-1.2-.45-2.24-1.1-3.12-1.95s-1.56-1.86-2.03-3.02c-.47,1.23-1.15,2.32-2.04,3.25s-1.95,1.63-3.16,2.1l-1.2-1.76c1.08-.4,2.01-.98,2.81-1.73s1.4-1.63,1.82-2.61.63-2,.63-3.06v-2.09h2.27v2.09c0,1.02.2,2,.62,2.93ZM1207.36,705.84h-14.37v-6.61h2.25v4.8h12.12v1.8ZM1206.73,700.68h-2.23v-15.38h2.23v15.38Z" fill="#999"/><path d="M1220.72,688.5h-7.52v2.41h7.12v1.73h-7.12v2.53c2.03,0,3.69-.05,4.97-.13s2.57-.23,3.86-.46l.23,1.78c-1.3.22-2.6.37-3.9.46s-2.88.13-4.78.13h-2.62v-10.27h9.75v1.8ZM1226.56,706.28h-2.23v-5.51h-11.65v-1.8h13.88v7.31ZM1226.56,690.72h3.05v1.88h-3.05v5.41h-2.23v-12.73h2.23v5.44Z" fill="#999"/><path d="M1242.1,688.36h-7.85v2.3h7.27v1.73h-7.27v2.44c2.29,0,4.11-.04,5.46-.11s2.7-.22,4.03-.46l.23,1.78c-1.29.23-2.59.38-3.89.45s-2.96.11-4.97.11h-3.12v-10.08h10.1v1.83ZM1248.21,706.03h-13.8v-7.24h13.8v7.24ZM1236.61,704.22h9.42v-3.7h-9.42v3.7ZM1248.21,697.8h-2.23v-12.49h2.23v12.49Z" fill="#999"/><path d="M860.87,716.18c.85.45,1.52,1.06,2,1.85s.73,1.68.73,2.68-.24,1.92-.73,2.71-1.16,1.41-2,1.85-1.79.66-2.84.66-2-.22-2.85-.66-1.52-1.06-2.02-1.86-.74-1.7-.74-2.71.25-1.89.74-2.68,1.16-1.41,2.02-1.85,1.8-.67,2.85-.67,1.99.22,2.84.67ZM856.27,717.88c-.52.28-.93.66-1.22,1.15s-.45,1.05-.45,1.69.15,1.22.44,1.72.7.88,1.22,1.15,1.11.41,1.76.41,1.22-.14,1.73-.41.92-.66,1.22-1.16.45-1.07.45-1.71-.15-1.19-.45-1.68-.71-.88-1.22-1.16-1.1-.42-1.73-.42-1.23.14-1.75.42ZM870.05,734.64h-14.37v-6.82h2.25v5.02h12.12v1.8ZM869.42,729.37h-2.23v-15.26h2.23v15.26Z" fill="#5b6b8c"/><path d="M891.96,732.46h-19.22v-1.88h19.22v1.88ZM890.21,717.93h-3.21v7.01h3.14v1.78h-15.7v-1.78h3.14v-7.01h-3.19v-1.83h15.82v1.83ZM884.81,724.94v-7.01h-5.04v7.01h5.04Z" fill="#5b6b8c"/><path d="M903.92,723.7h-7.36v4.55c1.95,0,3.63-.06,5.04-.16s2.85-.28,4.31-.54l.21,1.8c-1.55.29-3.09.49-4.6.59s-3.33.17-5.46.18h-1.71v-8.23h7.36v-4.1h-7.41v-1.8h9.61v7.71ZM909.85,722.29h3.38v1.88h-3.38v10.97h-2.2v-21.05h2.2v8.2Z" fill="#5b6b8c"/><path d="M939.28,726.41h-8.32v4.08h-2.25v-4.08h-8.65v-1.8h19.22v1.8ZM933.58,715.1c1.12.35,1.99.84,2.6,1.48s.92,1.39.92,2.26-.31,1.62-.92,2.26-1.48,1.13-2.6,1.47-2.43.52-3.93.52-2.8-.17-3.93-.52-2-.83-2.62-1.47-.93-1.39-.93-2.26.31-1.62.93-2.26,1.49-1.13,2.62-1.48,2.44-.52,3.93-.52,2.81.17,3.93.52ZM937.15,734.64h-14.67v-6.16h2.23v4.34h12.45v1.83ZM926.96,716.66c-.77.2-1.36.49-1.78.86s-.62.82-.62,1.32c0,.5.2.93.62,1.3s1.01.65,1.78.84,1.67.29,2.69.29,1.93-.1,2.7-.29,1.36-.48,1.78-.84.63-.8.63-1.3-.21-.95-.63-1.32-1.01-.66-1.79-.86-1.67-.3-2.7-.3-1.92.1-2.69.3Z" fill="#5b6b8c"/><path d="M949.02,715.76c.73.3,1.35.73,1.85,1.28h5.25v-2.95h2.23v12.4h-2.23v-2.84h-5.27c-.49.55-1.1.97-1.82,1.27s-1.51.45-2.37.44c-1.04,0-1.98-.2-2.82-.63s-1.5-1.03-1.97-1.79-.71-1.63-.71-2.59.24-1.82.71-2.59,1.12-1.37,1.96-1.8,1.76-.65,2.79-.65c.88,0,1.69.15,2.42.45ZM944.9,717.6c-.51.26-.91.62-1.2,1.1s-.43,1.02-.43,1.64.14,1.14.43,1.62.69.85,1.2,1.11,1.09.39,1.74.39c.63,0,1.2-.12,1.71-.39s.9-.64,1.19-1.11.43-1.02.43-1.62-.14-1.16-.43-1.63-.68-.84-1.19-1.1-1.08-.39-1.71-.38c-.65,0-1.23.12-1.74.38ZM955.09,727.43c1.07.32,1.89.78,2.46,1.39s.86,1.33.86,2.19-.29,1.57-.86,2.18-1.4,1.07-2.47,1.39-2.33.47-3.77.46c-1.45,0-2.71-.15-3.79-.46s-1.89-.78-2.47-1.39-.86-1.34-.85-2.18c0-.85.28-1.58.85-2.19s1.39-1.07,2.46-1.39,2.33-.48,3.79-.48,2.71.16,3.78.48ZM947.68,729.28c-.87.41-1.3.99-1.29,1.73,0,.72.42,1.28,1.29,1.68s2.08.6,3.63.6,2.76-.2,3.63-.59,1.29-.96,1.29-1.68-.43-1.33-1.29-1.73-2.07-.61-3.63-.61-2.76.21-3.63.62ZM952.1,720.34c0,.5-.07.99-.22,1.48h4.23v-3h-4.24c.16.48.23.99.23,1.52Z" fill="#5b6b8c"/><path d="M968.98,727.11c-.26-.15-.47-.35-.62-.61s-.22-.54-.21-.83c0-.3.06-.57.21-.83s.35-.46.62-.61.54-.22.84-.22.56.07.82.22.46.35.62.61.23.54.23.83-.08.57-.23.83-.36.46-.62.61-.53.22-.82.22-.58-.07-.84-.22Z" fill="#5b6b8c"/><path d="M987.61,723.62c.45,1.13,1.09,2.16,1.9,3.07s1.74,1.62,2.78,2.11l-1.27,1.73c-1.16-.56-2.19-1.39-3.09-2.5s-1.6-2.35-2.08-3.75c-.48,1.52-1.2,2.88-2.14,4.08s-2.01,2.11-3.19,2.7l-1.31-1.76c1.04-.5,1.98-1.23,2.82-2.2s1.5-2.06,1.97-3.26.71-2.4.71-3.58v-2.23h-4.73v-1.85h11.51v1.85h-4.57v2.23c0,1.1.23,2.22.68,3.35ZM995.98,722.41h3.38v1.88h-3.38v10.8h-2.23v-21h2.23v8.32Z" fill="#5b6b8c"/><path d="M1008.28,720.64c.42.87,1.02,1.63,1.79,2.3s1.69,1.18,2.74,1.53l-1.15,1.76c-1.16-.41-2.18-1.02-3.04-1.82s-1.53-1.73-2-2.8c-.46,1.19-1.13,2.22-2.02,3.11s-1.94,1.55-3.16,2l-1.24-1.76c1.09-.38,2.04-.92,2.82-1.63s1.39-1.54,1.8-2.48.62-1.94.62-2.98v-2.48h2.2v2.55c0,.94.21,1.84.63,2.71ZM1017.78,734.64h-14.2v-6.59h2.27v4.78h11.93v1.8ZM1016.86,720.39h3.05v1.9h-3.05v7.27h-2.23v-15.49h2.23v6.33Z" fill="#5b6b8c"/><path d="M1027.43,724.74c2.55-.09,4.78-.28,6.68-.55l.14,1.62c-1.94.34-3.97.57-6.09.68s-4.46.17-7.01.19l-.21-1.8h.26l4.03-.06v-4.42h2.2v4.35ZM1032.8,716.85v.28c-.02,1.05-.05,2.03-.12,2.92s-.2,1.89-.42,3.01l-2.2-.21c.2-1.05.34-1.99.42-2.82s.12-1.67.13-2.53h-8.4v-1.83h10.59v1.17ZM1038.4,734.64h-14.27v-6.21h2.23v4.41h12.05v1.8ZM1037.72,720.77h2.88v1.88h-2.88v7.22h-2.27v-15.77h2.27v6.68Z" fill="#5b6b8c"/><path d="M1052.86,723.65h-7.55v4.59c1.84,0,3.54-.07,5.08-.18s3.15-.3,4.81-.57l.21,1.83c-1.75.3-3.45.5-5.09.61s-3.48.16-5.5.16h-1.78v-8.23h7.55v-4.08h-7.57v-1.8h9.84v7.66ZM1059.28,735.13h-2.23v-21.05h2.23v21.05Z" fill="#5b6b8c"/><path d="M1073.18,715.4h2.3c-.55.79-1.06,1.8-1.55,3.04s-.88,2.58-1.17,4.02-.45,2.83-.45,4.17.15,2.74.45,4.18.69,2.78,1.17,4.02,1,2.26,1.55,3.05h-2.3c-2.29-3.27-3.45-7.02-3.47-11.25.02-4.22,1.18-7.96,3.47-11.23Z" fill="#b3b3b3"/><path d="M1096.17,727.73h-8.53v7.34h-2.18v-7.34h-8.44v-1.8h19.15v1.8ZM1094.37,717.11h-6.49c0,.85.34,1.66.99,2.43s1.53,1.42,2.63,1.96,2.31.89,3.62,1.07l-.82,1.76c-1.15-.18-2.23-.48-3.25-.91s-1.91-.96-2.67-1.59-1.36-1.35-1.78-2.14c-.63,1.19-1.63,2.19-3.01,3.01s-2.92,1.36-4.65,1.63l-.84-1.76c1.3-.18,2.49-.54,3.59-1.07s1.97-1.19,2.63-1.96,1-1.58,1.02-2.43h-6.54v-1.78h15.56v1.78Z" fill="#b3b3b3"/><path d="M1100.06,737.87h-2.3c.55-.8,1.06-1.81,1.55-3.05s.88-2.58,1.17-4.02.45-2.83.45-4.18-.15-2.72-.45-4.17-.69-2.78-1.17-4.02-1-2.25-1.55-3.04h2.3c2.29,3.27,3.45,7.01,3.47,11.23-.02,4.23-1.18,7.98-3.47,11.25Z" fill="#b3b3b3"/><path d="M1117.01,723.06h8.48v1.78h-19.15v-1.78h8.46v-2.6h2.2v2.6ZM1118.01,717.24c.65.7,1.53,1.29,2.65,1.76s2.37.78,3.76.93l-.77,1.71c-1.77-.24-3.35-.71-4.72-1.39s-2.38-1.56-3.04-2.62c-.66,1.05-1.67,1.93-3.04,2.61s-2.93,1.15-4.7,1.39l-.8-1.71c1.39-.15,2.65-.46,3.77-.93s2.01-1.05,2.67-1.76.98-1.47.99-2.31v-.68h2.25v.68c0,.84.32,1.61.97,2.31ZM1123.08,731.36h-12.23v1.8h12.82v1.71h-15v-5.13h12.21v-1.66h-12.23v-1.71h14.44v4.99Z" fill="#b3b3b3"/><path d="M1137.52,723.7h-7.36v4.55c1.95,0,3.63-.06,5.04-.16s2.85-.28,4.31-.54l.21,1.8c-1.55.29-3.09.49-4.6.59s-3.33.17-5.46.18h-1.71v-8.23h7.36v-4.1h-7.41v-1.8h9.61v7.71ZM1143.45,722.29h3.38v1.88h-3.38v10.97h-2.2v-21.05h2.2v8.2Z" fill="#b3b3b3"/><path d="M1158.85,723.65h-7.55v4.59c1.84,0,3.54-.07,5.08-.18s3.15-.3,4.81-.57l.21,1.83c-1.75.3-3.45.5-5.09.61s-3.48.16-5.5.16h-1.78v-8.23h7.55v-4.08h-7.57v-1.8h9.84v7.66ZM1165.27,735.13h-2.23v-21.05h2.23v21.05Z" fill="#b3b3b3"/><path d="M1187.79,732.32h-19.22v-1.85h19.22v1.85ZM1180.31,720.3c.71,1.05,1.66,1.94,2.84,2.68s2.44,1.23,3.77,1.47l-1.03,1.85c-1.12-.24-2.19-.64-3.21-1.2s-1.94-1.23-2.74-2.03-1.42-1.69-1.87-2.65c-.45.96-1.08,1.84-1.87,2.64s-1.7,1.48-2.72,2.03-2.1.96-3.22,1.21l-.98-1.85c1.32-.25,2.57-.74,3.74-1.48s2.11-1.63,2.82-2.67,1.06-2.12,1.06-3.23v-1.59h2.34v1.59c0,1.11.36,2.19,1.07,3.23Z" fill="#b3b3b3"/><path d="M1202.88,716.06c1.18.46,2.1,1.12,2.76,1.96s1,1.81,1,2.91c0,1.03-.28,1.95-.84,2.75s-1.34,1.44-2.34,1.92-2.16.78-3.47.88v4.12h8.55v1.85h-19.22v-1.85h8.46v-4.12c-1.3-.11-2.46-.4-3.46-.88s-1.78-1.12-2.34-1.92-.84-1.72-.84-2.75c0-1.1.33-2.07,1-2.91s1.58-1.49,2.75-1.96,2.5-.7,3.98-.71c1.49,0,2.83.24,4,.71ZM1196,717.63c-.85.31-1.51.75-1.99,1.32s-.71,1.23-.71,1.97.24,1.45.71,2.03,1.14,1.02,1.98,1.34,1.8.47,2.88.48c1.09,0,2.05-.17,2.9-.48s1.51-.76,1.99-1.34.71-1.25.71-2.03-.24-1.4-.71-1.97-1.14-1.02-1.99-1.32-1.82-.46-2.89-.45c-1.07,0-2.03.14-2.88.45Z" fill="#b3b3b3"/><path d="M1222.53,718.07h-2.18v9.76c1.22-.09,2.29-.19,3.21-.29l.12,1.64c-2.02.32-4.1.53-6.26.64s-4.54.17-7.15.18l-.26-1.85,2.77-.02v-10.05h-2.2v-1.83h11.95v1.83ZM1218.17,727.96v-9.89h-3.23v10.01c1.2-.02,2.27-.06,3.23-.12ZM1227.52,735.09h-2.25v-21h2.25v21Z" fill="#b3b3b3"/><path d="M1249.97,725.5h-8.51v2.25h6.19v7.05h-14.55v-7.05h6.16v-2.25h-8.46v-1.83h19.17v1.83ZM1247.81,721.89h-14.62v-6.98h14.41v1.8h-12.19v3.4h12.4v1.78ZM1235.3,733.02h10.17v-3.52h-10.17v3.52Z" fill="#b3b3b3"/><path d="M470.11,517.79l5.37,13.15h.21l5.37-13.15h3.14v16.97h-2.46v-12.26h-.16l-4.97,12.23h-2.04l-4.99-12.26h-.14v12.28h-2.46v-16.97h3.14Z" fill="#5b6b8c"/><path d="M488.2,528.35c.89-.56,2.03-.89,3.42-1,.53-.04,1.11-.08,1.74-.11s1.16-.06,1.6-.08v-1.01c-.01-.73-.23-1.29-.67-1.68s-1.08-.59-1.92-.59c-.71,0-1.29.15-1.75.44s-.75.69-.88,1.18h-2.48c.08-.7.34-1.33.79-1.88s1.05-.98,1.81-1.29,1.63-.46,2.61-.46c.8,0,1.58.12,2.33.38s1.38.7,1.89,1.36.77,1.55.77,2.7v8.46h-2.44v-1.73h-.09c-.29.56-.75,1.04-1.38,1.43s-1.43.59-2.4.59c-.81,0-1.54-.15-2.19-.46s-1.16-.75-1.54-1.33-.56-1.28-.56-2.08c0-1.32.45-2.26,1.34-2.82ZM489.96,532.57c.44.32,1.03.48,1.75.48.66,0,1.23-.13,1.72-.39s.87-.61,1.14-1.05.4-.92.4-1.44v-1.16s-3,.2-3,.2c-.85.06-1.51.26-1.97.58s-.7.79-.7,1.41.22,1.05.66,1.37Z" fill="#5b6b8c"/><path d="M506.84,524.28c-.41-.29-.95-.44-1.62-.44-.47,0-.89.08-1.27.23s-.67.36-.87.62-.31.55-.3.87c-.02.38.14.71.46.97s.83.48,1.53.64l2.02.47c1.17.26,2.04.67,2.61,1.24s.86,1.3.88,2.21c0,.77-.22,1.45-.64,2.04s-1.02,1.06-1.8,1.39-1.7.5-2.77.5c-1.52,0-2.72-.32-3.61-.97s-1.41-1.57-1.57-2.75h2.55c.21,1.14,1.08,1.71,2.6,1.71.81,0,1.46-.15,1.94-.46s.72-.73.73-1.27c-.02-.41-.18-.76-.5-1.03s-.81-.48-1.47-.63l-1.99-.42c-1.15-.26-2.02-.68-2.61-1.28s-.88-1.33-.88-2.21c0-.75.21-1.41.62-1.99s.99-1.03,1.73-1.35,1.6-.48,2.58-.48,1.74.15,2.44.45,1.25.72,1.66,1.27.66,1.18.74,1.91h-2.41c-.12-.52-.38-.93-.79-1.22Z" fill="#5b6b8c"/><path d="M518.67,524.02h-2.6v6.98c0,.65.13,1.09.4,1.33s.64.37,1.12.38c.22,0,.56-.02,1.03-.05.05-.02.12-.02.23-.02v2.18c-.47.06-.99.09-1.57.09-.68,0-1.3-.12-1.86-.38s-1.01-.63-1.35-1.14-.5-1.14-.49-1.88v-7.5h-1.88v-1.99h1.88v-3.05h2.48v3.05h2.6v1.99Z" fill="#5b6b8c"/><path d="M523.25,534.21c-.91-.54-1.61-1.3-2.1-2.29s-.73-2.13-.73-3.45.24-2.45.73-3.45,1.18-1.78,2.07-2.33,1.92-.83,3.08-.83c1.02,0,1.96.22,2.81.67s1.54,1.15,2.06,2.1.78,2.17.78,3.63v.89h-9.05c.02.79.19,1.47.49,2.04s.72,1.01,1.25,1.31,1.15.45,1.85.45,1.25-.13,1.72-.38.82-.59,1.04-1h2.53c-.19.69-.52,1.29-1.01,1.81s-1.1.92-1.83,1.21-1.56.43-2.48.43c-1.23,0-2.31-.27-3.22-.81ZM529.49,527.28c0-.65-.13-1.23-.39-1.73s-.63-.9-1.11-1.19-1.03-.43-1.66-.43-1.22.15-1.73.45-.9.71-1.19,1.22-.45,1.07-.49,1.68h6.57Z" fill="#5b6b8c"/><path d="M534.43,522.03h2.41v2.02h.14c.23-.68.64-1.22,1.23-1.61s1.25-.59,2-.59c.36,0,.71.02,1.05.05v2.39c-.14-.03-.34-.06-.59-.09s-.49-.05-.72-.05c-.57,0-1.09.12-1.55.37s-.82.59-1.08,1.02-.39.92-.39,1.47v7.76h-2.51v-12.73Z" fill="#5b6b8c"/><path d="M549.22,517.79h10.52v2.23h-7.95v5.13h7.2v2.2h-7.2v7.41h-2.58v-16.97Z" fill="#5b6b8c"/><path d="M563.11,528.35c.89-.56,2.03-.89,3.42-1,.53-.04,1.11-.08,1.74-.11s1.16-.06,1.6-.08v-1.01c-.01-.73-.23-1.29-.67-1.68s-1.08-.59-1.92-.59c-.71,0-1.29.15-1.75.44s-.75.69-.88,1.18h-2.48c.08-.7.34-1.33.79-1.88s1.05-.98,1.81-1.29,1.63-.46,2.61-.46c.8,0,1.58.12,2.33.38s1.38.7,1.89,1.36.77,1.55.77,2.7v8.46h-2.44v-1.73h-.09c-.29.56-.75,1.04-1.38,1.43s-1.43.59-2.4.59c-.81,0-1.54-.15-2.19-.46s-1.16-.75-1.54-1.33-.56-1.28-.56-2.08c0-1.32.45-2.26,1.34-2.82ZM564.87,532.57c.44.32,1.03.48,1.75.48.66,0,1.23-.13,1.72-.39s.87-.61,1.14-1.05.4-.92.4-1.44v-1.16s-3,.2-3,.2c-.85.06-1.51.26-1.97.58s-.7.79-.7,1.41.22,1.05.66,1.37Z" fill="#5b6b8c"/><path d="M577.62,534.18c-.9-.56-1.59-1.33-2.07-2.33s-.72-2.12-.72-3.4.24-2.43.73-3.43,1.18-1.77,2.07-2.33,1.93-.83,3.11-.83c.96,0,1.82.18,2.59.53s1.38.86,1.85,1.51.75,1.4.83,2.25h-2.44c-.14-.63-.45-1.16-.94-1.58s-1.1-.63-1.85-.63c-.69,0-1.29.18-1.81.54s-.92.87-1.21,1.54-.43,1.45-.43,2.35.14,1.72.43,2.4.69,1.2,1.2,1.56,1.12.54,1.82.54,1.32-.19,1.82-.57.82-.91.97-1.59h2.44c-.09.83-.37,1.57-.81,2.21s-1.05,1.16-1.81,1.52-1.62.55-2.6.55c-1.21,0-2.27-.28-3.16-.84Z" fill="#5b6b8c"/><path d="M588.85,519.86c-.25-.13-.44-.31-.59-.54s-.22-.47-.22-.74.07-.51.22-.74.34-.41.59-.54.51-.2.79-.2.54.07.78.2.43.31.57.54.22.47.22.74-.07.51-.22.74-.34.41-.57.54-.5.2-.78.2-.54-.07-.79-.2ZM588.37,522.03h2.51v12.73h-2.51v-12.73Z" fill="#5b6b8c"/><path d="M596.44,534.76h-2.51v-16.97h2.51v16.97Z" fill="#5b6b8c"/><path d="M599.96,519.86c-.25-.13-.44-.31-.59-.54s-.22-.47-.22-.74.07-.51.22-.74.34-.41.59-.54.51-.2.79-.2.54.07.78.2.43.31.57.54.22.47.22.74-.07.51-.22.74-.34.41-.57.54-.5.2-.78.2-.54-.07-.79-.2ZM599.48,522.03h2.51v12.73h-2.51v-12.73Z" fill="#5b6b8c"/><path d="M610.99,524.02h-2.6v6.98c0,.65.13,1.09.4,1.33s.64.37,1.12.38c.22,0,.56-.02,1.03-.05.05-.02.12-.02.23-.02v2.18c-.47.06-.99.09-1.57.09-.68,0-1.3-.12-1.86-.38s-1.01-.63-1.35-1.14-.5-1.14-.49-1.88v-7.5h-1.88v-1.99h1.88v-3.05h2.48v3.05h2.6v1.99Z" fill="#5b6b8c"/><path d="M613.64,539.47v-2.09c.38.03.75.05,1.12.05.32,0,.59-.03.8-.09s.42-.21.63-.46.4-.61.59-1.11l.3-.84-4.66-12.89h2.67l3.21,9.87h.14l3.21-9.87h2.7l-5.25,14.41c-.37,1.02-.89,1.79-1.56,2.31s-1.53.78-2.56.78c-.56,0-1.01-.02-1.34-.07Z" fill="#5b6b8c"/><path d="M634.28,534.38c-.83-.41-1.47-.97-1.92-1.69s-.67-1.53-.67-2.44c0-.65.13-1.24.4-1.76s.63-1.01,1.1-1.45,1.06-.9,1.78-1.39c-.62-.75-1.08-1.43-1.39-2.04s-.47-1.27-.47-1.97c0-.77.18-1.47.53-2.08s.86-1.09,1.51-1.44,1.4-.52,2.24-.52,1.6.17,2.23.5,1.13.79,1.47,1.35.52,1.18.52,1.85c0,.77-.19,1.47-.57,2.09s-.94,1.2-1.68,1.73l-1.17.86,3.4,4.05c.47-.91.7-1.91.7-2.99h2.25c0,1.09-.13,2.03-.39,2.82s-.6,1.46-1.03,2l2.43,2.89h-2.81l-1.15-1.35c-.55.52-1.22.91-2,1.18s-1.57.4-2.38.4c-1.11,0-2.08-.2-2.91-.61ZM634.57,531.54c.25.41.61.74,1.07.98s.98.36,1.58.36c.52,0,1.03-.1,1.54-.29s.98-.47,1.42-.83l-3.8-4.45-.42.32c-.61.45-1.05.9-1.34,1.37s-.42.86-.42,1.19c0,.48.13.93.38,1.35ZM635.79,522.87c.23.42.58.9,1.03,1.46l1.03-.73c.5-.33.87-.66,1.11-1s.36-.75.36-1.22c0-.27-.08-.54-.24-.8s-.38-.47-.67-.64-.62-.25-.98-.25-.71.09-1.02.28-.54.43-.71.74-.26.62-.26.95c0,.39.12.79.35,1.21Z" fill="#5b6b8c"/><path d="M653.25,517.79h6.05c1.27,0,2.35.24,3.23.71s1.54,1.12,1.99,1.95.66,1.78.66,2.85-.22,2.01-.66,2.84-1.1,1.48-1.99,1.96-1.96.71-3.23.71h-3.47v5.95h-2.58v-16.97ZM659.04,526.6c1.2,0,2.08-.3,2.67-.9s.87-1.4.87-2.41-.29-1.82-.87-2.41-1.47-.89-2.67-.89h-3.21v6.61h3.21Z" fill="#5b6b8c"/><path d="M667.69,522.03h2.41v2.02h.14c.23-.68.64-1.22,1.23-1.61s1.25-.59,2-.59c.36,0,.71.02,1.05.05v2.39c-.14-.03-.34-.06-.59-.09s-.49-.05-.72-.05c-.57,0-1.09.12-1.55.37s-.82.59-1.08,1.02-.39.92-.39,1.47v7.76h-2.51v-12.73Z" fill="#5b6b8c"/><path d="M678.26,534.2c-.9-.55-1.59-1.31-2.09-2.3s-.74-2.13-.74-3.44.25-2.46.74-3.46,1.19-1.76,2.09-2.31,1.94-.82,3.13-.82,2.22.27,3.12.82,1.59,1.32,2.08,2.31.73,2.15.73,3.45-.24,2.45-.73,3.44-1.18,1.76-2.08,2.3-1.94.82-3.12.82-2.23-.27-3.13-.82ZM683.26,532.33c.51-.4.89-.94,1.14-1.61s.38-1.43.38-2.27-.13-1.6-.38-2.28-.64-1.23-1.15-1.63-1.13-.61-1.87-.61-1.38.2-1.9.61-.91.95-1.16,1.63-.38,1.44-.38,2.28.13,1.59.38,2.27.64,1.21,1.16,1.61,1.15.6,1.9.6,1.37-.2,1.88-.6Z" fill="#5b6b8c"/><path d="M689.78,522.03h2.44v2.06h.21c.21-.38.45-.73.71-1.04s.64-.59,1.13-.83,1.09-.36,1.81-.36c1.03,0,1.95.26,2.76.79s1.44,1.28,1.9,2.27.69,2.16.69,3.51-.23,2.51-.68,3.5-1.08,1.75-1.89,2.29-1.72.8-2.75.8-1.8-.22-2.36-.66-1-.97-1.32-1.59h-.14v6.77h-2.51v-17.51ZM692.62,530.74c.26.68.63,1.2,1.13,1.58s1.09.56,1.79.56,1.32-.19,1.82-.58.88-.92,1.14-1.6.39-1.45.39-2.32-.13-1.61-.38-2.27-.63-1.18-1.14-1.55-1.12-.56-1.83-.56c-1.06,0-1.88.39-2.45,1.18s-.86,1.85-.86,3.21c0,.9.13,1.69.39,2.36Z" fill="#5b6b8c"/><path d="M706.17,534.2c-.9-.55-1.59-1.31-2.09-2.3s-.74-2.13-.74-3.44.25-2.46.74-3.46,1.19-1.76,2.09-2.31,1.94-.82,3.13-.82,2.22.27,3.12.82,1.59,1.32,2.08,2.31.73,2.15.73,3.45-.24,2.45-.73,3.44-1.18,1.76-2.08,2.3-1.94.82-3.12.82-2.23-.27-3.13-.82ZM711.17,532.33c.51-.4.89-.94,1.14-1.61s.38-1.43.38-2.27-.13-1.6-.38-2.28-.64-1.23-1.15-1.63-1.13-.61-1.87-.61-1.38.2-1.9.61-.91.95-1.16,1.63-.38,1.44-.38,2.28.13,1.59.38,2.27.64,1.21,1.16,1.61,1.15.6,1.9.6,1.37-.2,1.88-.6Z" fill="#5b6b8c"/><path d="M717.69,522.03h2.41v2.02h.14c.23-.68.64-1.22,1.23-1.61s1.25-.59,2-.59c.36,0,.71.02,1.05.05v2.39c-.14-.03-.34-.06-.59-.09s-.49-.05-.72-.05c-.57,0-1.09.12-1.55.37s-.82.59-1.08,1.02-.39.92-.39,1.47v7.76h-2.51v-12.73Z" fill="#5b6b8c"/><path d="M733.1,524.02h-2.6v6.98c0,.65.13,1.09.4,1.33s.64.37,1.12.38c.22,0,.56-.02,1.03-.05.05-.02.12-.02.23-.02v2.18c-.47.06-.99.09-1.57.09-.68,0-1.3-.12-1.86-.38s-1.01-.63-1.35-1.14-.5-1.14-.49-1.88v-7.5h-1.88v-1.99h1.88v-3.05h2.48v3.05h2.6v1.99Z" fill="#5b6b8c"/><path d="M736.01,519.86c-.25-.13-.44-.31-.59-.54s-.22-.47-.22-.74.07-.51.22-.74.34-.41.59-.54.51-.2.79-.2.54.07.78.2.43.31.57.54.22.47.22.74-.07.51-.22.74-.34.41-.57.54-.5.2-.78.2-.54-.07-.79-.2ZM735.54,522.03h2.51v12.73h-2.51v-12.73Z" fill="#5b6b8c"/><path d="M743.35,534.2c-.9-.55-1.59-1.31-2.09-2.3s-.74-2.13-.74-3.44.25-2.46.74-3.46,1.19-1.76,2.09-2.31,1.94-.82,3.13-.82,2.22.27,3.12.82,1.59,1.32,2.08,2.31.73,2.15.73,3.45-.24,2.45-.73,3.44-1.18,1.76-2.08,2.3-1.94.82-3.12.82-2.23-.27-3.13-.82ZM748.36,532.33c.51-.4.89-.94,1.14-1.61s.38-1.43.38-2.27-.13-1.6-.38-2.28-.64-1.23-1.15-1.63-1.13-.61-1.87-.61-1.38.2-1.9.61-.91.95-1.16,1.63-.38,1.44-.38,2.28.13,1.59.38,2.27.64,1.21,1.16,1.61,1.15.6,1.9.6,1.37-.2,1.88-.6Z" fill="#5b6b8c"/><path d="M757.38,534.76h-2.51v-12.73h2.41v2.09h.14c.31-.7.79-1.25,1.42-1.65s1.41-.6,2.33-.6,1.65.18,2.3.54,1.15.9,1.51,1.62.53,1.6.53,2.64v8.09h-2.48v-7.78c0-.92-.24-1.64-.71-2.17s-1.14-.79-1.98-.79c-.57,0-1.08.12-1.53.38s-.8.62-1.05,1.1-.38,1.05-.38,1.72v7.55Z" fill="#5b6b8c"/><path d="M769.31,528.35c.89-.56,2.03-.89,3.42-1,.53-.04,1.11-.08,1.74-.11s1.16-.06,1.6-.08v-1.01c-.01-.73-.23-1.29-.67-1.68s-1.08-.59-1.92-.59c-.71,0-1.29.15-1.75.44s-.75.69-.88,1.18h-2.48c.08-.7.34-1.33.79-1.88s1.05-.98,1.81-1.29,1.63-.46,2.61-.46c.8,0,1.58.12,2.33.38s1.38.7,1.89,1.36.77,1.55.77,2.7v8.46h-2.44v-1.73h-.09c-.29.56-.75,1.04-1.38,1.43s-1.43.59-2.4.59c-.81,0-1.54-.15-2.19-.46s-1.16-.75-1.54-1.33-.56-1.28-.56-2.08c0-1.32.45-2.26,1.34-2.82ZM771.07,532.57c.44.32,1.03.48,1.75.48.66,0,1.23-.13,1.72-.39s.87-.61,1.14-1.05.4-.92.4-1.44v-1.16s-3,.2-3,.2c-.85.06-1.51.26-1.97.58s-.7.79-.7,1.41.22,1.05.66,1.37Z" fill="#5b6b8c"/><path d="M784.1,534.76h-2.51v-16.97h2.51v16.97Z" fill="#5b6b8c"/><path d="M793.22,534.76v-16.97h5.67c1.66,0,3.08.34,4.28,1.01s2.12,1.65,2.75,2.92.96,2.78.96,4.53-.32,3.28-.97,4.55-1.58,2.26-2.8,2.94-2.69,1.02-4.39,1.02h-5.51ZM798.58,532.51c1.9,0,3.33-.54,4.29-1.61s1.45-2.62,1.45-4.65-.47-3.54-1.42-4.61-2.34-1.6-4.18-1.6h-2.93v12.47h2.79Z" fill="#5b6b8c"/><path d="M809.58,522.03h2.41v2.02h.14c.23-.68.64-1.22,1.23-1.61s1.25-.59,2-.59c.36,0,.71.02,1.05.05v2.39c-.14-.03-.34-.06-.59-.09s-.49-.05-.72-.05c-.57,0-1.09.12-1.55.37s-.82.59-1.08,1.02-.39.92-.39,1.47v7.76h-2.51v-12.73Z" fill="#5b6b8c"/><path d="M818.92,528.35c.89-.56,2.03-.89,3.42-1,.53-.04,1.11-.08,1.74-.11s1.16-.06,1.6-.08v-1.01c-.01-.73-.23-1.29-.67-1.68s-1.08-.59-1.92-.59c-.71,0-1.29.15-1.75.44s-.75.69-.88,1.18h-2.48c.08-.7.34-1.33.79-1.88s1.05-.98,1.81-1.29,1.63-.46,2.61-.46c.8,0,1.58.12,2.33.38s1.38.7,1.89,1.36.77,1.55.77,2.7v8.46h-2.44v-1.73h-.09c-.29.56-.75,1.04-1.38,1.43s-1.43.59-2.4.59c-.81,0-1.54-.15-2.19-.46s-1.16-.75-1.54-1.33-.56-1.28-.56-2.08c0-1.32.45-2.26,1.34-2.82ZM820.68,532.57c.44.32,1.03.48,1.75.48.66,0,1.23-.13,1.72-.39s.87-.61,1.14-1.05.4-.92.4-1.44v-1.16s-3,.2-3,.2c-.85.06-1.51.26-1.97.58s-.7.79-.7,1.41.22,1.05.66,1.37Z" fill="#5b6b8c"/><path d="M830.21,522.03h2.58l2.48,9.33h.14l2.48-9.33h2.58l2.46,9.28h.14l2.46-9.28h2.58l-3.73,12.73h-2.55l-2.58-9.16h-.19l-2.55,9.16h-2.58l-3.73-12.73Z" fill="#5b6b8c"/><path d="M851.81,534.22c-.8-.53-1.44-1.29-1.89-2.29s-.69-2.16-.69-3.5.23-2.52.69-3.51,1.09-1.74,1.9-2.27,1.73-.79,2.76-.79c.73,0,1.33.12,1.82.36s.87.51,1.14.83.51.66.72,1.04h.12v-6.3h2.51v16.97h-2.44v-1.99h-.19c-.34.62-.79,1.16-1.35,1.59s-1.34.66-2.36.66-1.94-.27-2.74-.8ZM856.91,532.32c.5-.38.88-.9,1.14-1.58s.39-1.46.39-2.36-.13-1.66-.39-2.32-.64-1.16-1.14-1.52-1.1-.54-1.8-.54-1.33.19-1.83.56-.88.89-1.12,1.55-.38,1.42-.38,2.27.13,1.64.38,2.32.63,1.21,1.14,1.6,1.11.58,1.81.58,1.29-.19,1.79-.56Z" fill="#5b6b8c"/><path d="M866.4,534.2c-.9-.55-1.59-1.31-2.09-2.3s-.74-2.13-.74-3.44.25-2.46.74-3.46,1.19-1.76,2.09-2.31,1.94-.82,3.13-.82,2.22.27,3.12.82,1.59,1.32,2.08,2.31.73,2.15.73,3.45-.24,2.45-.73,3.44-1.18,1.76-2.08,2.3-1.94.82-3.12.82-2.23-.27-3.13-.82ZM871.4,532.33c.51-.4.89-.94,1.14-1.61s.38-1.43.38-2.27-.13-1.6-.38-2.28-.64-1.23-1.15-1.63-1.13-.61-1.87-.61-1.38.2-1.9.61-.91.95-1.16,1.63-.38,1.44-.38,2.28.13,1.59.38,2.27.64,1.21,1.16,1.61,1.15.6,1.9.6,1.37-.2,1.88-.6Z" fill="#5b6b8c"/><path d="M876.55,522.03h2.58l2.48,9.33h.14l2.48-9.33h2.58l2.46,9.28h.14l2.46-9.28h2.58l-3.73,12.73h-2.55l-2.58-9.16h-.19l-2.55,9.16h-2.58l-3.73-12.73Z" fill="#5b6b8c"/><path d="M899.03,534.76h-2.51v-12.73h2.41v2.09h.14c.31-.7.79-1.25,1.42-1.65s1.41-.6,2.33-.6,1.65.18,2.3.54,1.15.9,1.51,1.62.53,1.6.53,2.64v8.09h-2.48v-7.78c0-.92-.24-1.64-.71-2.17s-1.14-.79-1.98-.79c-.57,0-1.08.12-1.53.38s-.8.62-1.05,1.1-.38,1.05-.38,1.72v7.55Z" fill="#5b6b8c"/><path d="M326.29,481.41c-.48-.6-1.08-1.05-1.8-1.36-.72-.31-1.5-.46-2.34-.46-1.15,0-2.17.29-3.08.87s-1.61,1.42-2.12,2.54c-.51,1.11-.77,2.45-.77,4.01s.26,2.9.77,4.01c.51,1.12,1.22,1.96,2.12,2.54.9.57,1.92.86,3.07.86.84,0,1.61-.15,2.32-.46s1.31-.75,1.8-1.34c.49-.59.82-1.29.99-2.11l3.04.03c-.21,1.29-.69,2.45-1.43,3.45-.74,1.01-1.7,1.79-2.86,2.35s-2.46.84-3.89.84c-1.72,0-3.26-.41-4.61-1.23-1.35-.82-2.4-2-3.17-3.53-.76-1.54-1.14-3.34-1.14-5.41s.38-3.87,1.15-5.41,1.82-2.71,3.17-3.53c1.35-.82,2.88-1.23,4.59-1.23,1.39,0,2.67.27,3.83.8,1.16.53,2.11,1.31,2.87,2.32.76,1.01,1.25,2.21,1.48,3.61h-3.04c-.16-.83-.49-1.54-.97-2.14Z" fill="#fff"/><path d="M333.55,477.1h3.01v17.2h8.94v2.6h-11.95v-19.8Z" fill="#fff"/><path d="M355.26,488.25h-8.78v-2.52h8.78v2.52Z" fill="#fff"/><path d="M359.04,477.1h3.01v17.2h8.94v2.6h-11.95v-19.8Z" fill="#fff"/><path d="M374.38,479.52c-.29-.16-.52-.36-.68-.63-.17-.26-.25-.55-.25-.86s.08-.6.25-.86c.17-.26.4-.47.68-.63s.59-.23.92-.23.63.08.91.23c.28.16.5.36.67.63.17.26.25.55.25.86s-.08.6-.25.86c-.17.26-.39.47-.67.63-.28.16-.58.23-.91.23s-.64-.08-.92-.23ZM373.83,482.05h2.93v14.85h-2.93v-14.85Z" fill="#fff"/><path d="M383.24,496.9h-2.93v-14.85h2.82v2.43h.16c.36-.82.92-1.46,1.65-1.93s1.65-.7,2.72-.7,1.92.21,2.68.64c.76.42,1.34,1.05,1.76,1.89.41.84.62,1.86.62,3.08v9.43h-2.9v-9.08c0-1.08-.28-1.92-.83-2.53-.56-.61-1.33-.92-2.31-.92-.67,0-1.26.15-1.78.44-.52.29-.93.72-1.22,1.28-.29.56-.44,1.23-.44,2v8.8Z" fill="#fff"/><path d="M396.28,477.1h2.93v11.21h.25l5.88-6.26h3.5l-6,6.37,6.41,8.48h-3.58l-5.04-6.67-1.41,1.39v5.28h-2.93v-19.8Z" fill="#fff"/><path d="M427.43,477.17c.99.52,1.77,1.24,2.34,2.16.57.92.85,1.96.85,3.13s-.29,2.24-.85,3.17c-.57.92-1.35,1.65-2.34,2.16-.99.51-2.09.77-3.32.77s-2.33-.26-3.32-.77c-.99-.51-1.78-1.24-2.35-2.17s-.86-1.98-.86-3.16.29-2.21.86-3.13,1.36-1.64,2.35-2.16c.99-.52,2.1-.78,3.32-.78s2.33.26,3.32.78ZM422.07,479.14c-.61.32-1.08.77-1.43,1.35-.35.57-.52,1.23-.52,1.97s.17,1.42.51,2,.82,1.03,1.42,1.35c.61.32,1.29.48,2.06.48s1.42-.16,2.02-.48,1.08-.77,1.42-1.35c.35-.58.52-1.25.52-2s-.17-1.38-.52-1.96c-.35-.58-.82-1.03-1.43-1.35-.61-.32-1.28-.49-2.02-.49s-1.44.16-2.04.49ZM438.14,498.7h-16.76v-7.96h2.62v5.85h14.14v2.11ZM437.41,492.55h-2.6v-17.8h2.6v17.8Z" fill="#fff"/><path d="M463.71,496.16h-22.42v-2.19h22.42v2.19ZM461.66,479.2h-3.75v8.18h3.66v2.08h-18.32v-2.08h3.66v-8.18h-3.72v-2.13h18.46v2.13ZM455.37,487.38v-8.18h-5.88v8.18h5.88Z" fill="#fff"/><path d="M477.66,485.93h-8.59v5.3c2.27,0,4.23-.07,5.89-.18s3.33-.33,5.02-.64l.25,2.11c-1.81.34-3.6.57-5.37.69s-3.89.19-6.36.21h-2v-9.6h8.59v-4.79h-8.64v-2.11h11.21v9ZM484.57,484.29h3.94v2.19h-3.94v12.8h-2.57v-24.55h2.57v9.57Z" fill="#fff"/><path d="M506.88,487.45c-1.81,2.95-4.72,5.38-8.74,7.31l-1.37-2.11c3.22-1.53,5.66-3.4,7.32-5.59,1.66-2.2,2.62-4.74,2.88-7.64h-9.02v-2.08h11.65c0,3.79-.9,7.16-2.71,10.11ZM516.89,499.22h-2.62v-24.5h2.62v24.5Z" fill="#fff"/><path d="M524.22,480.41h6.43v-3.91h2.57v12.2h-11.54v-12.2h2.54v3.91ZM530.65,486.61v-4.16h-6.43v4.16h6.43ZM541.01,498.7h-16.57v-7.74h2.6v5.63h13.97v2.11ZM539.97,481.97h3.55v2.19h-3.55v8.59h-2.6v-17.99h2.6v7.22Z" fill="#fff"/><path d="M553.57,489.91c-.31-.17-.54-.41-.72-.71-.17-.3-.26-.62-.25-.97,0-.35.07-.67.25-.97.17-.3.41-.54.72-.71.31-.17.63-.26.98-.26s.66.09.96.26.54.41.72.71.27.62.27.97-.09.67-.27.97-.42.54-.72.71-.62.26-.96.26-.67-.09-.98-.26Z" fill="#fff"/><path d="M575.79,487.38c-1.71,2.9-4.55,5.33-8.5,7.3l-1.37-2.05c3.17-1.55,5.55-3.42,7.12-5.6,1.58-2.18,2.48-4.72,2.71-7.61h-8.74v-2.08h11.38c-.02,3.79-.88,7.14-2.6,10.04ZM586.37,499.22h-2.57v-12.66h-5.5v-2.13h5.5v-9.71h2.57v24.5Z" fill="#fff"/><path d="M600.18,486.15h-6.73v5.17c1.46,0,2.83-.06,4.12-.14,1.29-.09,2.62-.24,4-.46l.22,2.08c-1.56.27-3.03.46-4.4.55-1.38.09-2.97.15-4.79.16h-1.67v-9.49h6.73v-4.59h-6.75v-2.13h9.27v8.86ZM611.2,499.22h-2.49v-12.85h-3.17v11.59h-2.38v-22.75h2.38v9.05h3.17v-9.54h2.49v24.5Z" fill="#fff"/><path d="M635.84,479.7h-14.6v-2.11h6.02v-2.87h2.6v2.87h5.99v2.11ZM631.63,481.45c.9.38,1.59.92,2.09,1.62.5.7.75,1.51.75,2.43s-.25,1.73-.75,2.42c-.5.69-1.19,1.23-2.09,1.61-.9.38-1.93.57-3.1.57s-2.21-.19-3.12-.57-1.6-.91-2.1-1.61c-.5-.69-.75-1.5-.75-2.42s.25-1.73.75-2.43c.5-.7,1.2-1.24,2.1-1.62s1.94-.57,3.12-.57,2.2.19,3.1.57ZM641.5,498.7h-16.57v-7.08h2.6v4.98h13.97v2.11ZM626.71,483.19c-.52.21-.93.52-1.21.92-.28.4-.42.86-.41,1.39,0,.52.13.97.41,1.36.28.39.69.69,1.21.9.52.21,1.13.31,1.83.31s1.3-.1,1.83-.31c.52-.21.93-.51,1.22-.9.29-.39.44-.84.45-1.36,0-.53-.16-.99-.45-1.39-.29-.4-.7-.7-1.22-.92-.52-.21-1.13-.32-1.83-.32s-1.3.11-1.83.32ZM640.46,482.62h3.55v2.16h-3.55v8.29h-2.6v-18.32h2.6v7.88Z" fill="#fff"/><path d="M665.26,488.09h-7.41v5.99h9.98v2.13h-22.42v-2.13h9.87v-5.99h-7.08v-11.48h16.84v2.11h-14.25v7.3h14.46v2.08Z" fill="#fff"/><path d="M696.02,477.81c0,1.33-.03,2.52-.1,3.55s-.24,2.21-.53,3.53h3.47v2.13h-22.42v-2.13h16.32c.29-1.28.48-2.42.56-3.45s.12-2.14.12-3.36h-14.19v-2.13h16.76v1.86ZM696.05,498.92h-16.87v-8.78h16.87v8.78ZM681.72,496.81h11.76v-4.62h-11.76v4.62Z" fill="#fff"/><path d="M717.71,476.26c.97.47,1.73,1.12,2.29,1.96s.84,1.78.85,2.82c0,1.06-.29,2-.85,2.83s-1.32,1.48-2.29,1.94-2.07.7-3.29.7-2.34-.23-3.32-.7-1.75-1.11-2.3-1.94-.83-1.77-.83-2.83.28-1.99.83-2.82,1.32-1.49,2.3-1.96,2.08-.71,3.32-.72c1.22,0,2.32.25,3.29.72ZM712.41,478.12c-.6.27-1.06.66-1.4,1.17s-.5,1.09-.49,1.74c0,.67.15,1.25.49,1.76s.8.9,1.39,1.18,1.27.42,2.03.42,1.42-.14,2.01-.42,1.06-.68,1.39-1.18.51-1.09.51-1.76-.17-1.24-.51-1.74-.8-.9-1.4-1.17-1.26-.41-2-.4c-.75,0-1.42.12-2.02.4ZM727.8,494.49h-13.51v2.35h14.33v2.08h-16.84v-6.37h13.45v-2.16h-13.54v-2.08h16.11v6.18ZM727.8,487.19h-2.6v-12.47h2.6v12.47Z" fill="#fff"/><path d="M735.18,480.02h4.73v-3.75h2.41v11.57h-9.6v-11.57h2.46v3.75ZM739.91,485.74v-3.69h-4.73v3.69h4.73ZM752.57,499.22h-2.57v-6.29h-14.08v-2.11h16.65v8.39ZM752.57,489.46h-2.46v-6.34h-2.87v6.18h-2.41v-14.11h2.41v5.8h2.87v-6.23h2.46v14.71Z" fill="#fff"/><path d="M776.3,489.16h-2.6v-6.1h-4.77c-.16.97-.54,1.82-1.12,2.56s-1.32,1.31-2.21,1.72-1.87.6-2.95.59c-1.22,0-2.32-.24-3.29-.74s-1.74-1.21-2.3-2.11-.83-1.93-.83-3.08.28-2.15.83-3.05,1.32-1.61,2.3-2.11,2.08-.75,3.29-.75c1.07,0,2.05.19,2.94.59s1.63.98,2.21,1.71.96,1.58,1.13,2.54h4.77v-6.21h2.6v14.44ZM760.64,478.75c-.6.31-1.07.75-1.41,1.32s-.51,1.21-.51,1.93.17,1.39.51,1.96.81,1,1.41,1.32,1.28.47,2.02.47,1.4-.16,1.99-.47,1.05-.76,1.39-1.33.51-1.22.51-1.95-.17-1.36-.51-1.93-.8-1-1.39-1.32-1.25-.47-1.98-.47-1.42.16-2.02.47ZM776.3,499.25h-2.6v-6.7h-14v-2.08h16.6v8.78Z" fill="#fff"/><path d="M788.56,485.77c2.54-.09,4.96-.28,7.27-.57l.16,1.86c-2.01.33-4.17.57-6.45.71v4.79h-2.6v-4.63c-1.76.06-3.55.1-5.39.1h-1.26l-.33-2.08c3.19-.02,6.05-.07,8.59-.16ZM791.14,476.22c.92.36,1.64.87,2.15,1.52s.77,1.41.77,2.26-.25,1.61-.77,2.25-1.23,1.14-2.15,1.49-1.97.53-3.16.53-2.26-.18-3.19-.53-1.64-.85-2.15-1.49-.77-1.39-.77-2.25.25-1.61.77-2.26,1.23-1.16,2.15-1.52,1.98-.54,3.19-.54,2.24.18,3.16.54ZM801.05,498.7h-17.69v-7.19h2.57v5.09h15.12v2.11ZM786.07,477.89c-.56.19-.98.47-1.29.83s-.45.79-.44,1.27c0,.47.14.89.44,1.24s.73.63,1.28.82,1.19.29,1.92.29,1.32-.1,1.87-.29.97-.46,1.27-.82.46-.77.47-1.24c0-.48-.17-.91-.47-1.27s-.73-.64-1.27-.83-1.16-.28-1.87-.27c-.72,0-1.36.08-1.91.27ZM800.45,493.31h-2.6v-2.35h-4.92v-1.83h4.92v-14.38h2.6v18.57Z" fill="#fff"/><path d="M815.56,488.19c0,1.75.15,3.38.45,4.89.3,1.5.8,2.97,1.5,4.4.7,1.43,1.65,2.93,2.84,4.52l-.62.56c-2.31-2.05-4.07-4.23-5.26-6.52s-1.79-4.91-1.79-7.84.6-5.54,1.79-7.84c1.19-2.3,2.95-4.46,5.26-6.5l.62.56c-1.25,1.59-2.22,3.1-2.91,4.54s-1.18,2.9-1.46,4.38c-.28,1.48-.42,3.1-.42,4.86Z" fill="#fff"/><path d="M820.91,487.46v-1.34l2.3-.17h14.62v1.51h-16.91ZM824.29,496.9l-2.58-20.05h2.94l1.15,13.3.28,4.37h.14l.39-4.37,1.54-12.04h2.66l1.57,12.04.45,4.37h.11l.34-4.37,1.09-13.3h2.72l-2.41,20.05h-3.39l-1.34-10.98-.48-5.46h-.14l-.48,5.49-1.29,10.95h-3.28Z" fill="#fff"/><path d="M846.64,496.9h-3.04v-16.79h-.11l-4.73,3.09v-2.87l4.92-3.23h2.95v19.8Z" fill="#fff"/><path d="M854.64,495.98c-1.09-.79-1.92-1.95-2.5-3.48s-.86-3.36-.86-5.5.29-3.95.87-5.48,1.42-2.69,2.51-3.49,2.39-1.2,3.9-1.2,2.8.4,3.9,1.2,1.93,1.97,2.51,3.49.87,3.35.87,5.48-.29,3.97-.86,5.5-1.41,2.68-2.5,3.48-2.4,1.2-3.91,1.2-2.83-.4-3.92-1.19ZM860.86,493.7c.64-.58,1.13-1.43,1.46-2.56s.51-2.51.51-4.14-.17-3.01-.51-4.15-.83-2.01-1.47-2.6-1.4-.88-2.28-.88-1.65.29-2.28.88-1.13,1.45-1.47,2.6-.51,2.53-.51,4.15.17,3.01.51,4.14.83,1.98,1.46,2.56,1.4.87,2.3.87,1.66-.29,2.3-.87Z" fill="#fff"/><path d="M869.36,502.05l-.31-.76c1.03-.5,1.82-1.05,2.38-1.65.56-.6.94-1.43,1.15-2.49l.36,1.04-1.79-.95c-.54-.3-.92-.63-1.15-.99-.22-.36-.34-.73-.34-1.11,0-.62.21-1.14.63-1.58.42-.44.96-.66,1.61-.66.37,0,.71.05,1.02.15.31.1.6.29.88.57.13.37.22.71.28,1.01.06.3.08.65.08,1.06,0,1.59-.43,2.93-1.29,4.03-.86,1.1-2.03,1.88-3.53,2.32Z" fill="#fff"/><path d="M881.3,495.98c-1.09-.79-1.92-1.95-2.5-3.48s-.86-3.36-.86-5.5.29-3.95.87-5.48,1.42-2.69,2.51-3.49,2.39-1.2,3.9-1.2,2.8.4,3.9,1.2,1.93,1.97,2.51,3.49.87,3.35.87,5.48-.29,3.97-.86,5.5-1.41,2.68-2.5,3.48-2.4,1.2-3.91,1.2-2.83-.4-3.92-1.19ZM887.52,493.7c.64-.58,1.13-1.43,1.46-2.56s.51-2.51.51-4.14-.17-3.01-.51-4.15-.83-2.01-1.47-2.6-1.4-.88-2.28-.88-1.65.29-2.28.88-1.13,1.45-1.47,2.6-.51,2.53-.51,4.15.17,3.01.51,4.14.83,1.98,1.46,2.56,1.4.87,2.3.87,1.66-.29,2.3-.87Z" fill="#fff"/><path d="M898.59,495.98c-1.09-.79-1.92-1.95-2.5-3.48s-.86-3.36-.86-5.5.29-3.95.87-5.48,1.42-2.69,2.51-3.49,2.39-1.2,3.9-1.2,2.8.4,3.9,1.2,1.93,1.97,2.51,3.49.87,3.35.87,5.48-.29,3.97-.86,5.5-1.41,2.68-2.5,3.48-2.4,1.2-3.91,1.2-2.83-.4-3.92-1.19ZM904.8,493.7c.64-.58,1.13-1.43,1.46-2.56s.51-2.51.51-4.14-.17-3.01-.51-4.15-.83-2.01-1.47-2.6-1.4-.88-2.28-.88-1.65.29-2.28.88-1.13,1.45-1.47,2.6-.51,2.53-.51,4.15.17,3.01.51,4.14.83,1.98,1.46,2.56,1.4.87,2.3.87,1.66-.29,2.3-.87Z" fill="#fff"/><path d="M915.87,495.98c-1.09-.79-1.92-1.95-2.5-3.48s-.86-3.36-.86-5.5.29-3.95.87-5.48,1.42-2.69,2.51-3.49,2.39-1.2,3.9-1.2,2.8.4,3.9,1.2,1.93,1.97,2.51,3.49.87,3.35.87,5.48-.29,3.97-.86,5.5-1.41,2.68-2.5,3.48-2.4,1.2-3.91,1.2-2.83-.4-3.92-1.19ZM922.08,493.7c.64-.58,1.13-1.43,1.46-2.56s.51-2.51.51-4.14-.17-3.01-.51-4.15-.83-2.01-1.47-2.6-1.4-.88-2.28-.88-1.65.29-2.28.88-1.13,1.45-1.47,2.6-.51,2.53-.51,4.15.17,3.01.51,4.14.83,1.98,1.46,2.56,1.4.87,2.3.87,1.66-.29,2.3-.87Z" fill="#fff"/><path d="M930.58,502.05l-.31-.76c1.03-.5,1.82-1.05,2.38-1.65.56-.6.94-1.43,1.15-2.49l.36,1.04-1.79-.95c-.54-.3-.92-.63-1.15-.99-.22-.36-.34-.73-.34-1.11,0-.62.21-1.14.63-1.58.42-.44.96-.66,1.61-.66.37,0,.71.05,1.02.15.31.1.6.29.88.57.13.37.22.71.28,1.01.06.3.08.65.08,1.06,0,1.59-.43,2.93-1.29,4.03-.86,1.1-2.03,1.88-3.53,2.32Z" fill="#fff"/><path d="M942.53,495.98c-1.09-.79-1.92-1.95-2.5-3.48s-.86-3.36-.86-5.5.29-3.95.87-5.48,1.42-2.69,2.51-3.49,2.39-1.2,3.9-1.2,2.8.4,3.9,1.2,1.93,1.97,2.51,3.49.87,3.35.87,5.48-.29,3.97-.86,5.5-1.41,2.68-2.5,3.48-2.4,1.2-3.91,1.2-2.83-.4-3.92-1.19ZM948.74,493.7c.64-.58,1.13-1.43,1.46-2.56s.51-2.51.51-4.14-.17-3.01-.51-4.15-.83-2.01-1.47-2.6-1.4-.88-2.28-.88-1.65.29-2.28.88-1.13,1.45-1.47,2.6-.51,2.53-.51,4.15.17,3.01.51,4.14.83,1.98,1.46,2.56,1.4.87,2.3.87,1.66-.29,2.3-.87Z" fill="#fff"/><path d="M959.81,495.98c-1.09-.79-1.92-1.95-2.5-3.48s-.86-3.36-.86-5.5.29-3.95.87-5.48,1.42-2.69,2.51-3.49,2.39-1.2,3.9-1.2,2.8.4,3.9,1.2,1.93,1.97,2.51,3.49.87,3.35.87,5.48-.29,3.97-.86,5.5-1.41,2.68-2.5,3.48-2.4,1.2-3.91,1.2-2.83-.4-3.92-1.19ZM966.02,493.7c.64-.58,1.13-1.43,1.46-2.56s.51-2.51.51-4.14-.17-3.01-.51-4.15-.83-2.01-1.47-2.6-1.4-.88-2.28-.88-1.65.29-2.28.88-1.13,1.45-1.47,2.6-.51,2.53-.51,4.15.17,3.01.51,4.14.83,1.98,1.46,2.56,1.4.87,2.3.87,1.66-.29,2.3-.87Z" fill="#fff"/><path d="M977.09,495.98c-1.09-.79-1.92-1.95-2.5-3.48s-.86-3.36-.86-5.5.29-3.95.87-5.48,1.42-2.69,2.51-3.49,2.39-1.2,3.9-1.2,2.8.4,3.9,1.2,1.93,1.97,2.51,3.49.87,3.35.87,5.48-.29,3.97-.86,5.5-1.41,2.68-2.5,3.48-2.4,1.2-3.91,1.2-2.83-.4-3.92-1.19ZM983.3,493.7c.64-.58,1.13-1.43,1.46-2.56s.51-2.51.51-4.14-.17-3.01-.51-4.15-.83-2.01-1.47-2.6-1.4-.88-2.28-.88-1.65.29-2.28.88-1.13,1.45-1.47,2.6-.51,2.53-.51,4.15.17,3.01.51,4.14.83,1.98,1.46,2.56,1.4.87,2.3.87,1.66-.29,2.3-.87Z" fill="#fff"/><path d="M991.8,502.05l-.31-.76c1.03-.5,1.82-1.05,2.38-1.65.56-.6.94-1.43,1.15-2.49l.36,1.04-1.79-.95c-.54-.3-.92-.63-1.15-.99-.22-.36-.34-.73-.34-1.11,0-.62.21-1.14.63-1.58.42-.44.96-.66,1.61-.66.37,0,.71.05,1.02.15.31.1.6.29.88.57.13.37.22.71.28,1.01.06.3.08.65.08,1.06,0,1.59-.43,2.93-1.29,4.03-.86,1.1-2.03,1.88-3.53,2.32Z" fill="#fff"/><path d="M1003.75,495.98c-1.09-.79-1.92-1.95-2.5-3.48s-.86-3.36-.86-5.5.29-3.95.87-5.48,1.42-2.69,2.51-3.49,2.39-1.2,3.9-1.2,2.8.4,3.9,1.2,1.93,1.97,2.51,3.49.87,3.35.87,5.48-.29,3.97-.86,5.5-1.41,2.68-2.5,3.48-2.4,1.2-3.91,1.2-2.83-.4-3.92-1.19ZM1009.97,493.7c.64-.58,1.13-1.43,1.46-2.56s.51-2.51.51-4.14-.17-3.01-.51-4.15-.83-2.01-1.47-2.6-1.4-.88-2.28-.88-1.65.29-2.28.88-1.13,1.45-1.47,2.6-.51,2.53-.51,4.15.17,3.01.51,4.14.83,1.98,1.46,2.56,1.4.87,2.3.87,1.66-.29,2.3-.87Z" fill="#fff"/><path d="M1021.03,495.98c-1.09-.79-1.92-1.95-2.5-3.48s-.86-3.36-.86-5.5.29-3.95.87-5.48,1.42-2.69,2.51-3.49,2.39-1.2,3.9-1.2,2.8.4,3.9,1.2,1.93,1.97,2.51,3.49.87,3.35.87,5.48-.29,3.97-.86,5.5-1.41,2.68-2.5,3.48-2.4,1.2-3.91,1.2-2.83-.4-3.92-1.19ZM1027.25,493.7c.64-.58,1.13-1.43,1.46-2.56s.51-2.51.51-4.14-.17-3.01-.51-4.15-.83-2.01-1.47-2.6-1.4-.88-2.28-.88-1.65.29-2.28.88-1.13,1.45-1.47,2.6-.51,2.53-.51,4.15.17,3.01.51,4.14.83,1.98,1.46,2.56,1.4.87,2.3.87,1.66-.29,2.3-.87Z" fill="#fff"/><path d="M1038.31,495.98c-1.09-.79-1.92-1.95-2.5-3.48s-.86-3.36-.86-5.5.29-3.95.87-5.48,1.42-2.69,2.51-3.49,2.39-1.2,3.9-1.2,2.8.4,3.9,1.2,1.93,1.97,2.51,3.49.87,3.35.87,5.48-.29,3.97-.86,5.5-1.41,2.68-2.5,3.48-2.4,1.2-3.91,1.2-2.83-.4-3.92-1.19ZM1044.53,493.7c.64-.58,1.13-1.43,1.46-2.56s.51-2.51.51-4.14-.17-3.01-.51-4.15-.83-2.01-1.47-2.6-1.4-.88-2.28-.88-1.65.29-2.28.88-1.13,1.45-1.47,2.6-.51,2.53-.51,4.15.17,3.01.51,4.14.83,1.98,1.46,2.56,1.4.87,2.3.87,1.66-.29,2.3-.87Z" fill="#fff"/><path d="M1056.72,488.19c0-1.75-.15-3.38-.45-4.87-.3-1.49-.8-2.96-1.5-4.4-.7-1.44-1.65-2.94-2.84-4.51l.62-.56c2.31,2.03,4.07,4.2,5.26,6.5,1.19,2.3,1.79,4.91,1.79,7.84s-.6,5.54-1.79,7.84c-1.2,2.3-2.95,4.47-5.26,6.52l-.62-.56c1.25-1.61,2.22-3.12,2.91-4.55s1.18-2.89,1.46-4.38c.28-1.49.42-3.12.42-4.87Z" fill="#fff"/><path d="M536.4,772.25l5.15-5.19c.62-.66,1.1-1.18,1.43-1.58s.58-.78.75-1.16c.17-.38.26-.78.26-1.19,0-.48-.12-.9-.36-1.26s-.57-.64-.98-.84-.89-.3-1.4-.3-1.02.11-1.43.33-.73.53-.95.92-.33.85-.33,1.37h-2.13c0-.89.2-1.67.62-2.36s1-1.21,1.74-1.59,1.59-.56,2.52-.56,1.78.18,2.52.55c.73.37,1.31.87,1.72,1.51s.62,1.36.63,2.16c0,.57-.12,1.11-.33,1.64-.21.52-.57,1.1-1.09,1.74-.51.64-1.24,1.42-2.17,2.34l-3.01,3.06v.12h6.85v1.93h-9.99v-1.64Z" fill="#fff"/><path d="M551.12,773.21c-.82-.59-1.44-1.46-1.87-2.61-.43-1.14-.65-2.52-.65-4.13s.22-2.96.65-4.11c.43-1.15,1.06-2.02,1.88-2.62s1.79-.9,2.92-.9,2.1.3,2.92.9,1.45,1.47,1.88,2.62c.43,1.14.65,2.51.65,4.11s-.22,2.98-.65,4.12-1.06,2.01-1.88,2.61c-.82.6-1.8.9-2.93.9s-2.12-.3-2.94-.89ZM555.78,771.5c.48-.43.84-1.08,1.1-1.92s.38-1.88.38-3.11-.13-2.25-.38-3.11c-.26-.86-.62-1.51-1.1-1.95-.48-.44-1.05-.66-1.71-.66s-1.23.22-1.71.66c-.48.44-.85,1.09-1.1,1.95-.26.86-.38,1.9-.38,3.11s.13,2.26.38,3.11.62,1.49,1.1,1.92c.48.43,1.05.65,1.72.65s1.24-.22,1.72-.65Z" fill="#fff"/><path d="M561.85,772.25l5.15-5.19c.62-.66,1.1-1.18,1.43-1.58s.58-.78.75-1.16c.17-.38.26-.78.26-1.19,0-.48-.12-.9-.36-1.26s-.57-.64-.98-.84-.89-.3-1.4-.3-1.02.11-1.43.33-.73.53-.95.92-.33.85-.33,1.37h-2.13c0-.89.2-1.67.62-2.36s1-1.21,1.74-1.59,1.59-.56,2.52-.56,1.78.18,2.52.55c.73.37,1.31.87,1.72,1.51s.62,1.36.63,2.16c0,.57-.12,1.11-.33,1.64-.21.52-.57,1.1-1.09,1.74-.51.64-1.24,1.42-2.17,2.34l-3.01,3.06v.12h6.85v1.93h-9.99v-1.64Z" fill="#fff"/><path d="M576.97,773.43c-.84-.45-1.53-1.2-2.07-2.26s-.8-2.46-.8-4.2.23-3.16.7-4.38c.47-1.22,1.14-2.15,2.01-2.78.87-.64,1.9-.95,3.09-.95.89,0,1.69.17,2.4.52.71.35,1.29.83,1.74,1.44s.72,1.32.84,2.1h-2.24c-.15-.63-.46-1.13-.94-1.52s-1.08-.57-1.8-.57-1.41.21-1.95.64c-.54.43-.96,1.04-1.25,1.85-.29.8-.43,1.76-.43,2.87h.16c.4-.63.94-1.12,1.6-1.48.67-.36,1.4-.53,2.21-.53.88,0,1.68.21,2.41.63.73.42,1.31,1,1.73,1.74.42.74.64,1.58.64,2.51s-.22,1.81-.66,2.58c-.44.77-1.06,1.38-1.86,1.82s-1.72.67-2.76.67-1.94-.22-2.78-.67ZM581.29,771.79c.48-.28.85-.66,1.13-1.14s.41-1,.41-1.58-.13-1.08-.4-1.55-.63-.84-1.1-1.12c-.47-.27-.99-.41-1.57-.41s-1.14.14-1.62.43c-.49.28-.88.66-1.16,1.14-.28.48-.43.99-.44,1.53,0,.55.15,1.06.42,1.54s.65.86,1.13,1.15c.48.29,1.02.43,1.6.43s1.12-.14,1.6-.42Z" fill="#fff"/><path d="M589.8,766.59c1.29,0,2.53-.05,3.72-.14s2.41-.26,3.67-.49l.21,1.6c-1.34.25-2.64.43-3.89.52-1.25.09-2.66.15-4.21.16h-1.42v-9.68h1.93v8.04ZM602.58,775.25h-12.45v-5.58h1.97v4h10.48v1.58ZM602.11,770.86h-1.95v-6.25h-5.04v-1.56h5.04v-1.93h-5.04v-1.56h5.04v-2.28h1.95v13.58Z" fill="#fff"/><path d="M613.33,773.43c-.84-.45-1.53-1.2-2.07-2.26s-.8-2.46-.8-4.2.23-3.16.7-4.38c.47-1.22,1.14-2.15,2.01-2.78.87-.64,1.9-.95,3.09-.95.89,0,1.69.17,2.4.52.71.35,1.29.83,1.74,1.44s.72,1.32.84,2.1h-2.24c-.15-.63-.46-1.13-.94-1.52s-1.08-.57-1.8-.57-1.41.21-1.95.64c-.54.43-.96,1.04-1.25,1.85-.29.8-.43,1.76-.43,2.87h.16c.4-.63.94-1.12,1.6-1.48.67-.36,1.4-.53,2.21-.53.88,0,1.68.21,2.41.63.73.42,1.31,1,1.73,1.74.42.74.64,1.58.64,2.51s-.22,1.81-.66,2.58c-.44.77-1.06,1.38-1.86,1.82s-1.72.67-2.76.67-1.94-.22-2.78-.67ZM617.65,771.79c.48-.28.85-.66,1.13-1.14s.41-1,.41-1.58-.13-1.08-.4-1.55-.63-.84-1.1-1.12c-.47-.27-.99-.41-1.57-.41s-1.14.14-1.62.43c-.49.28-.88.66-1.16,1.14-.28.48-.43.99-.44,1.53,0,.55.15,1.06.42,1.54s.65.86,1.13,1.15c.48.29,1.02.43,1.6.43s1.12-.14,1.6-.42Z" fill="#fff"/><path d="M624.48,764.05c4.27,0,7.82-.15,10.64-.45l.1,1.25c-1.55.21-3.32.37-5.29.47v2.77h-1.93v-2.69c-.85.03-2.06.04-3.63.04h-1.05l-.23-1.39h1.37ZM631.47,757.93c.69.23,1.23.55,1.61.97s.58.9.59,1.46c0,.57-.2,1.06-.58,1.47-.38.41-.92.73-1.61.95s-1.49.33-2.4.33-1.74-.11-2.44-.33-1.23-.54-1.6-.95c-.38-.41-.56-.9-.55-1.47,0-.55.18-1.04.56-1.46.38-.42.92-.74,1.61-.97.69-.23,1.5-.34,2.42-.34s1.7.11,2.39.34ZM638.43,772.62h-10.58v1.42h11.14v1.42h-13.04v-4.12h10.56v-1.31h-10.64v-1.35h12.57v3.96ZM627.61,759.08c-.42.12-.74.29-.96.51s-.34.48-.34.77c0,.44.25.79.75,1.05.5.26,1.17.38,2.02.38s1.5-.13,2-.39.75-.61.75-1.05c0-.29-.11-.55-.34-.77s-.55-.39-.96-.51c-.42-.12-.9-.18-1.45-.18s-1.05.06-1.47.18ZM638.43,768.05h-1.95v-.88h-3.59v-1.23h3.59v-8.65h1.95v10.77Z" fill="#fff"/><path d="M650.57,758.41h2.01c-.48.69-.93,1.58-1.35,2.66-.42,1.08-.77,2.26-1.03,3.52-.26,1.26-.39,2.48-.39,3.65s.13,2.39.39,3.66c.26,1.26.6,2.43,1.03,3.52.42,1.08.88,1.97,1.35,2.67h-2.01c-2-2.86-3.01-6.14-3.04-9.84.02-3.69,1.03-6.97,3.04-9.82Z" fill="#fff"/><path d="M670.69,769.2h-7.46v6.42h-1.91v-6.42h-7.38v-1.58h16.75v1.58ZM669.11,759.91h-5.68c0,.75.3,1.45.87,2.13.57.67,1.34,1.24,2.3,1.71.96.47,2.02.78,3.17.94l-.72,1.54c-1-.16-1.95-.42-2.84-.79-.89-.37-1.67-.84-2.34-1.39-.67-.56-1.19-1.18-1.56-1.87-.55,1.04-1.43,1.92-2.63,2.63-1.2.71-2.55,1.19-4.07,1.43l-.74-1.54c1.13-.16,2.18-.47,3.14-.94.96-.47,1.73-1.04,2.3-1.71.57-.67.87-1.38.89-2.13h-5.72v-1.56h13.62v1.56Z" fill="#fff"/><path d="M674.09,778.08h-2.01c.48-.7.93-1.59,1.35-2.67.42-1.08.77-2.26,1.03-3.52.26-1.26.39-2.48.39-3.66s-.13-2.38-.39-3.65c-.26-1.26-.6-2.43-1.03-3.52-.42-1.08-.88-1.97-1.35-2.66h2.01c2,2.86,3.01,6.13,3.04,9.82-.02,3.71-1.03,6.99-3.04,9.84Z" fill="#fff"/><path d="M688.92,765.12h7.42v1.56h-16.75v-1.56h7.4v-2.28h1.93v2.28ZM689.79,760.02c.57.62,1.34,1.13,2.32,1.54.98.41,2.08.68,3.29.81l-.68,1.5c-1.55-.21-2.93-.62-4.13-1.21-1.2-.6-2.09-1.36-2.66-2.29-.57.92-1.46,1.68-2.66,2.29s-2.57,1.01-4.11,1.22l-.7-1.5c1.22-.13,2.32-.4,3.3-.81s1.76-.92,2.33-1.54c.57-.62.86-1.29.87-2.02v-.59h1.97v.59c0,.73.28,1.4.85,2.02ZM694.23,772.38h-10.71v1.58h11.22v1.5h-13.12v-4.49h10.68v-1.46h-10.71v-1.5h12.63v4.37Z" fill="#fff"/><path d="M706.86,765.67h-6.44v3.98c1.7,0,3.17-.05,4.41-.14,1.24-.08,2.5-.24,3.77-.48l.18,1.58c-1.36.25-2.7.43-4.02.52-1.32.09-2.91.15-4.77.16h-1.5v-7.2h6.44v-3.59h-6.48v-1.58h8.41v6.75ZM712.05,764.44h2.95v1.64h-2.95v9.6h-1.93v-18.42h1.93v7.18Z" fill="#fff"/><path d="M725.52,765.63h-6.6v4.02c1.61,0,3.09-.06,4.45-.15,1.35-.1,2.75-.26,4.21-.5l.18,1.6c-1.53.26-3.02.44-4.46.53-1.44.1-3.04.14-4.81.14h-1.56v-7.2h6.6v-3.57h-6.62v-1.58h8.61v6.71ZM731.14,775.68h-1.95v-18.42h1.95v18.42Z" fill="#fff"/><path d="M750.85,773.22h-16.82v-1.62h16.82v1.62ZM744.3,762.7c.62.92,1.45,1.7,2.49,2.34,1.03.65,2.13,1.08,3.3,1.29l-.9,1.62c-.98-.21-1.91-.56-2.81-1.05s-1.69-1.08-2.39-1.78-1.25-1.47-1.63-2.32c-.4.84-.94,1.61-1.64,2.31-.69.7-1.49,1.29-2.38,1.78s-1.84.84-2.82,1.06l-.86-1.62c1.16-.22,2.25-.65,3.27-1.3,1.03-.65,1.85-1.43,2.47-2.34.62-.91.93-1.85.93-2.83v-1.39h2.05v1.39c0,.97.31,1.91.94,2.83Z" fill="#fff"/><path d="M764.05,758.99c1.03.41,1.83.98,2.42,1.71.58.73.87,1.58.87,2.55,0,.9-.24,1.7-.73,2.4-.49.7-1.17,1.26-2.05,1.68-.88.42-1.89.68-3.04.77v3.61h7.49v1.62h-16.82v-1.62h7.4v-3.61c-1.14-.1-2.15-.35-3.02-.77-.88-.42-1.56-.98-2.05-1.68-.49-.7-.73-1.5-.73-2.4,0-.96.29-1.81.87-2.55.58-.74,1.38-1.31,2.41-1.71,1.03-.41,2.19-.61,3.49-.62,1.31,0,2.47.21,3.5.62ZM758.03,760.36c-.74.27-1.32.66-1.74,1.16-.42.5-.63,1.08-.63,1.73s.21,1.27.63,1.77.99.9,1.73,1.17,1.58.41,2.52.42c.95,0,1.8-.15,2.54-.42.74-.27,1.32-.66,1.74-1.17s.62-1.1.62-1.77-.21-1.23-.62-1.73c-.42-.5-1-.89-1.74-1.16-.75-.27-1.59-.4-2.53-.39-.94,0-1.78.12-2.52.39Z" fill="#fff"/><path d="M781.24,760.75h-1.91v8.54c1.07-.08,2-.17,2.81-.26l.1,1.44c-1.76.28-3.59.47-5.48.56-1.89.09-3.97.15-6.25.16l-.23-1.62,2.42-.02v-8.8h-1.93v-1.6h10.46v1.6ZM777.43,769.4v-8.65h-2.83v8.76c1.05-.02,1.99-.05,2.83-.1ZM785.61,775.64h-1.97v-18.38h1.97v18.38Z" fill="#fff"/><path d="M805.26,767.25h-7.44v1.97h5.41v6.17h-12.74v-6.17h5.39v-1.97h-7.4v-1.6h16.78v1.6ZM803.37,764.09h-12.8v-6.11h12.61v1.58h-10.66v2.97h10.85v1.56ZM792.42,773.83h8.9v-3.08h-8.9v3.08Z" fill="#fff"/><path d="M819.27,761.06h-4.94v8.51c1.2-.01,2.26-.05,3.16-.12.91-.07,1.83-.19,2.76-.37l.14,1.6c-1.03.21-2.05.35-3.06.43-1,.07-2.25.11-3.73.13h-1.23v-11.75h6.89v1.58ZM827.53,775.64h-1.87v-9.5h-2.38v8.55h-1.78v-17.06h1.78v6.91h2.38v-7.28h1.87v18.38Z" fill="#fff"/><path d="M846.73,773.46h-16.82v-1.6h4.51v-4.08h-3.04v-1.58h2.75v-5.72h-2.79v-1.6h13.84v1.6h-2.81v5.72h2.75v1.58h-3.01v4.08h4.61v1.6ZM840.47,766.2v-5.72h-4.41v5.72h4.41ZM840.16,771.86v-4.08h-3.79v4.08h3.79Z" fill="#fff"/><path d="M855.89,759.43c.72.53,1.28,1.28,1.69,2.26.41.97.61,2.1.61,3.39s-.2,2.43-.61,3.4c-.41.98-.97,1.73-1.69,2.26-.72.53-1.53.79-2.44.79s-1.74-.26-2.46-.79c-.72-.53-1.28-1.28-1.69-2.26-.41-.97-.61-2.11-.61-3.41s.2-2.42.61-3.4c.41-.97.97-1.72,1.69-2.25s1.54-.79,2.46-.79,1.72.26,2.44.79ZM851.95,760.95c-.43.38-.77.93-1.01,1.64-.24.71-.36,1.54-.36,2.49s.12,1.79.36,2.5.58,1.26,1.01,1.64c.43.38.93.57,1.5.57s1.06-.19,1.49-.57.77-.93,1-1.64.36-1.54.36-2.5-.12-1.78-.36-2.49c-.24-.71-.57-1.25-1-1.64s-.93-.57-1.49-.57-1.07.19-1.5.57ZM863.28,775.68h-1.95v-18.42h1.95v18.42Z" fill="#fff"/><path d="M873.16,765.13c.39,1.05.93,1.99,1.64,2.82.7.83,1.5,1.46,2.4,1.9l-1.21,1.56c-.98-.51-1.85-1.25-2.61-2.23-.76-.97-1.34-2.08-1.75-3.32-.42,1.33-1.02,2.51-1.8,3.54-.78,1.04-1.69,1.82-2.72,2.35l-1.21-1.58c.92-.44,1.75-1.1,2.47-1.97.72-.87,1.28-1.85,1.68-2.95s.59-2.21.59-3.32v-3.14h1.95v3.14c0,1.08.18,2.14.57,3.19ZM880.52,764.58h2.95v1.66h-2.95v9.39h-1.95v-18.38h1.95v7.32Z" fill="#fff"/><path d="M892.11,761.16h4.82v-2.75h1.93v8.76h-8.65v-8.76h1.91v2.75ZM903.92,775.64h-1.95v-4.8h-10.19v-1.58h12.14v6.38ZM896.93,765.61v-2.91h-4.82v2.91h4.82ZM903.92,761.96h2.67v1.6h-2.67v4.78h-1.95v-11.07h1.95v4.7Z" fill="#fff"/><path d="M913.65,765.24c.28.97.7,1.86,1.25,2.67.55.81,1.23,1.45,2.02,1.94l-1.09,1.5c-.83-.5-1.55-1.18-2.14-2.05-.59-.86-1.05-1.85-1.37-2.95-.35,1.2-.84,2.26-1.47,3.21-.63.94-1.38,1.67-2.25,2.2l-1.21-1.46c.84-.51,1.56-1.18,2.15-2.01.59-.84,1.04-1.77,1.35-2.79.3-1.02.46-2.07.46-3.13v-3.42h1.89v3.34c0,1,.14,1.98.42,2.96ZM919.63,774.74h-1.85v-9.39h-2.85v-1.62h2.85v-6.11h1.85v17.12ZM923.45,775.64h-1.87v-18.38h1.87v18.38Z" fill="#fff"/><path d="M942.54,769.26h-7.26v2.6h-1.93v-2.6h-7.57v-1.56h16.75v1.56ZM941.59,760.42h-14.95v-1.5h6.54v-1.85h1.95v1.85h6.46v1.5ZM940.71,775.25h-12.86v-4.59h1.95v3.04h10.91v1.56ZM938.61,761.84c1.05.48,1.57,1.17,1.57,2.07,0,.6-.24,1.11-.71,1.54-.47.42-1.16.74-2.06.96-.9.21-1.98.32-3.26.31-1.28,0-2.37-.1-3.27-.31-.9-.22-1.59-.54-2.06-.96s-.7-.94-.7-1.54c0-.9.51-1.59,1.56-2.07s2.54-.72,4.47-.72,3.41.24,4.46.72ZM931.12,762.87c-.69.24-1.03.58-1.03,1.04s.34.8,1.03,1.04c.69.24,1.7.35,3.03.35s2.33-.12,3.02-.35c.69-.24,1.04-.58,1.04-1.04s-.35-.8-1.04-1.04c-.69-.24-1.7-.35-3.02-.35s-2.34.12-3.03.35Z" fill="#fff"/><path d="M956.27,765.21c.39,1.07.94,2.01,1.66,2.84.71.83,1.53,1.45,2.45,1.87l-1.19,1.56c-1.03-.51-1.93-1.26-2.7-2.25-.77-.98-1.36-2.12-1.77-3.39-.41,1.35-1.01,2.54-1.79,3.59-.79,1.05-1.7,1.85-2.74,2.39l-1.23-1.58c.93-.44,1.75-1.1,2.48-1.97.72-.87,1.28-1.86,1.68-2.97.4-1.11.6-2.23.6-3.36v-3.14h1.97v3.14c0,1.11.2,2.2.59,3.27ZM964.38,775.68h-1.93v-10.73h-4.1v-1.58h4.1v-6.11h1.93v18.42Z" fill="#fff"/><path d="M983.96,766.43h-7.42v1.58h5.31v4.31h-10.71v1.64h11.22v1.5h-13.12v-4.55h10.68v-1.44h-10.71v-1.46h5.37v-1.58h-7.38v-1.54h16.75v1.54ZM979.12,757.84c.98.25,1.73.6,2.25,1.08.52.47.77,1.04.77,1.71s-.26,1.25-.77,1.73c-.52.48-1.26.84-2.25,1.08-.98.25-2.16.37-3.54.37s-2.56-.12-3.54-.37c-.98-.25-1.73-.61-2.25-1.08-.52-.47-.77-1.05-.77-1.73s.26-1.24.77-1.71c.52-.47,1.26-.83,2.25-1.08.98-.25,2.16-.37,3.54-.37s2.56.12,3.54.37ZM972.2,759.38c-.78.29-1.17.71-1.16,1.25,0,.57.38,1,1.15,1.29.78.29,1.9.44,3.38.44s2.6-.15,3.38-.44c.78-.29,1.17-.72,1.17-1.29s-.39-.96-1.17-1.25c-.78-.29-1.91-.44-3.38-.46-1.47.01-2.59.17-3.37.46Z" fill="#fff"/><path d="M992.72,765.2c.41,1.07.99,2.02,1.73,2.86.74.83,1.58,1.46,2.52,1.88l-1.17,1.54c-1.05-.5-1.97-1.24-2.78-2.21-.81-.97-1.43-2.09-1.87-3.36-.43,1.36-1.06,2.56-1.88,3.61-.82,1.05-1.78,1.84-2.87,2.37l-1.19-1.64c.95-.42,1.8-1.07,2.55-1.93.75-.86,1.33-1.85,1.75-2.97.42-1.12.62-2.25.62-3.41v-3.14h1.97v3.14c0,1.11.2,2.2.61,3.27ZM1000.58,775.68h-1.95v-18.42h1.95v18.42Z" fill="#fff"/><path d="M1017,762.85c-.68,1.28-1.67,2.38-2.95,3.31s-2.83,1.64-4.63,2.16l-.8-1.58c1.43-.4,2.67-.93,3.72-1.58,1.05-.65,1.88-1.4,2.49-2.25s.97-1.76,1.09-2.75h-6.48v-1.58h8.59c0,1.57-.34,2.99-1.03,4.27ZM1020.42,768.81c.91.29,1.62.71,2.11,1.25.5.54.74,1.18.74,1.92s-.25,1.39-.74,1.94c-.5.55-1.2.97-2.11,1.26-.91.29-1.98.44-3.21.44s-2.3-.15-3.22-.44c-.92-.29-1.63-.71-2.13-1.26s-.75-1.19-.74-1.94c0-.74.24-1.38.74-1.92.5-.54,1.21-.96,2.13-1.25.92-.29,2-.44,3.22-.44s2.3.15,3.21.44ZM1014.99,770.17c-.63.17-1.11.41-1.45.72-.34.31-.5.68-.5,1.1,0,.42.16.79.5,1.11.34.32.82.56,1.45.73.63.17,1.37.25,2.21.25s1.58-.08,2.2-.25c.63-.17,1.11-.41,1.45-.73.34-.32.51-.69.51-1.11s-.17-.79-.51-1.1c-.34-.31-.82-.55-1.45-.72-.63-.17-1.36-.25-2.2-.25s-1.59.08-2.21.25ZM1023.07,761.9h2.67v1.58h-2.67v4.7h-1.95v-10.91h1.95v4.63Z" fill="#fff"/><path d="M1029.57,764.77c2.72-.02,5.36-.29,7.92-.8l.25,1.6c-1.44.29-2.86.5-4.25.62-1.39.12-2.85.19-4.36.2h-1.5v-8.2h1.95v6.58ZM1041.22,775.39h-11.77v-6.79h11.77v6.79ZM1031.36,773.83h7.98v-3.71h-7.98v3.71ZM1041.22,761.36h2.69v1.62h-2.69v4.66h-1.95v-10.36h1.95v4.08Z" fill="#fff"/><path d="M1059.56,760.03c0,1.18-.03,2.23-.09,3.14-.06.91-.2,1.95-.43,3.11h2.65v1.6h-7.44v7.77h-1.97v-7.77h-7.34v-1.6h12.14c.25-1.16.4-2.19.46-3.11.06-.92.09-1.97.09-3.14v-.02h-10.64v-1.6h12.57v1.62Z" fill="#fff"/><path d="M1075.88,758.7c.73.36,1.31.86,1.73,1.51s.63,1.39.64,2.21c0,.84-.22,1.59-.64,2.24-.42.65-.99,1.16-1.73,1.52-.74.36-1.57.54-2.5.53-.93,0-1.77-.17-2.51-.53-.74-.36-1.32-.86-1.74-1.52-.42-.65-.62-1.4-.62-2.24,0-.83.2-1.56.62-2.21.42-.65,1-1.15,1.74-1.51.74-.36,1.58-.54,2.51-.54s1.76.18,2.5.54ZM1071.85,760.12c-.45.22-.8.53-1.06.93-.25.4-.38.86-.37,1.38,0,.53.12.99.37,1.39s.6.72,1.06.94c.45.22.96.33,1.53.33s1.08-.11,1.53-.33c.45-.22.8-.54,1.06-.94s.38-.87.39-1.39c0-.52-.14-.98-.39-1.38-.26-.4-.61-.71-1.06-.93-.45-.22-.96-.33-1.52-.33s-1.08.11-1.53.33ZM1072.8,770.18h7.9v-2.11h1.95v7.34h-11.77v-7.34h1.93v2.11ZM1080.7,773.83v-2.13h-7.9v2.13h7.9ZM1082.65,761.36h2.67v1.6h-2.67v4.25h-1.95v-9.95h1.95v4.1Z" fill="#fff"/><path d="M1100.98,760.03c0,1.18-.03,2.23-.09,3.14-.06.91-.2,1.95-.43,3.11h2.65v1.6h-7.44v7.77h-1.97v-7.77h-7.34v-1.6h12.14c.25-1.16.4-2.19.46-3.11.06-.92.09-1.97.09-3.14v-.02h-10.64v-1.6h12.57v1.62Z" fill="#fff"/><path d="M1111.63,762.77c.36.73.87,1.38,1.54,1.95.67.57,1.46,1.01,2.36,1.32l-1,1.54c-1.01-.36-1.89-.88-2.64-1.57-.75-.69-1.33-1.5-1.74-2.42-.4,1.05-1,1.96-1.79,2.74-.79.78-1.73,1.37-2.81,1.77l-1.03-1.56c.93-.32,1.74-.79,2.44-1.41.69-.62,1.23-1.33,1.6-2.13.37-.8.56-1.62.56-2.47v-.41h-3.98v-1.58h9.91v1.58h-3.94v.39c0,.78.18,1.53.53,2.27ZM1116.99,769.12c.93.27,1.65.67,2.15,1.19s.75,1.14.75,1.87-.25,1.34-.75,1.86c-.5.52-1.21.91-2.14,1.18s-2.04.41-3.32.42c-1.29,0-2.39-.15-3.33-.42-.93-.27-1.65-.67-2.15-1.18-.5-.52-.75-1.14-.74-1.86,0-.72.24-1.35.74-1.87s1.21-.92,2.15-1.19c.93-.27,2.04-.41,3.33-.41s2.38.14,3.32.41ZM1110.52,770.73c-.75.34-1.13.82-1.13,1.44,0,.41.17.76.51,1.05.34.29.83.51,1.48.66s1.41.22,2.3.22c.89,0,1.65-.07,2.3-.22s1.13-.37,1.48-.66c.34-.29.51-.64.51-1.05,0-.62-.38-1.1-1.13-1.44-.75-.34-1.8-.51-3.16-.51s-2.41.17-3.16.51ZM1119.83,768.19h-1.95v-4.66h-3.42v-1.6h3.42v-4.68h1.95v10.93Z" fill="#fff"/><path d="M1139.47,773.44h-16.82v-1.64h7.4v-3.22h-5.35v-5.84h10.79v-2.58h-10.83v-1.6h12.76v5.74h-10.79v2.69h11.22v1.6h-5.87v3.22h7.49v1.64Z" fill="#fff"/><path d="M1152.21,773.89h-2.28v-12.59h-.08l-3.55,2.32v-2.15l3.69-2.42h2.21v14.85Z" fill="#fff"/><path d="M1161.62,773.89h-2.28v-12.59h-.08l-3.55,2.32v-2.15l3.69-2.42h2.21v14.85Z" fill="#fff"/><path d="M1167.94,773.59c-.8-.34-1.44-.82-1.9-1.44-.46-.62-.71-1.33-.73-2.13h2.3c.03.43.18.81.45,1.13.27.32.63.57,1.08.74.45.17.95.26,1.51.26.59,0,1.12-.1,1.59-.31.47-.21.84-.49,1.11-.86.27-.37.4-.78.4-1.26s-.13-.92-.4-1.3c-.27-.38-.65-.68-1.15-.9-.5-.22-1.1-.32-1.79-.32h-1.27v-1.85h1.27c.55,0,1.05-.1,1.49-.3s.78-.47,1.02-.83c.24-.36.36-.77.36-1.23s-.11-.85-.32-1.19-.51-.61-.9-.8c-.39-.19-.84-.29-1.36-.29s-.97.09-1.4.27c-.43.18-.78.43-1.04.76-.26.33-.41.71-.43,1.15h-2.17c.02-.79.26-1.49.71-2.11.45-.62,1.06-1.1,1.83-1.44s1.61-.51,2.52-.51,1.78.18,2.5.54c.72.36,1.28.85,1.67,1.47.39.62.58,1.29.57,2.03,0,.83-.23,1.54-.7,2.13-.48.58-1.12.98-1.92,1.17v.1c1,.14,1.79.53,2.35,1.16.56.63.85,1.42.85,2.37,0,.81-.23,1.55-.7,2.2-.46.65-1.1,1.16-1.92,1.53s-1.73.55-2.74.55-1.92-.17-2.72-.51Z" fill="#fff"/><path d="M1185.08,767.41h-6.58v-1.89h6.58v1.89Z" fill="#fff"/><path d="M1187.11,772.25l5.15-5.19c.62-.66,1.1-1.18,1.42-1.58s.58-.78.75-1.16c.17-.38.26-.78.26-1.19,0-.48-.12-.9-.36-1.26s-.57-.64-.98-.84-.88-.3-1.4-.3-1.02.11-1.43.33-.73.53-.95.92c-.22.4-.33.85-.33,1.37h-2.13c0-.89.2-1.67.62-2.36s1-1.21,1.74-1.59,1.59-.56,2.52-.56,1.78.18,2.52.55c.73.37,1.31.87,1.72,1.51s.62,1.36.63,2.16c0,.57-.12,1.11-.33,1.64-.21.52-.57,1.1-1.09,1.74-.51.64-1.24,1.42-2.17,2.34l-3.01,3.06v.12h6.85v1.93h-9.99v-1.64Z" fill="#fff"/><path d="M1199.6,772.25l5.15-5.19c.62-.66,1.1-1.18,1.42-1.58s.58-.78.75-1.16c.17-.38.26-.78.26-1.19,0-.48-.12-.9-.36-1.26s-.57-.64-.98-.84-.88-.3-1.4-.3-1.02.11-1.43.33-.73.53-.95.92c-.22.4-.33.85-.33,1.37h-2.13c0-.89.2-1.67.62-2.36s1-1.21,1.74-1.59,1.59-.56,2.52-.56,1.78.18,2.52.55c.73.37,1.31.87,1.72,1.51s.62,1.36.63,2.16c0,.57-.12,1.11-.33,1.64-.21.52-.57,1.1-1.09,1.74-.51.64-1.24,1.42-2.17,2.34l-3.01,3.06v.12h6.85v1.93h-9.99v-1.64Z" fill="#fff"/><path d="M1213.12,778.14h-1.74l1.09-5.66h2.3l-1.64,5.66Z" fill="#fff"/><path d="M1225.15,773.59c-.8-.34-1.44-.82-1.9-1.44-.46-.62-.71-1.33-.73-2.13h2.3c.03.43.18.81.45,1.13.27.32.63.57,1.08.74.45.17.95.26,1.51.26.59,0,1.12-.1,1.59-.31.47-.21.84-.49,1.11-.86.27-.37.4-.78.4-1.26s-.13-.92-.4-1.3c-.27-.38-.65-.68-1.15-.9-.5-.22-1.1-.32-1.79-.32h-1.27v-1.85h1.27c.55,0,1.05-.1,1.49-.3s.78-.47,1.02-.83c.24-.36.36-.77.36-1.23s-.11-.85-.32-1.19-.51-.61-.9-.8c-.39-.19-.84-.29-1.36-.29s-.97.09-1.4.27c-.43.18-.78.43-1.04.76-.26.33-.41.71-.43,1.15h-2.17c.02-.79.26-1.49.71-2.11.45-.62,1.06-1.1,1.83-1.44s1.61-.51,2.52-.51,1.78.18,2.5.54c.72.36,1.28.85,1.67,1.47.39.62.58,1.29.57,2.03,0,.83-.23,1.54-.7,2.13-.48.58-1.12.98-1.92,1.17v.1c1,.14,1.79.53,2.35,1.16.56.63.85,1.42.85,2.37,0,.81-.23,1.55-.7,2.2-.46.65-1.1,1.16-1.92,1.53s-1.73.55-2.74.55-1.92-.17-2.72-.51Z" fill="#fff"/><path d="M1241.35,773.89h-2.28v-12.59h-.08l-3.55,2.32v-2.15l3.69-2.42h2.21v14.85Z" fill="#fff"/><path d="M1247.35,773.21c-.82-.59-1.44-1.46-1.87-2.61-.43-1.14-.65-2.52-.65-4.13s.22-2.96.65-4.11c.43-1.15,1.06-2.02,1.88-2.62s1.79-.9,2.92-.9,2.1.3,2.92.9,1.45,1.47,1.88,2.62c.43,1.14.65,2.51.65,4.11s-.21,2.98-.65,4.12c-.43,1.14-1.06,2.01-1.88,2.61-.82.6-1.8.9-2.93.9s-2.12-.3-2.94-.89ZM1252.01,771.5c.48-.43.84-1.08,1.1-1.92.25-.85.38-1.88.38-3.11s-.13-2.25-.38-3.11c-.26-.86-.62-1.51-1.1-1.95-.48-.44-1.05-.66-1.71-.66s-1.23.22-1.71.66c-.48.44-.85,1.09-1.1,1.95-.26.86-.38,1.9-.38,3.11s.13,2.26.38,3.11.62,1.49,1.1,1.92c.48.43,1.05.65,1.72.65s1.24-.22,1.72-.65Z" fill="#fff"/><path d="M333.69,321.66h-16.29v12.71c4.94-.04,8.93-.17,11.97-.4,3.04-.22,6.02-.64,8.95-1.25l.76,5.86c-3.16.72-6.48,1.2-9.95,1.42-3.47.22-8.37.34-14.72.34h-4.51v-24.61h23.79v5.92ZM350.16,365.07h-34.86v-20.51h34.86v20.51ZM322.68,359.22h20.1v-8.73h-20.1v8.73ZM350.16,324.41h7.21v6.15h-7.21v11.78h-7.5v-29.94h7.5v12.01Z" fill="#fff"/><path d="M408.52,359.51h-48.81v-6.09h20.57v-9.84h-15.41v-27.77h7.5v8.26h23.26v-8.26h7.44v27.77h-15.35v9.84h20.8v6.09ZM395.63,337.59v-7.56h-23.26v7.56h23.26Z" fill="#fff"/><path d="M460.31,349.02h-20.86v16.7h-7.38v-16.7h-20.57v-5.86h48.81v5.86ZM424.63,320.6h22.38v-6.15h7.5v23.55h-37.27v-23.55h7.38v6.15ZM447.01,332.03v-5.57h-22.38v5.57h22.38Z" fill="#fff"/><path d="M503.78,333.52c-1.53,4.67-4.12,8.95-7.75,12.85s-8.53,7.3-14.68,10.21l-3.93-5.98c4.55-2.15,8.31-4.54,11.26-7.18s5.22-5.56,6.8-8.77c1.57-3.21,2.56-6.82,2.97-10.83h-18.16v-5.86h25.78c0,5.7-.77,10.89-2.3,15.56ZM522.07,365.72h-7.56v-53.32h7.56v53.32Z" fill="#fff"/><path d="M550.21,315.86c1.9.8,3.51,1.92,4.8,3.37s2.18,3.12,2.65,5.01h8.94v-11.84h7.44v28.65h-7.44v-10.84h-8.88c-.45,1.93-1.32,3.65-2.62,5.14s-2.91,2.65-4.83,3.47-4.02,1.23-6.28,1.23c-2.7,0-5.13-.55-7.29-1.64s-3.86-2.61-5.08-4.56-1.82-4.14-1.8-6.58c-.02-2.4.58-4.57,1.8-6.49s2.92-3.43,5.08-4.51,4.6-1.62,7.29-1.6c2.25-.02,4.32.37,6.23,1.17ZM540.28,321.64c-1.08.52-1.92,1.26-2.52,2.23s-.88,2.1-.86,3.41c-.02,1.31.27,2.45.86,3.43s1.44,1.73,2.52,2.27,2.32.81,3.71.81,2.55-.27,3.6-.81,1.88-1.29,2.48-2.27.89-2.12.89-3.43-.3-2.45-.89-3.41-1.42-1.71-2.48-2.23-2.26-.77-3.6-.75c-1.39-.02-2.62.23-3.71.75ZM545.86,348.55h20.74v-5.16h7.44v21.74h-35.57v-21.74h7.38v5.16ZM566.6,359.1v-4.8h-20.74v4.8h20.74Z" fill="#fff"/><path d="M629.71,344.33h-20.21v9.26h-7.56v-9.26h-21.04v-5.98h48.81v5.98ZM615.37,314.79c2.9.91,5.15,2.19,6.75,3.85s2.41,3.6,2.43,5.83c-.02,2.25-.83,4.2-2.43,5.86s-3.85,2.93-6.75,3.82-6.26,1.33-10.09,1.33-7.23-.44-10.15-1.33-5.18-2.16-6.78-3.82-2.4-3.61-2.4-5.86.8-4.17,2.4-5.83,3.86-2.94,6.78-3.85,6.3-1.37,10.15-1.39c3.83.02,7.19.48,10.09,1.39ZM624.32,364.78h-37.62v-15.94h7.56v9.9h30.06v6.04ZM596.98,320.65c-1.99.89-2.98,2.16-2.96,3.82-.02,1.62.97,2.87,2.97,3.74s4.76,1.3,8.28,1.3,6.22-.43,8.23-1.3,3.02-2.11,3.02-3.74-1-2.93-3-3.82-4.75-1.33-8.25-1.33-6.3.44-8.29,1.33Z" fill="#fff"/><path d="M654.3,329.13c.89,2.03,2.25,3.87,4.09,5.51s4.11,2.9,6.83,3.78l-3.69,5.92c-2.87-.92-5.34-2.29-7.4-4.13s-3.7-4-4.91-6.5c-1.21,2.77-2.9,5.17-5.05,7.18s-4.77,3.54-7.84,4.57l-3.81-6.09c2.81-.88,5.18-2.18,7.1-3.9s3.35-3.67,4.29-5.84,1.42-4.44,1.44-6.78v-.82h-10.72v-5.98h28.95v5.98h-10.61v.88c0,2.13.44,4.21,1.33,6.24ZM679.04,364.78h-36.68v-16.82h7.5v10.84h29.18v5.98ZM677.75,351.36h-7.44v-19.1h-8.73v-6.04h8.73v-13.77h7.44v38.91Z" fill="#fff"/><path d="M705.81,335.34c.99,2.81,2.47,5.39,4.44,7.72s4.37,4.15,7.18,5.43l-4.16,5.86c-2.89-1.33-5.4-3.26-7.53-5.79s-3.81-5.45-5.04-8.77c-1.23,3.65-2.94,6.87-5.14,9.64s-4.79,4.86-7.78,6.27l-4.34-5.92c2.85-1.33,5.28-3.22,7.29-5.67s3.53-5.17,4.56-8.16,1.55-6,1.57-9.02v-3.28h-11.31v-6.09h29.53v6.09h-10.72v3.28c-.02,2.79.46,5.6,1.45,8.41ZM726.74,332.73h7.85v6.27h-7.85v26.72h-7.5v-53.32h7.5v20.33Z" fill="#fff"/><path d="M779.53,319.08c0,2.85-.07,5.37-.21,7.56s-.49,4.63-1.05,7.32h7.06v6.04h-48.81v-6.04h34.22c.53-2.4.88-4.62,1.05-6.67s.27-4.21.29-6.52h-29.59v-5.98h37.03v4.28ZM779.36,365.13h-37.03v-19.51h37.03v19.51ZM749.65,359.16h22.27v-7.68h-22.27v7.68Z" fill="#fff"/><path d="M809.77,324.59h-12.36v22.76c2.81-.04,5.39-.15,7.73-.32s4.73-.49,7.15-.94l.53,6.09c-2.99.57-5.92.94-8.79,1.13s-6.35.3-10.43.34h-3.69v-35.1h19.86v6.04ZM834.49,365.72h-7.09v-26.78h-5.16v24.2h-6.86v-49.86h6.86v19.69h5.16v-20.57h7.09v53.32Z" fill="#fff"/><path d="M888.75,340.58h-20.51v3.34h14.71v13.01h-29.71v2.93h31.11v5.51h-38.44v-13.48h29.65v-2.64h-29.71v-5.33h14.94v-3.34h-20.45v-5.45h48.4v5.45ZM868.18,316.56h16v5.51h-15.09c.8,1.66,2.67,3.04,5.61,4.13s6.98,1.75,12.11,1.96l-2.17,5.51c-4.9-.23-9.06-.95-12.47-2.15s-5.97-2.82-7.69-4.85c-1.7,2.03-4.26,3.65-7.69,4.85s-7.6,1.92-12.52,2.15l-2.05-5.51c5.1-.21,9.11-.87,12.03-1.96s4.79-2.47,5.61-4.13h-14.94v-5.51h15.88v-4.22h7.38v4.22Z" fill="#fff"/><path d="M915.8,341.67c0,3.76.32,7.25.96,10.47.64,3.22,1.71,6.36,3.21,9.42,1.5,3.06,3.53,6.29,6.09,9.69l-1.32,1.2c-4.96-4.4-8.72-9.06-11.28-13.98-2.56-4.92-3.84-10.52-3.84-16.8s1.28-11.88,3.84-16.8c2.56-4.92,6.32-9.56,11.28-13.92l1.32,1.2c-2.68,3.4-4.76,6.64-6.24,9.72-1.48,3.08-2.52,6.21-3.12,9.39-.6,3.18-.9,6.65-.9,10.41Z" fill="#fff"/><path d="M929.51,360.33l14.71-42.42h11.31l14.65,42.42h-9.43l-3.19-9.79h-15.35l-3.19,9.79h-9.49ZM955.32,343.69l-5.3-16.23h-.29l-5.3,16.23h10.9Z" fill="#fff"/><path d="M974.98,317.91h16.88c3.05,0,5.62.46,7.73,1.38s3.69,2.19,4.75,3.82,1.58,3.53,1.58,5.7c0,2.4-.7,4.38-2.09,5.95s-3.24,2.61-5.52,3.13v.41c1.64.08,3.17.55,4.58,1.41s2.56,2.06,3.43,3.59,1.3,3.31,1.3,5.32c0,2.29-.56,4.31-1.68,6.06s-2.78,3.14-4.98,4.15-4.86,1.51-7.98,1.51h-17.99v-42.42ZM993.87,335c.98-.44,1.74-1.07,2.3-1.89s.83-1.79.83-2.9c0-1.56-.55-2.81-1.66-3.75s-2.64-1.41-4.61-1.41h-6.97v10.61h6.8c1.23,0,2.33-.22,3.31-.66ZM996.69,351.67c1.19-.93,1.79-2.22,1.79-3.88,0-1.19-.29-2.25-.86-3.16s-1.39-1.64-2.45-2.15-2.29-.78-3.72-.78h-7.68v11.37h7.44c2.46,0,4.29-.46,5.48-1.39Z" fill="#fff"/><path d="M1013.18,317.91h8.79v35.16h18.28v7.27h-27.07v-42.42Z" fill="#fff"/><path d="M1054.9,341.67c0-3.76-.32-7.24-.96-10.44-.64-3.2-1.71-6.34-3.21-9.42s-3.53-6.3-6.09-9.66l1.32-1.2c4.96,4.36,8.72,9,11.28,13.92,2.56,4.92,3.84,10.52,3.84,16.8s-1.28,11.88-3.84,16.8c-2.56,4.92-6.32,9.58-11.28,13.98l-1.32-1.2c2.68-3.44,4.76-6.69,6.24-9.75,1.48-3.06,2.52-6.19,3.12-9.39.6-3.2.9-6.68.9-10.44Z" fill="#fff"/></svg>