<?xml version="1.0" encoding="UTF-8"?><svg id="a" xmlns="http://www.w3.org/2000/svg" viewBox="0 0 1280 800"><path d="M93.05,227.44c.32.84.78,1.61,1.38,2.3s1.3,1.22,2.11,1.6l-1.09,1.55c-.87-.41-1.64-1.01-2.29-1.81s-1.17-1.7-1.54-2.73c-.37,1.12-.89,2.11-1.57,2.98s-1.47,1.51-2.37,1.94l-1.14-1.53c.81-.39,1.53-.95,2.15-1.68s1.09-1.55,1.42-2.45.5-1.8.5-2.69v-1.34h-3.46v-1.62h8.74v1.62h-3.32v1.34c0,.83.16,1.67.48,2.51ZM99.32,226.6h2.44v1.63h-2.44v8.07h-1.95v-15.89h1.95v6.19Z" fill="#5b6b8c"/><path d="M115.17,222.42c0,.85-.02,1.61-.07,2.27s-.15,1.41-.32,2.25h2.16v1.58h-14.52v-1.58h10.38c.17-.77.28-1.48.33-2.13s.08-1.33.08-2.06h-9v-1.56h10.95v1.23ZM115.15,236.11h-10.99v-5.75h10.99v5.75ZM106.08,234.53h7.14v-2.64h-7.14v2.64Z" fill="#5b6b8c"/><path d="M123.51,231.3c1.69-.07,3.29-.21,4.81-.43l.16,1.42c-1.57.3-3.17.5-4.79.58s-3.42.12-5.39.12l-.25-1.6c1.95,0,3.76-.03,5.45-.1ZM125.37,222c.67.33,1.19.78,1.56,1.37s.57,1.25.58,1.99c0,.74-.2,1.41-.58,2s-.9,1.04-1.56,1.37-1.41.49-2.24.49-1.57-.16-2.23-.49-1.18-.78-1.56-1.37-.57-1.25-.57-1.99.19-1.4.57-1.99.9-1.04,1.56-1.37,1.41-.48,2.23-.48c.83,0,1.57.15,2.24.48ZM121.89,223.47c-.37.18-.66.43-.87.75s-.31.7-.31,1.13.1.81.31,1.14.5.57.87.75.79.26,1.25.26.89-.09,1.26-.26.67-.42.88-.75.32-.7.32-1.14-.11-.8-.32-1.13-.51-.58-.88-.75-.79-.26-1.26-.26-.88.09-1.25.26ZM131.22,236.32h-1.95v-15.91h1.95v15.91Z" fill="#5b6b8c"/><path d="M141.66,228.08v-1.22c-.61-.09-1.14-.28-1.6-.54s-.81-.61-1.06-1.02-.37-.87-.37-1.37c0-.59.16-1.1.49-1.56s.8-.8,1.41-1.06,1.29-.39,2.07-.39c.77,0,1.46.14,2.06.39s1.07.61,1.41,1.06.51.97.52,1.56c0,.5-.13.95-.38,1.36s-.59.75-1.04,1.02-.96.45-1.56.55v1.15c1.42-.08,2.71-.19,3.88-.35l.18,1.37c-1.47.26-3.01.43-4.61.51s-3.3.12-5.1.12l-.21-1.53c1.42,0,2.72-.01,3.88-.04ZM148,230.97c.8.22,1.41.54,1.84.97s.64.94.65,1.53c0,.58-.22,1.08-.65,1.5s-1.05.75-1.85.97-1.75.34-2.84.34-2.05-.11-2.86-.34-1.42-.55-1.85-.97-.65-.92-.65-1.5.22-1.11.65-1.53,1.05-.75,1.85-.97,1.76-.33,2.87-.33,2.05.11,2.85.33ZM141.04,222.81c-.39.27-.58.65-.57,1.12,0,.32.08.59.26.83s.43.42.75.55.7.19,1.14.19.79-.06,1.11-.19.57-.31.75-.55.28-.52.28-.83c0-.47-.2-.85-.59-1.12s-.91-.41-1.55-.41-1.19.14-1.57.41ZM142.58,232.47c-.59.23-.89.57-.88,1.01,0,.42.29.74.88.97s1.45.33,2.56.33,1.92-.11,2.51-.33.89-.54.9-.97c0-.44-.31-.77-.9-1.01s-1.43-.35-2.51-.35-1.97.12-2.56.35ZM150.4,224.61h2.14v1.62h-2.14v4.22h-1.95v-10.02h1.95v4.18Z" fill="#5b6b8c"/><path d="M167.85,229.97h-14.48v-1.56h6.24v-1.53h-4.36v-6.08h1.93v1.58h6.86v-1.58h1.93v6.08h-4.39v1.53h6.28v1.56ZM166.08,236.3h-1.95v-3.52h-9.16v-1.55h11.11v5.06ZM164.04,225.32v-1.48h-6.86v1.48h6.86Z" fill="#5b6b8c"/><path d="M179.33,227.02c.31.91.75,1.73,1.34,2.45s1.28,1.27,2.07,1.65l-1.2,1.56c-.84-.43-1.57-1.04-2.19-1.83s-1.1-1.71-1.45-2.74c-.36,1.11-.86,2.08-1.51,2.93s-1.42,1.49-2.31,1.94l-1.2-1.56c.83-.39,1.54-.97,2.15-1.72s1.07-1.61,1.39-2.56.48-1.92.49-2.91v-2.53h1.95v2.53c0,.95.15,1.88.45,2.79ZM185.64,226.63h2.44v1.67h-2.44v8h-1.95v-15.89h1.95v6.22Z" fill="#5b6b8c"/><path d="M195.54,222.26c.62.46,1.11,1.11,1.47,1.96s.54,1.83.54,2.96c0,1.13-.19,2.12-.54,2.97s-.84,1.5-1.47,1.96-1.34.69-2.14.69-1.52-.23-2.14-.69-1.12-1.11-1.47-1.96-.53-1.84-.53-2.97.18-2.11.53-2.96.84-1.5,1.47-1.96,1.34-.69,2.14-.69,1.51.23,2.13.69ZM192.22,223.79c-.34.3-.61.75-.8,1.33s-.28,1.27-.28,2.07.09,1.49.28,2.07.45,1.02.8,1.33.74.46,1.19.46.84-.15,1.18-.46.6-.75.79-1.33.28-1.27.28-2.07-.09-1.48-.28-2.06-.45-1.02-.79-1.33-.73-.46-1.18-.46-.85.15-1.19.46ZM201.97,236.32h-1.97v-15.91h1.97v15.91Z" fill="#5b6b8c"/><path d="M217.05,222.38c0,.84-.02,1.58-.06,2.21s-.13,1.32-.28,2.07h2.04v1.56h-14.41v-1.56h10.43c.09-.5.17-1.02.23-1.57l-9.08.38-.23-1.51,9.39-.23c.01-.26.02-.63.02-1.12h-9v-1.55h10.95v1.32ZM217.14,233.38h-9.23v1.2h9.79v1.53h-11.72v-4.15h9.21v-1.09h-9.25v-1.49h11.2v4.01Z" fill="#5b6b8c"/><path d="M230.41,225.5c.29.62.71,1.17,1.27,1.66s1.24.87,2.04,1.13l-.98,1.56c-.87-.3-1.62-.73-2.25-1.31s-1.12-1.24-1.48-2.01c-.36.86-.87,1.6-1.53,2.23s-1.45,1.1-2.37,1.42l-1-1.58c.82-.27,1.52-.66,2.11-1.18s1.03-1.11,1.33-1.78.45-1.35.45-2.07v-.42h-3.3v-1.58h8.58v1.58h-3.29v.44c0,.65.14,1.28.43,1.9ZM237.85,235.99h-10.83v-4.97h1.95v3.39h8.88v1.58ZM237.45,232.03h-1.95v-5.82h-2.81v-1.58h2.81v-4.2h1.95v11.6Z" fill="#5b6b8c"/><path d="M258.47,230.2h-6.13v2.74h-1.93v-2.74h-6.45v-1.56h14.52v1.56ZM256.87,235.99h-11.16v-4.38h1.93v2.79h9.23v1.58ZM247.78,222.71h6.86v-1.79h1.93v6.47h-10.72v-6.47h1.93v1.79ZM254.64,225.84v-1.67h-6.86v1.67h6.86Z" fill="#5b6b8c"/><path d="M266.34,228.75c-1.14,1.91-3.04,3.49-5.69,4.74l-1.02-1.56c2.04-.97,3.58-2.14,4.62-3.49s1.64-2.95,1.81-4.79h-5.62v-1.55h7.61c0,2.53-.57,4.74-1.71,6.65ZM272.8,236.3h-1.97v-15.89h1.97v15.89Z" fill="#5b6b8c"/><path d="M281.35,224.93c.29.62.71,1.17,1.27,1.66s1.24.88,2.04,1.15l-.98,1.55c-.87-.3-1.62-.73-2.25-1.3s-1.12-1.24-1.48-2c-.36.85-.88,1.59-1.54,2.21s-1.45,1.09-2.37,1.39l-1-1.53c.82-.28,1.52-.67,2.11-1.2s1.03-1.11,1.33-1.78.45-1.35.45-2.07v-.12h-3.3v-1.58h8.58v1.58h-3.29v.14c0,.65.14,1.28.43,1.9ZM288.39,236.11h-10.56v-5.78h10.56v5.78ZM279.77,234.53h6.7v-2.65h-6.7v2.65ZM288.39,229.64h-1.95v-3.85h-2.74v-1.6h2.74v-3.78h1.95v9.23Z" fill="#5b6b8c"/><path d="M301.08,235.53h-1.86v-7.56h-1.51c-.06,1.03-.24,1.91-.54,2.67s-.7,1.33-1.21,1.73-1.08.6-1.73.59c-.69,0-1.29-.22-1.81-.68s-.92-1.12-1.2-1.98-.42-1.86-.42-3.02.14-2.16.42-3.01.68-1.51,1.2-1.96,1.12-.69,1.81-.69c.64,0,1.21.19,1.7.57s.89.93,1.2,1.64.49,1.56.57,2.55h1.53v-5.7h1.86v14.84ZM293.35,223.9c-.25.29-.43.73-.56,1.3s-.19,1.27-.19,2.08c0,.81.06,1.51.19,2.08s.32,1.01.56,1.3.54.44.87.43c.53.01.95-.31,1.24-.98s.44-1.61.44-2.84-.15-2.18-.44-2.84-.71-.99-1.24-.98c-.33,0-.62.14-.87.43ZM304.35,236.3h-1.88v-15.89h1.88v15.89Z" fill="#5b6b8c"/><path d="M316.96,227.08c.33.93.8,1.75,1.42,2.47s1.35,1.26,2.19,1.62l-1.16,1.56c-.9-.42-1.68-1.02-2.34-1.82s-1.19-1.73-1.56-2.79c-.38,1.15-.9,2.15-1.59,3.02s-1.5,1.52-2.44,1.96l-1.2-1.63c.86-.37,1.61-.93,2.25-1.67s1.12-1.61,1.46-2.58.5-1.97.5-2.99v-2.53h1.99v2.53c0,.98.16,1.93.48,2.86ZM323.68,236.32h-1.97v-15.91h1.97v15.91Z" fill="#5b6b8c"/><path d="M340.54,234.28h-14.52v-1.62h14.52v1.62ZM334.97,224.97c.5.77,1.18,1.44,2.05,2s1.85.93,2.94,1.12l-.88,1.63c-1.33-.28-2.51-.8-3.55-1.56s-1.81-1.67-2.33-2.75c-.53,1.07-1.31,1.98-2.35,2.74s-2.22,1.28-3.54,1.57l-.86-1.63c1.07-.19,2.04-.57,2.91-1.13s1.54-1.23,2.04-2,.75-1.56.75-2.37v-1.18h2.07v1.18c0,.81.25,1.61.74,2.38Z" fill="#5b6b8c"/><path d="M348.29,222.98h-4.17v1.49h3.57v1.51h-3.57v1.63c1.02-.01,1.88-.04,2.59-.09s1.43-.14,2.17-.28l.21,1.53c-.87.16-1.73.27-2.58.32s-1.92.08-3.22.08h-1.05v-7.79h6.05v1.58ZM355.17,236.11h-10.72v-5.52h10.72v5.52ZM346.39,234.53h6.84v-2.39h-6.84v2.39ZM352.04,229.8h-1.86v-3.92h-1.79v-1.58h1.79v-3.62h1.86v9.12ZM355.17,229.92h-1.86v-9.51h1.86v9.51Z" fill="#5b6b8c"/><path d="M375.89,230.22h-14.52v-1.55h6.28v-1.18h-4.41v-6.66h10.92v1.51h-8.96v1.09h8.58v1.44h-8.58v1.12h9.09v1.49h-4.68v1.18h6.29v1.55ZM371.6,231.4c.82.2,1.45.5,1.88.88s.65.85.65,1.4c0,.85-.48,1.5-1.44,1.94s-2.31.66-4.07.66-3.16-.22-4.11-.66-1.43-1.09-1.43-1.94c0-.55.22-1.02.65-1.4s1.06-.68,1.88-.88,1.83-.3,3.01-.3,2.15.1,2.97.3ZM365.05,233.68c0,.39.3.67.89.86s1.49.28,2.69.28,2.07-.09,2.66-.28.89-.47.89-.86c-.02-.75-1.2-1.12-3.55-1.12s-3.59.38-3.59,1.12Z" fill="#5b6b8c"/><path d="M382.22,227.43c.23.86.59,1.63,1.07,2.33s1.09,1.25,1.81,1.67l-1.16,1.44c-.71-.43-1.32-1-1.82-1.72s-.89-1.55-1.18-2.48c-.29,1.01-.69,1.91-1.21,2.7s-1.14,1.41-1.86,1.87l-1.2-1.46c.74-.45,1.36-1.04,1.85-1.78s.86-1.57,1.1-2.47.36-1.83.36-2.78v-1.05h-2.76v-1.58h7.21v1.58h-2.57v1.05c0,.93.12,1.83.35,2.68ZM387.4,235.53h-1.85v-8h-2.29v-1.58h2.29v-5.24h1.85v14.82ZM390.64,236.3h-1.86v-15.89h1.86v15.89Z" fill="#5b6b8c"/><path d="M407.02,229.1h-14.52v-1.48h14.52v1.48ZM405.26,233.67h-9.11v1.11h9.58v1.35h-11.53v-3.73h9.12v-.98h-9.14v-1.37h11.08v3.62ZM405.23,224.35h-8.95v1.04h9.23v1.34h-11.16v-3.64h8.93v-.97h-8.98v-1.35h10.93v3.59Z" fill="#5b6b8c"/><path d="M418.47,225.09c.28.62.71,1.17,1.28,1.66.56.49,1.25.86,2.06,1.13l-.98,1.51c-.87-.29-1.62-.71-2.25-1.28s-1.13-1.23-1.49-1.99c-.36.83-.87,1.55-1.52,2.17-.66.61-1.44,1.07-2.35,1.38l-1.04-1.51c.83-.28,1.54-.67,2.13-1.18s1.03-1.1,1.33-1.76.45-1.34.45-2.05v-.19h-3.36v-1.56h8.63v1.56h-3.3v.19c0,.66.14,1.3.43,1.92ZM424.88,236.3h-1.95v-4.01h-8.63v-1.56h10.58v5.57ZM424.88,224.38h2.21v1.63h-2.21v3.97h-1.95v-9.58h1.95v3.97Z" fill="#5b6b8c"/><path d="M442.41,229.59h-14.5v-1.56h6.29v-1.51h-4.52v-5.38h10.97v1.53h-9.02v2.3h9.11v1.55h-4.62v1.51h6.29v1.56ZM438.07,230.84c.82.23,1.45.56,1.89.99s.66.96.67,1.57c0,.61-.23,1.13-.67,1.56s-1.07.76-1.89.99-1.8.34-2.94.34-2.14-.11-2.97-.34-1.47-.56-1.91-.99-.66-.96-.66-1.56.22-1.14.66-1.57,1.07-.76,1.9-.99c.83-.23,1.82-.34,2.97-.34s2.12.11,2.94.34ZM432.48,232.36c-.61.24-.91.59-.9,1.05,0,.46.29.8.9,1.04s1.49.35,2.65.35,2.02-.12,2.63-.35.92-.58.92-1.04c0-.46-.32-.81-.93-1.05s-1.49-.36-2.62-.36-2.04.12-2.65.36Z" fill="#5b6b8c"/><path d="M105.09,99.62c-.56-.76-1.28-1.34-2.15-1.75-.87-.4-1.86-.61-2.95-.61-1.47,0-2.76.37-3.86,1.1-1.1.74-1.95,1.8-2.55,3.2-.6,1.4-.9,3.08-.9,5.03s.3,3.69.9,5.09c.6,1.4,1.45,2.46,2.54,3.17,1.09.72,2.37,1.07,3.83,1.07,1.63,0,3-.43,4.11-1.29s1.81-2.04,2.1-3.55l5.94.04c-.22,1.78-.85,3.44-1.89,4.96s-2.45,2.74-4.22,3.66-3.81,1.38-6.11,1.38c-2.54,0-4.8-.58-6.8-1.73s-3.55-2.82-4.68-5.01-1.69-4.79-1.69-7.79.57-5.59,1.71-7.78c1.14-2.19,2.71-3.87,4.71-5.02s4.25-1.73,6.75-1.73c2.17,0,4.14.4,5.9,1.21,1.76.81,3.19,1.98,4.29,3.53s1.78,3.38,2.04,5.5h-5.94c-.16-1.03-.51-1.92-1.07-2.69Z" fill="#1a2a66"/><path d="M116.2,92.47h5.86v23.44h12.19v4.84h-18.05v-28.28Z" fill="#1a2a66"/><path d="M151.08,111.41h-12.89v-4.61h12.89v4.61Z" fill="#1a2a66"/><path d="M156.01,92.47h5.86v23.44h12.19v4.84h-18.05v-28.28Z" fill="#1a2a66"/><path d="M179.02,96.36c-.49-.27-.87-.62-1.15-1.07s-.42-.93-.42-1.46.14-1.03.42-1.48c.28-.46.66-.82,1.15-1.08.49-.27,1.02-.4,1.59-.4s1.08.13,1.56.4c.48.27.86.63,1.14,1.08.28.46.42.95.42,1.48s-.14,1.01-.42,1.46-.66.81-1.14,1.07c-.48.27-1,.4-1.56.4s-1.1-.13-1.59-.4ZM177.72,99.54h5.78v21.21h-5.78v-21.21Z" fill="#1a2a66"/><path d="M193.78,120.75h-5.78v-21.21h5.51v3.71h.23c.5-1.25,1.3-2.23,2.4-2.93s2.43-1.05,3.96-1.05,2.76.32,3.87.96c1.11.64,1.96,1.56,2.56,2.76.6,1.2.89,2.62.88,4.25v13.52h-5.74v-12.5c0-1.3-.34-2.32-1.02-3.07s-1.61-1.11-2.81-1.11-2.22.39-2.96,1.17-1.1,1.86-1.1,3.24v12.27Z" fill="#1a2a66"/><path d="M211.9,92.47h5.78v15.2h.31l6.88-8.12h6.64l-7.91,9.18,8.34,12.03h-6.8l-5.84-8.63-1.62,1.84v6.8h-5.78v-28.28Z" fill="#1a2a66"/><path d="M274.64,107.66h-32.42v-3.91h32.42v3.91ZM271.75,93.48h-4.65v4.69h4.41v3.71h-26.21v-3.71h4.38v-4.69h-4.61v-3.71h26.68v3.71ZM270.69,118.48h-19.8v1.95h20.74v3.67h-25.62v-9.02h19.77v-1.8h-19.8v-3.59h24.73v8.79ZM262.1,98.17v-4.69h-7.42v4.69h7.42Z" fill="#1a2a66"/><path d="M291.75,102.08h-8.71v3.5c2.02-.03,3.81-.1,5.36-.23,1.56-.13,3.15-.36,4.79-.68l.43,3.91c-1.91.38-3.81.63-5.68.75-1.88.12-4.29.19-7.25.19h-2.46v-11.02h8.71v-3.24h-8.75v-3.98h13.55v10.82ZM298.78,115.48c.87,1.19,2.18,2.22,3.92,3.09,1.74.87,3.83,1.45,6.28,1.75l-1.99,3.87c-2.79-.39-5.2-1.15-7.25-2.29s-3.62-2.55-4.73-4.24c-1.12,1.69-2.7,3.11-4.75,4.24s-4.45,1.89-7.23,2.29l-1.99-3.87c2.43-.3,4.51-.88,6.24-1.75,1.73-.87,3.02-1.89,3.9-3.09s1.31-2.43,1.31-3.72v-.62h5v.62c-.01,1.29.42,2.53,1.29,3.72ZM307.33,112.7h-4.73v-11.25h-3.09v8.32h-4.65v-20.31h4.65v7.97h3.09v-8.59h4.73v23.87Z" fill="#1a2a66"/><path d="M343.78,109.97h-32.42v-3.95h13.67v-2.85h-10.59v-3.98h4.38v-5.43h-4.61v-3.98h26.68v3.98h-4.65v5.43h4.41v3.98h-10.62v2.85h13.75v3.95ZM339.91,123.95h-24.8v-11.56h24.8v11.56ZM320.03,119.97h15v-3.67h-15v3.67ZM331.24,99.18v-5.43h-7.42v5.43h7.42Z" fill="#1a2a66"/><path d="M383.78,94.07c0,2.27-.05,4.27-.16,6.01s-.36,3.71-.76,5.91h4.71v4.02h-13.87v14.38h-5v-14.38h-13.55v-4.02h22.68c.42-2.06.69-3.94.81-5.65.12-1.71.19-3.54.19-5.48h-19.96v-3.98h24.92v3.2Z" fill="#1a2a66"/><path d="M422.26,120.2h-32.54v-4.02h13.75v-7.93h5v7.93h13.79v4.02ZM419.4,95.51h-10.82c.14,1.59.72,3.09,1.74,4.5,1.02,1.41,2.44,2.62,4.27,3.61s3.98,1.68,6.46,2.04l-1.95,3.95c-3.09-.55-5.76-1.54-8.02-2.99s-3.97-3.23-5.13-5.35c-1.13,2.16-2.82,3.98-5.05,5.47s-4.87,2.51-7.9,3.07l-1.95-3.95c2.38-.39,4.48-1.1,6.28-2.13,1.8-1.03,3.21-2.26,4.22-3.69,1.01-1.43,1.58-2.94,1.73-4.53h-10.86v-4.02h26.99v4.02Z" fill="#1a2a66"/><path d="M447.88,111.41h-12.89v-4.61h12.89v4.61Z" fill="#1a2a66"/><path d="M100.02,152.09c.66,1.88,1.64,3.59,2.96,5.15,1.32,1.56,2.91,2.76,4.79,3.62l-2.77,3.91c-1.93-.89-3.6-2.17-5.02-3.86-1.42-1.69-2.54-3.64-3.36-5.85-.82,2.44-1.96,4.58-3.43,6.43-1.46,1.85-3.19,3.24-5.19,4.18l-2.89-3.95c1.9-.89,3.52-2.15,4.86-3.78,1.34-1.63,2.35-3.45,3.04-5.44s1.03-4,1.04-6.02v-2.19h-7.54v-4.06h19.69v4.06h-7.15v2.19c-.01,1.86.31,3.73.97,5.61ZM113.97,150.35h5.23v4.18h-5.23v17.81h-5v-35.55h5v13.55Z" fill="#1a2a66"/><path d="M149.17,141.25c0,1.9-.05,3.58-.14,5.04-.09,1.46-.33,3.09-.7,4.88h4.71v4.02h-32.54v-4.02h22.81c.35-1.6.59-3.08.7-4.44.12-1.36.18-2.81.2-4.35h-19.73v-3.98h24.69v2.85ZM149.05,171.95h-24.69v-13.01h24.69v13.01ZM129.25,167.97h14.84v-5.12h-14.84v5.12Z" fill="#1a2a66"/><path d="M196.79,158.24h-13.4v6.13h-4.92v-6.13h-14.22v-3.98h32.54v3.98ZM184.48,142.87c.94,1.32,2.31,2.46,4.12,3.44s3.96,1.63,6.46,1.97l-1.88,3.95c-2.94-.43-5.5-1.29-7.68-2.57-2.17-1.28-3.84-2.86-5-4.74-1.17,1.89-2.85,3.48-5.03,4.78-2.18,1.3-4.74,2.17-7.69,2.61l-1.84-3.91c2.49-.35,4.64-1.02,6.45-1.99s3.18-2.13,4.12-3.45c.94-1.32,1.41-2.69,1.43-4.09v-1.17h5.12v1.17c0,1.35.47,2.69,1.41,4ZM193.19,171.72h-25.12v-10.43h4.96v6.45h20.16v3.98Z" fill="#1a2a66"/><path d="M207.1,157.11v-2.05c-1.95-.27-3.49-.87-4.6-1.8-1.11-.92-1.66-2.08-1.65-3.46-.01-1.16.34-2.16,1.05-3s1.73-1.48,3.05-1.91c1.32-.44,2.85-.65,4.61-.63,1.75-.01,3.27.2,4.57.63,1.3.44,2.31,1.07,3.04,1.91s1.09,1.84,1.1,3c-.01,1.37-.57,2.51-1.68,3.44-1.11.92-2.62,1.53-4.53,1.82v1.82c3.18-.2,6.04-.48,8.59-.86l.35,3.44c-2.3.44-4.73.78-7.27,1.01-2.54.23-4.88.37-7.03.44-2.15.07-4.73.12-7.73.16l-.51-3.83c3.27,0,6.15-.04,8.63-.12ZM219.76,143.24h-20.35v-3.55h7.7v-3.01h4.96v3.01h7.7v3.55ZM228.51,171.72h-25.04v-9.02h5v5.04h20.04v3.98ZM206.61,148.13c-.68.37-1.01.93-1,1.67-.01.66.32,1.18,1.01,1.53.68.36,1.66.54,2.94.54s2.21-.18,2.89-.54c.68-.36,1.03-.87,1.05-1.53-.04-1.48-1.35-2.23-3.95-2.23-1.29,0-2.27.19-2.95.56ZM227.3,148.47h4.53v4.1h-4.53v11.95h-5v-27.73h5v11.68Z" fill="#1a2a66"/><path d="M88.3,198.8h4.25c.84,0,1.57.16,2.16.48.6.32,1.05.76,1.36,1.32.31.57.46,1.21.46,1.95s-.16,1.38-.46,1.94c-.31.57-.77,1.01-1.37,1.32-.6.32-1.33.47-2.18.47h-2.19v3.83h-2.03v-11.31ZM92.24,204.61c.74,0,1.29-.19,1.66-.56.37-.37.55-.87.55-1.5s-.18-1.14-.55-1.5c-.37-.36-.92-.55-1.66-.55h-1.91v4.11h1.91Z" fill="#5b6b8c"/><path d="M97.44,210.11l3.98-11.31h2.5l4,11.31h-2.17l-.95-2.8h-4.26l-.94,2.8h-2.17ZM104.26,205.67l-1.54-4.56h-.09l-1.53,4.56h3.16Z" fill="#5b6b8c"/><path d="M109.27,198.8h4.25c.85,0,1.57.15,2.17.45.6.3,1.05.72,1.36,1.26.31.54.46,1.17.46,1.9,0,.77-.17,1.43-.52,1.98-.35.55-.85.96-1.52,1.23l2.45,4.48h-2.27l-2.22-4.14h-2.12v4.14h-2.03v-11.31ZM113.21,204.26c1.48,0,2.22-.62,2.22-1.86,0-.61-.18-1.09-.55-1.41s-.92-.49-1.67-.49h-1.91v3.77h1.91Z" fill="#5b6b8c"/><path d="M118.76,198.8h9.02v1.7h-3.48v9.61h-2.03v-9.61h-3.5v-1.7Z" fill="#5b6b8c"/><path d="M137.65,210.11h-2.05v-9.33h-.06l-2.64,1.69v-1.86l2.8-1.81h1.95v11.31Z" fill="#5b6b8c"/><path d="M149.82,211.7h-.92v-14.5h.92v14.5Z" fill="#5b6b8c"/><path d="M160.41,207.58c.5,0,1.03-.01,1.6-.02s1.08-.02,1.51-.03v-1.3c-.53-.08-.99-.24-1.39-.48s-.7-.53-.91-.89c-.22-.36-.32-.76-.32-1.2,0-.53.15-.99.44-1.39.29-.4.7-.71,1.22-.93.52-.22,1.13-.33,1.81-.33s1.3.11,1.83.33c.53.22.95.53,1.24.93.3.4.45.86.45,1.39,0,.44-.11.83-.32,1.19-.22.35-.52.65-.92.89-.4.24-.86.4-1.38.48v1.24c1.31-.06,2.54-.16,3.67-.31l.12,1.3c-1.38.23-2.8.39-4.25.46s-3.04.11-4.77.11l-.25-1.44h.62ZM168.68,200.37h-8.59v-1.38h3.44v-1.58h1.73v1.58h3.42v1.38ZM163.05,202.71c-.33.23-.5.55-.49.96,0,.27.07.5.22.69s.37.34.64.45.59.15.95.14c.56.01,1-.1,1.34-.33.34-.23.5-.55.5-.95s-.17-.73-.5-.96-.78-.36-1.34-.37c-.55.01-.99.13-1.32.37ZM171.49,211.5h-1.73v-14.12h1.73v14.12Z" fill="#5b6b8c"/><path d="M179,203.24c.27.81.67,1.54,1.19,2.18s1.14,1.13,1.84,1.47l-1.06,1.39c-.75-.38-1.4-.92-1.95-1.62s-.98-1.52-1.29-2.44c-.32.98-.76,1.85-1.34,2.61-.58.75-1.26,1.33-2.05,1.72l-1.06-1.39c.73-.35,1.37-.86,1.91-1.53.54-.67.95-1.43,1.23-2.27.28-.85.43-1.71.43-2.59v-2.25h1.73v2.25c0,.84.13,1.67.4,2.48ZM184.62,202.9h2.17v1.48h-2.17v7.11h-1.73v-14.12h1.73v5.53Z" fill="#5b6b8c"/><path d="M193.55,198.68c.58.29,1.04.69,1.38,1.21.34.52.51,1.11.51,1.76,0,.57-.13,1.08-.38,1.55-.25.46-.6.85-1.04,1.16-.45.31-.95.52-1.53.62v2.08c1.28-.06,2.43-.16,3.45-.3l.12,1.3c-1.97.35-4.39.53-7.25.53-.33,0-.57,0-.72-.02h-.64l-.25-1.42c1.52,0,2.7-.01,3.55-.03v-2.13c-.59-.1-1.11-.3-1.56-.61-.45-.31-.8-.7-1.05-1.16s-.37-.99-.37-1.56c0-.66.16-1.24.48-1.76.33-.52.78-.92,1.37-1.21s1.24-.43,1.98-.43,1.37.14,1.95.43ZM190.49,199.96c-.33.16-.58.38-.76.68-.18.29-.27.63-.27,1.02s.09.73.28,1.02c.18.29.44.52.76.67s.69.23,1.1.23c.41,0,.77-.07,1.09-.23s.58-.38.76-.67c.18-.29.27-.63.27-1.02s-.09-.72-.27-1.02c-.18-.29-.43-.52-.76-.68-.32-.16-.69-.24-1.09-.25-.41,0-.78.09-1.11.25ZM198.49,203.01h2.05v1.47h-2.05v7.02h-1.73v-14.12h1.73v5.64Z" fill="#5b6b8c"/><path d="M211,198.77c.58.3,1.03.73,1.37,1.26.33.54.5,1.14.5,1.81s-.17,1.29-.5,1.83-.79.96-1.37,1.26c-.58.3-1.22.45-1.93.45s-1.36-.15-1.94-.45c-.58-.3-1.04-.72-1.37-1.26s-.5-1.15-.5-1.83.17-1.28.5-1.81c.33-.54.79-.96,1.37-1.26s1.23-.46,1.94-.46,1.35.15,1.93.46ZM207.98,200.08c-.32.17-.58.4-.76.71-.18.31-.27.66-.27,1.05,0,.41.08.76.27,1.07.18.31.43.54.76.71.32.17.68.25,1.09.25s.75-.08,1.06-.25c.32-.17.57-.4.75-.71.18-.31.28-.66.28-1.07s-.09-.75-.28-1.05c-.18-.31-.44-.54-.75-.71-.32-.17-.67-.25-1.06-.25s-.76.08-1.09.25ZM217.16,211.22h-9.73v-4.66h1.75v3.25h7.98v1.41ZM216.77,207.59h-1.75v-10.2h1.75v10.2Z" fill="#5b6b8c"/><path d="M231.74,209.8h-12.91v-1.45h12.91v1.45ZM230.62,200.08h-2.06v4.5h2.02v1.38h-10.62v-1.38h1.98v-4.5h-2.03v-1.39h10.72v1.39ZM226.83,204.58v-4.5h-3.17v4.5h3.17Z" fill="#5b6b8c"/><path d="M239.72,203.94h-4.75v2.81c1.2-.01,2.25-.05,3.17-.11.92-.06,1.84-.18,2.78-.34l.16,1.41c-1.03.19-2.06.32-3.08.38-1.02.07-2.22.1-3.59.1h-1.16v-5.64h4.73v-2.53h-4.77v-1.41h6.5v5.33ZM243.72,202.8h2.17v1.45h-2.17v7.27h-1.72v-14.14h1.72v5.42Z" fill="#5b6b8c"/></svg>