<?xml version="1.0" encoding="UTF-8"?><svg id="a" xmlns="http://www.w3.org/2000/svg" viewBox="0 0 1280 800"><path d="M94.96,168.05h-5.48v7.29c1.28,0,2.44-.04,3.47-.11s2.08-.21,3.14-.4l.23,1.65c-1.15.2-2.28.33-3.41.4-1.12.06-2.48.1-4.06.1h-1.32v-10.51h7.44v1.58ZM99.32,170.98h2.44v1.6h-2.44v8.28h-1.95v-15.91h1.95v6.03Z" fill="#5b6b8c"/><path d="M116.91,175.31h-6.31v5.54h-1.93v-5.54h-6.24v-1.62h14.48v1.62ZM111.42,168.23c.47.63,1.13,1.17,1.99,1.63.85.45,1.83.75,2.93.89l-.77,1.58c-1.34-.2-2.52-.61-3.55-1.23s-1.81-1.39-2.33-2.29c-.52.9-1.29,1.67-2.32,2.29s-2.2,1.04-3.52,1.23l-.77-1.58c1.09-.14,2.06-.44,2.91-.89s1.51-.99,1.98-1.63.7-1.28.7-1.95v-.81h2.06v.81c0,.67.24,1.32.71,1.95Z" fill="#5b6b8c"/><path d="M128.54,166.69c.58.38,1.04.92,1.4,1.63h3.71v-3.36h1.93v15.91h-1.93v-6.01h-3.57c-.35.79-.82,1.4-1.42,1.84s-1.29.65-2.06.65-1.5-.23-2.12-.69-1.1-1.11-1.44-1.96-.52-1.84-.52-2.98.17-2.11.52-2.96.83-1.5,1.45-1.96c.62-.46,1.32-.69,2.11-.69.71,0,1.36.19,1.94.57ZM125.44,168.33c-.33.31-.59.75-.77,1.33s-.27,1.26-.26,2.06c0,.8.08,1.49.26,2.07s.44,1.02.77,1.33.72.46,1.16.46.82-.15,1.16-.46c.33-.31.59-.75.77-1.33.18-.58.28-1.27.29-2.07,0-.8-.1-1.49-.29-2.07-.19-.58-.44-1.02-.77-1.33-.33-.3-.72-.46-1.16-.46s-.83.15-1.16.46ZM130.66,171.72c0,.53-.04,1.04-.12,1.55h3.11v-3.36h-3.16c.12.57.18,1.17.18,1.81Z" fill="#5b6b8c"/><path d="M144.17,169.54c.29.68.72,1.28,1.3,1.81s1.27.92,2.08,1.2l-1,1.55c-.89-.31-1.66-.77-2.3-1.37s-1.15-1.32-1.5-2.14c-.36.89-.87,1.66-1.53,2.32-.66.66-1.45,1.15-2.36,1.48l-1.02-1.55c.84-.29,1.55-.72,2.13-1.28.58-.56,1.02-1.2,1.31-1.91s.44-1.46.44-2.24v-1.55h2.02v1.55c0,.75.14,1.46.44,2.14ZM151.49,180.53h-10.95v-5.06h1.97v3.48h8.98v1.58ZM151.05,176.57h-1.97v-11.6h1.97v11.6Z" fill="#5b6b8c"/><path d="M158.42,176.43c.56,0,1.16-.01,1.8-.02s1.21-.02,1.7-.03v-1.46c-.6-.09-1.12-.27-1.56-.54-.44-.26-.79-.6-1.03-1-.24-.4-.37-.85-.37-1.35,0-.59.16-1.11.49-1.56s.79-.8,1.38-1.05c.59-.25,1.27-.37,2.04-.37s1.46.12,2.06.37,1.06.6,1.4,1.05.5.97.5,1.56c0,.49-.12.94-.37,1.34-.24.4-.59.73-1.03,1s-.96.45-1.56.54v1.4c1.48-.06,2.85-.18,4.13-.35l.14,1.46c-1.55.26-3.15.44-4.78.51s-3.42.12-5.36.12l-.28-1.62h.7ZM167.71,168.33h-9.67v-1.55h3.87v-1.78h1.95v1.78h3.85v1.55ZM161.38,170.96c-.38.26-.56.62-.55,1.08,0,.3.08.56.25.78.17.22.42.39.73.5s.67.17,1.06.16c.63.01,1.13-.11,1.51-.37.38-.26.57-.62.57-1.07s-.19-.82-.56-1.08-.88-.4-1.51-.41c-.62.01-1.11.15-1.49.41ZM170.88,180.85h-1.95v-15.89h1.95v15.89Z" fill="#5b6b8c"/><path d="M178.68,172c1.64-.06,3.21-.18,4.69-.37l.11,1.41c-1.27.21-2.61.36-4.01.46v3.06h-1.95v-2.95c-1.13.05-2.51.07-4.15.07l-.25-1.56c2.06-.01,3.91-.05,5.55-.11ZM180.36,165.91c.6.24,1.06.57,1.4.99.34.42.51.91.51,1.46,0,.56-.18,1.05-.51,1.48s-.8.75-1.4.98-1.28.34-2.05.34-1.47-.11-2.07-.34c-.6-.23-1.07-.55-1.4-.98s-.5-.91-.5-1.48.17-1.04.5-1.46.8-.76,1.4-.99c.6-.24,1.29-.36,2.07-.36s1.45.12,2.04.36ZM186.89,180.53h-11.65v-4.69h1.95v3.11h9.7v1.58ZM176.77,167.36c-.39.24-.58.58-.58,1.01s.2.76.58,1.01c.39.24.9.36,1.54.36s1.12-.12,1.5-.37.58-.58.59-1c0-.42-.2-.76-.59-1s-.89-.37-1.5-.37-1.15.12-1.54.36ZM186.52,177h-1.97v-1.39h-3.11v-1.37h3.11v-9.26h1.97v12.02Z" fill="#5b6b8c"/><path d="M194.89,171.56c.31.91.75,1.73,1.34,2.45s1.28,1.27,2.07,1.65l-1.2,1.56c-.84-.43-1.57-1.04-2.19-1.83-.62-.79-1.1-1.71-1.45-2.74-.36,1.11-.86,2.08-1.51,2.93-.65.85-1.42,1.49-2.31,1.94l-1.2-1.56c.83-.39,1.54-.97,2.15-1.72.61-.75,1.07-1.61,1.39-2.56.32-.95.48-1.92.49-2.91v-2.53h1.95v2.53c0,.95.14,1.88.45,2.79ZM201.2,171.18h2.44v1.67h-2.44v8h-1.95v-15.89h1.95v6.22Z" fill="#5b6b8c"/><path d="M218.81,173.64h-14.52v-1.48h14.52v1.48ZM217.06,178.21h-9.11v1.11h9.58v1.35h-11.53v-3.73h9.12v-.98h-9.14v-1.37h11.07v3.62ZM217.02,168.89h-8.95v1.04h9.23v1.34h-11.16v-3.64h8.93v-.97h-8.98v-1.35h10.93v3.59Z" fill="#5b6b8c"/><path d="M231.93,167.84h-5.19v4.32h.33c1.43,0,2.6-.04,3.51-.11.91-.07,1.81-.2,2.69-.39l.21,1.58c-1.01.2-2.06.33-3.13.4s-2.5.11-4.27.11h-1.28v-7.49h7.12v1.56ZM237.31,180.53h-10.81v-5.29h1.95v3.71h8.86v1.58ZM236.67,169.42h2.23v1.62h-2.23v5.41h-1.95v-11.5h1.95v4.46Z" fill="#5b6b8c"/><path d="M246.35,165.93c.64.31,1.14.73,1.51,1.28.37.54.55,1.16.56,1.85,0,.69-.19,1.31-.56,1.85-.37.54-.87.97-1.51,1.27s-1.36.46-2.15.46-1.53-.15-2.17-.46c-.64-.3-1.14-.73-1.51-1.27s-.54-1.16-.54-1.85.18-1.3.54-1.85.87-.97,1.51-1.28,1.37-.46,2.16-.46,1.51.15,2.15.46ZM243,167.32c-.35.16-.63.39-.83.69s-.3.64-.3,1.04.1.76.3,1.06.47.53.83.7.75.25,1.2.25.84-.08,1.2-.25.63-.4.83-.7.3-.65.3-1.06-.1-.75-.3-1.04-.47-.52-.83-.69-.75-.24-1.2-.24-.84.08-1.2.24ZM252.93,177.82h-8.6v1.28h9.07v1.55h-10.99v-4.27h8.56v-1.18h-8.6v-1.53h10.55v4.15ZM252.93,172.99h-1.97v-8.03h1.97v8.03Z" fill="#5b6b8c"/><path d="M268.65,167.36h-3.29c0,.65.15,1.28.44,1.9.29.62.71,1.17,1.28,1.66.56.49,1.23.87,2.03,1.13l-.98,1.51c-.87-.3-1.62-.73-2.25-1.31-.63-.57-1.12-1.24-1.48-2-.36.86-.88,1.6-1.53,2.23-.66.63-1.45,1.1-2.37,1.41l-1-1.55c.81-.28,1.51-.67,2.1-1.19.58-.52,1.03-1.1,1.33-1.76.3-.66.46-1.34.46-2.04h-3.3v-1.6h8.58v1.6ZM264.31,175.94h6.57v-1.65h1.95v6.36h-10.48v-6.36h1.95v1.65ZM270.88,179.07v-1.6h-6.57v1.6h6.57ZM272.83,173.62h-1.95v-3.39h-2.74v-1.62h2.74v-3.66h1.95v8.67Z" fill="#5b6b8c"/><path d="M281.35,169.47c.29.62.71,1.17,1.27,1.66s1.24.88,2.04,1.15l-.98,1.55c-.87-.3-1.62-.73-2.25-1.3-.63-.57-1.12-1.24-1.48-2-.36.85-.88,1.59-1.54,2.21s-1.45,1.09-2.36,1.39l-1-1.53c.82-.28,1.52-.67,2.11-1.2.58-.52,1.03-1.11,1.33-1.78.3-.67.45-1.35.45-2.07v-.12h-3.3v-1.58h8.58v1.58h-3.29v.14c0,.65.14,1.28.43,1.9ZM288.39,180.65h-10.56v-5.78h10.56v5.78ZM279.77,179.07h6.7v-2.65h-6.7v2.65ZM288.39,174.18h-1.95v-3.85h-2.74v-1.6h2.74v-3.78h1.95v9.23Z" fill="#5b6b8c"/><path d="M305.16,178.84h-14.52v-1.6h14.52v1.6ZM300.89,166.41c.9.37,1.61.9,2.13,1.58s.77,1.46.77,2.35-.26,1.69-.77,2.37-1.22,1.21-2.12,1.59c-.9.38-1.91.56-3.03.56s-2.12-.19-3.01-.56-1.6-.9-2.11-1.59c-.51-.68-.77-1.47-.76-2.37,0-.88.25-1.67.76-2.35.51-.68,1.22-1.21,2.11-1.58s1.9-.56,3.01-.56,2.12.19,3.02.56ZM295.81,167.79c-.61.24-1.09.58-1.43,1.02s-.52.95-.52,1.52.17,1.1.52,1.54.82.78,1.43,1.02c.61.24,1.29.36,2.06.36s1.46-.12,2.07-.36c.61-.24,1.08-.58,1.42-1.02.34-.44.51-.96.51-1.54s-.17-1.08-.51-1.52c-.34-.44-.82-.78-1.43-1.02s-1.3-.36-2.07-.35c-.76,0-1.45.11-2.06.35Z" fill="#5b6b8c"/><path d="M320.71,179h-14.52v-1.62h6.26v-2.58h-4.54v-5.2h9.14v-1.97h-9.18v-1.58h11.11v5.1h-9.12v2.06h9.49v1.6h-4.97v2.58h6.33v1.62Z" fill="#5b6b8c"/><path d="M340.51,173.94h-14.48v-1.58h14.48v1.58ZM339.21,167.31h-4.59c.1.45.37.86.82,1.25s1.04.72,1.8.99c.75.27,1.62.46,2.59.55l-.69,1.55c-1.44-.15-2.67-.5-3.7-1.03-1.03-.54-1.76-1.21-2.19-2.02-.43.81-1.16,1.48-2.18,2.02s-2.24.88-3.67,1.03l-.67-1.55c.96-.09,1.8-.28,2.55-.55s1.34-.6,1.79-.99c.45-.39.72-.81.82-1.25h-4.54v-1.6h11.87v1.6ZM336.19,175.34c.82.23,1.46.56,1.89,1s.66.96.67,1.57c0,.62-.23,1.14-.67,1.58s-1.07.77-1.89,1-1.8.34-2.94.34-2.15-.11-2.97-.34c-.83-.23-1.46-.56-1.9-1s-.66-.96-.66-1.58.22-1.13.66-1.57,1.08-.77,1.91-1,1.82-.34,2.97-.34,2.12.11,2.94.34ZM330.59,176.87c-.6.23-.9.58-.9,1.04,0,.46.29.8.9,1.04s1.49.35,2.65.35,2.02-.12,2.63-.35.92-.58.92-1.04c0-.46-.31-.8-.92-1.04s-1.49-.35-2.63-.35-2.05.12-2.65.35Z" fill="#5b6b8c"/><path d="M348.2,170.9c.19-1.16.3-2.33.33-3.52h-5.62v-1.56h7.58v.6c0,.66-.02,1.33-.06,2-.04.67-.13,1.45-.27,2.32.41-.04.95-.11,1.63-.19l.14,1.39c-1.32.23-2.72.4-4.18.51v3.48h-1.93v-3.37c-1.27.05-2.63.08-4.1.08l-.25-1.56c2.7-.01,4.94-.07,6.72-.18ZM355.38,180.53h-11.64v-4.85h1.95v3.27h9.69v1.58ZM355.01,176.94h-1.99v-1.92h-3.23v-1.55h3.23v-8.51h1.99v11.97Z" fill="#5b6b8c"/><path d="M363.27,171.56c.31.91.75,1.73,1.34,2.45s1.28,1.27,2.07,1.65l-1.2,1.56c-.84-.43-1.57-1.04-2.19-1.83-.62-.79-1.1-1.71-1.45-2.74-.36,1.11-.86,2.08-1.51,2.93-.65.85-1.42,1.49-2.31,1.94l-1.2-1.56c.83-.39,1.54-.97,2.15-1.72.61-.75,1.07-1.61,1.39-2.56.32-.95.48-1.92.49-2.91v-2.53h1.95v2.53c0,.95.14,1.88.45,2.79ZM369.58,171.18h2.44v1.67h-2.44v8h-1.95v-15.89h1.95v6.22Z" fill="#5b6b8c"/><path d="M383.46,171.63c.33.93.8,1.75,1.42,2.47s1.35,1.26,2.19,1.62l-1.16,1.56c-.9-.42-1.68-1.02-2.34-1.82-.67-.8-1.19-1.73-1.56-2.79-.38,1.15-.9,2.15-1.59,3.02-.68.86-1.5,1.52-2.44,1.96l-1.2-1.63c.86-.37,1.61-.93,2.25-1.67.63-.75,1.12-1.61,1.45-2.58s.5-1.97.5-2.99v-2.53h1.99v2.53c0,.98.16,1.93.48,2.86ZM390.18,180.86h-1.97v-15.91h1.97v15.91Z" fill="#5b6b8c"/><path d="M407.04,178.82h-14.52v-1.62h14.52v1.62ZM401.47,169.52c.49.77,1.18,1.44,2.05,2s1.85.93,2.94,1.12l-.88,1.63c-1.33-.28-2.51-.8-3.55-1.56-1.04-.76-1.81-1.67-2.32-2.75-.53,1.07-1.31,1.98-2.35,2.74-1.04.76-2.22,1.28-3.54,1.57l-.86-1.63c1.07-.19,2.04-.57,2.9-1.13.87-.56,1.54-1.23,2.04-2,.5-.77.75-1.56.75-2.37v-1.18h2.07v1.18c0,.81.25,1.61.74,2.38Z" fill="#5b6b8c"/><path d="M414.79,167.52h-4.17v1.49h3.57v1.51h-3.57v1.63c1.02-.01,1.88-.04,2.59-.09s1.43-.14,2.17-.28l.21,1.53c-.87.16-1.73.27-2.58.32-.85.06-1.92.08-3.22.08h-1.05v-7.79h6.05v1.58ZM421.67,180.65h-10.72v-5.52h10.72v5.52ZM412.89,179.07h6.84v-2.39h-6.84v2.39ZM418.54,174.34h-1.86v-3.92h-1.79v-1.58h1.79v-3.62h1.86v9.12ZM421.67,174.47h-1.86v-9.51h1.86v9.51Z" fill="#5b6b8c"/><path d="M87.52,188.16h4.78c.96,0,1.77.17,2.44.51.67.34,1.18.81,1.52,1.42s.52,1.32.52,2.14c0,.87-.2,1.61-.58,2.23-.39.62-.96,1.08-1.71,1.39l2.75,5.04h-2.55l-2.5-4.66h-2.39v4.66h-2.29v-12.73ZM91.95,194.31c1.66,0,2.5-.7,2.5-2.09,0-.69-.21-1.22-.62-1.59s-1.04-.55-1.88-.55h-2.14v4.24h2.14Z" fill="#5b6b8c"/><path d="M101.57,188.16l3.78,9.25h.16l3.78-9.25h2.81v12.73h-2.2v-8.75h-.12l-3.53,8.72h-1.63l-3.53-8.75h-.11v8.79h-2.21v-12.73h2.81Z" fill="#5b6b8c"/><path d="M120.65,190.39c-.43-.3-.99-.46-1.68-.46-.47,0-.88.07-1.23.21s-.62.34-.81.59-.28.54-.28.85c0,.49.2.86.61,1.13s.93.48,1.57.63l1.2.32c1.1.25,1.99.67,2.69,1.25.69.58,1.04,1.38,1.04,2.4,0,.74-.19,1.4-.57,1.97s-.93,1.01-1.66,1.32c-.72.31-1.59.47-2.59.47s-1.85-.15-2.58-.46-1.29-.76-1.7-1.34c-.41-.59-.63-1.3-.66-2.13h2.25c.05.64.32,1.14.81,1.48.49.34,1.11.51,1.86.51.5,0,.94-.08,1.33-.23s.69-.37.9-.65c.21-.28.32-.6.32-.95,0-.46-.19-.82-.58-1.09-.38-.26-.96-.49-1.73-.69l-1.44-.37c-2.26-.59-3.39-1.73-3.39-3.43,0-.74.2-1.39.61-1.96s.96-1,1.67-1.32c.71-.31,1.51-.47,2.39-.47s1.68.16,2.37.47c.69.31,1.22.75,1.61,1.31.38.56.58,1.19.59,1.9h-2.2c-.05-.54-.29-.96-.72-1.27Z" fill="#5b6b8c"/><path d="M126.25,196.5c-.21-.12-.38-.29-.5-.5s-.18-.44-.18-.69.06-.46.18-.67.29-.37.5-.5.44-.18.69-.18.46.06.66.18c.21.12.38.29.5.5.13.21.19.43.19.67s-.06.47-.19.69c-.12.21-.29.38-.5.5-.21.12-.43.18-.66.18-.25,0-.47-.06-.69-.18Z" fill="#5b6b8c"/><path d="M144.41,195.73h-14.5v-1.56h6.29v-1.51h-4.52v-5.38h10.97v1.53h-9.02v2.3h9.11v1.55h-4.62v1.51h6.29v1.56ZM140.07,196.98c.82.23,1.45.56,1.89.99s.66.96.67,1.57c0,.61-.23,1.13-.67,1.56s-1.07.76-1.89.99c-.82.23-1.8.34-2.94.34s-2.14-.11-2.97-.34-1.47-.56-1.91-.99-.66-.96-.66-1.56.22-1.14.66-1.57,1.07-.76,1.9-.99c.83-.23,1.82-.34,2.97-.34s2.12.11,2.94.34ZM134.48,198.5c-.61.24-.91.59-.9,1.05,0,.46.29.8.9,1.04s1.49.35,2.65.35,2.02-.12,2.63-.35.92-.58.92-1.04c0-.46-.31-.81-.93-1.05-.61-.24-1.49-.36-2.62-.36s-2.04.12-2.65.36Z" fill="#5b6b8c"/><path d="M151.73,191.19c.29.62.71,1.17,1.27,1.66s1.24.87,2.04,1.14l-.98,1.51c-.87-.28-1.62-.71-2.25-1.27-.63-.57-1.12-1.23-1.48-2-.36.85-.87,1.59-1.53,2.22s-1.45,1.1-2.37,1.4l-1-1.55c.82-.27,1.52-.66,2.11-1.18.58-.52,1.03-1.11,1.33-1.78.3-.67.45-1.35.45-2.05v-.21h-3.3v-1.56h8.58v1.56h-3.29v.19c0,.66.14,1.29.43,1.91ZM158.77,202.45h-1.95v-4.1h-8.88v-1.56h10.83v5.66ZM158.77,196.03h-1.95v-3.94h-2.71v-1.6h2.71v-3.94h1.95v9.47Z" fill="#5b6b8c"/><path d="M168.75,189.16h-5.13v4.06c1.51,0,2.75-.04,3.71-.11.96-.07,1.9-.2,2.83-.39l.21,1.55c-.98.22-2,.36-3.04.43s-2.5.1-4.36.1h-1.28v-7.22h7.07v1.58ZM173.55,202.24h-10.27v-6.01h10.27v6.01ZM165.22,200.69h6.4v-2.9h-6.4v2.9ZM173.55,190.25h2.21v1.62h-2.21v3.64h-1.95v-8.95h1.95v3.69Z" fill="#5b6b8c"/><path d="M191.09,200.53h-14.52v-1.6h6.26v-3.09h-4.66v-8.23h1.95v2.6h7.37v-2.6h1.95v8.23h-4.68v3.09h6.33v1.6ZM187.49,194.25v-2.48h-7.37v2.48h7.37Z" fill="#5b6b8c"/><path d="M197,194.53c1.88-.08,3.5-.22,4.87-.41l.11,1.41c-1.46.26-2.99.44-4.58.52-1.59.08-3.34.13-5.26.15l-.18-1.56h.32l2.79-.04v-3.23h1.93v3.17ZM201.01,188.68v.21c-.01.81-.04,1.55-.09,2.21s-.15,1.42-.3,2.25l-1.93-.18c.14-.74.24-1.41.29-2.01s.09-1.21.11-1.82h-6.18v-1.62h8.1v.95ZM205.31,202.13h-10.99v-4.73h1.97v3.15h9.02v1.58ZM204.8,191.51h2.06v1.63h-2.06v5.31h-2v-11.9h2v4.96Z" fill="#5b6b8c"/><path d="M216.04,193.9h-5.47v3.2c1.34-.01,2.57-.06,3.7-.14,1.12-.08,2.27-.22,3.44-.42l.18,1.6c-1.26.22-2.5.37-3.72.45s-2.62.11-4.21.11h-1.39v-6.35h5.48v-2.83h-5.5v-1.58h7.49v5.96ZM220.92,202.46h-1.93v-15.91h1.93v15.91Z" fill="#5b6b8c"/><path d="M224.49,196.5c-.21-.12-.38-.29-.5-.5s-.18-.44-.18-.69.06-.46.18-.67.29-.37.5-.5.44-.18.69-.18.46.06.66.18c.21.12.38.29.5.5.13.21.19.43.19.67s-.06.47-.19.69c-.12.21-.29.38-.5.5-.21.12-.43.18-.66.18-.25,0-.47-.06-.69-.18Z" fill="#5b6b8c"/><path d="M235,190.39c-.43-.3-.99-.46-1.68-.46-.47,0-.88.07-1.23.21s-.62.34-.81.59-.28.54-.28.85c0,.49.2.86.61,1.13s.93.48,1.57.63l1.2.32c1.1.25,1.99.67,2.69,1.25.69.58,1.04,1.38,1.04,2.4,0,.74-.19,1.4-.57,1.97s-.93,1.01-1.66,1.32c-.72.31-1.59.47-2.59.47s-1.85-.15-2.58-.46-1.29-.76-1.7-1.34c-.41-.59-.63-1.3-.66-2.13h2.25c.05.64.32,1.14.81,1.48.49.34,1.11.51,1.86.51.5,0,.94-.08,1.33-.23s.69-.37.9-.65c.21-.28.32-.6.32-.95,0-.46-.19-.82-.58-1.09-.38-.26-.96-.49-1.73-.69l-1.44-.37c-2.26-.59-3.39-1.73-3.39-3.43,0-.74.2-1.39.61-1.96s.96-1,1.67-1.32c.71-.31,1.51-.47,2.39-.47s1.68.16,2.37.47c.69.31,1.22.75,1.61,1.31.38.56.58,1.19.59,1.9h-2.2c-.05-.54-.29-.96-.72-1.27Z" fill="#5b6b8c"/><path d="M240,188.16h4.78c.95,0,1.76.18,2.43.54s1.18.85,1.53,1.49.52,1.37.52,2.19-.17,1.55-.52,2.18c-.35.64-.86,1.13-1.54,1.49s-1.5.53-2.45.53h-2.46v4.31h-2.29v-12.73ZM244.43,194.69c.83,0,1.46-.21,1.87-.63s.62-.98.62-1.69-.21-1.28-.62-1.69-1.04-.62-1.87-.62h-2.14v4.62h2.14Z" fill="#5b6b8c"/><path d="M259.13,191.15c-.28-.36-.64-.64-1.07-.83-.43-.19-.9-.29-1.42-.29-.7,0-1.32.17-1.85.52s-.95.86-1.25,1.53-.45,1.48-.45,2.43.15,1.76.45,2.43.72,1.18,1.25,1.53c.54.35,1.15.52,1.85.52.5,0,.97-.09,1.39-.28.43-.18.78-.45,1.07-.8s.48-.77.58-1.26h2.3c-.12.82-.41,1.56-.88,2.23-.47.67-1.09,1.2-1.87,1.58s-1.65.58-2.63.58c-1.12,0-2.12-.26-3-.79-.88-.52-1.57-1.28-2.07-2.27s-.75-2.15-.75-3.48.25-2.5.75-3.49c.5-.98,1.19-1.74,2.07-2.26.88-.52,1.88-.79,2.99-.79.94,0,1.79.18,2.56.53s1.4.87,1.89,1.54.8,1.47.93,2.4h-2.3c-.09-.5-.27-.93-.55-1.29Z" fill="#5b6b8c"/><path d="M273.75,193.59c.32.84.78,1.61,1.38,2.3.6.69,1.3,1.22,2.11,1.6l-1.09,1.55c-.87-.41-1.64-1.01-2.29-1.81s-1.17-1.7-1.54-2.73c-.37,1.12-.89,2.11-1.57,2.98s-1.47,1.51-2.36,1.94l-1.14-1.53c.81-.39,1.53-.95,2.15-1.68.62-.73,1.09-1.55,1.42-2.45.33-.9.5-1.8.51-2.69v-1.34h-3.46v-1.62h8.74v1.62h-3.32v1.34c0,.83.16,1.67.48,2.51ZM280.02,192.74h2.44v1.63h-2.44v8.07h-1.95v-15.89h1.95v6.19Z" fill="#5b6b8c"/><path d="M295.88,188.56c0,.85-.02,1.61-.07,2.27-.04.67-.15,1.41-.32,2.25h2.16v1.58h-14.52v-1.58h10.38c.17-.77.28-1.48.33-2.13s.08-1.33.08-2.06h-9v-1.56h10.95v1.23ZM295.86,202.25h-10.99v-5.75h10.99v5.75ZM286.79,200.67h7.14v-2.64h-7.14v2.64Z" fill="#5b6b8c"/><path d="M303.56,194.53c1.88-.08,3.5-.22,4.87-.41l.11,1.41c-1.46.26-2.99.44-4.58.52-1.59.08-3.34.13-5.26.15l-.18-1.56h.32l2.79-.04v-3.23h1.93v3.17ZM307.57,188.68v.21c-.01.81-.04,1.55-.09,2.21s-.15,1.42-.3,2.25l-1.93-.18c.14-.74.24-1.41.29-2.01s.09-1.21.11-1.82h-6.18v-1.62h8.1v.95ZM311.87,202.13h-10.99v-4.73h1.97v3.15h9.02v1.58ZM311.36,191.51h2.06v1.63h-2.06v5.31h-2v-11.9h2v4.96Z" fill="#5b6b8c"/><path d="M322.59,193.9h-5.47v3.2c1.34-.01,2.57-.06,3.7-.14,1.12-.08,2.27-.22,3.44-.42l.18,1.6c-1.26.22-2.5.37-3.72.45s-2.62.11-4.21.11h-1.39v-6.35h5.48v-2.83h-5.5v-1.58h7.49v5.96ZM327.48,202.46h-1.93v-15.91h1.93v15.91Z" fill="#5b6b8c"/><path d="M340.24,201.67h-1.86v-7.56h-1.51c-.06,1.03-.24,1.91-.54,2.67-.3.75-.7,1.33-1.21,1.73s-1.08.6-1.73.59c-.69,0-1.29-.22-1.81-.68-.52-.46-.92-1.12-1.2-1.98s-.42-1.86-.42-3.02.14-2.16.42-3.01.68-1.51,1.2-1.96c.52-.46,1.12-.69,1.81-.69.64,0,1.21.19,1.7.57.49.38.89.93,1.2,1.64.3.71.49,1.56.57,2.55h1.53v-5.7h1.86v14.84ZM332.52,190.04c-.25.29-.43.73-.56,1.3s-.19,1.27-.18,2.08c0,.81.06,1.51.18,2.08s.32,1.01.56,1.3.54.44.87.43c.53.01.95-.31,1.24-.98.29-.66.44-1.61.44-2.84s-.15-2.18-.44-2.84c-.3-.66-.71-.99-1.24-.98-.33,0-.62.14-.87.43ZM343.51,202.45h-1.88v-15.89h1.88v15.89Z" fill="#5b6b8c"/><path d="M362.94,198.23h-1.95v-3.94h-3.79c-.38.43-.84.77-1.39,1.01-.55.24-1.13.36-1.76.36-.79,0-1.5-.18-2.14-.53-.64-.35-1.14-.84-1.51-1.45-.37-.62-.55-1.31-.55-2.08s.18-1.48.55-2.1c.37-.62.87-1.11,1.51-1.45s1.35-.52,2.14-.52c.63,0,1.21.12,1.75.36.54.24,1.01.57,1.39,1h3.8v-2.3h1.95v11.65ZM352.83,189.55c-.35.19-.63.47-.83.82s-.3.76-.3,1.23.1.87.3,1.22.47.62.83.81.76.29,1.21.29.82-.1,1.17-.29.62-.47.82-.82c.2-.35.31-.76.31-1.21,0-.46-.11-.87-.31-1.23-.2-.35-.48-.63-.82-.82s-.74-.29-1.17-.29c-.46,0-.86.1-1.21.29ZM363.34,202.13h-10.83v-5.1h1.95v3.52h8.88v1.58ZM358.21,191.6c0,.38-.05.74-.15,1.11h2.93v-2.25h-2.94c.11.39.16.77.16,1.14Z" fill="#5b6b8c"/><path d="M378.49,194.61h-1.95v-1.39h-3.83v-1.49h3.83v-1.56h-3.63c-.98,2.4-3.25,4-6.83,4.8l-.69-1.6c1.82-.38,3.22-.95,4.2-1.73.97-.78,1.53-1.71,1.67-2.8h-4.99v-1.58h7.17c0,.46-.04.94-.11,1.42h3.21v-2.11h1.95v8.05ZM378.49,199.41h-8.49v1.32h8.91v1.56h-10.86v-4.34h8.49v-1.18h-8.51v-1.55h10.46v4.18Z" fill="#5b6b8c"/><path d="M105.09,99.62c-.56-.76-1.28-1.34-2.15-1.75-.87-.4-1.86-.61-2.95-.61-1.47,0-2.76.37-3.86,1.1-1.1.74-1.95,1.8-2.55,3.2-.6,1.4-.9,3.08-.9,5.03s.3,3.69.9,5.09c.6,1.4,1.45,2.46,2.54,3.17,1.09.72,2.37,1.07,3.83,1.07,1.63,0,3-.43,4.11-1.29s1.81-2.04,2.1-3.55l5.94.04c-.22,1.78-.85,3.44-1.89,4.96-1.04,1.52-2.45,2.74-4.22,3.66-1.77.92-3.81,1.38-6.11,1.38-2.54,0-4.8-.58-6.8-1.73s-3.55-2.82-4.68-5.01c-1.13-2.19-1.69-4.79-1.69-7.79s.57-5.59,1.71-7.78c1.14-2.19,2.71-3.87,4.71-5.02,2-1.15,4.25-1.73,6.75-1.73,2.17,0,4.14.4,5.9,1.21,1.76.81,3.19,1.98,4.29,3.53,1.1,1.54,1.78,3.38,2.04,5.5h-5.94c-.16-1.03-.52-1.92-1.07-2.69Z" fill="#1a2a66"/><path d="M116.2,92.47h5.86v23.44h12.19v4.84h-18.05v-28.28Z" fill="#1a2a66"/><path d="M151.09,111.41h-12.89v-4.61h12.89v4.61Z" fill="#1a2a66"/><path d="M156.01,92.47h5.86v23.44h12.19v4.84h-18.05v-28.28Z" fill="#1a2a66"/><path d="M179.02,96.36c-.49-.27-.87-.62-1.15-1.07-.28-.45-.42-.93-.42-1.46s.14-1.03.42-1.48c.28-.46.66-.82,1.15-1.08.49-.27,1.02-.4,1.59-.4s1.08.13,1.56.4c.48.27.86.63,1.14,1.08.28.46.42.95.42,1.48s-.14,1.01-.42,1.46c-.28.45-.66.81-1.14,1.07-.48.27-1,.4-1.56.4s-1.1-.13-1.59-.4ZM177.73,99.54h5.78v21.21h-5.78v-21.21Z" fill="#1a2a66"/><path d="M193.78,120.75h-5.78v-21.21h5.51v3.71h.23c.49-1.25,1.29-2.23,2.4-2.93,1.11-.7,2.43-1.05,3.96-1.05s2.76.32,3.87.96c1.11.64,1.96,1.56,2.56,2.76.6,1.2.89,2.62.88,4.25v13.52h-5.74v-12.5c0-1.3-.34-2.32-1.02-3.07-.68-.74-1.62-1.11-2.81-1.11s-2.22.39-2.96,1.17c-.74.78-1.1,1.86-1.1,3.24v12.27Z" fill="#1a2a66"/><path d="M211.91,92.47h5.78v15.2h.31l6.88-8.12h6.64l-7.91,9.18,8.34,12.03h-6.8l-5.84-8.63-1.62,1.84v6.8h-5.78v-28.28Z" fill="#1a2a66"/><path d="M272.18,114.81h-4.96v-8.44h-8.12c-.87.92-1.91,1.64-3.12,2.16-1.21.51-2.48.77-3.84.77-1.77,0-3.38-.4-4.82-1.19-1.45-.79-2.58-1.89-3.41-3.29-.83-1.4-1.23-2.97-1.22-4.7-.01-1.76.39-3.34,1.21-4.74.82-1.4,1.95-2.5,3.4-3.3s3.06-1.21,4.84-1.22c1.37.01,2.65.27,3.84.78s2.22,1.22,3.1,2.15h8.14v-4.96h4.96v25.98ZM249.67,95.89c-.72.38-1.28.94-1.68,1.67-.4.73-.59,1.58-.58,2.56-.01.96.18,1.81.58,2.53.4.72.96,1.28,1.68,1.66.72.38,1.54.58,2.47.58.87,0,1.66-.19,2.37-.58.71-.38,1.27-.94,1.67-1.66.4-.72.61-1.57.61-2.53s-.2-1.83-.61-2.56c-.4-.73-.96-1.29-1.67-1.67-.71-.38-1.5-.58-2.37-.58-.93,0-1.75.19-2.47.58ZM273.04,123.72h-24.45v-11.52h5v7.54h19.45v3.98ZM261.51,100.12c0,.76-.09,1.51-.27,2.27h5.98v-4.61h-5.98c.18.77.27,1.55.27,2.34Z" fill="#1a2a66"/><path d="M306.75,106.68h-4.96v-2.73h-8.12v-3.79h8.12v-3.12h-7.75c-1.08,2.66-2.88,4.85-5.41,6.58-2.53,1.73-5.77,3.03-9.73,3.89l-1.68-4.06c3.95-.78,6.94-1.96,8.98-3.54,2.04-1.58,3.23-3.49,3.57-5.71h-10.57v-4.02h16.09c0,1.08-.08,2.11-.23,3.09h6.72v-4.45h4.96v17.89ZM306.75,117.7h-18.59v2.34h19.38v3.95h-24.38v-9.96h18.59v-2.15h-18.63v-3.91h23.63v9.73Z" fill="#1a2a66"/><path d="M349.21,94.07c0,2.27-.05,4.27-.16,6.01-.11,1.74-.36,3.71-.76,5.91h4.71v4.02h-13.87v14.38h-5v-14.38h-13.55v-4.02h22.68c.42-2.06.69-3.94.81-5.65.12-1.71.19-3.54.19-5.48h-19.96v-3.98h24.92v3.2Z" fill="#1a2a66"/><path d="M387.69,120.2h-32.54v-4.02h13.75v-7.93h5v7.93h13.79v4.02ZM384.84,95.51h-10.82c.14,1.59.72,3.09,1.74,4.5,1.02,1.41,2.44,2.62,4.27,3.61,1.83,1,3.98,1.68,6.46,2.04l-1.95,3.95c-3.09-.55-5.76-1.54-8.02-2.99-2.26-1.45-3.97-3.23-5.13-5.35-1.13,2.16-2.82,3.98-5.05,5.47-2.23,1.48-4.87,2.51-7.9,3.07l-1.95-3.95c2.38-.39,4.47-1.1,6.28-2.13,1.8-1.03,3.21-2.26,4.22-3.69,1.01-1.43,1.58-2.94,1.73-4.53h-10.86v-4.02h26.99v4.02Z" fill="#1a2a66"/><path d="M413.31,111.41h-12.89v-4.61h12.89v4.61Z" fill="#1a2a66"/><path d="M440.24,92.54c1.28.83,2.33,2.02,3.15,3.55h7.81v-7.3h4.92v35.62h-4.92v-13.32h-7.44c-.79,1.77-1.87,3.14-3.23,4.1-1.36.96-2.89,1.45-4.6,1.45-1.8,0-3.4-.52-4.79-1.55-1.4-1.04-2.49-2.51-3.27-4.43-.78-1.92-1.17-4.16-1.15-6.71-.01-2.54.37-4.76,1.15-6.67.78-1.91,1.87-3.38,3.27-4.42,1.4-1.04,3-1.56,4.79-1.56,1.59,0,3.02.42,4.31,1.25ZM433.59,96.73c-.68.63-1.2,1.56-1.57,2.79s-.55,2.71-.54,4.42c-.01,1.73.17,3.21.54,4.43.37,1.22.89,2.15,1.56,2.78.67.63,1.46.95,2.35.95s1.68-.31,2.35-.94c.67-.62,1.19-1.55,1.55-2.77.36-1.22.55-2.71.55-4.45s-.18-3.21-.55-4.43c-.37-1.22-.88-2.15-1.55-2.78-.67-.63-1.46-.95-2.35-.95s-1.67.32-2.34.95ZM445.15,103.95c0,.98-.08,2.03-.23,3.16h6.29v-6.99h-6.43c.25,1.24.37,2.51.37,3.83Z" fill="#1a2a66"/><path d="M475.2,98.85c.59,1.47,1.51,2.78,2.75,3.93,1.24,1.15,2.81,2.02,4.7,2.62l-2.54,3.91c-1.95-.65-3.63-1.61-5.04-2.87-1.41-1.26-2.51-2.76-3.32-4.49-.82,1.88-1.95,3.5-3.4,4.88-1.45,1.38-3.18,2.42-5.2,3.11l-2.58-3.95c1.91-.64,3.51-1.57,4.79-2.79,1.28-1.22,2.23-2.61,2.84-4.15.61-1.54.92-3.15.92-4.81v-3.44h5.2v3.44c-.01,1.61.28,3.16.87,4.63ZM491.4,123.72h-24.77v-11.45h5.04v7.46h19.73v3.98ZM490.46,114.77h-5v-25.94h5v25.94Z" fill="#1a2a66"/><path d="M521.91,95.63h-11.05v8.98c3.37-.03,6.06-.11,8.07-.25,2-.14,3.96-.42,5.88-.84l.51,3.98c-2.15.46-4.39.76-6.74.91-2.34.15-5.58.22-9.71.22h-3.01v-16.99h16.05v3.98ZM533.98,123.72h-24.34v-11.95h4.96v7.97h19.38v3.98ZM532.69,98.48h4.8v4.1h-4.8v11.91h-5v-25.7h5v9.69Z" fill="#1a2a66"/><path d="M554.01,90.88c1.45.69,2.58,1.65,3.41,2.89.83,1.24,1.24,2.64,1.24,4.2s-.41,2.92-1.24,4.15c-.83,1.23-1.96,2.19-3.41,2.89-1.45.7-3.06,1.04-4.84,1.04s-3.45-.35-4.9-1.04c-1.46-.7-2.6-1.66-3.43-2.89-.83-1.23-1.24-2.61-1.24-4.15s.41-2.96,1.24-4.2c.83-1.24,1.96-2.2,3.42-2.89,1.45-.69,3.09-1.04,4.91-1.04s3.4.35,4.84,1.04ZM546.72,94.39c-.72.32-1.29.79-1.69,1.41-.4.62-.6,1.34-.59,2.18-.01.83.18,1.56.59,2.17.4.61.97,1.08,1.69,1.41.72.33,1.54.49,2.45.49s1.7-.16,2.41-.49c.71-.33,1.27-.79,1.67-1.41.4-.61.61-1.33.61-2.17s-.2-1.58-.61-2.19c-.4-.61-.96-1.08-1.67-1.4-.71-.32-1.51-.48-2.41-.48s-1.73.16-2.45.48ZM568.82,117.74h-18.91v2.3h19.88v3.91h-24.77v-9.84h18.83v-2.19h-18.91v-3.83h23.87v9.65ZM568.82,106.61h-5v-17.81h5v17.81Z" fill="#1a2a66"/><path d="M603.35,94.46h-7.05c.08,1.37.43,2.7,1.04,3.98.62,1.29,1.52,2.45,2.71,3.48,1.19,1.03,2.65,1.82,4.38,2.38l-2.46,3.83c-1.93-.64-3.58-1.56-4.95-2.77-1.38-1.21-2.46-2.64-3.25-4.28-.81,1.84-1.93,3.43-3.38,4.78s-3.18,2.35-5.21,3.02l-2.54-3.91c1.8-.6,3.32-1.44,4.56-2.53,1.24-1.09,2.19-2.31,2.85-3.68.66-1.37,1.03-2.8,1.12-4.3h-7.13v-4.06h19.3v4.06ZM594.01,112.97h13.83v-3.36h4.96v14.34h-23.71v-14.34h4.92v3.36ZM607.84,119.97v-3.16h-13.83v3.16h13.83ZM612.8,108.25h-4.96v-7.42h-5.62v-4.06h5.62v-7.97h4.96v19.45Z" fill="#1a2a66"/><path d="M637.92,94.61h-7.07c.03,1.41.34,2.77.95,4.1s1.51,2.53,2.72,3.6,2.71,1.9,4.49,2.49l-2.46,3.95c-1.93-.64-3.58-1.57-4.95-2.78-1.37-1.22-2.46-2.66-3.25-4.33-.82,1.84-1.95,3.42-3.39,4.76-1.44,1.33-3.17,2.33-5.21,2.98l-2.54-3.91c1.85-.59,3.4-1.44,4.67-2.57,1.26-1.13,2.21-2.4,2.85-3.83.64-1.43.98-2.91,1.04-4.46h-7.15v-4.02h19.3v4.02ZM647.37,123.95h-23.91v-13.12h23.91v13.12ZM628.47,119.97h14.02v-5.23h-14.02v5.23ZM647.37,109.34h-4.96v-8.28h-5.62v-4.06h5.62v-8.2h4.96v20.55Z" fill="#1a2a66"/><path d="M667.79,108.31c0,2.51.21,4.83.64,6.98.43,2.15,1.14,4.24,2.14,6.28s2.35,4.19,4.06,6.46l-.88.8c-3.31-2.93-5.81-6.04-7.52-9.32-1.71-3.28-2.56-7.01-2.56-11.2s.85-7.92,2.56-11.2c1.71-3.28,4.21-6.37,7.52-9.28l.88.8c-1.79,2.27-3.17,4.43-4.16,6.48-.99,2.05-1.68,4.14-2.08,6.26-.4,2.12-.6,4.43-.6,6.94Z" fill="#1a2a66"/><path d="M702.12,120.75h-5.08l-12.42-17.97h-.23v17.97h-5.86v-28.28h5.16l12.34,17.97h.27v-17.97h5.82v28.28Z" fill="#1a2a66"/><path d="M708.51,105.77c-.51-.3-.91-.7-1.2-1.2-.29-.5-.43-1.04-.42-1.63-.01-.59.13-1.13.42-1.62.29-.49.69-.89,1.2-1.18s1.06-.44,1.66-.44c.56,0,1.09.15,1.59.44s.9.69,1.2,1.18c.3.5.45,1.04.45,1.62s-.15,1.13-.45,1.63c-.3.5-.7.9-1.2,1.2-.5.3-1.03.45-1.59.45-.6,0-1.15-.15-1.66-.45ZM708.51,120.65c-.51-.3-.91-.7-1.2-1.2-.29-.5-.43-1.04-.42-1.63-.01-.59.13-1.13.42-1.62.29-.49.69-.89,1.2-1.18s1.06-.44,1.66-.44c.56,0,1.09.15,1.59.44s.9.69,1.2,1.18c.3.5.45,1.04.45,1.62s-.15,1.13-.45,1.63c-.3.5-.7.9-1.2,1.2s-1.03.45-1.59.45c-.6,0-1.15-.15-1.66-.45Z" fill="#1a2a66"/><path d="M730.21,120.75h-5.9v-22.7h-.16l-6.48,4.06v-5.2l6.99-4.45h5.55v28.28Z" fill="#1a2a66"/><path d="M742.91,108.31c0-2.51-.21-4.83-.64-6.96-.43-2.13-1.14-4.23-2.14-6.28-1-2.05-2.35-4.2-4.06-6.44l.88-.8c3.31,2.91,5.81,6,7.52,9.28,1.71,3.28,2.56,7.01,2.56,11.2s-.85,7.92-2.56,11.2c-1.71,3.28-4.21,6.39-7.52,9.32l-.88-.8c1.79-2.29,3.17-4.46,4.16-6.5.99-2.04,1.68-4.13,2.08-6.26.4-2.13.6-4.45.6-6.96Z" fill="#1a2a66"/><path d="M88.3,143.34h4.25c.84,0,1.56.16,2.16.48.6.32,1.05.76,1.36,1.32.31.57.46,1.21.46,1.95s-.16,1.38-.46,1.94c-.31.57-.77,1.01-1.37,1.32-.61.32-1.33.47-2.18.47h-2.19v3.83h-2.03v-11.31ZM92.24,149.15c.74,0,1.29-.19,1.66-.56.37-.37.55-.87.55-1.5s-.19-1.14-.55-1.5c-.37-.36-.93-.55-1.66-.55h-1.91v4.11h1.91Z" fill="#5b6b8c"/><path d="M97.44,154.65l3.98-11.31h2.5l4,11.31h-2.17l-.95-2.8h-4.26l-.94,2.8h-2.17ZM104.26,150.21l-1.54-4.56h-.09l-1.53,4.56h3.16Z" fill="#5b6b8c"/><path d="M109.27,143.34h4.25c.85,0,1.57.15,2.17.45.6.3,1.05.72,1.36,1.26.31.54.46,1.17.46,1.9,0,.77-.17,1.43-.52,1.98-.35.55-.85.96-1.52,1.23l2.45,4.48h-2.27l-2.22-4.14h-2.12v4.14h-2.03v-11.31ZM113.21,148.81c1.48,0,2.22-.62,2.22-1.86,0-.61-.18-1.09-.55-1.41-.37-.33-.92-.49-1.67-.49h-1.91v3.77h1.91Z" fill="#5b6b8c"/><path d="M118.76,143.34h9.02v1.7h-3.48v9.61h-2.03v-9.61h-3.5v-1.7Z" fill="#5b6b8c"/><path d="M137.65,154.65h-2.05v-9.33h-.06l-2.64,1.69v-1.86l2.8-1.81h1.95v11.31Z" fill="#5b6b8c"/><path d="M149.82,156.25h-.92v-14.5h.92v14.5Z" fill="#5b6b8c"/><path d="M160.41,152.12c.49,0,1.03-.01,1.6-.02.57,0,1.07-.02,1.51-.03v-1.3c-.53-.08-.99-.24-1.39-.48-.39-.23-.7-.53-.91-.89-.22-.36-.32-.76-.32-1.2,0-.53.14-.99.44-1.39.29-.4.7-.71,1.22-.93.52-.22,1.12-.33,1.81-.33s1.3.11,1.83.33c.53.22.95.53,1.24.93.3.4.45.86.45,1.39,0,.44-.11.83-.32,1.19-.22.35-.52.65-.92.89-.4.24-.86.4-1.38.48v1.24c1.31-.06,2.54-.16,3.67-.31l.12,1.3c-1.38.23-2.8.39-4.25.46s-3.04.11-4.77.11l-.25-1.44h.62ZM168.68,144.92h-8.59v-1.38h3.44v-1.58h1.73v1.58h3.42v1.38ZM163.05,147.25c-.33.23-.5.55-.49.96,0,.27.07.5.22.69.15.2.37.34.64.45.28.1.59.15.95.14.56.01,1-.1,1.34-.33.34-.23.5-.55.5-.95s-.17-.73-.5-.96c-.33-.23-.78-.36-1.34-.37-.55.01-.99.13-1.32.37ZM171.49,156.04h-1.73v-14.12h1.73v14.12Z" fill="#5b6b8c"/><path d="M179,147.79c.27.81.67,1.54,1.19,2.18.52.64,1.13,1.13,1.84,1.47l-1.06,1.39c-.75-.38-1.4-.92-1.95-1.62-.55-.7-.98-1.52-1.29-2.44-.32.98-.77,1.85-1.34,2.61-.58.75-1.26,1.33-2.05,1.72l-1.06-1.39c.73-.35,1.37-.86,1.91-1.53.54-.67.95-1.43,1.23-2.27.28-.85.43-1.71.43-2.59v-2.25h1.73v2.25c0,.84.13,1.67.4,2.48ZM184.62,147.45h2.17v1.48h-2.17v7.11h-1.73v-14.12h1.73v5.53Z" fill="#5b6b8c"/><path d="M193.55,143.23c.58.29,1.04.69,1.38,1.21.34.52.51,1.11.51,1.76,0,.57-.13,1.08-.38,1.55-.25.46-.6.85-1.04,1.16-.45.31-.96.52-1.53.62v2.08c1.28-.06,2.43-.16,3.45-.3l.12,1.3c-1.97.35-4.39.53-7.25.53-.33,0-.57,0-.72-.02h-.64l-.25-1.42c1.52,0,2.7-.01,3.55-.03v-2.13c-.59-.1-1.11-.3-1.56-.61-.45-.31-.8-.7-1.05-1.16s-.37-.99-.37-1.56c0-.66.16-1.24.48-1.76.33-.52.78-.92,1.37-1.21.58-.29,1.24-.43,1.98-.43s1.37.14,1.95.43ZM190.5,144.51c-.33.16-.58.38-.76.68-.18.29-.27.63-.27,1.02s.09.73.28,1.02c.18.29.44.52.76.67.32.16.69.23,1.1.23.41,0,.77-.07,1.09-.23.32-.16.57-.38.76-.67.18-.29.27-.63.27-1.02s-.09-.72-.27-1.02c-.18-.29-.44-.52-.76-.68-.32-.16-.69-.24-1.09-.25-.41,0-.78.09-1.11.25ZM198.49,147.56h2.05v1.47h-2.05v7.02h-1.73v-14.12h1.73v5.64Z" fill="#5b6b8c"/><path d="M211,143.31c.58.3,1.03.73,1.37,1.26.33.54.5,1.14.5,1.81s-.17,1.29-.5,1.83c-.33.54-.79.96-1.37,1.26-.58.3-1.22.45-1.93.45s-1.36-.15-1.94-.45c-.58-.3-1.04-.72-1.37-1.26-.33-.54-.5-1.15-.5-1.83s.17-1.28.5-1.81c.33-.54.79-.96,1.37-1.26.58-.3,1.23-.46,1.94-.46s1.35.15,1.93.46ZM207.98,144.62c-.32.17-.58.4-.76.71-.18.31-.27.66-.27,1.05,0,.41.08.76.27,1.07.18.31.43.54.76.71.32.17.68.25,1.09.25s.74-.08,1.06-.25c.32-.17.57-.4.75-.71.18-.31.28-.66.28-1.07s-.09-.75-.28-1.05c-.19-.31-.44-.54-.75-.71-.32-.17-.67-.25-1.06-.25s-.76.08-1.09.25ZM217.16,155.76h-9.73v-4.66h1.75v3.25h7.98v1.41ZM216.77,152.14h-1.75v-10.2h1.75v10.2Z" fill="#5b6b8c"/><path d="M231.74,154.34h-12.91v-1.45h12.91v1.45ZM230.62,144.62h-2.06v4.5h2.02v1.38h-10.62v-1.38h1.98v-4.5h-2.03v-1.39h10.72v1.39ZM226.84,149.12v-4.5h-3.17v4.5h3.17Z" fill="#5b6b8c"/><path d="M239.73,148.48h-4.75v2.81c1.2-.01,2.25-.05,3.17-.11.92-.06,1.84-.18,2.78-.34l.16,1.41c-1.03.19-2.06.32-3.08.38-1.02.07-2.22.1-3.59.1h-1.16v-5.64h4.73v-2.53h-4.77v-1.41h6.5v5.33ZM243.73,147.34h2.17v1.45h-2.17v7.27h-1.72v-14.14h1.72v5.42Z" fill="#5b6b8c"/></svg>