<?xml version="1.0" encoding="UTF-8"?><svg id="a" xmlns="http://www.w3.org/2000/svg" viewBox="0 0 1280 800"><path d="M101.37,182.77h-6.33v5.22h-1.93v-5.22h-6.26v-1.58h14.52v1.58ZM99.63,179.43h-10.88v-6.42h10.71v1.56h-8.7v3.3h8.88v1.55Z" fill="#5b6b8c"/><path d="M113.2,178.8c.33.93.8,1.75,1.42,2.47s1.35,1.26,2.19,1.62l-1.16,1.56c-.9-.42-1.68-1.02-2.34-1.82s-1.18-1.73-1.56-2.79c-.38,1.15-.9,2.15-1.59,3.02s-1.5,1.52-2.44,1.96l-1.2-1.63c.86-.37,1.61-.93,2.25-1.67s1.12-1.61,1.46-2.58.5-1.97.5-2.99v-2.53h1.99v2.53c0,.98.16,1.93.48,2.86ZM119.92,188.04h-1.97v-15.91h1.97v15.91Z" fill="#5b6b8c"/><path d="M136.78,186h-14.52v-1.62h14.52v1.62ZM131.21,176.7c.5.77,1.18,1.44,2.05,2s1.85.93,2.94,1.12l-.88,1.63c-1.33-.28-2.51-.8-3.55-1.56s-1.81-1.67-2.32-2.75c-.53,1.07-1.31,1.98-2.35,2.74s-2.22,1.28-3.54,1.57l-.86-1.63c1.07-.19,2.04-.57,2.9-1.13s1.54-1.23,2.04-2,.75-1.56.75-2.37v-1.18h2.07v1.18c0,.81.25,1.61.74,2.38Z" fill="#5b6b8c"/><path d="M144.53,174.7h-4.17v1.49h3.57v1.51h-3.57v1.63c1.02-.01,1.88-.04,2.59-.09s1.43-.14,2.17-.28l.21,1.53c-.87.16-1.73.27-2.58.32s-1.92.08-3.22.08h-1.05v-7.79h6.05v1.58ZM151.4,187.83h-10.72v-5.52h10.72v5.52ZM142.63,186.25h6.84v-2.39h-6.84v2.39ZM148.27,181.52h-1.86v-3.92h-1.79v-1.58h1.79v-3.62h1.86v9.12ZM151.4,181.64h-1.86v-9.51h1.86v9.51Z" fill="#5b6b8c"/><path d="M167.85,181.91h-14.48v-1.56h14.48v1.56ZM163.61,173.03c.86.26,1.53.63,2,1.11s.71,1.06.72,1.72c0,.67-.25,1.25-.72,1.74s-1.14.86-2,1.12-1.87.39-3.01.39-2.16-.13-3.02-.39-1.53-.64-2-1.12-.71-1.07-.71-1.74.24-1.23.71-1.72,1.14-.85,2-1.11,1.87-.39,3.02-.39,2.15.13,3.01.39ZM166.22,187.71h-11.06v-4.62h1.95v3.04h9.11v1.58ZM157.87,174.64c-.65.29-.98.7-.97,1.22,0,.35.14.65.43.91s.72.44,1.27.57,1.21.19,1.98.18c1.17.01,2.08-.13,2.73-.42s.98-.7.98-1.23-.33-.93-.98-1.22-1.56-.43-2.73-.43-2.07.15-2.72.44Z" fill="#5b6b8c"/><path d="M179.37,179.17c.32.84.78,1.61,1.38,2.3s1.31,1.22,2.11,1.6l-1.09,1.55c-.87-.41-1.64-1.01-2.29-1.81s-1.17-1.7-1.54-2.73c-.37,1.12-.89,2.11-1.57,2.98s-1.47,1.51-2.36,1.94l-1.14-1.53c.81-.39,1.53-.95,2.15-1.68s1.09-1.55,1.42-2.45.5-1.8.51-2.69v-1.34h-3.46v-1.62h8.74v1.62h-3.32v1.34c0,.83.16,1.67.48,2.51ZM185.64,178.32h2.44v1.63h-2.44v8.07h-1.95v-15.89h1.95v6.19Z" fill="#5b6b8c"/><path d="M201.5,174.14c0,.85-.02,1.61-.07,2.27s-.15,1.41-.32,2.25h2.16v1.58h-14.52v-1.58h10.38c.17-.77.28-1.48.33-2.13s.08-1.33.08-2.06h-9v-1.56h10.95v1.23ZM201.48,187.83h-10.99v-5.75h10.99v5.75ZM192.41,186.25h7.14v-2.64h-7.14v2.64Z" fill="#5b6b8c"/><path d="M214.71,178.74c.31.91.75,1.73,1.34,2.45s1.28,1.27,2.07,1.65l-1.2,1.56c-.84-.43-1.58-1.04-2.19-1.83s-1.1-1.71-1.45-2.74c-.36,1.11-.86,2.08-1.51,2.93s-1.42,1.49-2.31,1.94l-1.2-1.56c.83-.39,1.54-.97,2.15-1.72s1.07-1.61,1.39-2.56.48-1.92.49-2.91v-2.53h1.95v2.53c0,.95.14,1.88.45,2.79ZM221.03,178.36h2.44v1.67h-2.44v8h-1.95v-15.89h1.95v6.22Z" fill="#5b6b8c"/><path d="M230.93,173.98c.62.46,1.12,1.11,1.47,1.96s.54,1.83.54,2.96c0,1.13-.19,2.12-.54,2.97s-.84,1.5-1.47,1.96-1.34.69-2.14.69-1.52-.23-2.14-.69-1.12-1.11-1.47-1.96-.53-1.84-.53-2.97.18-2.11.53-2.96.85-1.5,1.47-1.96,1.34-.69,2.14-.69,1.51.23,2.13.69ZM227.61,175.51c-.34.3-.61.75-.79,1.33s-.28,1.27-.28,2.07.09,1.49.28,2.07.45,1.02.79,1.33.74.46,1.19.46.84-.15,1.18-.46.6-.75.79-1.33.28-1.27.28-2.07-.09-1.48-.28-2.06-.45-1.02-.79-1.33-.73-.46-1.18-.46-.85.15-1.19.46ZM237.36,188.04h-1.97v-15.91h1.97v15.91Z" fill="#5b6b8c"/><path d="M252.44,174.1c0,.84-.02,1.58-.06,2.21s-.13,1.32-.28,2.07h2.04v1.56h-14.41v-1.56h10.43c.09-.5.17-1.02.23-1.57l-9.08.38-.23-1.51,9.39-.23c.01-.26.02-.63.02-1.12h-9v-1.55h10.95v1.32ZM252.53,185.11h-9.23v1.2h9.79v1.53h-11.72v-4.15h9.21v-1.09h-9.25v-1.49h11.2v4.01Z" fill="#5b6b8c"/><path d="M260.78,183.02c1.69-.07,3.29-.21,4.81-.43l.16,1.42c-1.57.3-3.17.5-4.79.58s-3.42.12-5.39.12l-.25-1.6c1.95,0,3.76-.03,5.45-.1ZM262.64,173.72c.67.33,1.19.78,1.56,1.37s.57,1.25.58,1.99c0,.74-.2,1.41-.58,2s-.9,1.04-1.56,1.37-1.41.49-2.24.49-1.57-.16-2.23-.49-1.18-.78-1.56-1.37-.57-1.25-.57-1.99.19-1.4.57-1.99.9-1.04,1.56-1.37,1.41-.48,2.23-.48c.83,0,1.57.15,2.24.48ZM259.16,175.19c-.37.18-.66.43-.87.75s-.31.7-.31,1.13.1.81.31,1.14.5.57.87.75.79.26,1.25.26.89-.09,1.26-.26.67-.42.88-.75.32-.7.32-1.14-.11-.8-.32-1.13-.51-.58-.88-.75-.79-.26-1.26-.26-.88.09-1.25.26ZM268.49,188.04h-1.95v-15.91h1.95v15.91Z" fill="#5b6b8c"/><path d="M289.58,181.56h-6.13v2.92h-1.99v-2.92h-6.4v-1.56h14.52v1.56ZM285.3,172.88c.86.26,1.52.64,2,1.13s.71,1.06.71,1.73-.24,1.24-.71,1.72-1.14.86-2,1.12-1.86.39-2.99.39-2.13-.13-2.99-.39-1.52-.63-2-1.12-.71-1.06-.71-1.72.24-1.24.71-1.73,1.14-.87,2-1.13,1.86-.4,2.99-.4,2.13.13,2.99.4ZM287.98,187.71h-11.14v-4.71h1.97v3.11h9.18v1.6ZM280.4,174.23c-.54.13-.96.33-1.25.58s-.44.56-.43.92c0,.35.14.64.43.9s.71.44,1.25.58,1.18.2,1.9.2,1.37-.07,1.91-.2.96-.32,1.25-.58.44-.55.44-.9-.15-.66-.44-.92-.71-.45-1.25-.58-1.18-.2-1.91-.2-1.36.07-1.9.2Z" fill="#5b6b8c"/><path d="M305.12,181.34h-14.48v-1.56h3.38v-2.01c-.6-.26-1.07-.59-1.39-.98s-.49-.85-.49-1.36c0-.63.23-1.17.7-1.62s1.13-.8,2-1.04,1.88-.36,3.04-.36,2.17.12,3.03.36,1.52.59,1.99,1.04.7.99.71,1.62c0,.52-.17.97-.5,1.37s-.79.72-1.4.98v2.01h3.43v1.56ZM300.81,182.63c.82.22,1.45.54,1.89.97s.66.94.67,1.54c0,.61-.23,1.13-.67,1.55s-1.07.75-1.89.97-1.8.33-2.94.33-2.15-.11-2.98-.33-1.46-.54-1.9-.97-.66-.94-.66-1.55.22-1.12.66-1.54,1.07-.75,1.9-.97,1.82-.33,2.98-.32c1.14,0,2.12.1,2.94.32ZM295.12,174.3c-.64.26-.96.63-.95,1.12,0,.48.31.85.95,1.1s1.55.38,2.74.38,2.09-.13,2.74-.38.97-.62.97-1.1-.32-.86-.97-1.12-1.56-.39-2.74-.39-2.1.13-2.74.39ZM295.21,184.13c-.6.23-.9.57-.9,1.01,0,.45.29.79.9,1.02s1.49.35,2.65.35,2.01-.12,2.62-.35.92-.57.93-1.02c0-.45-.31-.78-.92-1.01s-1.49-.34-2.63-.34-2.05.11-2.65.34ZM299.74,179.78v-1.51c-.59.08-1.22.12-1.88.12s-1.29-.04-1.88-.12v1.51h3.76Z" fill="#5b6b8c"/><path d="M324.97,181.92h-6.13v2.74h-1.93v-2.74h-6.45v-1.56h14.52v1.56ZM323.37,187.71h-11.16v-4.38h1.93v2.79h9.23v1.58ZM314.28,174.44h6.86v-1.79h1.93v6.47h-10.72v-6.47h1.93v1.79ZM321.14,177.57v-1.67h-6.86v1.67h6.86Z" fill="#5b6b8c"/><path d="M332.83,180.47c-1.14,1.91-3.04,3.49-5.69,4.74l-1.02-1.56c2.04-.97,3.58-2.14,4.62-3.49s1.64-2.95,1.82-4.79h-5.62v-1.55h7.61c0,2.53-.57,4.74-1.71,6.65ZM339.29,188.02h-1.97v-15.89h1.97v15.89Z" fill="#5b6b8c"/><path d="M348.52,173.61c.66.33,1.17.78,1.55,1.36s.57,1.24.58,1.98c0,.64-.15,1.22-.43,1.74s-.67.96-1.17,1.3-1.07.58-1.72.7v2.34c1.44-.06,2.73-.18,3.88-.33l.14,1.46c-2.22.4-4.94.6-8.16.6-.38,0-.64,0-.81-.02h-.72l-.28-1.6c1.71,0,3.04-.01,3.99-.04v-2.4c-.66-.11-1.25-.34-1.76-.69s-.91-.78-1.19-1.31-.42-1.11-.41-1.76c0-.74.18-1.4.54-1.98s.88-1.04,1.54-1.36,1.4-.49,2.22-.49,1.54.16,2.2.49ZM345.08,175.05c-.37.18-.65.43-.86.76s-.31.71-.31,1.14.1.82.31,1.15.49.58.86.76.78.26,1.24.25c.46,0,.87-.08,1.23-.25s.65-.43.85-.76.31-.71.31-1.15-.1-.81-.31-1.14-.49-.58-.85-.76-.77-.27-1.23-.28c-.46,0-.88.1-1.24.28ZM354.08,178.48h2.3v1.65h-2.3v7.89h-1.95v-15.89h1.95v6.35Z" fill="#5b6b8c"/><path d="M362.18,183.61c.56,0,1.16-.01,1.8-.02s1.21-.02,1.7-.03v-1.46c-.6-.09-1.12-.27-1.56-.54s-.79-.6-1.03-1-.36-.85-.36-1.35c0-.59.16-1.11.49-1.56s.79-.8,1.38-1.05,1.27-.37,2.04-.37,1.46.12,2.06.37,1.06.6,1.4,1.05.5.97.5,1.56c0,.49-.12.94-.37,1.34s-.59.73-1.03,1-.96.45-1.56.54v1.4c1.48-.06,2.85-.18,4.13-.35l.14,1.46c-1.55.26-3.15.44-4.78.51s-3.42.12-5.36.12l-.28-1.62h.7ZM371.48,175.51h-9.67v-1.55h3.87v-1.78h1.95v1.78h3.85v1.55ZM365.14,178.14c-.38.26-.56.62-.55,1.08,0,.3.08.56.25.78s.42.39.73.5.67.17,1.06.16c.63.01,1.13-.11,1.51-.37s.57-.62.57-1.07-.19-.82-.56-1.08-.88-.4-1.51-.41c-.62.01-1.11.15-1.49.41ZM374.64,188.02h-1.95v-15.89h1.95v15.89Z" fill="#5b6b8c"/><path d="M391.45,182.49h-6.31v5.54h-1.93v-5.54h-6.24v-1.62h14.48v1.62ZM385.95,175.4c.47.63,1.13,1.17,1.99,1.63s1.83.75,2.93.89l-.77,1.58c-1.34-.2-2.52-.61-3.55-1.23s-1.81-1.39-2.33-2.29c-.52.9-1.29,1.67-2.32,2.29s-2.2,1.04-3.52,1.23l-.77-1.58c1.09-.14,2.06-.44,2.91-.89s1.51-.99,1.98-1.63.7-1.28.7-1.95v-.81h2.06v.81c0,.67.24,1.32.71,1.95Z" fill="#5b6b8c"/><path d="M393.77,182.07c-.21-.12-.38-.29-.5-.5s-.18-.44-.18-.69.06-.46.18-.67.29-.37.5-.5.44-.18.69-.18.46.06.66.18.38.29.5.5.19.43.19.67-.06.47-.19.69-.29.38-.5.5-.43.18-.66.18c-.25,0-.47-.06-.69-.18Z" fill="#5b6b8c"/><path d="M411.93,181.92h-6.13v2.74h-1.93v-2.74h-6.45v-1.56h14.52v1.56ZM410.33,187.71h-11.16v-4.38h1.93v2.79h9.23v1.58ZM401.24,174.44h6.86v-1.79h1.93v6.47h-10.72v-6.47h1.93v1.79ZM408.09,177.57v-1.67h-6.86v1.67h6.86Z" fill="#5b6b8c"/><path d="M415.32,177.27h2.58v-3.67h1.81v10.58h-6.24v-10.58h1.85v3.67ZM417.9,182.59v-3.78h-2.58v3.78h2.58ZM426.69,188.02h-1.88v-8.14h-1.69v7.37h-1.85v-14.84h1.85v5.85h1.69v-6.13h1.88v15.89Z" fill="#5b6b8c"/><path d="M447.31,181.92h-6.13v2.74h-1.93v-2.74h-6.45v-1.56h14.52v1.56ZM445.71,187.71h-11.16v-4.38h1.93v2.79h9.23v1.58ZM436.62,174.44h6.86v-1.79h1.93v6.47h-10.72v-6.47h1.93v1.79ZM443.48,177.57v-1.67h-6.86v1.67h6.86Z" fill="#5b6b8c"/><path d="M455.18,180.47c-1.14,1.91-3.04,3.49-5.69,4.74l-1.02-1.56c2.04-.97,3.58-2.14,4.62-3.49,1.03-1.36,1.64-2.95,1.81-4.79h-5.62v-1.55h7.61c0,2.53-.57,4.74-1.71,6.65ZM461.64,188.02h-1.97v-15.89h1.97v15.89Z" fill="#5b6b8c"/><path d="M478.42,180.82h-14.52v-1.48h14.52v1.48ZM476.67,185.39h-9.11v1.11h9.58v1.35h-11.53v-3.73h9.12v-.98h-9.14v-1.37h11.07v3.62ZM476.63,176.07h-8.95v1.04h9.23v1.34h-11.16v-3.64h8.93v-.97h-8.98v-1.35h10.93v3.59Z" fill="#5b6b8c"/><path d="M490.98,176.77c-.58,1.09-1.43,2.02-2.54,2.79s-2.46,1.35-4.05,1.75l-.81-1.49c1.22-.32,2.28-.73,3.16-1.24.88-.51,1.57-1.1,2.08-1.77s.81-1.38.92-2.16h-5.37v-1.58h7.47c0,1.38-.29,2.61-.87,3.7ZM496.28,188.02h-1.95v-4.39h-8.63v-1.56h10.58v5.96ZM496.28,175.97h2.21v1.63h-2.21v3.8h-1.95v-9.26h1.95v3.83Z" fill="#5b6b8c"/><path d="M506.54,176.77c-.58,1.09-1.43,2.02-2.54,2.79s-2.46,1.35-4.05,1.75l-.81-1.49c1.22-.32,2.28-.73,3.16-1.24.88-.51,1.57-1.1,2.08-1.77s.81-1.38.92-2.16h-5.37v-1.58h7.47c0,1.38-.29,2.61-.87,3.7ZM511.84,188.02h-1.95v-4.39h-8.63v-1.56h10.58v5.96ZM511.84,175.97h2.21v1.63h-2.21v3.8h-1.95v-9.26h1.95v3.83Z" fill="#5b6b8c"/><path d="M526.87,174.74h-5.13v4.06c1.51,0,2.75-.04,3.71-.11.96-.07,1.9-.2,2.83-.39l.21,1.55c-.98.22-2,.36-3.04.43s-2.5.1-4.36.1h-1.28v-7.22h7.07v1.58ZM531.67,187.81h-10.27v-6.01h10.27v6.01ZM523.34,186.27h6.4v-2.9h-6.4v2.9ZM531.67,175.83h2.21v1.62h-2.21v3.64h-1.95v-8.95h1.95v3.69Z" fill="#5b6b8c"/><path d="M542.43,174.84h-5.19v3.99c1.59,0,2.87-.04,3.82-.11s1.88-.19,2.79-.38l.19,1.56c-.98.21-2,.35-3.05.41s-2.52.1-4.4.1h-1.28v-7.15h7.12v1.58ZM544.87,182.09c.8.25,1.42.61,1.85,1.08s.65,1.03.66,1.68c0,.66-.23,1.23-.66,1.71s-1.05.84-1.85,1.09-1.74.37-2.82.37-2.05-.12-2.86-.37-1.43-.61-1.87-1.09-.65-1.04-.65-1.71.22-1.21.65-1.68,1.06-.83,1.87-1.08c.81-.25,1.76-.37,2.85-.37s2.02.12,2.82.37ZM539.5,183.68c-.6.27-.9.66-.89,1.16,0,.52.29.91.89,1.19.6.28,1.45.41,2.55.41s1.93-.14,2.53-.41c.6-.28.9-.67.9-1.19s-.3-.89-.9-1.16c-.6-.27-1.44-.4-2.53-.4s-1.95.13-2.55.4ZM547.24,176.04h2.2v1.6h-2.2v3.78h-1.97v-9.28h1.97v3.9Z" fill="#5b6b8c"/><path d="M100.77,103.3c.68,2.08,1.69,3.92,3.04,5.53,1.35,1.61,2.99,2.82,4.93,3.64l-2.93,3.98c-1.98-.9-3.68-2.18-5.11-3.86-1.43-1.67-2.56-3.64-3.39-5.91-.83,2.47-1.99,4.62-3.47,6.45-1.48,1.82-3.27,3.22-5.38,4.18l-3.01-4.14c2-.85,3.7-2.11,5.08-3.78,1.38-1.67,2.42-3.59,3.12-5.75.7-2.16,1.05-4.43,1.06-6.8v-5.31h5.04v5.31c0,2.23.34,4.38,1.02,6.46ZM115.69,124.42h-5.04v-35.62h5.04v35.62Z" fill="#1a2a66"/><path d="M153.04,119.97h-32.54v-4.1h32.54v4.1ZM140.72,98.68c1.01,1.69,2.47,3.16,4.39,4.41,1.92,1.25,4.17,2.1,6.75,2.54l-2.19,4.14c-3.05-.6-5.7-1.71-7.96-3.34-2.26-1.63-3.97-3.61-5.15-5.94-1.2,2.32-2.93,4.29-5.19,5.92-2.26,1.63-4.9,2.75-7.92,3.36l-2.15-4.14c2.54-.46,4.76-1.31,6.66-2.56,1.9-1.25,3.36-2.72,4.38-4.42s1.53-3.42,1.54-5.17v-2.58h5.31v2.58c0,1.77.5,3.5,1.51,5.2Z" fill="#1a2a66"/><path d="M170.03,94.93h-8.79v2.81h7.46v3.83h-7.46v3.11c2.1-.04,3.9-.11,5.41-.22,1.51-.11,3.04-.29,4.59-.54l.51,3.87c-1.94.33-3.84.54-5.7.65-1.86.11-4.25.17-7.15.17h-2.42v-17.7h13.55v4.02ZM185.62,123.95h-24.26v-12.54h24.26v12.54ZM166.32,119.97h14.38v-4.65h-14.38v4.65ZM178.55,109.77h-4.73v-8.44h-3.59v-3.98h3.59v-8.01h4.73v20.43ZM185.62,110h-4.73v-21.21h4.73v21.21Z" fill="#1a2a66"/><path d="M213.7,103.3c.68,2.08,1.69,3.92,3.04,5.53,1.35,1.61,2.99,2.82,4.93,3.64l-2.93,3.98c-1.98-.9-3.68-2.18-5.11-3.86-1.43-1.67-2.56-3.64-3.39-5.91-.83,2.47-1.99,4.62-3.47,6.45-1.48,1.82-3.27,3.22-5.38,4.18l-3.01-4.14c2-.85,3.7-2.11,5.08-3.78,1.38-1.67,2.42-3.59,3.12-5.75.7-2.16,1.05-4.43,1.06-6.8v-5.31h5.04v5.31c0,2.23.34,4.38,1.02,6.46ZM228.62,124.42h-5.04v-35.62h5.04v35.62Z" fill="#1a2a66"/><path d="M263.39,114.81h-4.96v-8.44h-8.12c-.87.92-1.91,1.64-3.12,2.16-1.21.51-2.48.77-3.84.77-1.77,0-3.38-.4-4.82-1.19-1.45-.79-2.58-1.89-3.41-3.29-.83-1.4-1.23-2.97-1.22-4.7-.01-1.76.39-3.34,1.21-4.74.82-1.4,1.95-2.5,3.4-3.3s3.06-1.21,4.84-1.22c1.37.01,2.65.27,3.84.78s2.22,1.22,3.1,2.15h8.14v-4.96h4.96v25.98ZM240.88,95.89c-.72.38-1.28.94-1.68,1.67-.4.73-.59,1.58-.58,2.56-.01.96.18,1.81.58,2.53.4.72.96,1.28,1.68,1.66.72.38,1.54.58,2.47.58.87,0,1.66-.19,2.37-.58.71-.38,1.27-.94,1.67-1.66.4-.72.61-1.57.61-2.53s-.2-1.83-.61-2.56c-.4-.73-.96-1.29-1.67-1.67-.71-.38-1.5-.58-2.37-.58-.93,0-1.75.19-2.47.58ZM264.25,123.72h-24.45v-11.52h5v7.54h19.45v3.98ZM252.73,100.12c0,.76-.09,1.51-.27,2.27h5.98v-4.61h-5.98c.18.77.27,1.55.27,2.34Z" fill="#1a2a66"/><path d="M292.13,92.26c1.48.77,2.64,1.85,3.5,3.22.85,1.37,1.28,2.92,1.28,4.64s-.43,3.25-1.28,4.62c-.85,1.37-2.02,2.45-3.5,3.23-1.48.78-3.12,1.17-4.91,1.17s-3.46-.39-4.94-1.17-2.66-1.86-3.53-3.23c-.87-1.37-1.3-2.91-1.3-4.62s.43-3.26,1.29-4.64c.86-1.37,2.03-2.45,3.53-3.22,1.49-.77,3.14-1.16,4.95-1.16s3.43.39,4.91,1.16ZM284.75,95.97c-.74.37-1.32.92-1.75,1.63-.43.72-.64,1.56-.62,2.52-.01.94.2,1.76.62,2.47.43.71,1.02,1.26,1.76,1.64.74.38,1.56.58,2.46.58s1.73-.19,2.46-.58c.73-.38,1.3-.93,1.73-1.64.42-.71.64-1.53.65-2.47-.01-.96-.23-1.8-.65-2.52-.42-.72-1-1.26-1.73-1.63-.73-.37-1.55-.55-2.46-.54-.91-.01-1.74.17-2.47.54ZM306.71,123.72h-24.34v-11.76h4.96v7.77h19.38v3.98ZM305.42,98.99h4.8v4.14h-4.8v11.56h-5v-25.9h5v10.2Z" fill="#1a2a66"/><path d="M318.23,111.31c3.31-.09,6.45-.42,9.41-1l.51,4.3c-4.09.7-8.26,1.05-12.5,1.05h-2.42v-22.93h5v18.57ZM342.45,124.34h-4.8v-17.77h-3.32v16.05h-4.69v-33.24h4.69v13.16h3.32v-13.75h4.8v35.55Z" fill="#1a2a66"/><path d="M88.3,150.52h4.25c.84,0,1.56.16,2.16.48.6.32,1.05.76,1.36,1.32.31.57.46,1.21.46,1.95s-.16,1.38-.46,1.94c-.31.57-.77,1.01-1.37,1.32-.61.32-1.33.47-2.18.47h-2.19v3.83h-2.03v-11.31ZM92.24,156.33c.74,0,1.29-.19,1.66-.56.37-.37.55-.87.55-1.5s-.19-1.14-.55-1.5c-.37-.36-.93-.55-1.66-.55h-1.91v4.11h1.91Z" fill="#5b6b8c"/><path d="M97.44,161.83l3.98-11.31h2.5l4,11.31h-2.17l-.95-2.8h-4.26l-.94,2.8h-2.17ZM104.26,157.39l-1.54-4.56h-.09l-1.53,4.56h3.16Z" fill="#5b6b8c"/><path d="M109.27,150.52h4.25c.85,0,1.57.15,2.17.45.6.3,1.05.72,1.36,1.26.31.54.46,1.17.46,1.9,0,.77-.17,1.43-.52,1.98-.35.55-.85.96-1.52,1.23l2.45,4.48h-2.27l-2.22-4.14h-2.12v4.14h-2.03v-11.31ZM113.21,155.99c1.48,0,2.22-.62,2.22-1.86,0-.61-.18-1.09-.55-1.41-.37-.33-.92-.49-1.67-.49h-1.91v3.77h1.91Z" fill="#5b6b8c"/><path d="M118.76,150.52h9.02v1.7h-3.48v9.61h-2.03v-9.61h-3.5v-1.7Z" fill="#5b6b8c"/><path d="M135.02,161.58c-.63-.27-1.12-.65-1.48-1.14-.36-.49-.55-1.05-.56-1.68h2.05c.02.3.12.56.32.79.19.23.44.4.76.53.32.12.67.19,1.06.19.41,0,.78-.07,1.11-.21.32-.14.58-.34.76-.6.18-.25.27-.55.27-.88s-.09-.64-.28-.91-.46-.47-.81-.62c-.36-.15-.77-.22-1.25-.22h-1.02v-1.56h1.02c.39,0,.75-.07,1.06-.21.31-.14.55-.33.72-.59.17-.25.25-.54.25-.86,0-.31-.07-.59-.21-.83s-.36-.43-.64-.56c-.28-.13-.6-.2-.96-.2s-.68.06-.99.19c-.3.13-.55.31-.73.54-.19.23-.28.51-.29.81h-1.95c.02-.62.2-1.18.55-1.66s.83-.86,1.43-1.13c.6-.27,1.27-.41,2-.41s1.4.14,1.98.42c.57.28,1.02.66,1.33,1.14.31.48.46,1.01.46,1.59,0,.42-.08.79-.25,1.13-.17.34-.41.62-.73.84-.31.22-.68.38-1.09.46v.09c.53.07.98.23,1.35.46.38.24.66.54.85.92.19.38.29.8.28,1.27,0,.62-.17,1.19-.54,1.69-.36.5-.87.9-1.51,1.18-.64.28-1.37.43-2.18.43s-1.51-.14-2.14-.41Z" fill="#5b6b8c"/><path d="M152.58,163.42h-.92v-14.5h.92v14.5Z" fill="#5b6b8c"/><path d="M168.26,155.02c.29.82.71,1.55,1.27,2.2.55.64,1.2,1.12,1.95,1.44l-1.03,1.39c-.8-.37-1.49-.91-2.08-1.62-.59-.71-1.05-1.53-1.39-2.48-.33,1.02-.8,1.92-1.41,2.68-.61.77-1.33,1.35-2.17,1.74l-1.06-1.45c.77-.33,1.43-.82,2-1.49.56-.66,1-1.43,1.29-2.29.3-.86.45-1.75.45-2.66v-2.25h1.77v2.25c0,.87.14,1.72.43,2.54ZM174.24,163.24h-1.75v-14.14h1.75v14.14Z" fill="#5b6b8c"/><path d="M189.23,161.42h-12.91v-1.44h12.91v1.44ZM184.28,153.15c.44.69,1.05,1.28,1.82,1.78.78.5,1.64.83,2.61,1l-.78,1.45c-1.18-.25-2.23-.71-3.15-1.39-.92-.67-1.61-1.49-2.07-2.44-.47.95-1.16,1.76-2.09,2.43-.92.67-1.97,1.14-3.15,1.39l-.77-1.45c.95-.17,1.81-.51,2.58-1,.77-.5,1.37-1.09,1.81-1.78.44-.69.66-1.39.67-2.11v-1.05h1.84v1.05c0,.72.22,1.43.66,2.12Z" fill="#5b6b8c"/><path d="M196.12,151.38h-3.7v1.33h3.17v1.34h-3.17v1.45c.91-.01,1.67-.04,2.3-.08.63-.04,1.27-.13,1.93-.25l.19,1.36c-.78.14-1.54.24-2.29.29-.75.05-1.71.07-2.86.07h-.94v-6.92h5.38v1.41ZM202.23,163.05h-9.53v-4.91h9.53v4.91ZM194.43,161.64h6.08v-2.12h-6.08v2.12ZM199.44,157.44h-1.66v-3.48h-1.59v-1.41h1.59v-3.22h1.66v8.11ZM202.23,157.55h-1.66v-8.45h1.66v8.45Z" fill="#5b6b8c"/><path d="M213.55,155.02c.29.82.71,1.55,1.27,2.2.55.64,1.2,1.12,1.95,1.44l-1.03,1.39c-.8-.37-1.49-.91-2.08-1.62-.59-.71-1.05-1.53-1.39-2.48-.33,1.02-.8,1.92-1.41,2.68-.61.77-1.33,1.35-2.17,1.74l-1.06-1.45c.77-.33,1.43-.82,2-1.49.56-.66,1-1.43,1.29-2.29.3-.86.45-1.75.45-2.66v-2.25h1.77v2.25c0,.87.14,1.72.43,2.54ZM219.52,163.24h-1.75v-14.14h1.75v14.14Z" fill="#5b6b8c"/><path d="M233.43,159.47h-1.73v-3.5h-3.37c-.34.39-.75.69-1.24.9-.49.21-1.01.32-1.57.32-.7,0-1.33-.16-1.9-.47s-1.02-.74-1.34-1.29c-.33-.55-.49-1.17-.49-1.85s.16-1.31.49-1.87c.32-.55.77-.98,1.34-1.29.57-.31,1.2-.46,1.91-.46.56,0,1.08.11,1.56.32.48.21.89.51,1.24.89h3.38v-2.05h1.73v10.36ZM224.44,151.76c-.31.17-.56.41-.73.73-.18.31-.27.68-.27,1.09s.09.77.27,1.09c.18.31.42.55.73.72.31.17.67.25,1.08.25.38,0,.73-.09,1.04-.26.31-.17.55-.41.73-.73s.27-.67.28-1.08c0-.41-.1-.77-.28-1.09-.18-.31-.42-.56-.73-.73-.31-.17-.65-.26-1.04-.26-.41,0-.77.09-1.08.26ZM233.79,162.94h-9.62v-4.53h1.73v3.12h7.89v1.41ZM229.23,153.58c0,.33-.04.66-.13.98h2.6v-2h-2.61c.09.35.14.69.14,1.02Z" fill="#5b6b8c"/><rect x="88.95" y="372.7" width="543.3" height="154.98" fill="#fff"/><rect x="89.38" y="373.13" width="542.44" height="154.12" fill="none" stroke="#d8e0f0" stroke-width=".75"/><path d="M113.4,398.43c.27.83.68,1.57,1.22,2.21.54.64,1.2,1.13,1.97,1.46l-1.17,1.6c-.79-.36-1.47-.88-2.04-1.54s-1.02-1.46-1.36-2.37c-.33.99-.8,1.85-1.39,2.58-.59.73-1.31,1.29-2.15,1.67l-1.2-1.66c.8-.34,1.48-.84,2.03-1.51.55-.67.97-1.44,1.25-2.3.28-.87.42-1.77.43-2.72v-2.13h2.02v2.13c0,.89.13,1.75.41,2.58ZM119.37,406.89h-2.02v-14.26h2.02v14.26Z" fill="#1a2a66"/><path d="M133.03,403.04h-1.99v-3.38h-3.25c-.35.37-.77.66-1.25.86-.48.21-1,.31-1.54.31-.71,0-1.35-.16-1.93-.48-.58-.32-1.03-.76-1.36-1.32s-.49-1.19-.49-1.88c0-.7.16-1.34.48-1.9s.78-1,1.36-1.32c.58-.32,1.23-.48,1.94-.49.55,0,1.06.11,1.54.31.48.2.89.49,1.24.86h3.26v-1.99h1.99v10.4ZM124.02,395.46c-.29.15-.51.38-.67.67-.16.29-.24.63-.23,1.02,0,.39.07.72.23,1.01.16.29.38.51.67.67.29.15.62.23.99.23.35,0,.67-.08.95-.23s.51-.38.67-.67c.16-.29.24-.63.24-1.01s-.08-.73-.24-1.02c-.16-.29-.38-.51-.67-.67s-.6-.23-.95-.23c-.37,0-.7.08-.99.23ZM133.38,406.6h-9.79v-4.61h2v3.02h7.79v1.59ZM128.77,397.16c0,.3-.04.6-.11.91h2.39v-1.85h-2.39c.07.31.11.62.11.94Z" fill="#1a2a66"/><path d="M143.4,405.42h-2.36v-9.09h-.06l-2.6,1.63v-2.08l2.8-1.78h2.22v11.32Z" fill="#1a2a66"/><path d="M149.92,401.59c-.2-.12-.36-.28-.48-.48-.12-.2-.17-.42-.17-.65,0-.23.05-.45.17-.65.12-.2.28-.36.48-.47.2-.12.42-.18.66-.18.22,0,.44.06.64.18.2.12.36.28.48.47.12.2.18.41.18.65s-.06.45-.18.65c-.12.2-.28.36-.48.48-.2.12-.41.18-.64.18-.24,0-.46-.06-.66-.18Z" fill="#1a2a66"/><path d="M169.44,400.91h-13.01v-1.56h5.54v-1.22h-3.96v-4.88h9.87v1.55h-7.88v1.77h7.96v1.56h-4.04v1.22h5.52v1.56ZM165.56,401.94c.74.2,1.31.5,1.71.9.4.39.6.87.6,1.43,0,.55-.21,1.02-.6,1.41-.4.39-.97.69-1.71.9s-1.62.31-2.65.31-1.92-.1-2.67-.31-1.32-.5-1.72-.9c-.4-.39-.6-.86-.6-1.41s.2-1.03.59-1.43c.4-.39.97-.69,1.72-.9s1.64-.3,2.68-.3,1.91.1,2.65.3ZM160.68,403.43c-.5.19-.74.46-.73.83,0,.37.24.65.73.83.49.18,1.23.27,2.23.27s1.71-.09,2.21-.27c.5-.18.75-.46.75-.83,0-.36-.26-.64-.76-.83-.5-.19-1.23-.28-2.2-.28s-1.73.09-2.22.28Z" fill="#1a2a66"/><path d="M178.22,395h-2.83c0,.58.13,1.14.36,1.68.24.54.6,1.03,1.09,1.46s1.09.77,1.82,1l-.99,1.53c-.77-.25-1.42-.61-1.97-1.09s-.98-1.06-1.3-1.72c-.33.74-.78,1.38-1.36,1.92-.58.54-1.27.94-2.09,1.2l-1.02-1.58c.75-.24,1.38-.59,1.89-1.05.51-.46.89-.98,1.14-1.56s.38-1.18.39-1.79h-2.86v-1.58h7.73v1.58ZM182.01,406.85h-1.99v-3.54h-7.79v-1.59h9.77v5.13ZM182.01,401.1h-1.99v-3.42h-2.21v-1.63h2.21v-3.42h1.99v8.48Z" fill="#1a2a66"/><path d="M193.92,395.09h-4.35v3.39c1.32-.01,2.38-.05,3.19-.11s1.61-.17,2.39-.33l.2,1.56c-.84.19-1.73.32-2.65.38-.93.06-2.24.09-3.93.09h-1.2v-6.57h6.35v1.58ZM198.32,406.68h-9.31v-5.47h9.31v5.47ZM190.98,405.12h5.36v-2.33h-5.36v2.33ZM198.32,395.83h1.92v1.64h-1.92v3.14h-2v-7.99h2v3.21Z" fill="#1a2a66"/><path d="M213.64,405.2h-13.03v-1.63h5.49v-2.63h-4.11v-7.41h2v2.21h6.21v-2.21h1.99v7.41h-4.1v2.63h5.55v1.63ZM210.2,399.35v-2.02h-6.21v2.02h6.21Z" fill="#1a2a66"/><path d="M218.63,399.67c1.62-.07,3.02-.2,4.21-.37l.11,1.44c-1.31.24-2.67.4-4.09.48s-2.98.12-4.68.13l-.17-1.59c1.13,0,2.01,0,2.64-.02v-2.79h1.99v2.73ZM222.17,394.55c0,.73-.02,1.41-.05,2.05-.04.64-.13,1.35-.27,2.12l-1.96-.19c.2-1.09.31-2.17.33-3.25h-5.36v-1.63h7.32v.89ZM226.09,406.6h-9.99v-4.29h2v2.69h7.99v1.59ZM225.66,396.95h1.72v1.67h-1.72v4.64h-2.05v-10.65h2.05v4.33Z" fill="#1a2a66"/><path d="M235.3,399.3h-4.69v2.61c1.12,0,2.16-.04,3.12-.12s1.96-.19,2.98-.35l.17,1.61c-1.11.19-2.21.32-3.3.39s-2.35.11-3.75.11h-1.28v-5.83h4.72v-2.3h-4.74v-1.61h6.77v5.49ZM239.71,406.89h-1.99v-14.26h1.99v14.26Z" fill="#1a2a66"/><path d="M250.73,398.43c.27.83.68,1.57,1.22,2.21.54.64,1.2,1.13,1.97,1.46l-1.17,1.6c-.79-.36-1.47-.88-2.04-1.54s-1.02-1.46-1.36-2.37c-.33.99-.8,1.85-1.39,2.58-.59.73-1.31,1.29-2.15,1.67l-1.2-1.66c.8-.34,1.48-.84,2.03-1.51.55-.67.97-1.44,1.25-2.3.28-.87.42-1.77.43-2.72v-2.13h2.02v2.13c0,.89.13,1.75.41,2.58ZM256.71,406.89h-2.02v-14.26h2.02v14.26Z" fill="#1a2a66"/><path d="M271.4,405.1h-13.03v-1.64h13.03v1.64ZM266.47,396.58c.4.68.99,1.27,1.76,1.77.77.5,1.67.84,2.7,1.02l-.88,1.66c-1.22-.24-2.28-.69-3.19-1.34-.9-.65-1.59-1.44-2.06-2.38-.48.93-1.17,1.72-2.08,2.37-.91.65-1.96,1.1-3.17,1.34l-.86-1.66c1.02-.18,1.91-.52,2.67-1.02.76-.5,1.35-1.09,1.75-1.77.41-.68.61-1.37.62-2.07v-1.03h2.13v1.03c0,.71.2,1.4.61,2.08Z" fill="#1a2a66"/><path d="M277.95,395.08h-3.52v1.13h2.99v1.53h-2.99v1.24c.84-.02,1.56-.05,2.17-.09.6-.04,1.22-.12,1.84-.22l.2,1.55c-.78.13-1.54.22-2.28.26-.75.04-1.7.07-2.86.07h-.97v-7.08h5.43v1.61ZM284.19,406.7h-9.71v-5.02h9.71v5.02ZM276.46,405.1h5.75v-1.86h-5.75v1.86ZM281.35,401.02h-1.89v-3.38h-1.44v-1.6h1.44v-3.21h1.89v8.18ZM284.19,401.11h-1.89v-8.49h1.89v8.49Z" fill="#1a2a66"/><path d="M111.67,423.71c.26.61.61,1.16,1.06,1.65.45.49.94.86,1.48,1.11l-.57.78c-.63-.3-1.19-.77-1.69-1.39-.5-.62-.88-1.32-1.14-2.08-.17.55-.4,1.07-.69,1.56-.29.49-.63.93-1.01,1.3-.38.38-.78.67-1.19.89l-.61-.78c.53-.26,1.03-.65,1.49-1.17.46-.52.83-1.11,1.1-1.75.27-.65.42-1.28.42-1.91v-1.46h-2.61v-.82h6.1v.82h-2.52v1.46c0,.59.12,1.19.38,1.79ZM116.17,423.01h1.88v.85h-1.88v5.83h-.98v-11.21h.98v4.54Z" fill="#16223d"/><path d="M127.31,419.91c0,.61-.02,1.15-.05,1.64-.03.49-.12,1.04-.25,1.66h1.65v.82h-10.27v-.82h7.62c.13-.62.22-1.17.26-1.66.04-.48.05-1.03.05-1.63h0s-6.63-.01-6.63-.01v-.82h7.62v.83ZM127.36,429.53h-7.71v-3.96h7.71v3.96ZM120.64,428.73h5.74v-2.37h-5.74v2.37Z" fill="#16223d"/><path d="M136.43,423.41c.26.64.61,1.21,1.06,1.72.44.5.93.89,1.45,1.15l-.61.79c-.62-.32-1.17-.8-1.66-1.42-.49-.63-.86-1.33-1.11-2.11-.25.83-.62,1.58-1.12,2.24-.5.67-1.07,1.17-1.7,1.5l-.63-.79c.54-.26,1.04-.66,1.49-1.2.45-.53.8-1.13,1.07-1.8.26-.67.4-1.34.4-2.01v-2.04h.97v2.04c0,.64.13,1.29.39,1.93ZM140.96,423.02h1.88v.86h-1.88v5.8h-.98v-11.21h.98v4.55Z" fill="#16223d"/><path d="M147.94,419.83c.43.32.77.78,1.02,1.37.24.59.37,1.27.37,2.06s-.12,1.47-.37,2.06-.58,1.04-1.02,1.36c-.43.32-.93.48-1.48.48s-1.05-.16-1.49-.48c-.43-.32-.77-.77-1.02-1.36-.24-.59-.36-1.27-.36-2.06s.12-1.47.36-2.06c.24-.59.58-1.04,1.01-1.37.43-.32.93-.48,1.49-.49.55,0,1.05.17,1.48.49ZM145.47,420.61c-.29.25-.51.6-.67,1.06-.16.46-.24.98-.24,1.59s.08,1.13.24,1.59.38.81.67,1.06.62.37.99.37.7-.12.99-.37.51-.6.67-1.06c.16-.46.24-.99.24-1.59s-.08-1.13-.24-1.59c-.16-.46-.38-.81-.67-1.06s-.62-.38-.99-.38c-.37,0-.71.13-.99.38ZM152.43,429.71h-1v-11.24h1v11.24Z" fill="#16223d"/><path d="M163,419.87c0,.6-.02,1.14-.05,1.62-.03.47-.11,1-.22,1.59h1.57v.81h-10.2v-.81h7.64c.11-.5.18-.99.22-1.45l-6.71.29-.13-.79,6.89-.21c0-.24.01-.59.01-1.04v-.04h-6.63v-.81h7.62v.84ZM163.09,427.55h-6.79v1.19h7.18v.79h-8.16v-2.74h6.79v-1.06h-6.81v-.77h7.79v2.59Z" fill="#16223d"/><path d="M173.45,417.81h1.01v11.86s-1.02.01-1.02.01v-11.87ZM169.28,424.52h9.48s0,.93,0,.93h-9.48s0-.93,0-.93ZM168.77,420.13h10.4v6.07h-.99v-5.13h-8.45v5.19h-.97v-6.13Z" fill="#16223d"/><path d="M184.55,419.14h2.67v.9h-1.65v10.29h1.65v.91h-2.67v-12.1Z" fill="#16223d"/><path d="M198.01,424.99h-4.55v2.29h-1v-2.29h-4.72v-.82h10.27v.82ZM194.95,419.04c.59.18,1.05.44,1.38.78.32.34.49.74.49,1.2s-.16.86-.49,1.19c-.32.34-.78.59-1.38.77s-1.29.27-2.08.27-1.49-.09-2.09-.27-1.06-.44-1.38-.77c-.33-.34-.49-.73-.49-1.19s.16-.86.49-1.2c.33-.34.79-.6,1.38-.78s1.29-.28,2.09-.28c.79,0,1.49.1,2.08.28ZM196.86,429.44h-7.79v-3.28h1v2.43h6.8v.84ZM191.34,419.75c-.44.12-.78.29-1.02.5-.24.22-.36.47-.35.77,0,.29.11.54.36.75.24.21.58.38,1.02.5.44.12.95.18,1.52.18s1.08-.06,1.52-.17c.44-.12.78-.28,1.02-.5.24-.22.36-.47.36-.75s-.12-.55-.36-.77-.58-.39-1.02-.5c-.44-.12-.95-.18-1.52-.18s-1.08.06-1.53.18Z" fill="#16223d"/><path d="M208.88,424.84h-10.22v-.82h2.54v-1.58c-.45-.18-.8-.41-1.04-.69-.24-.28-.36-.61-.36-.99,0-.44.16-.81.48-1.12s.78-.55,1.37-.71c.59-.16,1.3-.25,2.12-.25s1.51.08,2.11.25c.59.16,1.05.4,1.37.71s.48.69.48,1.12c0,.37-.12.7-.36.98-.24.28-.58.51-1.03.69v1.58h2.54v.82ZM205.84,425.93c.58.15,1.02.38,1.32.67.31.3.46.66.47,1.08,0,.42-.16.78-.47,1.08-.31.3-.75.52-1.32.67-.58.15-1.27.23-2.07.23s-1.51-.08-2.08-.23-1.02-.38-1.33-.67c-.31-.3-.46-.66-.46-1.08s.15-.79.46-1.08c.3-.3.75-.52,1.33-.67s1.28-.23,2.09-.23,1.49.08,2.07.23ZM202.19,419.63c-.45.1-.79.25-1.02.45s-.35.43-.35.69c0,.27.11.5.35.7s.58.34,1.02.45c.44.1.97.16,1.58.16s1.13-.05,1.57-.16c.44-.1.78-.25,1.02-.45.24-.2.36-.43.36-.7s-.12-.5-.36-.69c-.24-.2-.58-.35-1.03-.45-.44-.11-.97-.16-1.57-.16s-1.13.05-1.58.16ZM201.65,426.79c-.5.21-.75.51-.75.89,0,.25.11.47.33.65.23.18.56.32.99.42.43.1.94.15,1.54.15s1.1-.05,1.53-.15c.43-.1.76-.24.99-.42.23-.18.34-.4.34-.65,0-.38-.25-.68-.76-.89-.51-.21-1.21-.32-2.1-.33-.91,0-1.61.12-2.12.33ZM205.36,424.02v-1.31c-.48.08-1.01.13-1.59.13s-1.11-.04-1.59-.13v1.31h3.18Z" fill="#16223d"/><path d="M209.45,431.24v-.91h1.65v-10.29h-1.65v-.9h2.67v12.1h-2.67Z" fill="#16223d"/><path d="M226.95,425.22h-4.57v2.2h-.98v-2.2h-4.72v-.81h10.27v.81ZM225.8,429.44h-7.81v-3.06h.98v2.23h6.82v.83ZM219.04,420.28h5.55v-1.44h.98v4.48h-7.52v-4.48h.98v1.44ZM224.59,422.51v-1.48h-5.55v1.48h5.55Z" fill="#16223d"/><path d="M232.26,424.26c-.85,1.35-2.18,2.45-3.99,3.32l-.54-.81c1.5-.71,2.64-1.59,3.44-2.65.8-1.06,1.25-2.26,1.37-3.62h-4.29v-.81h5.3c0,1.69-.44,3.21-1.29,4.56ZM236.87,429.68h-1v-11.21h1v11.21Z" fill="#16223d"/><path d="M246.98,420.05h-3.99v3.3h.42c1.02,0,1.87-.03,2.55-.08s1.37-.15,2.07-.29l.13.81c-.76.15-1.51.25-2.27.3s-1.76.08-3,.08h-.87v-4.93h4.97v.81ZM250.25,429.53h-7.08v-4.11h7.08v4.11ZM244.14,428.73h5.12v-2.5h-5.12v2.5ZM250.25,421.22h1.69v.83h-1.69v2.79h-.98v-6.37h.98v2.75Z" fill="#16223d"/><path d="M257.88,420.15h-4.01v3.29c1.2,0,2.17-.04,2.9-.09.74-.05,1.46-.15,2.18-.3l.1.82c-.75.15-1.5.25-2.26.3-.76.05-1.77.08-3.02.08h-.87v-4.92h4.98v.82ZM259.52,425.64c.55.17.98.42,1.28.73.3.32.45.7.45,1.14s-.15.84-.45,1.16c-.3.32-.72.57-1.28.73s-1.21.25-1.97.25-1.43-.08-1.98-.25c-.56-.17-.99-.41-1.29-.73s-.45-.71-.45-1.16.15-.82.45-1.14.73-.56,1.29-.73c.56-.17,1.22-.26,1.98-.26s1.41.08,1.97.26ZM256.1,426.35c-.41.1-.73.26-.96.46s-.33.43-.33.7.11.51.33.72.54.36.96.47.9.16,1.46.16,1.04-.05,1.45-.16.73-.27.95-.47c.22-.2.33-.44.33-.72s-.11-.5-.33-.7c-.22-.2-.54-.35-.95-.46-.41-.11-.9-.16-1.45-.15-.56,0-1.05.05-1.46.15ZM261.16,421.4h1.68v.83h-1.68v2.94h-1v-6.7h1v2.93Z" fill="#16223d"/><path d="M108.27,444.32c-.12-.07-.22-.17-.3-.3s-.11-.26-.1-.41c0-.14.03-.28.1-.4s.17-.22.3-.3c.12-.07.26-.11.41-.11s.28.04.4.11c.12.07.22.17.3.3.07.12.11.26.11.4s-.04.28-.11.41c-.07.13-.17.23-.3.3-.12.07-.26.11-.4.11s-.28-.04-.41-.11Z" fill="#16223d"/><path d="M123.71,443.57h-10.22v-.82h10.22v.82ZM122.8,438.81h-3.56c.01.41.2.79.56,1.14.36.35.84.64,1.43.87s1.23.39,1.9.46l-.37.79c-.62-.08-1.21-.22-1.77-.43-.56-.21-1.05-.47-1.47-.79-.42-.32-.73-.68-.93-1.08-.2.4-.51.77-.92,1.08-.42.32-.91.58-1.47.79s-1.16.35-1.78.43l-.35-.79c.66-.08,1.29-.23,1.88-.46.59-.23,1.07-.52,1.43-.87.37-.35.56-.73.57-1.14h-3.53v-.82h8.37v.82ZM120.66,444.79c.58.16,1.02.39,1.33.7.31.3.46.67.47,1.09,0,.43-.16.79-.47,1.1-.31.3-.75.53-1.32.69-.58.16-1.27.23-2.07.23s-1.5-.08-2.08-.23c-.58-.16-1.02-.38-1.33-.69s-.46-.67-.46-1.1.15-.79.46-1.09c.31-.3.75-.54,1.33-.7.58-.16,1.27-.24,2.08-.24s1.49.08,2.06.24ZM116.48,445.67c-.5.21-.75.52-.75.91,0,.39.25.69.75.91.5.21,1.21.32,2.12.32.59,0,1.1-.05,1.53-.14.43-.09.76-.23.99-.42.23-.18.34-.41.34-.66,0-.39-.25-.7-.76-.91-.5-.21-1.21-.33-2.11-.33-.91,0-1.61.12-2.12.33Z" fill="#16223d"/><path d="M129.35,441.73c.17-.94.26-1.88.26-2.81h-4.29v-.81h5.27v.44c0,.48-.01.96-.04,1.44s-.09,1.03-.2,1.65c.4-.03.83-.08,1.29-.15l.08.72c-.93.16-2,.27-3.22.35v2.59h-.98v-2.53c-.95.04-1.97.06-3.06.06l-.14-.82c1.98,0,3.65-.05,5.03-.14ZM133.96,448.39h-7.96v-3.43h1v2.6h6.96v.83ZM133.68,445.9h-1.01v-1.58h-2.47v-.81h2.47v-6.09h1.01v8.48Z" fill="#16223d"/><path d="M142.63,448.06h-.95v-3.88h-2.08v-.82h2.08v-1.99h-1.9c-.28.98-.74,1.88-1.38,2.69-.64.82-1.48,1.53-2.51,2.15l-.61-.72c1.2-.71,2.12-1.55,2.75-2.54.64-.99,1.01-2.08,1.11-3.28h-3.35v-.82h4.34c0,.58-.05,1.14-.15,1.69h1.7v-2.83h.95v10.34ZM144.9,448.63h-.95v-11.21h.95v11.21Z" fill="#16223d"/><path d="M150.14,445.38c1.11-.05,2.12-.13,3.03-.26l.06.73c-1.06.19-2.14.31-3.24.36-1.1.05-2.36.07-3.78.07l-.15-.83c1.31,0,2.34-.01,3.08-.03v-2.29h1v2.25ZM150.49,440.77c.24.42.56.8.99,1.12.42.32.91.57,1.45.74l-.47.78c-.66-.21-1.23-.52-1.72-.94-.49-.41-.85-.9-1.09-1.47-.24.61-.62,1.13-1.12,1.58-.5.45-1.09.79-1.76,1.01l-.52-.78c.56-.18,1.06-.43,1.5-.77.44-.34.77-.73,1.02-1.18s.37-.93.37-1.43v-.14h-2.55v-.83h6.07v.83h-2.52v.14c0,.47.11.91.35,1.34ZM156.7,442.93h-1.83v5.7h-.98v-11.21h.98v4.67h1.83v.85Z" fill="#16223d"/><path d="M165.62,439.22h-4.01v3.49c1.2,0,2.16-.02,2.88-.07.72-.05,1.44-.15,2.15-.29l.13.82c-.77.15-1.53.25-2.29.3-.77.05-1.76.08-2.98.08h-.87v-5.16h5v.83ZM169.37,448.39h-7.53v-3.67h.97v2.84h6.56v.83ZM168.86,440.76h1.7v.83h-1.7v3.95h-.98v-8.12h.98v3.34Z" fill="#16223d"/><path d="M174.91,443.43c1.24-.05,2.42-.16,3.54-.32l.06.74c-.99.18-2.08.31-3.27.38v4.06h-.98v-4c-.74.03-1.79.05-3.15.06l-.14-.84c1.38,0,2.7-.03,3.94-.08ZM176.17,438.25c.43.19.78.46,1.02.81.25.35.37.75.37,1.2s-.12.85-.37,1.2c-.25.35-.59.62-1.02.81-.44.19-.93.29-1.49.28-.55,0-1.05-.09-1.49-.28-.43-.19-.78-.46-1.02-.81-.25-.35-.37-.75-.37-1.2s.12-.85.37-1.2c.25-.35.59-.62,1.02-.81.44-.19.93-.28,1.49-.28.55,0,1.05.09,1.49.28ZM173.7,438.96c-.29.12-.52.3-.68.53-.16.23-.24.48-.24.77,0,.29.07.55.24.77s.39.4.68.52.62.18.99.18c.37,0,.71-.06,1-.18.29-.12.52-.3.68-.52s.25-.48.25-.77-.08-.54-.25-.77c-.16-.23-.39-.4-.68-.53-.29-.12-.63-.18-1-.18-.37,0-.7.06-.99.18ZM180.24,448.64h-.97v-11.21h.97v11.21Z" fill="#16223d"/><path d="M191.17,439.09h-1.15v3.59c.6-.04,1.1-.09,1.51-.15l.05.76c-.97.15-1.99.25-3.08.3-1.08.05-2.25.07-3.48.07l-.13-.83h1.45v-3.73h-1.13v-.82h5.95v.82ZM192.47,444.81c.56.16,1,.39,1.3.69.3.3.45.66.45,1.08s-.15.79-.45,1.09c-.3.3-.73.53-1.29.69-.56.16-1.24.24-2.02.24s-1.45-.08-2.02-.24c-.56-.16-.99-.39-1.29-.69s-.45-.67-.45-1.09.15-.78.45-1.08.73-.53,1.3-.69c.56-.16,1.23-.24,2.01-.24s1.45.08,2.01.24ZM189.07,442.74v-3.64h-1.75v3.71c.66-.01,1.24-.03,1.75-.06ZM188.97,445.5c-.42.1-.74.24-.96.43-.22.19-.33.41-.33.66,0,.26.11.48.33.67.22.19.54.33.96.43.42.1.91.15,1.49.15s1.07-.05,1.49-.15c.42-.1.74-.24.96-.43.22-.19.33-.41.33-.67s-.11-.48-.33-.66c-.22-.18-.54-.33-.96-.43s-.91-.15-1.48-.15-1.07.05-1.48.15ZM194.18,444.34h-1v-2.08h-1.89v-.82h1.89v-1.19h-1.89v-.82h1.89v-2.02h1v6.92Z" fill="#16223d"/><path d="M200.31,443.16c-.84,1.36-2.13,2.47-3.89,3.33l-.56-.78c1.44-.72,2.56-1.61,3.35-2.66.79-1.06,1.24-2.25,1.36-3.59h-4.19v-.83h5.18c0,1.67-.42,3.18-1.25,4.54ZM204.46,441.98h1.82v.83h-1.82v5.81h-.98v-11.21h.98v4.57Z" fill="#16223d"/><path d="M216.92,443.58h-10.23v-.83h10.23v.83ZM213.86,444.8c.58.16,1.02.39,1.33.69.31.3.46.67.47,1.09,0,.43-.16.79-.47,1.1-.31.3-.75.53-1.32.69-.58.16-1.27.23-2.07.23s-1.5-.08-2.08-.23c-.58-.16-1.02-.38-1.33-.69s-.46-.67-.46-1.1.15-.79.46-1.09.75-.53,1.33-.69c.58-.16,1.27-.24,2.08-.24s1.49.08,2.06.24ZM215.72,441.68h-7.73v-3.81h7.66v.83h-6.68v2.17h6.76v.81ZM210.25,445.49c-.43.1-.76.24-.98.43-.23.19-.34.41-.33.67,0,.4.25.7.75.91.5.21,1.21.32,2.12.32s1.6-.11,2.1-.32c.51-.21.76-.52.76-.91,0-.26-.11-.48-.34-.67-.23-.19-.56-.33-.99-.43s-.94-.15-1.53-.15c-.6,0-1.12.06-1.55.15Z" fill="#16223d"/><path d="M226.51,438.75c0,.59-.02,1.13-.05,1.61-.04.48-.12,1.03-.25,1.65h1.66v.82h-10.27v-.82h7.64c.13-.61.21-1.16.25-1.64.03-.48.05-1.02.05-1.61h-6.63v-.82h7.62v.82ZM219.91,445.32h5.61v-1.49h.98v4.64h-7.58v-4.64h.98v1.49ZM225.53,447.67v-1.56h-5.61v1.56h5.61Z" fill="#16223d"/><path d="M235.05,442.65c.2.58.48,1.11.85,1.58s.8.84,1.3,1.11l-.57.74c-.55-.29-1.02-.71-1.42-1.26-.4-.54-.7-1.16-.91-1.86-.21.74-.51,1.4-.91,1.99-.4.59-.87,1.05-1.42,1.38l-.59-.76c.5-.29.93-.68,1.29-1.18.37-.5.65-1.06.84-1.67.2-.61.3-1.23.3-1.85v-.56h-2.13v-.82h2.13v-1.67h.95v1.67h2.09v.82h-2.11v.56c0,.6.1,1.19.3,1.78ZM238.79,448.05h-.93v-5.36h-1.77v-.84h1.77v-4.15h.93v10.35ZM241.06,448.63h-.95v-11.21h.95v11.21Z" fill="#16223d"/><path d="M249.71,448.06h-.95v-3.88h-2.08v-.82h2.08v-1.99h-1.9c-.28.98-.74,1.88-1.38,2.69-.64.82-1.48,1.53-2.51,2.15l-.61-.72c1.2-.71,2.12-1.55,2.75-2.54.64-.99,1.01-2.08,1.11-3.28h-3.35v-.82h4.34c0,.58-.05,1.14-.15,1.69h1.7v-2.83h.95v10.34ZM251.98,448.63h-.95v-11.21h.95v11.21Z" fill="#16223d"/><path d="M108.27,464.12c-.12-.07-.22-.17-.3-.3s-.11-.26-.1-.41c0-.14.03-.28.1-.4s.17-.22.3-.3c.12-.07.26-.11.41-.11s.28.04.4.11c.12.07.22.17.3.3.07.12.11.26.11.4s-.04.28-.11.41c-.07.13-.17.23-.3.3-.12.07-.26.11-.4.11s-.28-.04-.41-.11Z" fill="#16223d"/><path d="M119.08,462.8h4.63v.82h-10.22v-.82h4.62v-1.6h.97v1.6ZM122.8,458.55h-3.56c.02.4.22.77.58,1.12.37.34.85.63,1.44.86s1.22.38,1.88.45l-.37.78c-.62-.08-1.21-.21-1.77-.41-.56-.2-1.05-.46-1.47-.77-.42-.32-.73-.67-.93-1.08-.2.4-.51.76-.92,1.08-.42.32-.91.57-1.47.77-.56.2-1.16.34-1.78.41l-.37-.78c.66-.07,1.28-.22,1.87-.45.59-.22,1.07-.51,1.43-.85s.56-.72.59-1.12h-3.53v-.81h8.37v.81ZM120.67,464.77c.58.15,1.02.37,1.32.66.31.29.46.64.47,1.05,0,.41-.16.76-.47,1.05-.31.29-.75.51-1.32.66-.58.15-1.27.22-2.07.22s-1.51-.08-2.08-.22-1.02-.37-1.33-.66-.46-.64-.46-1.05.15-.76.46-1.05c.31-.29.75-.51,1.33-.66s1.27-.22,2.08-.22,1.49.07,2.07.22ZM116.48,465.63c-.5.2-.75.48-.74.85,0,.24.11.45.33.62.22.17.55.3.98.4.43.09.95.14,1.55.14s1.1-.05,1.54-.14c.43-.09.76-.23.99-.4.23-.17.34-.38.34-.62,0-.37-.25-.65-.76-.85-.5-.2-1.21-.3-2.11-.3s-1.62.1-2.12.3Z" fill="#16223d"/><path d="M133.31,461.48h-3.32v1.44h4.62v.81h-10.22v-.81h4.62v-1.44h-3.29v-3.78h7.59v3.78ZM133.35,468.43h-1v-2.74h-6.82v-.79h7.82v3.53ZM126.69,460.68h5.64v-2.19h-5.64v2.19Z" fill="#16223d"/><path d="M136.08,464.12c-.12-.07-.22-.17-.3-.3s-.11-.26-.1-.41c0-.14.03-.28.1-.4s.17-.22.3-.3c.12-.07.26-.11.41-.11s.28.04.4.11c.12.07.22.17.3.3.07.12.11.26.11.4s-.04.28-.11.41c-.07.13-.17.23-.3.3-.12.07-.26.11-.4.11s-.28-.04-.41-.11Z" fill="#16223d"/><path d="M142.73,460.45c.25.44.59.82,1.03,1.15.44.33.93.58,1.49.74l-.5.78c-.66-.21-1.24-.53-1.74-.96-.5-.43-.88-.93-1.14-1.51-.24.61-.62,1.15-1.12,1.62-.5.46-1.09.81-1.77,1.04l-.52-.78c.56-.18,1.06-.44,1.5-.79s.78-.75,1.03-1.22c.25-.46.37-.95.37-1.45v-.29h-2.62v-.81h6.21v.81h-2.58v.29c0,.48.12.94.37,1.38ZM141.3,465.2h5.3v-1.36h.98v4.44h-7.26v-4.44h.98v1.36ZM146.59,467.47v-1.48h-5.3v1.48h5.3ZM147.58,463.28h-.98v-6.07h.98v6.07Z" fill="#16223d"/><path d="M159.44,463.28h-4.63v1.2c1.07.05,1.9.24,2.49.58.59.34.89.8.89,1.39,0,.41-.16.76-.47,1.06-.31.29-.75.52-1.32.67-.58.15-1.27.23-2.07.23s-1.5-.08-2.08-.23c-.58-.15-1.02-.38-1.33-.67-.31-.29-.46-.64-.46-1.06,0-.59.29-1.05.88-1.39.59-.34,1.42-.53,2.5-.58v-1.2h-4.62v-.82h10.22v.82ZM158.53,458.55h-3.56c.02.41.21.79.58,1.13.37.35.84.63,1.43.86.59.23,1.22.38,1.89.45l-.37.78c-.62-.08-1.21-.21-1.77-.42-.56-.2-1.05-.47-1.47-.79-.42-.32-.73-.68-.93-1.08-.2.4-.51.77-.93,1.08-.42.32-.91.58-1.47.79-.56.2-1.15.34-1.78.42l-.35-.78c.66-.07,1.28-.22,1.86-.45.59-.23,1.06-.52,1.43-.87.37-.35.56-.73.59-1.13h-3.53v-.81h8.37v.81ZM152.79,465.39c-.43.1-.76.23-.98.41-.23.18-.34.39-.33.65,0,.25.11.46.33.64.23.18.56.31.99.41.43.09.94.14,1.54.14s1.1-.05,1.53-.14c.43-.09.76-.23.99-.41.23-.18.34-.39.34-.64s-.11-.46-.34-.64c-.23-.18-.56-.32-.99-.42s-.94-.15-1.53-.15c-.6,0-1.12.05-1.55.15Z" fill="#16223d"/><path d="M169.18,463.28h-3.47v2.9h4.68v.83h-10.27v-.83h4.62v-2.9h-3.3v-5.15h7.63v.81h-6.63v3.53h6.75v.81Z" fill="#16223d"/><path d="M171.81,464.12c-.12-.07-.22-.17-.3-.3s-.11-.26-.1-.41c0-.14.03-.28.1-.4s.17-.22.3-.3c.12-.07.26-.11.41-.11s.28.04.4.11c.12.07.22.17.3.3.07.12.11.26.11.4s-.04.28-.11.41c-.07.13-.17.23-.3.3-.12.07-.26.11-.4.11s-.28-.04-.41-.11Z" fill="#16223d"/><path d="M183.35,465.53h-1v-3.01h-2.65v1.1h-5.08v-5.64h.98v1.99h3.13v-1.99h.97v1.31h2.65v-2.06h1v8.3ZM178.73,462.79v-2.04h-3.13v2.04h3.13ZM183.6,468.19h-7.5v-3.48h1v2.65h6.51v.83ZM182.35,461.69v-1.58h-2.65v1.58h2.65Z" fill="#16223d"/><path d="M195.19,463.56h-10.23v-.79h4.63v-1.31h-3.33v-3.71h7.66v.79h-6.68v2.11h6.76v.81h-3.44v1.31h4.64v.79ZM192.13,464.62c.58.16,1.02.39,1.33.69.31.3.46.67.47,1.09,0,.43-.16.79-.47,1.1-.31.3-.75.53-1.32.69-.58.16-1.27.24-2.07.24-.81,0-1.5-.08-2.08-.24-.58-.16-1.02-.39-1.33-.69s-.46-.67-.46-1.1.15-.79.46-1.09.75-.53,1.33-.69c.58-.16,1.27-.24,2.08-.24s1.49.08,2.06.24ZM188.52,465.31c-.43.1-.76.24-.99.43-.23.18-.34.41-.33.66,0,.26.11.48.33.67.23.18.56.33.99.42.43.1.94.15,1.54.15s1.1-.05,1.53-.15.76-.24.99-.43c.23-.19.34-.41.34-.67s-.11-.48-.34-.66c-.23-.18-.56-.33-.99-.43-.43-.1-.94-.15-1.53-.15s-1.11.05-1.54.15Z" fill="#16223d"/><path d="M200.06,460.49c.23.48.56.89.98,1.25s.91.63,1.45.81l-.55.77c-.62-.24-1.17-.57-1.63-1.02-.47-.44-.82-.96-1.06-1.54-.24.67-.61,1.26-1.1,1.76-.5.5-1.08.88-1.75,1.14l-.54-.81c.57-.2,1.08-.49,1.51-.87.43-.38.77-.83,1.01-1.34.24-.51.36-1.05.37-1.62v-1.16h.98v1.12c0,.53.11,1.03.34,1.5ZM203.45,464.44c.56.17,1,.41,1.3.73.3.32.45.7.45,1.14s-.15.82-.45,1.13c-.3.31-.73.55-1.3.72s-1.23.25-2.01.25-1.45-.08-2.01-.25c-.56-.16-1-.4-1.3-.72-.3-.31-.45-.69-.45-1.13s.15-.83.45-1.14c.3-.32.73-.56,1.3-.73.56-.17,1.23-.25,2.01-.25s1.45.08,2.01.25ZM199.95,465.13c-.42.11-.74.26-.96.46s-.33.44-.33.71c0,.26.11.5.33.69s.54.35.96.45c.42.11.91.16,1.48.16s1.06-.05,1.48-.16c.42-.1.74-.25.96-.45.22-.2.33-.43.33-.69s-.11-.51-.33-.71c-.22-.2-.54-.36-.96-.46-.42-.11-.91-.16-1.48-.16s-1.06.05-1.48.16ZM205.16,463.86h-1v-3.42h-2.5v-.82h2.5v-2.41h1v6.65Z" fill="#16223d"/><path d="M207.54,464.12c-.12-.07-.22-.17-.3-.3s-.11-.26-.1-.41c0-.14.03-.28.1-.4s.17-.22.3-.3c.12-.07.26-.11.41-.11s.28.04.4.11c.12.07.22.17.3.3.07.12.11.26.11.4s-.04.28-.11.41c-.07.13-.17.23-.3.3-.12.07-.26.11-.4.11s-.28-.04-.41-.11Z" fill="#16223d"/><path d="M220.04,464.43h-2.71v4h-1v-4h-2.88v4h-1.02v-4h-2.66v-.82h10.27v.82ZM216.95,457.97c.6.2,1.06.49,1.39.85.33.37.49.8.49,1.29s-.17.92-.5,1.29c-.33.37-.79.65-1.39.84-.6.2-1.28.29-2.07.29-.78,0-1.47-.09-2.07-.29s-1.06-.48-1.39-.84c-.33-.37-.5-.79-.5-1.29s.16-.92.49-1.29c.33-.37.79-.65,1.39-.85.6-.2,1.29-.3,2.07-.3s1.47.1,2.07.3ZM213.34,458.68c-.44.13-.79.33-1.03.57-.24.25-.36.54-.36.86,0,.33.12.62.36.86.24.25.59.43,1.03.57s.96.2,1.54.2,1.09-.07,1.53-.2.79-.32,1.04-.57.37-.53.37-.86-.12-.62-.37-.86-.59-.44-1.04-.57-.96-.2-1.53-.2-1.09.07-1.54.2Z" fill="#16223d"/><path d="M230.92,463.56h-10.23v-.79h4.63v-1.31h-3.33v-3.71h7.66v.79h-6.68v2.11h6.76v.81h-3.44v1.31h4.64v.79ZM227.86,464.62c.58.16,1.02.39,1.33.69.31.3.46.67.47,1.09,0,.43-.16.79-.47,1.1-.31.3-.75.53-1.32.69-.58.16-1.27.24-2.07.24-.81,0-1.5-.08-2.08-.24-.58-.16-1.02-.39-1.33-.69s-.46-.67-.46-1.1.15-.79.46-1.09.75-.53,1.33-.69c.58-.16,1.27-.24,2.08-.24s1.49.08,2.06.24ZM224.26,465.31c-.43.1-.76.24-.99.43-.23.18-.34.41-.33.66,0,.26.11.48.33.67.23.18.56.33.99.42.43.1.94.15,1.54.15s1.1-.05,1.53-.15.76-.24.99-.43c.23-.19.34-.41.34-.67s-.11-.48-.34-.66c-.23-.18-.56-.33-.99-.43-.43-.1-.94-.15-1.53-.15s-1.11.05-1.54.15Z" fill="#16223d"/><path d="M235.79,460.49c.23.48.56.89.98,1.25s.91.63,1.45.81l-.55.77c-.62-.24-1.17-.57-1.63-1.02-.47-.44-.82-.96-1.06-1.54-.24.67-.61,1.26-1.1,1.76-.5.5-1.08.88-1.75,1.14l-.54-.81c.57-.2,1.08-.49,1.51-.87.43-.38.77-.83,1.01-1.34.24-.51.36-1.05.37-1.62v-1.16h.98v1.12c0,.53.11,1.03.34,1.5ZM239.18,464.44c.56.17,1,.41,1.3.73.3.32.45.7.45,1.14s-.15.82-.45,1.13c-.3.31-.73.55-1.3.72s-1.23.25-2.01.25-1.45-.08-2.01-.25c-.56-.16-1-.4-1.3-.72-.3-.31-.45-.69-.45-1.13s.15-.83.45-1.14c.3-.32.73-.56,1.3-.73.56-.17,1.23-.25,2.01-.25s1.45.08,2.01.25ZM235.69,465.13c-.42.11-.74.26-.96.46s-.33.44-.33.71c0,.26.11.5.33.69s.54.35.96.45c.42.11.91.16,1.48.16s1.06-.05,1.48-.16c.42-.1.74-.25.96-.45.22-.2.33-.43.33-.69s-.11-.51-.33-.71c-.22-.2-.54-.36-.96-.46-.42-.11-.91-.16-1.48-.16s-1.06.05-1.48.16ZM240.89,463.86h-1v-3.42h-2.5v-.82h2.5v-2.41h1v6.65Z" fill="#16223d"/><path d="M251.07,462.8h4.63v.82h-10.22v-.82h4.62v-1.6h.97v1.6ZM254.79,458.55h-3.56c.02.4.22.77.58,1.12.37.34.85.63,1.44.86s1.22.38,1.88.45l-.37.78c-.62-.08-1.21-.21-1.77-.41-.56-.2-1.05-.46-1.47-.77-.42-.32-.73-.67-.93-1.08-.2.4-.51.76-.92,1.08-.42.32-.91.57-1.47.77-.56.2-1.16.34-1.78.41l-.37-.78c.66-.07,1.28-.22,1.87-.45.59-.22,1.07-.51,1.43-.85s.56-.72.59-1.12h-3.53v-.81h8.37v.81ZM252.66,464.77c.58.15,1.02.37,1.32.66.31.29.46.64.47,1.05,0,.41-.16.76-.47,1.05-.31.29-.75.51-1.32.66-.58.15-1.27.22-2.07.22s-1.51-.08-2.08-.22-1.02-.37-1.33-.66-.46-.64-.46-1.05.15-.76.46-1.05c.31-.29.75-.51,1.33-.66s1.27-.22,2.08-.22,1.49.07,2.07.22ZM248.47,465.63c-.5.2-.75.48-.74.85,0,.24.11.45.33.62.22.17.55.3.98.4.43.09.95.14,1.55.14s1.1-.05,1.54-.14c.43-.09.76-.23.99-.4.23-.17.34-.38.34-.62,0-.37-.25-.65-.76-.85-.5-.2-1.21-.3-2.11-.3s-1.62.1-2.12.3Z" fill="#16223d"/><path d="M263.09,459.2h-6.68v-.82h2.85v-1.26h.98v1.26h2.85v.82ZM261.16,459.96c.41.16.72.39.95.69.22.3.34.64.34,1.04,0,.39-.12.74-.34,1.04-.22.3-.54.53-.95.69-.41.16-.88.24-1.41.24s-1.01-.08-1.42-.24-.73-.39-.95-.69c-.22-.3-.33-.64-.33-1.04,0-.4.11-.74.33-1.04.22-.3.54-.53.95-.69.41-.16.88-.24,1.42-.24s1,.08,1.41.24ZM258.83,460.62c-.27.1-.47.24-.62.43-.14.18-.21.4-.21.63,0,.24.07.45.21.63.15.18.35.32.62.43.27.1.58.15.92.15s.65-.05.92-.15c.27-.1.47-.24.62-.43.15-.18.22-.39.23-.63,0-.24-.08-.45-.23-.63-.15-.18-.36-.32-.62-.42-.27-.1-.57-.15-.92-.14-.35,0-.66.04-.92.14ZM259.04,465.43h5.12v-1.2h.98v4.05h-7.09v-4.05h.98v1.2ZM264.17,467.48v-1.27h-5.12v1.27h5.12ZM265.15,460.09h1.69v.85h-1.69v2.8h-.98v-6.52h.98v2.88Z" fill="#16223d"/><path d="M276.56,458.89h-1.15v3.59c.6-.04,1.1-.09,1.51-.15l.05.76c-.97.15-1.99.25-3.08.3-1.08.05-2.25.07-3.48.07l-.13-.83h1.45v-3.73h-1.13v-.82h5.95v.82ZM277.86,464.62c.56.16,1,.39,1.3.69.3.3.45.66.45,1.08s-.15.79-.45,1.09c-.3.3-.73.53-1.29.69-.56.16-1.24.24-2.02.24s-1.45-.08-2.02-.24c-.56-.16-.99-.39-1.29-.69s-.45-.67-.45-1.09.15-.78.45-1.08.73-.53,1.3-.69c.56-.16,1.23-.24,2.01-.24s1.45.08,2.01.24ZM274.46,462.54v-3.64h-1.75v3.71c.66-.01,1.24-.03,1.75-.06ZM274.36,465.3c-.42.1-.74.24-.96.43-.22.19-.33.41-.33.66,0,.26.11.48.33.67.22.19.54.33.96.43.42.1.91.15,1.49.15s1.07-.05,1.49-.15c.42-.1.74-.24.96-.43.22-.19.33-.41.33-.67s-.11-.48-.33-.66c-.22-.18-.54-.33-.96-.43s-.91-.15-1.48-.15-1.07.05-1.48.15ZM279.57,464.14h-1v-2.08h-1.89v-.82h1.89v-1.19h-1.89v-.82h1.89v-2.02h1v6.92Z" fill="#16223d"/><path d="M285.7,462.96c-.84,1.36-2.13,2.47-3.89,3.33l-.56-.78c1.44-.72,2.56-1.61,3.35-2.66.79-1.06,1.24-2.25,1.36-3.59h-4.19v-.83h5.18c0,1.67-.42,3.18-1.25,4.54ZM289.85,461.78h1.82v.83h-1.82v5.81h-.98v-11.21h.98v4.57Z" fill="#16223d"/><path d="M108.27,483.06c-.12-.07-.22-.17-.3-.3s-.11-.26-.1-.41c0-.14.03-.28.1-.4s.17-.22.3-.3c.12-.07.26-.11.41-.11s.28.04.4.11c.12.07.22.17.3.3.07.12.11.26.11.4s-.04.28-.11.41c-.07.13-.17.23-.3.3-.12.07-.26.11-.4.11s-.28-.04-.41-.11Z" fill="#16223d"/><path d="M115.39,486.16c-.44-.21-.8-.5-1.06-.86s-.4-.78-.43-1.25h1.1c.03.27.13.51.3.73.17.22.39.39.67.51s.57.19.9.19c.39,0,.74-.09,1.05-.26.31-.18.55-.42.73-.73.18-.31.26-.65.26-1.03s-.09-.74-.27-1.06c-.18-.31-.44-.56-.76-.74-.32-.18-.68-.27-1.09-.27-.81-.01-1.38.26-1.7.82h-1.1l.64-4.99h4.94v1.01h-4l-.34,2.67h.09c.21-.16.46-.29.75-.38s.6-.15.91-.15c.57,0,1.09.13,1.55.39.46.26.82.63,1.08,1.09.26.47.39.99.39,1.58s-.14,1.1-.41,1.56c-.27.46-.65.82-1.13,1.08-.48.26-1.02.39-1.61.39-.54,0-1.04-.1-1.48-.31Z" fill="#16223d"/><path d="M122.61,481.96c.85,0,1.65-.04,2.41-.09.75-.06,1.53-.16,2.34-.31l.1.82c-.85.16-1.66.27-2.44.33-.78.06-1.63.09-2.55.1h-.85v-5.83h1v4.98ZM130.54,487.13h-7.53v-3.37h1v2.54h6.53v.83ZM130.24,484.47h-1v-3.88h-3.23v-.79h3.23v-1.35h-3.23v-.79h3.23v-1.48h1v8.3Z" fill="#16223d"/><path d="M139.35,481.91c-.84,1.36-2.13,2.47-3.89,3.33l-.56-.78c1.44-.72,2.56-1.61,3.35-2.66.79-1.06,1.24-2.25,1.36-3.59h-4.19v-.83h5.18c0,1.67-.42,3.18-1.25,4.54ZM143.5,480.72h1.82v.83h-1.82v5.81h-.98v-11.21h.98v4.57Z" fill="#16223d"/><path d="M155.96,482.5h-10.23v-.79h4.63v-1.31h-3.33v-3.71h7.66v.79h-6.68v2.11h6.76v.81h-3.44v1.31h4.64v.79ZM152.9,483.56c.58.16,1.02.39,1.33.69.31.3.46.67.47,1.09,0,.43-.16.79-.47,1.1-.31.3-.75.53-1.32.69-.58.16-1.27.24-2.07.24-.81,0-1.5-.08-2.08-.24-.58-.16-1.02-.39-1.33-.69s-.46-.67-.46-1.1.15-.79.46-1.09.75-.53,1.33-.69c.58-.16,1.27-.24,2.08-.24s1.49.08,2.06.24ZM149.3,484.25c-.43.1-.76.24-.99.43-.23.18-.34.41-.33.66,0,.26.11.48.33.67.23.18.56.33.99.42.43.1.94.15,1.54.15s1.1-.05,1.53-.15.76-.24.99-.43c.23-.19.34-.41.34-.67s-.11-.48-.34-.66c-.23-.18-.56-.33-.99-.43-.43-.1-.94-.15-1.53-.15s-1.11.05-1.54.15Z" fill="#16223d"/><rect x="165.36" y="474.98" width=".52" height="12.92" fill="#16223d"/><path d="M185.51,483.63h-4.68v3.75h-.97v-3.75h-4.62v-.81h10.27v.81ZM177.54,478.18h5.65v-1.55h1v4.83h-7.63v-4.83h.98v1.55ZM183.19,480.65v-1.67h-5.65v1.67h5.65Z" fill="#16223d"/><path d="M190.49,478.83c.24.47.58.88,1.02,1.24.44.36.93.62,1.49.8l-.49.77c-.66-.22-1.24-.56-1.74-1.01-.5-.45-.87-.98-1.12-1.59-.25.65-.63,1.22-1.14,1.72-.5.49-1.09.86-1.75,1.1l-.52-.78c.56-.2,1.06-.48,1.5-.86.44-.38.78-.81,1.02-1.31s.37-1.02.37-1.56v-.86h1.01v.86c0,.52.12,1.02.36,1.49ZM195.42,485.23h-6.29v1.21h6.7v.81h-7.67v-2.79h6.28v-1.12h-6.31v-.79h7.29v2.69ZM195.41,481.97h-.97v-5.81h.97v5.81Z" fill="#16223d"/><path d="M207.28,481.68h-2.85v1.11h1.54v2.51h-6.66v1.16h7v.78h-7.98v-2.67h6.67v-1.02h-6.7v-.76h1.55v-1.11h-2.79v-.81h10.22v.81ZM204.31,476.52c.59.15,1.04.37,1.36.66s.47.64.47,1.05-.16.77-.47,1.06-.76.51-1.36.66-1.31.23-2.14.23c-.83,0-1.55-.08-2.14-.23s-1.05-.37-1.36-.66c-.31-.29-.47-.64-.47-1.06s.16-.76.47-1.05c.31-.29.77-.51,1.36-.66s1.31-.23,2.14-.23,1.54.08,2.14.23ZM200,477.38c-.51.21-.77.49-.76.86,0,.38.25.68.76.88.51.2,1.24.31,2.18.32.94,0,1.66-.12,2.18-.32.51-.2.77-.5.77-.88s-.26-.66-.78-.86-1.24-.31-2.17-.32c-.94,0-1.66.12-2.18.32ZM203.45,482.79v-1.11h-2.62v1.11h2.62Z" fill="#16223d"/><path d="M212.62,485.93c-.48-.37-.84-.9-1.09-1.6s-.38-1.55-.38-2.54.13-1.82.38-2.53.62-1.24,1.1-1.61c.48-.37,1.05-.55,1.71-.55s1.24.18,1.72.55c.48.37.84.91,1.1,1.61.25.7.38,1.55.38,2.53s-.12,1.84-.38,2.54c-.25.7-.61,1.24-1.09,1.6-.48.37-1.05.55-1.72.55s-1.25-.18-1.72-.55ZM215.47,485.04c.31-.29.55-.7.71-1.25s.25-1.22.25-2-.08-1.45-.25-2.01c-.16-.55-.4-.98-.71-1.27-.31-.29-.69-.43-1.12-.43s-.81.14-1.13.43c-.31.29-.55.71-.72,1.27-.17.56-.25,1.22-.25,2.01s.08,1.45.25,2,.4.97.72,1.25.69.43,1.13.43.81-.14,1.12-.43Z" fill="#16223d"/><path d="M218.84,486.32c-.12-.07-.22-.17-.3-.3s-.11-.26-.1-.41c0-.14.03-.28.1-.4s.17-.22.3-.3c.12-.07.26-.11.41-.11s.28.04.4.11c.12.07.22.17.3.3.07.12.11.26.11.4s-.04.28-.11.41c-.07.13-.17.23-.3.3-.12.07-.26.11-.4.11s-.28-.04-.41-.11Z" fill="#16223d"/><path d="M221.48,485.52l3.12-3.28c.41-.43.73-.78.94-1.05.22-.27.38-.53.49-.78.11-.25.17-.51.17-.79,0-.3-.08-.57-.24-.81-.16-.24-.38-.42-.65-.55-.28-.13-.58-.2-.92-.2s-.67.07-.94.21c-.27.14-.48.34-.62.61-.15.26-.22.56-.22.9h-1.07c0-.53.12-1,.37-1.41.25-.41.6-.72,1.04-.95.44-.23.94-.34,1.48-.34s1.03.11,1.46.33c.43.22.77.53,1.01.91s.37.82.37,1.29c0,.35-.06.68-.19,1s-.34.67-.63,1.05c-.3.38-.72.86-1.27,1.43l-2.09,2.16v.08h4.35v1.01h-5.93v-.83Z" fill="#16223d"/><path d="M228.39,483.55l4.11-6.33h1.4v6.27h1.27v1h-1.27v1.87h-1.08v-1.87h-4.43v-.93ZM232.82,483.49v-4.83h-.11l-3.09,4.75v.08h3.2Z" fill="#16223d"/><path d="M237.35,481.18c-.28-.18-.48-.44-.62-.77s-.21-.72-.21-1.16.07-.81.22-1.14c.15-.33.36-.59.63-.77.28-.18.6-.27.98-.27s.72.09,1,.27c.27.18.48.44.62.77.14.33.21.71.21,1.14s-.07.82-.21,1.15c-.14.33-.35.59-.63.77-.28.18-.6.27-.99.27s-.72-.09-.99-.27ZM243.69,477.22h1.02l-6.28,9.13h-1.02l6.28-9.13ZM239.03,480.3c.15-.25.23-.6.23-1.04s-.07-.79-.22-1.03-.38-.37-.69-.37c-.29,0-.52.12-.67.38-.16.25-.23.59-.23,1.02s.08.78.23,1.03c.16.25.38.38.67.38s.53-.12.68-.38ZM242.92,486.21c-.28-.18-.49-.44-.63-.77s-.21-.71-.21-1.15c0-.43.07-.82.21-1.15.15-.33.36-.59.63-.77.28-.18.61-.27.98-.27s.72.09.99.27c.27.18.48.44.62.77.14.33.21.71.21,1.15s-.07.82-.21,1.15-.35.59-.62.77c-.27.18-.6.27-.98.26-.39,0-.72-.08-1-.26ZM244.59,485.32c.15-.25.23-.59.23-1.03s-.07-.79-.21-1.04-.36-.38-.66-.38-.54.12-.7.38-.25.6-.25,1.04.08.77.23,1.02c.16.25.38.38.69.38s.52-.12.67-.37Z" fill="#16223d"/><path d="M108.27,502.87c-.12-.07-.22-.17-.3-.3s-.11-.26-.1-.41c0-.14.03-.28.1-.4s.17-.22.3-.3c.12-.07.26-.11.41-.11s.28.04.4.11c.12.07.22.17.3.3.07.12.11.26.11.4s-.04.28-.11.41c-.07.13-.17.23-.3.3-.12.07-.26.11-.4.11s-.28-.04-.41-.11Z" fill="#16223d"/><path d="M115.84,497.84h5.55v-1.42h.98v4.48h-3.28v1.2h4.62v.82h-10.22v-.82h4.62v-1.2h-3.25v-4.48h.98v1.42ZM122.57,506.94h-7.76v-3.13h1v2.3h6.76v.83ZM121.39,500.1v-1.48h-5.55v1.48h5.55Z" fill="#16223d"/><path d="M132.72,500.35c-.31.98-.85,1.9-1.6,2.74-.76.85-1.78,1.59-3.07,2.22l-.55-.76c1.03-.5,1.88-1.06,2.54-1.71.66-.64,1.17-1.35,1.52-2.13l-3.85.37-.16-.87,4.31-.29c.19-.61.31-1.27.35-1.98h-4.1v-.82h5.08c0,1.16-.16,2.24-.47,3.22ZM136.06,500.53h1.82v.83h-1.82v5.81h-.98v-11.21h.98v4.57Z" fill="#16223d"/><path d="M142.9,498.13h-3.23v2.22h2.71v.79h-2.71v2.52c.85,0,1.55-.03,2.1-.08.55-.04,1.12-.12,1.71-.23l.09.81c-.6.12-1.19.2-1.76.24-.57.04-1.36.06-2.38.07h-.71v-7.14h4.17v.79ZM145.59,506.59h-.95v-5.55h-1.65v-.82h1.65v-3.99h.95v10.35ZM147.88,507.17h-.96v-11.21h.96v11.21Z" fill="#16223d"/><path d="M159.4,505.59h-10.22v-.82h4.01v-4.01h.97v4.01h5.23v.82ZM158.18,498.22v.14c0,.92-.04,1.75-.08,2.49-.05.73-.16,1.58-.33,2.54l-1.01-.11c.13-.67.23-1.29.29-1.88.06-.59.1-1.11.11-1.57.01-.46.02-.99.02-1.61v-.3h-6.91v-.82h7.91v1.12Z" fill="#16223d"/><path d="M165.94,501h-4.19v2.65c1,0,1.94-.03,2.8-.09.86-.06,1.77-.16,2.72-.32l.1.83c-.97.16-1.9.26-2.79.32-.89.06-1.86.09-2.91.09h-.93v-4.29h4.2v-2.36h-4.22v-.82h5.22v3.99ZM169.35,507.2h-.98v-11.24h.98v11.24Z" fill="#16223d"/><path d="M182.89,497.33c0,.58-.02,1.11-.05,1.59-.03.47-.11,1.01-.23,1.6h1.63v.81h-4.67v2.07h3.39v3.78h-1v-2.96h-6.94v-.82h3.56v-2.07h-4.62v-.81h7.64c.13-.61.21-1.14.24-1.61.03-.47.05-1,.05-1.58h-6.63v-.81h7.62v.81Z" fill="#16223d"/><path d="M186.43,503.39c.63,0,1.24-.04,1.83-.09s1.21-.14,1.84-.27l.13.88c-.74.13-1.45.22-2.11.28s-1.32.08-1.98.08h-.69v-6.94h.98v6.05ZM194.45,507.17h-.97v-5.8h-1.61v5.22h-.93v-10.38h.93v4.31h1.61v-4.57h.97v11.21Z" fill="#16223d"/><path d="M203.02,503.94c1.17-.05,2.24-.15,3.22-.3l.08.73c-1.13.21-2.28.34-3.45.39s-2.47.08-3.89.08l-.14-.82c1.4,0,2.47-.02,3.22-.05v-2.11h.97v2.06ZM205.66,498.26h-2.64c0,.48.14.92.38,1.33s.59.77,1.02,1.08c.43.3.93.53,1.48.69l-.47.78c-.68-.2-1.27-.51-1.77-.93-.5-.42-.88-.91-1.13-1.48-.24.6-.61,1.11-1.11,1.54-.5.43-1.09.75-1.77.96l-.48-.76c.56-.16,1.05-.4,1.47-.72.43-.31.76-.69,1-1.12.24-.43.37-.89.38-1.39h-2.57v-.82h2.6v-1.39h.97v1.39h2.64v.82ZM207.96,507.2h-.98v-11.24h.98v11.24Z" fill="#16223d"/><path d="M219.94,505.76h-10.27v-.83h4.63v-2.57h.97v2.57h4.67v.83ZM218.95,498.57h-3.66c0,.57.18,1.09.55,1.56.37.47.85.87,1.47,1.19.61.32,1.28.54,2.01.65l-.38.78c-.94-.17-1.78-.48-2.52-.93-.74-.45-1.29-1.02-1.63-1.69-.34.68-.88,1.24-1.63,1.69-.74.45-1.59.76-2.53.93l-.39-.78c.73-.12,1.41-.33,2.02-.65.62-.32,1.11-.71,1.48-1.19.37-.48.55-1,.55-1.56h-3.66v-.82h3.67v-1.55h.97v1.55h3.68v.82Z" fill="#16223d"/><rect x="647.75" y="372.7" width="543.3" height="154.98" fill="#fff"/><rect x="648.18" y="373.13" width="542.44" height="154.12" fill="none" stroke="#d8e0f0" stroke-width=".75"/><path d="M672.2,398.43c.27.83.68,1.57,1.22,2.21.54.64,1.2,1.13,1.97,1.46l-1.17,1.6c-.79-.36-1.47-.88-2.04-1.54s-1.02-1.46-1.36-2.37c-.33.99-.8,1.85-1.39,2.58-.59.73-1.31,1.29-2.15,1.67l-1.2-1.66c.8-.34,1.48-.84,2.03-1.51.55-.67.97-1.44,1.25-2.3.28-.87.42-1.77.43-2.72v-2.13h2.02v2.13c0,.89.13,1.75.41,2.58ZM678.17,406.89h-2.02v-14.26h2.02v14.26Z" fill="#1a2a66"/><path d="M691.83,403.04h-1.99v-3.38h-3.25c-.35.37-.77.66-1.25.86-.48.21-1,.31-1.54.31-.71,0-1.35-.16-1.93-.48-.58-.32-1.03-.76-1.36-1.32s-.49-1.19-.49-1.88c0-.7.16-1.34.48-1.9s.78-1,1.36-1.32c.58-.32,1.23-.48,1.94-.49.55,0,1.06.11,1.54.31.48.2.89.49,1.24.86h3.26v-1.99h1.99v10.4ZM682.82,395.46c-.29.15-.51.38-.67.67-.16.29-.24.63-.23,1.02,0,.39.07.72.23,1.01.16.29.38.51.67.67.29.15.62.23.99.23.35,0,.67-.08.95-.23s.51-.38.67-.67c.16-.29.24-.63.24-1.01s-.08-.73-.24-1.02c-.16-.29-.38-.51-.67-.67s-.6-.23-.95-.23c-.37,0-.7.08-.99.23ZM692.18,406.6h-9.79v-4.61h2v3.02h7.79v1.59ZM687.56,397.16c0,.3-.04.6-.11.91h2.39v-1.85h-2.39c.07.31.11.62.11.94Z" fill="#1a2a66"/><path d="M697.3,403.71l4.07-3.74c.4-.39.71-.71.93-.96.22-.26.39-.51.51-.76.12-.25.18-.52.18-.81,0-.33-.08-.62-.23-.86-.15-.24-.37-.43-.64-.57-.27-.13-.58-.2-.93-.2-.53,0-.96.16-1.28.47-.32.32-.48.74-.48,1.28h-2.24c0-.73.16-1.37.5-1.92.34-.55.81-.97,1.42-1.27.61-.3,1.31-.45,2.1-.45s1.5.14,2.11.43c.61.28,1.08.68,1.42,1.18.34.51.5,1.08.5,1.74,0,.44-.09.87-.26,1.28s-.47.87-.9,1.37c-.42.5-1.03,1.11-1.8,1.81l-1.72,1.67v.06h4.83v1.94h-8.1l-.02-1.7Z" fill="#1a2a66"/><path d="M710.98,401.59c-.2-.12-.36-.28-.48-.48-.12-.2-.17-.42-.17-.65,0-.23.05-.45.17-.65.12-.2.28-.36.48-.47.2-.12.42-.18.66-.18.22,0,.44.06.64.18.2.12.36.28.48.47.12.2.18.41.18.65s-.06.45-.18.65c-.12.2-.28.36-.48.48-.2.12-.41.18-.64.18-.24,0-.46-.06-.66-.18Z" fill="#1a2a66"/><path d="M723.59,396.28c-.34-.25-.8-.38-1.37-.38-.39,0-.73.06-1,.17-.28.11-.49.27-.64.47-.15.2-.22.42-.22.68,0,.37.16.66.49.88.33.22.77.39,1.32.52l1.02.25c1.05.23,1.88.62,2.48,1.16s.91,1.26.91,2.15c0,.69-.17,1.29-.52,1.8-.35.51-.85.9-1.51,1.18s-1.44.41-2.35.41-1.71-.14-2.39-.42c-.68-.28-1.2-.7-1.57-1.25s-.57-1.22-.59-2.02h2.28c.04.56.26.98.66,1.28.4.29.93.44,1.58.44.41,0,.76-.06,1.07-.18.31-.12.54-.29.71-.5.17-.21.25-.46.25-.74,0-.36-.16-.65-.47-.87-.32-.21-.8-.4-1.47-.57l-1.24-.3c-2.05-.51-3.08-1.53-3.08-3.08,0-.68.18-1.28.55-1.79.37-.52.88-.92,1.53-1.2.65-.28,1.39-.43,2.21-.43s1.55.14,2.18.43,1.12.69,1.47,1.2c.35.51.53,1.1.54,1.76h-2.25c-.05-.45-.24-.8-.59-1.05Z" fill="#1a2a66"/><path d="M727.86,394.09h4.44c.84,0,1.57.16,2.18.48.61.32,1.07.77,1.39,1.35.32.58.48,1.24.48,1.99s-.16,1.42-.49,2c-.33.58-.8,1.02-1.42,1.34-.62.32-1.35.48-2.21.48h-2.03v3.69h-2.35v-11.32ZM731.86,399.83c.68,0,1.19-.17,1.54-.52.35-.35.52-.81.52-1.4s-.17-1.05-.52-1.38-.86-.51-1.54-.51h-1.66v3.82h1.66Z" fill="#1a2a66"/><path d="M744.71,396.96c-.22-.31-.51-.54-.86-.7-.35-.16-.74-.24-1.18-.24-.59,0-1.1.15-1.54.44s-.78.72-1.02,1.28c-.24.56-.36,1.23-.36,2.01s.12,1.48.36,2.04c.24.56.58.98,1.02,1.27.44.29.95.43,1.53.43.65,0,1.2-.17,1.65-.52.45-.34.73-.82.84-1.42l2.38.02c-.09.71-.34,1.38-.76,1.99-.42.61-.98,1.1-1.69,1.47s-1.52.55-2.45.55c-1.02,0-1.92-.23-2.72-.69-.8-.46-1.42-1.13-1.87-2.01-.45-.88-.68-1.92-.68-3.12s.23-2.24.68-3.12c.46-.88,1.08-1.55,1.88-2.01.8-.46,1.7-.69,2.7-.69.87,0,1.66.16,2.36.48s1.28.79,1.72,1.41c.44.62.71,1.35.82,2.2h-2.38c-.06-.41-.21-.77-.43-1.08Z" fill="#1a2a66"/><path d="M758.7,395.09h-4.35v3.39c1.32-.01,2.38-.05,3.19-.11s1.61-.17,2.39-.33l.2,1.56c-.84.19-1.73.32-2.65.38-.93.06-2.24.09-3.93.09h-1.2v-6.57h6.35v1.58ZM763.1,406.68h-9.31v-5.47h9.31v5.47ZM755.76,405.12h5.36v-2.33h-5.36v2.33ZM763.1,395.83h1.92v1.64h-1.92v3.14h-2v-7.99h2v3.21Z" fill="#1a2a66"/><path d="M778.42,405.2h-13.03v-1.63h5.49v-2.63h-4.11v-7.41h2v2.21h6.21v-2.21h1.99v7.41h-4.1v2.63h5.55v1.63ZM774.98,399.35v-2.02h-6.21v2.02h6.21Z" fill="#1a2a66"/><path d="M783.41,399.67c1.62-.07,3.02-.2,4.21-.37l.11,1.44c-1.31.24-2.67.4-4.09.48s-2.98.12-4.68.13l-.17-1.59c1.13,0,2.01,0,2.64-.02v-2.79h1.99v2.73ZM786.95,394.55c0,.73-.02,1.41-.05,2.05-.04.64-.13,1.35-.27,2.12l-1.96-.19c.2-1.09.31-2.17.33-3.25h-5.36v-1.63h7.32v.89ZM790.87,406.6h-9.99v-4.29h2v2.69h7.99v1.59ZM790.44,396.95h1.72v1.67h-1.72v4.64h-2.05v-10.65h2.05v4.33Z" fill="#1a2a66"/><path d="M800.08,399.3h-4.69v2.61c1.12,0,2.16-.04,3.12-.12s1.96-.19,2.98-.35l.17,1.61c-1.11.19-2.21.32-3.3.39s-2.35.11-3.75.11h-1.28v-5.83h4.72v-2.3h-4.74v-1.61h6.77v5.49ZM804.49,406.89h-1.99v-14.26h1.99v14.26Z" fill="#1a2a66"/><path d="M815.51,398.43c.27.83.68,1.57,1.22,2.21.54.64,1.2,1.13,1.97,1.46l-1.17,1.6c-.79-.36-1.47-.88-2.04-1.54s-1.02-1.46-1.36-2.37c-.33.99-.8,1.85-1.39,2.58-.59.73-1.31,1.29-2.15,1.67l-1.2-1.66c.8-.34,1.48-.84,2.03-1.51.55-.67.97-1.44,1.25-2.3.28-.87.42-1.77.43-2.72v-2.13h2.02v2.13c0,.89.13,1.75.41,2.58ZM821.49,406.89h-2.02v-14.26h2.02v14.26Z" fill="#1a2a66"/><path d="M836.18,405.1h-13.03v-1.64h13.03v1.64ZM831.25,396.58c.4.68.99,1.27,1.76,1.77.77.5,1.67.84,2.7,1.02l-.88,1.66c-1.22-.24-2.28-.69-3.19-1.34-.9-.65-1.59-1.44-2.06-2.38-.48.93-1.17,1.72-2.08,2.37-.91.65-1.96,1.1-3.17,1.34l-.86-1.66c1.02-.18,1.91-.52,2.67-1.02.76-.5,1.35-1.09,1.75-1.77.41-.68.61-1.37.62-2.07v-1.03h2.13v1.03c0,.71.2,1.4.61,2.08Z" fill="#1a2a66"/><path d="M842.72,395.08h-3.52v1.13h2.99v1.53h-2.99v1.24c.84-.02,1.56-.05,2.17-.09.6-.04,1.22-.12,1.84-.22l.2,1.55c-.78.13-1.54.22-2.28.26-.75.04-1.7.07-2.86.07h-.97v-7.08h5.43v1.61ZM848.96,406.7h-9.71v-5.02h9.71v5.02ZM841.24,405.1h5.75v-1.86h-5.75v1.86ZM846.13,401.02h-1.89v-3.38h-1.44v-1.6h1.44v-3.21h1.89v8.18ZM848.96,401.11h-1.89v-8.49h1.89v8.49Z" fill="#1a2a66"/><path d="M670.46,423.71c.26.61.61,1.16,1.06,1.65.45.49.94.86,1.48,1.11l-.57.78c-.63-.3-1.19-.77-1.69-1.39-.5-.62-.88-1.32-1.14-2.08-.17.55-.4,1.07-.69,1.56-.29.49-.63.93-1.01,1.3-.38.38-.78.67-1.19.89l-.61-.78c.53-.26,1.03-.65,1.49-1.17.46-.52.83-1.11,1.1-1.75.27-.65.42-1.28.42-1.91v-1.46h-2.61v-.82h6.1v.82h-2.52v1.46c0,.59.12,1.19.38,1.79ZM674.96,423.01h1.88v.85h-1.88v5.83h-.98v-11.21h.98v4.54Z" fill="#16223d"/><path d="M686.11,419.91c0,.61-.02,1.15-.05,1.64-.03.49-.12,1.04-.25,1.66h1.65v.82h-10.27v-.82h7.62c.13-.62.22-1.17.26-1.66.04-.48.05-1.03.05-1.63h0s-6.63-.01-6.63-.01v-.82h7.62v.83ZM686.16,429.53h-7.71v-3.96h7.71v3.96ZM679.43,428.73h5.74v-2.37h-5.74v2.37Z" fill="#16223d"/><path d="M695.22,423.41c.26.64.61,1.21,1.06,1.72.44.5.93.89,1.45,1.15l-.61.79c-.62-.32-1.17-.8-1.66-1.42-.49-.63-.86-1.33-1.11-2.11-.25.83-.62,1.58-1.12,2.24-.5.67-1.07,1.17-1.7,1.5l-.63-.79c.54-.26,1.04-.66,1.49-1.2.45-.53.8-1.13,1.07-1.8.26-.67.4-1.34.4-2.01v-2.04h.97v2.04c0,.64.13,1.29.39,1.93ZM699.75,423.02h1.88v.86h-1.88v5.8h-.98v-11.21h.98v4.55Z" fill="#16223d"/><path d="M706.74,419.83c.43.32.77.78,1.02,1.37.24.59.37,1.27.37,2.06s-.12,1.47-.37,2.06-.58,1.04-1.02,1.36c-.43.32-.93.48-1.48.48s-1.05-.16-1.49-.48c-.43-.32-.77-.77-1.02-1.36-.24-.59-.36-1.27-.36-2.06s.12-1.47.36-2.06c.24-.59.58-1.04,1.01-1.37.43-.32.93-.48,1.49-.49.55,0,1.05.17,1.48.49ZM704.27,420.61c-.29.25-.51.6-.67,1.06-.16.46-.24.98-.24,1.59s.08,1.13.24,1.59.38.81.67,1.06.62.37.99.37.7-.12.99-.37.51-.6.67-1.06c.16-.46.24-.99.24-1.59s-.08-1.13-.24-1.59c-.16-.46-.38-.81-.67-1.06s-.62-.38-.99-.38c-.37,0-.71.13-.99.38ZM711.22,429.71h-1v-11.24h1v11.24Z" fill="#16223d"/><path d="M721.8,419.87c0,.6-.02,1.14-.05,1.62-.03.47-.11,1-.22,1.59h1.57v.81h-10.2v-.81h7.64c.11-.5.18-.99.22-1.45l-6.71.29-.13-.79,6.89-.21c0-.24.01-.59.01-1.04v-.04h-6.63v-.81h7.62v.84ZM721.89,427.55h-6.79v1.19h7.18v.79h-8.16v-2.74h6.79v-1.06h-6.81v-.77h7.79v2.59Z" fill="#16223d"/><path d="M732.24,417.81h1.01v11.86s-1.02.01-1.02.01v-11.87ZM728.07,424.52h9.48s0,.93,0,.93h-9.48s0-.93,0-.93ZM727.57,420.13h10.4v6.07h-.99v-5.13h-8.45v5.19h-.97v-6.13Z" fill="#16223d"/><path d="M743.34,419.14h2.67v.9h-1.65v10.29h1.65v.91h-2.67v-12.1Z" fill="#16223d"/><path d="M749.81,426.65v-1.23c-.45-.05-.84-.16-1.17-.34s-.59-.42-.77-.7-.27-.62-.26-.99c0-.42.1-.78.33-1.09.22-.31.54-.56.95-.73.41-.17.88-.26,1.41-.26s1.01.09,1.42.26c.41.17.73.42.96.73.23.31.34.68.34,1.09,0,.37-.09.69-.27.98s-.44.52-.77.7-.72.29-1.16.34v1.2c1.22-.05,2.29-.15,3.22-.27l.08.76c-1.11.18-2.27.3-3.47.36s-2.49.08-3.85.08l-.15-.85c1.4,0,2.46-.02,3.19-.04ZM753.73,420.67h-6.87v-.81h2.95v-1.37h1v1.37h2.93v.81ZM749.37,422.24c-.27.11-.48.26-.63.46-.15.2-.22.43-.22.68s.07.48.22.67.36.34.63.45c.27.11.57.16.92.15.34,0,.65-.04.92-.15.27-.1.48-.25.62-.45.15-.2.22-.42.22-.68s-.08-.48-.22-.68c-.15-.2-.36-.35-.62-.46-.27-.11-.57-.16-.92-.16s-.65.05-.92.16ZM755.75,429.68h-.98v-11.21h.98v11.21Z" fill="#16223d"/><path d="M767.67,425.62h-4.64v4.06h-.97v-4.06h-4.6v-.83h10.22v.83ZM763.67,420.97c.39.46.91.85,1.54,1.17.63.32,1.28.52,1.96.61l-.4.81c-.59-.1-1.16-.27-1.71-.51-.55-.24-1.04-.54-1.48-.91-.43-.36-.77-.77-1-1.21-.23.45-.56.85-1,1.21s-.93.67-1.48.91c-.55.24-1.12.41-1.71.51l-.4-.81c.68-.09,1.33-.29,1.96-.61.63-.31,1.13-.7,1.53-1.16.39-.46.59-.95.59-1.46v-.64h1.02v.64c0,.5.2.99.59,1.45Z" fill="#16223d"/><path d="M769.14,425.37c-.12-.07-.22-.17-.3-.3s-.11-.26-.1-.41c0-.14.03-.28.1-.4s.17-.22.3-.3c.12-.07.26-.11.41-.11s.28.04.4.11c.12.07.22.17.3.3.07.12.11.26.11.4s-.04.28-.11.41c-.07.13-.17.23-.3.3-.12.07-.26.11-.4.11s-.28-.04-.41-.11Z" fill="#16223d"/><path d="M781.64,425.22h-4.57v2.2h-.98v-2.2h-4.72v-.81h10.27v.81ZM780.49,429.44h-7.81v-3.06h.98v2.23h6.82v.83ZM773.73,420.28h5.55v-1.44h.98v4.48h-7.52v-4.48h.98v1.44ZM779.28,422.51v-1.48h-5.55v1.48h5.55Z" fill="#16223d"/><path d="M783.65,422.28h2.43v-2.74h.92v7.34h-4.3v-7.34h.95v2.74ZM786.08,426.06v-2.98h-2.43v2.98h2.43ZM791.9,429.68h-.96v-5.94h-1.56v5.37h-.95v-10.41h.95v4.21h1.56v-4.45h.96v11.21Z" fill="#16223d"/><path d="M793.08,431.24v-.91h1.65v-10.29h-1.65v-.9h2.67v12.1h-2.67Z" fill="#16223d"/><path d="M810.57,425.22h-4.57v2.2h-.98v-2.2h-4.72v-.81h10.27v.81ZM809.42,429.44h-7.81v-3.06h.98v2.23h6.82v.83ZM802.66,420.28h5.55v-1.44h.98v4.48h-7.52v-4.48h.98v1.44ZM808.21,422.51v-1.48h-5.55v1.48h5.55Z" fill="#16223d"/><path d="M815.89,424.26c-.85,1.35-2.18,2.45-3.99,3.32l-.54-.81c1.5-.71,2.64-1.59,3.44-2.65.8-1.06,1.25-2.26,1.37-3.62h-4.29v-.81h5.3c0,1.69-.44,3.21-1.29,4.56ZM820.49,429.68h-1v-11.21h1v11.21Z" fill="#16223d"/><path d="M830.61,420.05h-3.99v3.3h.42c1.02,0,1.87-.03,2.55-.08s1.37-.15,2.07-.29l.13.81c-.76.15-1.51.25-2.27.3s-1.76.08-3,.08h-.87v-4.93h4.97v.81ZM833.87,429.53h-7.08v-4.11h7.08v4.11ZM827.77,428.73h5.12v-2.5h-5.12v2.5ZM833.87,421.22h1.69v.83h-1.69v2.79h-.98v-6.37h.98v2.75Z" fill="#16223d"/><path d="M841.51,420.15h-4.01v3.29c1.2,0,2.17-.04,2.9-.09.74-.05,1.46-.15,2.18-.3l.1.82c-.75.15-1.5.25-2.26.3-.76.05-1.77.08-3.02.08h-.87v-4.92h4.98v.82ZM843.15,425.64c.55.17.98.42,1.28.73.3.32.45.7.45,1.14s-.15.84-.45,1.16c-.3.32-.72.57-1.28.73s-1.21.25-1.97.25-1.43-.08-1.98-.25c-.56-.17-.99-.41-1.29-.73s-.45-.71-.45-1.16.15-.82.45-1.14.73-.56,1.29-.73c.56-.17,1.22-.26,1.98-.26s1.41.08,1.97.26ZM839.72,426.35c-.41.1-.73.26-.96.46s-.33.43-.33.7.11.51.33.72.54.36.96.47.9.16,1.46.16,1.04-.05,1.45-.16.73-.27.95-.47c.22-.2.33-.44.33-.72s-.11-.5-.33-.7c-.22-.2-.54-.35-.95-.46-.41-.11-.9-.16-1.45-.15-.56,0-1.05.05-1.46.15ZM844.79,421.4h1.68v.83h-1.68v2.94h-1v-6.7h1v2.93Z" fill="#16223d"/><path d="M667.06,444.32c-.12-.07-.22-.17-.3-.3s-.11-.26-.1-.41c0-.14.03-.28.1-.4s.17-.22.3-.3c.12-.07.26-.11.41-.11s.28.04.4.11c.12.07.22.17.3.3.07.12.11.26.11.4s-.04.28-.11.41c-.07.13-.17.23-.3.3-.12.07-.26.11-.4.11s-.28-.04-.41-.11Z" fill="#16223d"/><path d="M682.51,443.14h-4.63v1.1h3.32v2.43h-6.66v1.07h7v.76h-7.98v-2.55h6.67v-.97h-6.7v-.74h3.37v-1.1h-4.6v-.81h10.22v.81ZM681.53,438.49h-1.73v2.14h1.69v.78h-8.21v-.78h1.69v-2.14h-1.73v-.77h8.29v.77ZM678.82,440.63v-2.14h-2.86v2.14h2.86Z" fill="#16223d"/><path d="M691.7,439.22h-4.01v3.49c1.2,0,2.16-.02,2.88-.07.72-.05,1.44-.15,2.15-.29l.13.82c-.77.15-1.53.25-2.29.3-.77.05-1.76.08-2.98.08h-.87v-5.16h5v.83ZM695.46,448.39h-7.53v-3.67h.97v2.84h6.56v.83ZM694.94,440.76h1.7v.83h-1.7v3.95h-.98v-8.12h.98v3.34Z" fill="#16223d"/><path d="M701,443.43c1.24-.05,2.42-.16,3.54-.32l.06.74c-.99.18-2.08.31-3.27.38v4.06h-.98v-4c-.74.03-1.79.05-3.15.06l-.14-.84c1.38,0,2.7-.03,3.94-.08ZM702.26,438.25c.43.19.78.46,1.02.81.25.35.37.75.37,1.2s-.12.85-.37,1.2c-.25.35-.59.62-1.02.81-.44.19-.93.29-1.49.28-.55,0-1.05-.09-1.49-.28-.43-.19-.78-.46-1.02-.81-.25-.35-.37-.75-.37-1.2s.12-.85.37-1.2c.25-.35.59-.62,1.02-.81.44-.19.93-.28,1.49-.28.55,0,1.05.09,1.49.28ZM699.78,438.96c-.29.12-.52.3-.68.53-.16.23-.24.48-.24.77,0,.29.07.55.24.77s.39.4.68.52.62.18.99.18c.37,0,.71-.06,1-.18.29-.12.52-.3.68-.52s.25-.48.25-.77-.08-.54-.25-.77c-.16-.23-.39-.4-.68-.53-.29-.12-.63-.18-1-.18-.37,0-.7.06-.99.18ZM706.32,448.64h-.97v-11.21h.97v11.21Z" fill="#16223d"/><path d="M711.52,438.47h1.14v8.12h4.24v1.01h-5.37v-9.13Z" fill="#16223d"/><path d="M716.43,438.47h6.89v1.01h-2.86v8.12h-1.15v-8.12h-2.88v-1.01Z" fill="#16223d"/><path d="M727.68,446.13h.1l2.7-7.66h1.2l-3.34,9.13h-1.2l-3.34-9.13h1.2l2.69,7.66Z" fill="#16223d"/><path d="M739.41,440.09c.24.47.58.88,1.02,1.24.44.36.93.62,1.49.8l-.49.77c-.66-.22-1.24-.56-1.74-1.01-.5-.45-.87-.98-1.12-1.59-.25.65-.63,1.22-1.14,1.72-.5.49-1.09.86-1.75,1.1l-.52-.78c.56-.2,1.06-.48,1.5-.86.44-.38.78-.81,1.02-1.31s.37-1.02.37-1.56v-.86h1.01v.86c0,.52.12,1.02.36,1.49ZM744.34,446.48h-6.29v1.21h6.7v.81h-7.67v-2.79h6.28v-1.12h-6.31v-.79h7.29v2.69ZM744.33,443.23h-.97v-5.81h.97v5.81Z" fill="#16223d"/><path d="M750.38,442.41c.27.65.64,1.24,1.11,1.74.47.51.98.89,1.53,1.14l-.61.78c-.64-.32-1.22-.79-1.74-1.41-.52-.62-.91-1.33-1.18-2.13-.26.84-.65,1.6-1.17,2.27-.52.67-1.11,1.17-1.77,1.5l-.63-.83c.55-.26,1.06-.65,1.53-1.17s.84-1.12,1.12-1.8.42-1.37.42-2.06v-2.04h.98v2.04c0,.66.13,1.32.4,1.98ZM755.23,448.65h-1v-11.24h1v11.24Z" fill="#16223d"/><path d="M761.98,440.89c-.43.79-1.04,1.48-1.83,2.06-.79.58-1.73,1.04-2.82,1.38l-.43-.79c.9-.28,1.68-.64,2.35-1.08.67-.44,1.21-.94,1.6-1.51.39-.57.63-1.17.69-1.83h-4.18v-.83h5.26c0,.95-.21,1.81-.65,2.6ZM766.17,448.39h-7.54v-3.59h.98v2.76h6.56v.83ZM765.66,440.83h1.69v.83h-1.69v3.96h-1v-8.21h1v3.42Z" fill="#16223d"/><path d="M774.9,441c.24.47.57.89,1,1.25.43.36.92.64,1.46.83l-.5.79c-.63-.23-1.19-.57-1.67-1.02s-.84-.98-1.09-1.58c-.24.67-.6,1.25-1.08,1.75-.49.5-1.06.88-1.73,1.13l-.54-.79c.56-.2,1.06-.5,1.49-.88s.76-.83.99-1.35c.24-.51.36-1.06.36-1.63v-1.39h.97v1.43c0,.5.11.99.35,1.46ZM780.06,448.39h-7.52v-3.48h1.01v2.65h6.51v.83ZM779.54,440.86h1.69v.84h-1.69v4h-.98v-8.29h.98v3.44Z" fill="#16223d"/><path d="M791.9,443.18h-4.63v1.05h3.32v2.42h-6.66v1.1h7v.76h-7.98v-2.56h6.67v-.97h-6.7v-.74h3.38v-1.05h-4.6v-.77h10.2v.77ZM787.27,438.4h3.59v.78h-3.52c.06.36.27.68.64.96.37.28.85.5,1.43.67.58.17,1.23.28,1.92.32l-.3.76c-.99-.08-1.86-.28-2.62-.58s-1.3-.71-1.63-1.22c-.33.51-.87.92-1.63,1.22s-1.64.5-2.63.58l-.29-.76c.69-.05,1.33-.15,1.92-.32.58-.17,1.06-.39,1.43-.67.37-.28.58-.6.65-.96h-3.49v-.78h3.56v-1.05h.97v1.05Z" fill="#16223d"/><path d="M667.06,464.12c-.12-.07-.22-.17-.3-.3s-.11-.26-.1-.41c0-.14.03-.28.1-.4s.17-.22.3-.3c.12-.07.26-.11.41-.11s.28.04.4.11c.12.07.22.17.3.3.07.12.11.26.11.4s-.04.28-.11.41c-.07.13-.17.23-.3.3-.12.07-.26.11-.4.11s-.28-.04-.41-.11Z" fill="#16223d"/><path d="M672.84,467.41v-9.13h2.95c.88,0,1.64.18,2.27.54.64.36,1.12.89,1.46,1.57.34.68.5,1.5.5,2.44s-.17,1.77-.51,2.45-.84,1.21-1.49,1.58c-.65.37-1.44.55-2.35.55h-2.84ZM675.61,466.4c1.1,0,1.93-.31,2.48-.93s.83-1.5.83-2.64-.27-1.99-.81-2.61c-.54-.62-1.34-.93-2.39-.93h-1.74v7.11h1.63Z" fill="#16223d"/><path d="M681.7,463.96c.49-.29,1.1-.46,1.84-.52.29-.02.61-.04.96-.06.36-.02.65-.03.89-.04v-.56c0-.44-.13-.78-.39-1.02-.26-.24-.65-.36-1.16-.36-.42,0-.76.08-1.02.25s-.44.39-.52.67h-1.13c.05-.37.19-.69.43-.97.24-.28.56-.5.96-.66.4-.16.84-.24,1.34-.24.66,0,1.25.17,1.78.5.53.33.79.97.79,1.92v4.51h-1.07v-.93h-.05c-.08.18-.21.35-.39.51-.17.17-.4.3-.68.42-.28.11-.6.17-.97.17-.44,0-.83-.08-1.19-.25-.35-.17-.63-.41-.84-.73s-.31-.69-.31-1.13c0-.71.24-1.21.73-1.5ZM682.45,466.32c.26.19.61.28,1.04.28.39,0,.73-.08,1.02-.23s.51-.36.66-.62.23-.53.23-.83v-.69l-1.73.12c-.51.03-.91.14-1.19.33-.28.19-.42.46-.42.83s.13.62.39.8Z" fill="#16223d"/><path d="M687.96,459.22c-.15-.14-.22-.31-.22-.51s.07-.37.22-.51c.15-.14.33-.21.54-.21s.39.07.54.21.23.31.23.51-.08.37-.23.51-.33.21-.54.21-.39-.07-.54-.21ZM687.95,460.56h1.08v6.85h-1.08v-6.85Z" fill="#16223d"/><path d="M691.59,467.41h-1.08v-9.13h1.08v9.13Z" fill="#16223d"/><path d="M693.15,469.96v-.97c.15.02.33.02.53.02.18,0,.33-.02.45-.06.12-.04.24-.13.37-.28.12-.15.24-.38.35-.7l.2-.52-2.54-6.9h1.19l1.87,5.44h.08l1.87-5.44h1.19l-2.9,7.83c-.2.53-.47.93-.81,1.19-.34.26-.75.39-1.24.39-.22,0-.42,0-.6-.03Z" fill="#16223d"/><path d="M707.43,459.81c-.18-.21-.42-.37-.71-.49s-.62-.17-.99-.17c-.39,0-.75.06-1.05.19-.3.13-.54.31-.71.53-.17.23-.25.49-.25.78,0,.42.17.74.51.96s.76.4,1.25.52l.91.25c.71.18,1.31.46,1.82.84.51.38.76.94.76,1.69,0,.5-.13.95-.39,1.35s-.64.72-1.14.95-1.09.35-1.78.35c-.65,0-1.21-.11-1.7-.32-.48-.21-.86-.51-1.14-.89s-.43-.83-.46-1.33h1.16c.03.33.15.6.35.83.2.23.45.39.76.5.31.11.65.17,1.03.17.42,0,.8-.07,1.13-.2.33-.13.6-.33.79-.58s.29-.54.29-.86c0-.28-.08-.51-.24-.7-.16-.19-.36-.34-.62-.46-.25-.12-.57-.23-.95-.34l-1.12-.3c-.75-.22-1.32-.52-1.72-.91s-.6-.88-.6-1.48c0-.5.14-.94.41-1.33.28-.39.65-.69,1.13-.91.48-.21,1.01-.32,1.6-.32s1.1.1,1.56.31c.46.21.83.5,1.1.87.27.37.41.78.43,1.24h-1.11c-.03-.29-.14-.55-.32-.76Z" fill="#16223d"/><path d="M709.67,460.56h1.15l1.46,5.22h.06l1.45-5.22h1.16l1.43,5.2h.08l1.46-5.2h1.14l-2.08,6.85h-1.07l-1.49-5.22h-.1l-1.48,5.22h-1.08l-2.08-6.85Z" fill="#16223d"/><path d="M720.94,467.11c-.48-.29-.85-.7-1.11-1.23-.26-.53-.39-1.14-.39-1.84s.13-1.32.39-1.86c.26-.54.62-.96,1.09-1.26.47-.3,1.01-.45,1.62-.45.52,0,1,.11,1.44.34.45.23.81.6,1.09,1.11s.42,1.17.42,1.96v.45h-4.97c.02.47.12.88.3,1.22.18.34.43.59.74.77.31.17.67.26,1.08.26.39,0,.71-.07.98-.22s.47-.33.61-.56h1.16c-.11.34-.29.65-.54.91-.25.26-.57.47-.95.61-.38.14-.8.22-1.26.22-.65,0-1.22-.14-1.7-.43ZM724.39,463.42c0-.38-.08-.72-.23-1.02s-.37-.54-.65-.71c-.28-.17-.61-.26-.97-.26s-.72.09-1.02.27c-.3.18-.53.42-.7.73-.17.3-.27.64-.29.99h3.87Z" fill="#16223d"/><path d="M727.82,467.11c-.48-.29-.85-.7-1.11-1.23-.26-.53-.39-1.14-.39-1.84s.13-1.32.39-1.86c.26-.54.62-.96,1.09-1.26.47-.3,1.01-.45,1.62-.45.52,0,1,.11,1.44.34.45.23.81.6,1.09,1.11s.42,1.17.42,1.96v.45h-4.97c.02.47.12.88.3,1.22.18.34.43.59.74.77.31.17.67.26,1.08.26.39,0,.71-.07.98-.22s.47-.33.61-.56h1.16c-.11.34-.29.65-.54.91-.25.26-.57.47-.95.61-.38.14-.8.22-1.26.22-.65,0-1.22-.14-1.7-.43ZM731.27,463.42c0-.38-.08-.72-.23-1.02s-.37-.54-.65-.71c-.28-.17-.61-.26-.97-.26s-.72.09-1.02.27c-.3.18-.53.42-.7.73-.17.3-.27.64-.29.99h3.87Z" fill="#16223d"/><path d="M733.53,460.56h1.05v1.08h.13c.13-.22.26-.4.39-.55.13-.15.32-.29.59-.42.26-.13.6-.2,1-.2.57,0,1.08.14,1.52.43s.78.7,1.03,1.23c.25.53.37,1.16.37,1.87s-.12,1.33-.37,1.87c-.25.54-.59.95-1.03,1.24s-.94.43-1.5.43c-.4,0-.73-.07-1-.2-.27-.13-.47-.28-.6-.44-.13-.16-.27-.34-.39-.55h-.09v3.62h-1.08v-9.42ZM734.81,465.34c.15.39.38.7.67.91.29.22.65.33,1.06.33s.78-.11,1.08-.34c.3-.22.52-.53.67-.93.15-.39.22-.84.22-1.33s-.08-.92-.22-1.3c-.15-.38-.37-.68-.67-.91s-.65-.33-1.08-.33-.78.11-1.07.32c-.29.21-.51.51-.66.89-.15.38-.22.82-.22,1.33s.08.97.23,1.36Z" fill="#16223d"/><path d="M747.49,462.45c.26.61.61,1.16,1.06,1.65.45.49.94.86,1.48,1.11l-.57.78c-.63-.3-1.19-.77-1.69-1.39-.5-.62-.88-1.32-1.14-2.08-.17.55-.4,1.07-.69,1.56-.29.49-.63.93-1.01,1.3-.38.38-.78.67-1.19.89l-.61-.78c.53-.26,1.03-.65,1.49-1.17.46-.52.83-1.11,1.1-1.75.27-.65.42-1.28.42-1.91v-1.46h-2.61v-.82h6.1v.82h-2.52v1.46c0,.59.12,1.19.38,1.79ZM751.99,461.76h1.88v.85h-1.88v5.83h-.98v-11.21h.98v4.54Z" fill="#16223d"/><path d="M764.45,463.56h-10.23v-.79h4.63v-1.31h-3.33v-3.71h7.66v.79h-6.68v2.11h6.76v.81h-3.44v1.31h4.64v.79ZM761.39,464.62c.58.16,1.02.39,1.33.69.31.3.46.67.47,1.09,0,.43-.16.79-.47,1.1-.31.3-.75.53-1.32.69-.58.16-1.27.24-2.07.24-.81,0-1.5-.08-2.08-.24-.58-.16-1.02-.39-1.33-.69s-.46-.67-.46-1.1.15-.79.46-1.09.75-.53,1.33-.69c.58-.16,1.27-.24,2.08-.24s1.49.08,2.06.24ZM757.78,465.31c-.43.1-.76.24-.99.43-.23.18-.34.41-.33.66,0,.26.11.48.33.67.23.18.56.33.99.42.43.1.94.15,1.54.15s1.1-.05,1.53-.15.76-.24.99-.43c.23-.19.34-.41.34-.67s-.11-.48-.34-.66c-.23-.18-.56-.33-.99-.43-.43-.1-.94-.15-1.53-.15s-1.11.05-1.54.15Z" fill="#16223d"/><path d="M772.51,460.45c.25.44.59.82,1.03,1.15.44.33.93.58,1.49.74l-.5.78c-.66-.21-1.24-.53-1.74-.96-.5-.43-.88-.93-1.14-1.51-.24.61-.62,1.15-1.12,1.62-.5.46-1.09.81-1.77,1.04l-.52-.78c.56-.18,1.06-.44,1.5-.79s.78-.75,1.03-1.22c.25-.46.37-.95.37-1.45v-.29h-2.62v-.81h6.21v.81h-2.58v.29c0,.48.12.94.37,1.38ZM771.08,465.2h5.3v-1.36h.98v4.44h-7.26v-4.44h.98v1.36ZM776.38,467.47v-1.48h-5.3v1.48h5.3ZM777.36,463.28h-.98v-6.07h.98v6.07Z" fill="#16223d"/><path d="M784.7,459.36h-5.75v-.79h2.4v-1.26h.98v1.26h2.37v.79ZM783.08,460.2c.36.16.65.38.85.67.2.29.3.62.31,1.01,0,.38-.11.71-.31,1-.2.29-.48.51-.85.67-.36.16-.78.24-1.25.24s-.88-.08-1.25-.24c-.37-.16-.65-.38-.85-.67-.2-.29-.3-.62-.3-1,0-.38.09-.72.3-1.01.2-.29.48-.51.85-.67.36-.16.78-.24,1.25-.24s.89.08,1.25.24ZM781.05,460.85c-.23.1-.41.24-.54.42s-.19.39-.19.62.06.43.19.61c.13.18.31.31.54.41s.49.15.79.15.56-.05.79-.15.41-.23.54-.41c.13-.18.19-.38.19-.61s-.06-.44-.19-.62c-.13-.18-.31-.32-.54-.42s-.49-.15-.79-.15-.56.05-.79.15ZM786.85,464.74c.56.15,1,.38,1.3.67.3.29.45.65.45,1.07s-.15.75-.45,1.04-.73.51-1.3.66c-.57.15-1.24.23-2.02.23s-1.46-.08-2.02-.23-1-.37-1.3-.66-.45-.64-.44-1.04c0-.42.14-.77.44-1.07.3-.29.73-.52,1.29-.67.56-.15,1.24-.23,2.02-.23s1.46.08,2.02.23ZM783.33,465.42c-.42.09-.73.23-.96.41-.22.18-.33.4-.32.65,0,.24.1.45.32.62.22.17.54.3.96.4.42.09.92.14,1.49.14s1.07-.05,1.49-.14c.42-.09.74-.23.96-.4.22-.17.34-.38.34-.62,0-.38-.25-.68-.74-.89-.49-.21-1.17-.31-2.05-.3-.58,0-1.08.04-1.5.13ZM788.53,464.32h-.95v-3.22h-1.5v2.81h-.93v-6.47h.93v2.84h1.5v-3.06h.95v7.1Z" fill="#16223d"/><path d="M667.06,483.06c-.12-.07-.22-.17-.3-.3s-.11-.26-.1-.41c0-.14.03-.28.1-.4s.17-.22.3-.3c.12-.07.26-.11.41-.11s.28.04.4.11c.12.07.22.17.3.3.07.12.11.26.11.4s-.04.28-.11.41c-.07.13-.17.23-.3.3-.12.07-.26.11-.4.11s-.28-.04-.41-.11Z" fill="#16223d"/><path d="M676.47,481.4c.26.61.61,1.16,1.06,1.65.45.49.94.86,1.48,1.11l-.57.78c-.63-.3-1.19-.77-1.69-1.39-.5-.62-.88-1.32-1.14-2.08-.17.55-.4,1.07-.69,1.56-.29.49-.63.93-1.01,1.3-.38.38-.78.67-1.19.89l-.61-.78c.53-.26,1.03-.65,1.49-1.17.46-.52.83-1.11,1.1-1.75.27-.65.42-1.28.42-1.91v-1.46h-2.61v-.82h6.1v.82h-2.52v1.46c0,.59.12,1.19.38,1.79ZM680.97,480.7h1.88v.85h-1.88v5.83h-.98v-11.21h.98v4.54Z" fill="#16223d"/><path d="M693.42,482.5h-10.23v-.79h4.63v-1.31h-3.33v-3.71h7.66v.79h-6.68v2.11h6.76v.81h-3.44v1.31h4.64v.79ZM690.37,483.56c.58.16,1.02.39,1.33.69.31.3.46.67.47,1.09,0,.43-.16.79-.47,1.1-.31.3-.75.53-1.32.69-.58.16-1.27.24-2.07.24-.81,0-1.5-.08-2.08-.24-.58-.16-1.02-.39-1.33-.69s-.46-.67-.46-1.1.15-.79.46-1.09.75-.53,1.33-.69c.58-.16,1.27-.24,2.08-.24s1.49.08,2.06.24ZM686.76,484.25c-.43.1-.76.24-.99.43-.23.18-.34.41-.33.66,0,.26.11.48.33.67.23.18.56.33.99.42.43.1.94.15,1.54.15s1.1-.05,1.53-.15.76-.24.99-.43c.23-.19.34-.41.34-.67s-.11-.48-.34-.66c-.23-.18-.56-.33-.99-.43-.43-.1-.94-.15-1.53-.15s-1.11.05-1.54.15Z" fill="#16223d"/><path d="M701.27,479.88c.25.42.58.79,1.02,1.1.43.32.92.56,1.48.72l-.48.77c-.65-.19-1.23-.49-1.72-.9-.5-.41-.87-.89-1.12-1.44-.24.61-.61,1.15-1.11,1.61-.49.46-1.07.8-1.74,1.02l-.48-.76c.55-.18,1.03-.45,1.46-.8.43-.35.76-.75,1-1.21s.36-.94.36-1.44v-.24h-2.54v-.79h2.54v-1.43h1v1.43h2.51v.79h-2.54v.24c0,.46.12.9.37,1.31ZM704.67,483.5c.56.16,1,.39,1.3.7.3.3.45.67.45,1.11s-.15.8-.45,1.1c-.3.31-.73.54-1.3.7-.56.16-1.23.24-2.01.24s-1.45-.08-2.01-.24c-.56-.16-1-.39-1.3-.7-.3-.31-.45-.67-.45-1.1s.15-.8.45-1.11c.3-.3.73-.54,1.3-.7.56-.16,1.23-.24,2.01-.24s1.45.08,2.01.24ZM701.17,484.19c-.42.1-.74.25-.96.44s-.33.42-.33.68c0,.26.11.48.33.67s.55.34.96.44.91.15,1.48.15,1.07-.05,1.48-.15.74-.25.96-.44c.22-.19.33-.41.33-.67s-.11-.49-.33-.68-.54-.34-.96-.44c-.42-.1-.91-.15-1.49-.16-.57,0-1.07.06-1.48.16ZM706.37,482.96h-1v-2.76h-2.29v-.82h2.29v-3.22h1v6.8Z" fill="#16223d"/><path d="M712.1,479.74c.24.47.57.89,1,1.25.43.36.92.64,1.46.83l-.5.79c-.63-.23-1.19-.57-1.67-1.02s-.84-.98-1.09-1.58c-.24.67-.6,1.25-1.08,1.75-.49.5-1.06.88-1.73,1.13l-.54-.79c.56-.2,1.06-.5,1.49-.88s.76-.83.99-1.35c.24-.51.36-1.06.36-1.63v-1.39h.97v1.43c0,.5.11.99.35,1.46ZM717.27,487.13h-7.52v-3.48h1.01v2.65h6.51v.83ZM716.75,479.6h1.69v.84h-1.69v4h-.98v-8.29h.98v3.44Z" fill="#16223d"/><path d="M732.14,485.91h-10.27v-.82h10.27v.82ZM730.95,483.03h-7.76v-5.9h7.63v.83h-6.62v1.66h6.38v.79h-6.38v1.8h6.75v.81Z" fill="#16223d"/><path d="M738.63,481.19h-4.19v2.65c1,0,1.94-.03,2.8-.09.86-.06,1.77-.16,2.72-.32l.1.83c-.97.16-1.9.26-2.79.32-.89.06-1.86.09-2.91.09h-.93v-4.29h4.2v-2.36h-4.22v-.82h5.22v3.99ZM742.03,487.4h-.98v-11.24h.98v11.24Z" fill="#16223d"/><path d="M744.23,485.24l-.54-.79c2.89-1.4,4.44-3.48,4.64-6.26h-4.15v-.81h5.15c0,3.56-1.7,6.18-5.1,7.86ZM752.96,487.37h-.98v-5.88h-2.67v-.82h2.67v-4.51h.98v11.21Z" fill="#16223d"/><path d="M760.64,483.29h-2.43v-1.02h2.43v-2.43h1.02v2.43h2.45v1.02h-2.45v2.45h-1.02v-2.45Z" fill="#16223d"/><path d="M768.13,477.22h1.15l1.9,7.39h.09l1.93-7.39h1.27l1.94,7.39h.08l1.91-7.39h1.15l-2.5,9.13h-1.17l-1.99-7.23h-.08l-2,7.23h-1.17l-2.5-9.13Z" fill="#16223d"/><path d="M780.11,482.91c.49-.29,1.1-.46,1.84-.52.29-.02.61-.04.96-.06.36-.02.65-.03.89-.04v-.56c0-.44-.13-.78-.39-1.02-.26-.24-.65-.36-1.16-.36-.42,0-.76.08-1.02.25s-.44.39-.52.67h-1.13c.05-.37.19-.69.43-.97.24-.28.56-.5.96-.66.4-.16.84-.24,1.34-.24.66,0,1.25.17,1.78.5.53.33.79.97.79,1.92v4.51h-1.07v-.93h-.05c-.08.18-.21.35-.39.51-.17.17-.4.3-.68.42-.28.11-.6.17-.97.17-.44,0-.83-.08-1.19-.25-.35-.17-.63-.41-.84-.73s-.31-.69-.31-1.13c0-.71.24-1.21.73-1.5ZM780.87,485.26c.26.19.61.28,1.04.28.39,0,.73-.08,1.02-.23s.51-.36.66-.62.23-.53.23-.83v-.69l-1.73.12c-.51.03-.91.14-1.19.33-.28.19-.42.46-.42.83s.13.62.39.8Z" fill="#16223d"/><path d="M789.36,480.41h-1.44v3.97c0,.4.08.67.24.81.16.14.38.21.66.21.21,0,.42,0,.64-.03v1.01c-.22.03-.47.05-.76.05-.32,0-.62-.07-.91-.2-.29-.13-.52-.33-.7-.6-.18-.27-.27-.6-.27-.98v-4.25h-1.03v-.91h1.03v-1.64h1.1v1.64h1.44v.91Z" fill="#16223d"/><path d="M791.6,486.05c-.48-.29-.85-.7-1.11-1.23-.26-.53-.39-1.14-.39-1.84s.13-1.32.39-1.86c.26-.54.62-.96,1.09-1.26.47-.3,1.01-.45,1.62-.45.52,0,1,.11,1.44.34.45.23.81.6,1.09,1.11s.42,1.17.42,1.96v.45h-4.97c.02.47.12.88.3,1.22.18.34.43.59.74.77.31.17.67.26,1.08.26.39,0,.71-.07.98-.22s.47-.33.61-.56h1.16c-.11.34-.29.65-.54.91-.25.26-.57.47-.95.61-.38.14-.8.22-1.26.22-.65,0-1.22-.14-1.7-.43ZM795.06,482.36c0-.38-.08-.72-.23-1.02s-.37-.54-.65-.71c-.28-.17-.61-.26-.97-.26s-.72.09-1.02.27c-.3.18-.53.42-.7.73-.17.3-.27.64-.29.99h3.87Z" fill="#16223d"/><path d="M797.31,479.5h1.05v1.05h.08c.13-.35.35-.63.67-.84.32-.21.69-.32,1.09-.32.21,0,.4,0,.57.03v1.1s-.14-.03-.27-.05c-.13-.02-.26-.03-.39-.03-.32,0-.62.07-.88.21s-.47.33-.62.57c-.15.24-.22.52-.22.82v4.31h-1.08v-6.85Z" fill="#16223d"/><path d="M805.05,480.41h-1.51v5.94h-1.1v-5.94h-1.1v-.91h1.1v-.93c0-.37.08-.68.24-.95.16-.27.38-.47.68-.62.29-.14.64-.21,1.04-.21.24,0,.5.02.81.08v.97c-.2-.03-.39-.05-.57-.05-.38,0-.66.08-.83.25s-.26.42-.26.78v.69h1.51v.91Z" fill="#16223d"/><path d="M806.28,482.91c.49-.29,1.1-.46,1.84-.52.29-.02.61-.04.96-.06.36-.02.65-.03.89-.04v-.56c0-.44-.13-.78-.39-1.02-.26-.24-.65-.36-1.16-.36-.42,0-.76.08-1.02.25s-.44.39-.52.67h-1.13c.05-.37.19-.69.43-.97.24-.28.56-.5.96-.66.4-.16.84-.24,1.34-.24.66,0,1.25.17,1.78.5.53.33.79.97.79,1.92v4.51h-1.07v-.93h-.05c-.08.18-.21.35-.39.51-.17.17-.4.3-.68.42-.28.11-.6.17-.97.17-.44,0-.83-.08-1.19-.25-.35-.17-.63-.41-.84-.73s-.31-.69-.31-1.13c0-.71.24-1.21.73-1.5ZM807.04,485.26c.26.19.61.28,1.04.28.39,0,.73-.08,1.02-.23s.51-.36.66-.62.23-.53.23-.83v-.69l-1.73.12c-.51.03-.91.14-1.19.33-.28.19-.42.46-.42.83s.13.62.39.8Z" fill="#16223d"/><path d="M813.62,486.35h-1.08v-9.13h1.08v9.13Z" fill="#16223d"/><path d="M816.18,486.35h-1.08v-9.13h1.08v9.13Z" fill="#16223d"/><path d="M830.47,482.91h-4.57v2.2h-.98v-2.2h-4.72v-.81h10.27v.81ZM829.32,487.13h-7.81v-3.06h.98v2.23h6.82v.83ZM822.56,477.96h5.55v-1.44h.98v4.48h-7.52v-4.48h.98v1.44ZM828.11,480.2v-1.48h-5.55v1.48h5.55Z" fill="#16223d"/><path d="M832.48,479.97h2.43v-2.74h.92v7.34h-4.3v-7.34h.95v2.74ZM834.91,483.75v-2.98h-2.43v2.98h2.43ZM840.73,487.37h-.96v-5.94h-1.56v5.37h-.95v-10.41h.95v4.21h1.56v-4.45h.96v11.21Z" fill="#16223d"/><path d="M849.18,481.4c.26.61.61,1.16,1.06,1.65.45.49.94.86,1.48,1.11l-.57.78c-.63-.3-1.19-.77-1.69-1.39-.5-.62-.88-1.32-1.14-2.08-.17.55-.4,1.07-.69,1.56-.29.49-.63.93-1.01,1.3-.38.38-.78.67-1.19.89l-.61-.78c.53-.26,1.03-.65,1.49-1.17.46-.52.83-1.11,1.1-1.75.27-.65.42-1.28.42-1.91v-1.46h-2.61v-.82h6.1v.82h-2.52v1.46c0,.59.12,1.19.38,1.79ZM853.68,480.7h1.88v.85h-1.88v5.83h-.98v-11.21h.98v4.54Z" fill="#16223d"/><path d="M866.14,482.5h-10.23v-.79h4.63v-1.31h-3.33v-3.71h7.66v.79h-6.68v2.11h6.76v.81h-3.44v1.31h4.64v.79ZM863.08,483.56c.58.16,1.02.39,1.33.69.31.3.46.67.47,1.09,0,.43-.16.79-.47,1.1-.31.3-.75.53-1.32.69-.58.16-1.27.24-2.07.24-.81,0-1.5-.08-2.08-.24-.58-.16-1.02-.39-1.33-.69s-.46-.67-.46-1.1.15-.79.46-1.09.75-.53,1.33-.69c.58-.16,1.27-.24,2.08-.24s1.49.08,2.06.24ZM859.47,484.25c-.43.1-.76.24-.99.43-.23.18-.34.41-.33.66,0,.26.11.48.33.67.23.18.56.33.99.42.43.1.94.15,1.54.15s1.1-.05,1.53-.15.76-.24.99-.43c.23-.19.34-.41.34-.67s-.11-.48-.34-.66c-.23-.18-.56-.33-.99-.43-.43-.1-.94-.15-1.53-.15s-1.11.05-1.54.15Z" fill="#16223d"/><path d="M869.76,484.34v-1.24c-.43-.05-.81-.17-1.14-.34-.33-.18-.58-.41-.75-.7s-.26-.62-.25-.98c0-.42.1-.78.32-1.09.22-.31.53-.56.93-.73.4-.17.87-.26,1.39-.26s.98.09,1.38.26c.4.17.71.42.94.73.22.31.34.68.34,1.09,0,.37-.1.69-.28.98s-.43.52-.76.7c-.33.18-.7.3-1.13.35v1.2c1.19-.06,2.22-.15,3.08-.28l.06.76c-1.08.18-2.2.3-3.34.36s-2.38.08-3.72.08l-.16-.85c1.32,0,2.35-.01,3.09-.04ZM873.64,478.34h-6.76v-.81h2.89v-1.35h1v1.35h2.88v.81ZM869.37,479.93c-.26.11-.46.26-.61.46-.14.2-.22.43-.22.68s.07.48.21.68c.14.2.35.34.61.45.26.1.56.15.91.15.34,0,.63-.04.9-.15.26-.1.46-.25.61-.45.14-.2.21-.42.21-.68s-.07-.48-.21-.68c-.14-.2-.34-.35-.61-.46-.26-.11-.56-.16-.9-.16s-.64.05-.9.16ZM875.51,480.94h1.79v.83h-1.79v5.6h-1v-11.21h1v4.78Z" fill="#16223d"/><path d="M667.06,502.87c-.12-.07-.22-.17-.3-.3s-.11-.26-.1-.41c0-.14.03-.28.1-.4s.17-.22.3-.3c.12-.07.26-.11.41-.11s.28.04.4.11c.12.07.22.17.3.3.07.12.11.26.11.4s-.04.28-.11.41c-.07.13-.17.23-.3.3-.12.07-.26.11-.4.11s-.28-.04-.41-.11Z" fill="#16223d"/><path d="M674.64,497.84h5.55v-1.42h.98v4.48h-3.28v1.2h4.62v.82h-10.22v-.82h4.62v-1.2h-3.25v-4.48h.98v1.42ZM681.37,506.94h-7.76v-3.13h1v2.3h6.76v.83ZM680.19,500.1v-1.48h-5.55v1.48h5.55Z" fill="#16223d"/><path d="M691.52,500.35c-.31.98-.85,1.9-1.6,2.74-.76.85-1.78,1.59-3.07,2.22l-.55-.76c1.03-.5,1.88-1.06,2.54-1.71.66-.64,1.17-1.35,1.52-2.13l-3.85.37-.16-.87,4.31-.29c.19-.61.31-1.27.35-1.98h-4.1v-.82h5.08c0,1.16-.16,2.24-.47,3.22ZM694.85,500.53h1.82v.83h-1.82v5.81h-.98v-11.21h.98v4.57Z" fill="#16223d"/><path d="M701.7,498.13h-3.23v2.22h2.71v.79h-2.71v2.52c.85,0,1.55-.03,2.1-.08.55-.04,1.12-.12,1.71-.23l.09.81c-.6.12-1.19.2-1.76.24-.57.04-1.36.06-2.38.07h-.71v-7.14h4.17v.79ZM704.38,506.59h-.95v-5.55h-1.65v-.82h1.65v-3.99h.95v10.35ZM706.68,507.17h-.96v-11.21h.96v11.21Z" fill="#16223d"/><path d="M718.2,505.59h-10.22v-.82h4.01v-4.01h.97v4.01h5.23v.82ZM716.98,498.22v.14c0,.92-.04,1.75-.08,2.49-.05.73-.16,1.58-.33,2.54l-1.01-.11c.13-.67.23-1.29.29-1.88.06-.59.1-1.11.11-1.57.01-.46.02-.99.02-1.61v-.3h-6.91v-.82h7.91v1.12Z" fill="#16223d"/><path d="M724.74,501h-4.19v2.65c1,0,1.94-.03,2.8-.09.86-.06,1.77-.16,2.72-.32l.1.83c-.97.16-1.9.26-2.79.32-.89.06-1.86.09-2.91.09h-.93v-4.29h4.2v-2.36h-4.22v-.82h5.22v3.99ZM728.15,507.2h-.98v-11.24h.98v11.24Z" fill="#16223d"/><path d="M741.69,497.33c0,.58-.02,1.11-.05,1.59-.03.47-.11,1.01-.23,1.6h1.63v.81h-4.67v2.07h3.39v3.78h-1v-2.96h-6.94v-.82h3.56v-2.07h-4.62v-.81h7.64c.13-.61.21-1.14.24-1.61.03-.47.05-1,.05-1.58h-6.63v-.81h7.62v.81Z" fill="#16223d"/><path d="M745.23,503.39c.63,0,1.24-.04,1.83-.09s1.21-.14,1.84-.27l.13.88c-.74.13-1.45.22-2.11.28s-1.32.08-1.98.08h-.69v-6.94h.98v6.05ZM753.25,507.17h-.97v-5.8h-1.61v5.22h-.93v-10.38h.93v4.31h1.61v-4.57h.97v11.21Z" fill="#16223d"/><path d="M761.81,503.94c1.17-.05,2.24-.15,3.22-.3l.08.73c-1.13.21-2.28.34-3.45.39s-2.47.08-3.89.08l-.14-.82c1.4,0,2.47-.02,3.22-.05v-2.11h.97v2.06ZM764.45,498.26h-2.64c0,.48.14.92.38,1.33s.59.77,1.02,1.08c.43.3.93.53,1.48.69l-.47.78c-.68-.2-1.27-.51-1.77-.93-.5-.42-.88-.91-1.13-1.48-.24.6-.61,1.11-1.11,1.54-.5.43-1.09.75-1.77.96l-.48-.76c.56-.16,1.05-.4,1.47-.72.43-.31.76-.69,1-1.12.24-.43.37-.89.38-1.39h-2.57v-.82h2.6v-1.39h.97v1.39h2.64v.82ZM766.76,507.2h-.98v-11.24h.98v11.24Z" fill="#16223d"/><path d="M778.74,505.76h-10.27v-.83h4.63v-2.57h.97v2.57h4.67v.83ZM777.75,498.57h-3.66c0,.57.18,1.09.55,1.56.37.47.85.87,1.47,1.19.61.32,1.28.54,2.01.65l-.38.78c-.94-.17-1.78-.48-2.52-.93-.74-.45-1.29-1.02-1.63-1.69-.34.68-.88,1.24-1.63,1.69-.74.45-1.59.76-2.53.93l-.39-.78c.73-.12,1.41-.33,2.02-.65.62-.32,1.11-.71,1.48-1.19.37-.48.55-1,.55-1.56h-3.66v-.82h3.67v-1.55h.97v1.55h3.68v.82Z" fill="#16223d"/><rect x="88.85" y="699.99" width="2.57" height="25.84" fill="#2a5ada"/><path d="M117.92,709.97c-.52.92-1.27,1.72-2.25,2.38s-2.14,1.18-3.5,1.54l-.41-.78c1.15-.31,2.16-.73,3.01-1.26s1.53-1.14,2.03-1.84.78-1.46.86-2.29h-5.3v-.83h6.34c0,1.12-.26,2.15-.79,3.07ZM122.47,719.77h-.98v-4.19h-7.97v-.83h8.95v5.02ZM122.47,709.59h2.12v.84h-2.12v3.67h-.98v-8.11h.98v3.59Z"/><path d="M134.71,712.29c.36.8.83,1.51,1.42,2.14s1.21,1.09,1.86,1.39l-.61.78c-.52-.26-1.02-.62-1.51-1.07s-.92-.98-1.29-1.57-.67-1.22-.89-1.88c-.21.7-.5,1.36-.88,1.98s-.8,1.18-1.29,1.66-.99.86-1.51,1.13l-.64-.83c.65-.31,1.27-.78,1.86-1.43s1.06-1.38,1.42-2.21.54-1.66.54-2.5v-2.66h.98v2.66c0,.8.17,1.6.53,2.41ZM140.74,719.79h-.98v-13.8h.98v13.8Z"/><path d="M155.88,717.84h-12.62v-.83h12.62v.83ZM150.81,710.32c.54.71,1.21,1.31,2.02,1.8s1.59.8,2.34.94l-.48.84c-.68-.17-1.36-.44-2.05-.83s-1.32-.86-1.88-1.43-.98-1.18-1.26-1.86c-.28.67-.7,1.29-1.26,1.86s-1.19,1.04-1.88,1.43-1.37.66-2.05.83l-.47-.84c.75-.15,1.53-.46,2.33-.95s1.47-1.08,2-1.79.8-1.45.81-2.23v-1.09h1.02v1.09c0,.78.27,1.52.81,2.23Z"/><path d="M163.02,707.76h-4.31v1.89h3.73v.8h-3.73v2.09c1.14,0,2.06-.03,2.79-.08s1.45-.15,2.2-.3l.11.8c-.77.16-1.53.26-2.27.31s-1.72.08-2.93.08h-.84v-6.44h5.27v.84ZM168.74,719.57h-9v-4.58h9v4.58ZM160.71,718.76h7.08v-2.95h-7.08v2.95ZM166.08,714.18h-.95v-3.84h-2.02v-.84h2.02v-3.25h.95v7.94ZM168.74,714.32h-.94v-8.33h.94v8.33Z"/><path d="M180.05,712.29c.36.8.83,1.51,1.42,2.14s1.21,1.09,1.86,1.39l-.61.78c-.52-.26-1.02-.62-1.51-1.07s-.92-.98-1.29-1.57-.67-1.22-.89-1.88c-.21.7-.5,1.36-.88,1.98s-.8,1.18-1.29,1.66-.99.86-1.51,1.13l-.64-.83c.65-.31,1.27-.78,1.86-1.43s1.06-1.38,1.42-2.21.54-1.66.54-2.5v-2.66h.98v2.66c0,.8.17,1.6.53,2.41ZM186.08,719.79h-.98v-13.8h.98v13.8Z"/><path d="M199.96,716.23h-.98v-3.89h-3.71c-.32.43-.73.77-1.22,1.01s-1.05.36-1.66.36c-.68,0-1.29-.14-1.83-.43s-.96-.69-1.27-1.21-.45-1.11-.45-1.76c0-.66.14-1.24.45-1.76s.73-.92,1.27-1.21,1.15-.44,1.83-.45c.6,0,1.15.13,1.64.37s.9.57,1.22.99h3.73v-2.25h.98v10.23ZM191.04,708.11c-.4.22-.71.52-.93.91s-.34.81-.34,1.29.11.91.34,1.3.53.69.93.91.84.33,1.34.33.92-.11,1.32-.33.7-.52.93-.91.34-.82.34-1.3-.11-.9-.34-1.29-.53-.68-.93-.91-.83-.33-1.32-.34c-.5,0-.95.12-1.34.34ZM200.37,719.45h-9.16v-4.31h.98v3.48h8.17v.83ZM195.91,710.3c0,.41-.07.81-.21,1.2h3.27v-2.44h-3.28c.15.39.22.8.22,1.23Z"/><path d="M211.57,712.29c.36.8.83,1.51,1.42,2.14s1.21,1.09,1.86,1.39l-.61.78c-.52-.26-1.02-.62-1.51-1.07s-.92-.98-1.29-1.57-.67-1.22-.89-1.88c-.21.7-.5,1.36-.88,1.98s-.8,1.18-1.29,1.66-.99.86-1.51,1.13l-.64-.83c.65-.31,1.27-.78,1.86-1.43s1.06-1.38,1.42-2.21.54-1.66.54-2.5v-2.66h.98v2.66c0,.8.17,1.6.53,2.41ZM217.6,719.79h-.98v-13.8h.98v13.8Z"/><path d="M226.33,710.23c-.54.96-1.3,1.8-2.28,2.52s-2.13,1.29-3.45,1.71l-.42-.8c1.12-.36,2.11-.83,2.97-1.4s1.53-1.23,2.04-1.97.8-1.54.88-2.39h-5.34v-.83h6.41c0,1.14-.27,2.19-.8,3.16ZM231.52,719.45h-9.22v-4.34h.98v3.52h8.23v.83ZM230.85,710.29h2.12v.84h-2.12v5.02h-1v-10.16h1v4.3Z"/><path d="M243.53,707.24c.54.27.96.65,1.26,1.14s.46,1.05.46,1.67c0,.63-.16,1.19-.46,1.68s-.73.87-1.26,1.14-1.15.4-1.84.4-1.3-.14-1.84-.41-.97-.65-1.27-1.14-.46-1.05-.46-1.68.15-1.18.46-1.67.73-.87,1.27-1.14,1.16-.41,1.84-.41,1.3.14,1.84.41ZM240.35,708c-.4.2-.71.48-.93.84s-.33.76-.33,1.21c0,.46.1.87.33,1.23s.54.64.93.84.85.3,1.35.3.94-.1,1.33-.3.7-.48.93-.84.34-.77.35-1.23c0-.45-.12-.86-.35-1.22s-.54-.64-.93-.84-.84-.3-1.33-.3-.95.1-1.35.3ZM248.54,719.77h-.98v-4.08h-7.97v-.83h8.95v4.91ZM250.65,709.04h-2.11v2.09h2.11v.86h-2.11v2.2h-.98v-8.2h.98v2.22h2.11v.83Z"/><path d="M259.6,718.55h-1.12v-10.16h-.06l-2.67,1.77v-1.14l2.7-1.78h1.16v11.31Z"/><path d="M264.24,718.02c-.57-.46-1.01-1.12-1.31-1.99s-.45-1.91-.45-3.13.15-2.25.45-3.12.74-1.54,1.32-2,1.26-.69,2.06-.69,1.47.23,2.05.69,1.01,1.13,1.31,2,.45,1.91.45,3.12-.15,2.26-.45,3.13-.74,1.53-1.31,1.99-1.25.69-2.05.69-1.49-.23-2.06-.69ZM267.78,717.14c.41-.38.72-.93.94-1.64s.32-1.59.32-2.6-.11-1.88-.33-2.6-.53-1.28-.94-1.66-.9-.57-1.46-.57-1.06.19-1.47.57-.72.93-.94,1.65-.32,1.59-.32,2.61.11,1.88.32,2.6.53,1.27.94,1.64.9.57,1.47.57,1.06-.19,1.47-.57Z"/><path d="M284.16,714.18h-5.75v2.84h-.97v-2.84h-5.89v-.83h12.61v.83ZM282.76,719.45h-9.55v-3.75h.98v2.92h8.56v.83ZM274.24,708.3h7.25v-1.88h.98v5.45h-9.22v-5.45h.98v1.88ZM281.49,711.05v-1.97h-7.25v1.97h7.25Z"/><path d="M286.27,721.65h-.92l.88-4.05h1.19l-1.14,4.05Z"/><path d="M302.38,712.29c.36.8.83,1.51,1.42,2.14s1.21,1.09,1.86,1.39l-.61.78c-.52-.26-1.02-.62-1.51-1.07s-.92-.98-1.29-1.57-.67-1.22-.89-1.88c-.21.7-.5,1.36-.88,1.98s-.8,1.18-1.29,1.66-.99.86-1.51,1.13l-.64-.83c.65-.31,1.27-.78,1.86-1.43s1.06-1.38,1.42-2.21.54-1.66.54-2.5v-2.66h.98v2.66c0,.8.17,1.6.53,2.41ZM308.41,719.79h-.98v-13.8h.98v13.8Z"/><path d="M322.29,716.23h-.98v-3.89h-3.71c-.32.43-.73.77-1.22,1.01s-1.05.36-1.66.36c-.68,0-1.29-.14-1.83-.43s-.96-.69-1.27-1.21-.45-1.11-.45-1.76c0-.66.14-1.24.45-1.76s.73-.92,1.27-1.21,1.15-.44,1.83-.45c.6,0,1.15.13,1.64.37s.9.57,1.22.99h3.73v-2.25h.98v10.23ZM313.37,708.11c-.4.22-.71.52-.93.91s-.34.81-.34,1.29.11.91.34,1.3.53.69.93.91.84.33,1.34.33.92-.11,1.32-.33.7-.52.93-.91.34-.82.34-1.3-.11-.9-.34-1.29-.53-.68-.93-.91-.83-.33-1.32-.34c-.5,0-.95.12-1.34.34ZM322.69,719.45h-9.16v-4.31h.98v3.48h8.17v.83ZM318.24,710.3c0,.41-.07.81-.21,1.2h3.27v-2.44h-3.28c.15.39.22.8.22,1.23Z"/><path d="M341.24,715.76h-5.86v4.03h-.98v-4.03h-5.78v-.84h12.62v.84ZM340.43,708.45h-11.14v-.83h5.11v-1.73h.98v1.73h5.05v.83ZM337.26,709.59c.66.18,1.17.44,1.52.78s.53.75.53,1.24-.18.88-.53,1.22-.86.6-1.52.78-1.45.27-2.37.27-1.71-.09-2.37-.27-1.17-.44-1.52-.78-.52-.75-.52-1.22c0-.48.17-.9.52-1.24s.85-.6,1.52-.78,1.45-.27,2.38-.27,1.71.09,2.38.27ZM333.06,710.27c-.51.12-.91.3-1.18.52s-.4.5-.4.81c0,.31.13.57.4.8s.67.4,1.18.52,1.11.18,1.81.17c.7,0,1.3-.05,1.81-.17s.9-.29,1.18-.52.41-.49.42-.8c0-.31-.14-.58-.42-.81s-.67-.4-1.18-.52-1.11-.18-1.81-.18-1.3.06-1.82.18Z"/><path d="M351.61,709.71c.32.55.76,1.03,1.31,1.44s1.16.71,1.84.92l-.5.78c-.83-.28-1.56-.7-2.2-1.25s-1.11-1.2-1.4-1.93c-.29.8-.75,1.51-1.4,2.12s-1.4,1.07-2.25,1.37l-.47-.8c.67-.23,1.28-.56,1.83-1s.98-.95,1.3-1.54.48-1.2.48-1.84v-.31h-3.34v-.84h7.64v.84h-3.31v.31c0,.61.16,1.19.48,1.74ZM357.63,717.02h-7.88v1.77h8.41v.81h-9.36v-3.33h7.86v-1.59h-7.91v-.8h8.88v3.14ZM357.62,713.18h-.97v-7.19h.97v7.19Z"/><path d="M361.27,715.8c1.5,0,2.93-.03,4.29-.1s2.64-.19,3.85-.37l.08.75c-.98.18-2,.32-3.06.4s-2.04.14-2.94.16-1.94.03-3.12.03l-.16-.88h1.06ZM366.55,707.43c.56.27.99.64,1.3,1.12s.47,1.04.48,1.66c0,.63-.16,1.19-.48,1.67s-.75.86-1.3,1.12-1.19.4-1.91.4-1.35-.13-1.91-.4-1-.64-1.31-1.12-.47-1.04-.47-1.66.16-1.17.47-1.66.75-.86,1.31-1.13,1.19-.4,1.91-.4,1.35.13,1.91.4ZM363.24,708.2c-.41.2-.74.47-.97.82s-.35.75-.34,1.19c0,.44.11.84.34,1.2s.56.63.97.83.88.29,1.4.29c.52,0,.99-.09,1.4-.29s.73-.47.97-.83.35-.75.35-1.2-.12-.84-.35-1.19-.56-.63-.97-.82-.88-.3-1.4-.3-.99.1-1.4.3ZM371.35,719.79h-.98v-13.8h.98v13.8Z"/><path d="M386.52,713.6h-12.56v-.81h12.56v.81ZM382.8,706.66c.73.21,1.28.5,1.67.89s.58.85.58,1.39-.19,1.01-.58,1.39-.95.68-1.67.89-1.58.31-2.57.31-1.85-.1-2.57-.31-1.28-.5-1.67-.89-.59-.85-.59-1.39.2-1,.59-1.39.95-.69,1.68-.89,1.58-.31,2.57-.31,1.85.1,2.57.31ZM382.78,715.17c.71.19,1.25.46,1.62.83s.56.8.56,1.32-.19.96-.56,1.33-.92.65-1.62.84-1.55.29-2.54.29-1.85-.09-2.56-.29-1.25-.47-1.63-.84-.56-.81-.56-1.33.19-.96.56-1.32.92-.64,1.63-.83,1.57-.28,2.55-.27c.98,0,1.83.09,2.54.27ZM378.2,707.38c-.58.15-1.02.35-1.33.62s-.47.58-.46.94c0,.36.15.68.46.95s.76.48,1.33.62,1.25.22,2.02.22,1.44-.07,2.02-.22,1.02-.35,1.34-.62.47-.59.47-.95-.16-.67-.47-.94-.76-.48-1.34-.62-1.25-.22-2.02-.22-1.44.07-2.02.22ZM378.24,715.86c-.57.13-1,.32-1.3.57s-.45.54-.45.88.15.63.45.88.74.44,1.3.57,1.23.2,2,.2,1.42-.07,1.98-.2.99-.32,1.3-.57.46-.54.46-.88-.15-.63-.46-.88-.74-.44-1.3-.57-1.22-.2-1.98-.2-1.43.07-2,.2Z"/><path d="M393.13,711.86c.92-.07,1.84-.19,2.77-.39l.14.84c-.97.19-1.93.32-2.88.38s-2.16.1-3.63.1h-1.05v-5.88h6.09v.83h-5.11v4.2h.06c1.48,0,2.69-.03,3.61-.1ZM390.87,715.95h6.67v-1.86h.98v5.44h-8.64v-5.44h.98v1.86ZM397.54,718.7v-1.94h-6.67v1.94h6.67ZM398.52,709.3h2.12v.86h-2.12v3.16h-.98v-7.33h.98v3.31Z"/><path d="M410.78,710.81c.32.57.76,1.07,1.31,1.5s1.16.75,1.84.97l-.52.78c-.82-.29-1.55-.72-2.18-1.29s-1.11-1.24-1.4-1.99c-.29.81-.75,1.53-1.38,2.16s-1.37,1.1-2.2,1.42l-.53-.8c.67-.24,1.28-.59,1.83-1.05s.98-.99,1.3-1.6.48-1.24.48-1.9v-.98h-3.34v-.83h7.64v.83h-3.31v.98c0,.63.16,1.23.48,1.8ZM417.26,719.45h-9.25v-4.28h.98v3.45h8.27v.83ZM416.8,716.15h-.98v-10.16h.98v10.16Z"/><path d="M426.4,708.54h-7.17v-.83h3.11v-1.62h.98v1.62h3.08v.83ZM424.35,709.63c.45.19.79.47,1.04.82s.37.77.38,1.24c0,.47-.13.88-.38,1.23s-.59.62-1.04.81-.96.29-1.54.29-1.09-.09-1.54-.29-.79-.46-1.04-.81-.36-.76-.36-1.23c0-.47.11-.89.36-1.24s.59-.63,1.04-.82.96-.29,1.54-.3c.58,0,1.09.1,1.54.3ZM421.75,710.3c-.31.14-.56.32-.73.57s-.26.52-.26.82.09.57.26.81.42.42.73.55.67.2,1.07.2.76-.07,1.07-.2.55-.32.72-.55.26-.51.26-.81-.09-.58-.26-.82-.41-.43-.72-.57-.67-.2-1.07-.2-.76.07-1.07.2ZM428.92,715.29c.68.18,1.21.46,1.57.81s.55.79.55,1.29-.18.92-.55,1.27-.89.62-1.57.8-1.5.27-2.46.27-1.79-.09-2.48-.27-1.21-.45-1.57-.8-.54-.77-.54-1.27.18-.93.54-1.29.89-.63,1.58-.81,1.51-.28,2.47-.28,1.77.09,2.46.28ZM424.53,715.98c-.54.12-.96.31-1.25.55s-.43.52-.43.85c0,.32.14.59.43.83s.71.42,1.25.54,1.19.19,1.93.19,1.37-.06,1.91-.19.96-.3,1.25-.54.44-.51.45-.84c0-.33-.15-.61-.45-.85s-.71-.42-1.25-.55-1.18-.18-1.91-.18c-.74,0-1.38.05-1.93.18ZM430.96,714.74h-.94v-4.06h-2.09v3.56h-.92v-7.98h.92v3.61h2.09v-3.88h.94v8.75Z"/></svg>