<?xml version="1.0" encoding="UTF-8"?><svg id="a" xmlns="http://www.w3.org/2000/svg" viewBox="0 0 1280 800"><path d="M90.69,174.45h6.86v-1.72h1.93v6.45h-4.39v1.46h6.28v1.58h-14.48v-1.58h6.24v-1.46h-4.36v-6.45h1.93v1.72ZM99.72,187.71h-11.06v-4.46h1.95v2.88h9.11v1.58ZM97.54,177.62v-1.65h-6.86v1.65h6.86Z" fill="#5b6b8c"/><path d="M113.44,173.7c.65.34,1.16.82,1.54,1.42s.56,1.28.56,2.04-.19,1.45-.56,2.06-.89,1.08-1.54,1.42-1.37.51-2.17.51-1.53-.17-2.18-.51-1.17-.81-1.54-1.42-.56-1.29-.56-2.06.19-1.44.56-2.04.89-1.08,1.54-1.42,1.38-.51,2.18-.51,1.52.17,2.17.51ZM110.05,175.18c-.36.19-.65.45-.85.8s-.3.74-.3,1.19c0,.46.09.86.3,1.2s.49.61.85.8.77.28,1.22.28.84-.09,1.2-.28.64-.45.85-.8.31-.75.31-1.2-.1-.84-.31-1.19-.49-.61-.85-.8-.76-.28-1.2-.28-.86.09-1.22.28ZM120.38,187.71h-10.95v-5.24h1.97v3.66h8.98v1.58ZM119.94,183.63h-1.97v-11.48h1.97v11.48Z" fill="#5b6b8c"/><path d="M136.78,186.11h-14.52v-1.63h14.52v1.63ZM135.51,175.18h-2.32v5.06h2.27v1.55h-11.95v-1.55h2.23v-5.06h-2.29v-1.56h12.06v1.56ZM131.26,180.24v-5.06h-3.57v5.06h3.57Z" fill="#5b6b8c"/><path d="M145.76,179.52h-5.34v3.16c1.35-.01,2.54-.05,3.57-.13s2.07-.2,3.13-.38l.18,1.58c-1.16.21-2.32.35-3.47.43s-2.5.11-4.04.11h-1.3v-6.35h5.33v-2.85h-5.36v-1.58h7.31v5.99ZM150.26,178.23h2.44v1.63h-2.44v8.17h-1.93v-15.91h1.93v6.1Z" fill="#5b6b8c"/><path d="M167.87,181.57h-14.52v-1.55h14.52v1.55ZM166.34,187.66h-11.25v-4.68h1.95v3.09h9.3v1.58ZM166.24,178.18h-11v-5.47h1.93v3.92h9.07v1.55Z" fill="#5b6b8c"/><path d="M182.64,175.47h-9.42v-1.56h3.74v-1.78h1.95v1.78h3.73v1.56ZM179.94,176.5c.59.25,1.04.61,1.37,1.07s.5.99.5,1.6c0,.6-.17,1.12-.5,1.58s-.79.81-1.37,1.05-1.26.37-2.01.37-1.44-.12-2.03-.37-1.05-.6-1.38-1.05-.49-.98-.49-1.58.16-1.14.49-1.6.79-.82,1.38-1.07,1.27-.38,2.03-.38,1.43.13,2.01.38ZM186.36,187.71h-10.81v-4.62h1.95v3.04h8.86v1.58ZM176.46,178.04c-.36.27-.54.64-.54,1.12s.18.84.54,1.11.85.4,1.46.39c.61.01,1.1-.12,1.47-.39s.55-.64.55-1.11-.18-.86-.55-1.12-.86-.4-1.47-.4-1.1.13-1.46.4ZM185.73,177.14h2.21v1.62h-2.21v5.26h-1.95v-11.87h1.95v4.99Z" fill="#5b6b8c"/><path d="M201.5,174.07c0,.82-.02,1.55-.06,2.19s-.13,1.35-.29,2.14h2.12v1.58h-6.31v2.48h4.57v5.57h-1.95v-4.01h-9.35v-1.56h4.78v-2.48h-6.26v-1.58h10.44c.14-.73.23-1.41.28-2.03s.07-1.27.07-1.95h-9v-1.56h10.95v1.21Z" fill="#5b6b8c"/><path d="M223.1,186h-14.52v-1.62h14.52v1.62ZM217.53,176.7c.5.77,1.18,1.44,2.05,2s1.85.93,2.94,1.12l-.88,1.63c-1.33-.28-2.51-.8-3.55-1.56s-1.81-1.67-2.32-2.75c-.53,1.07-1.31,1.98-2.35,2.74s-2.22,1.28-3.54,1.57l-.86-1.63c1.07-.19,2.04-.57,2.9-1.13s1.54-1.23,2.04-2,.75-1.56.75-2.37v-1.18h2.07v1.18c0,.81.25,1.61.74,2.38Z" fill="#5b6b8c"/><path d="M232.22,174.77h-5.48v1.56h5.17v1.51h-5.17v1.65c1.45,0,2.64-.04,3.59-.1s1.88-.18,2.81-.36l.21,1.56c-1.03.18-2.07.29-3.12.35s-2.44.09-4.17.09h-1.27v-7.84h7.44v1.56ZM236.67,188.02h-1.95v-4.01h-8.63v-1.56h10.58v5.57ZM236.67,176.12h2.21v1.65h-2.21v3.97h-1.95v-9.62h1.95v3.99Z" fill="#5b6b8c"/><path d="M254.2,182.59h-14.52v-1.58h6.29v-1.39h-4.45v-4.22h8.93v-1.34h-8.98v-1.53h10.93v4.25h-8.95v1.32h9.26v1.51h-4.82v1.39h6.29v1.58ZM252.76,188.02h-11.21v-4.55h1.97v2.97h9.25v1.58Z" fill="#5b6b8c"/><path d="M266.02,178.8c.33.93.8,1.75,1.42,2.47s1.35,1.26,2.19,1.62l-1.16,1.56c-.9-.42-1.68-1.02-2.34-1.82s-1.19-1.73-1.56-2.79c-.38,1.15-.9,2.15-1.59,3.02s-1.5,1.52-2.44,1.96l-1.2-1.63c.86-.37,1.61-.93,2.25-1.67s1.12-1.61,1.45-2.58.5-1.97.5-2.99v-2.53h1.99v2.53c0,.98.16,1.93.48,2.86ZM272.74,188.04h-1.97v-15.91h1.97v15.91Z" fill="#5b6b8c"/><path d="M281.2,176.89c.28.6.71,1.13,1.27,1.59s1.25.81,2.05,1.06l-.93,1.53c-.87-.27-1.63-.67-2.26-1.21s-1.13-1.17-1.49-1.91c-.36.85-.87,1.59-1.54,2.21s-1.47,1.1-2.41,1.42l-.98-1.55c.83-.28,1.54-.67,2.13-1.18s1.03-1.1,1.33-1.76.45-1.35.45-2.07v-.19h-3.36v-1.58h8.63v1.58h-3.3v.18c0,.66.14,1.29.43,1.89ZM285.28,182.32c.8.24,1.41.58,1.84,1.03s.64.99.65,1.62c0,.63-.22,1.18-.65,1.63s-1.04.81-1.84,1.05-1.74.36-2.83.36-2.06-.12-2.87-.36-1.43-.59-1.86-1.05-.65-1-.65-1.63.22-1.17.65-1.62,1.05-.8,1.86-1.03,1.76-.36,2.87-.36,2.03.12,2.83.36ZM279.91,183.87c-.59.25-.89.62-.89,1.1s.3.87.89,1.12,1.44.39,2.54.39,1.94-.13,2.52-.39.87-.63.87-1.12-.29-.85-.87-1.1-1.42-.38-2.52-.38-1.94.13-2.54.38ZM287.61,175.95h2.21v1.6h-2.21v4.06h-1.95v-9.47h1.95v3.81Z" fill="#5b6b8c"/><path d="M296.16,183.02c1.69-.07,3.29-.21,4.81-.43l.16,1.42c-1.57.3-3.17.5-4.79.58s-3.42.12-5.39.12l-.25-1.6c1.95,0,3.76-.03,5.45-.1ZM298.02,173.72c.67.33,1.19.78,1.56,1.37s.57,1.25.58,1.99c0,.74-.2,1.41-.58,2s-.9,1.04-1.56,1.37-1.41.49-2.24.49-1.57-.16-2.23-.49-1.18-.78-1.56-1.37-.57-1.25-.57-1.99.19-1.4.57-1.99.9-1.04,1.56-1.37,1.41-.48,2.23-.48c.83,0,1.57.15,2.24.48ZM294.54,175.19c-.37.18-.66.43-.87.75s-.31.7-.31,1.13.1.81.31,1.14.5.57.87.75.79.26,1.25.26.89-.09,1.26-.26.67-.42.88-.75.32-.7.32-1.14-.11-.8-.32-1.13-.51-.58-.88-.75-.79-.26-1.26-.26-.88.09-1.25.26ZM303.87,188.04h-1.95v-15.91h1.95v15.91Z" fill="#5b6b8c"/><path d="M324.97,181.56h-6.13v2.92h-1.99v-2.92h-6.4v-1.56h14.52v1.56ZM320.68,172.88c.86.26,1.52.64,2,1.13s.71,1.07.71,1.73-.24,1.24-.71,1.72-1.14.86-2,1.12-1.86.39-2.99.39-2.13-.13-2.99-.39-1.52-.63-2-1.12-.71-1.06-.71-1.72.24-1.24.71-1.73,1.14-.87,2-1.13,1.86-.4,2.99-.4,2.13.13,2.99.4ZM323.37,187.71h-11.14v-4.71h1.97v3.11h9.18v1.6ZM315.79,174.23c-.54.13-.96.33-1.25.58s-.44.56-.43.92c0,.35.14.64.43.9s.71.44,1.25.58,1.18.2,1.9.2,1.37-.07,1.91-.2.96-.32,1.25-.58.44-.55.44-.9-.15-.66-.44-.92-.71-.45-1.25-.58-1.18-.2-1.91-.2-1.36.07-1.9.2Z" fill="#5b6b8c"/><path d="M332.2,173.36c.54.22,1,.53,1.38.94h3.8v-2.16h1.95v9.35h-1.95v-2.02h-3.81c-.38.4-.83.71-1.38.93s-1.13.33-1.76.32c-.79,0-1.5-.16-2.14-.48s-1.15-.79-1.51-1.37-.55-1.25-.55-1.98.18-1.4.55-1.99.87-1.04,1.51-1.37,1.35-.49,2.14-.49c.63,0,1.22.11,1.76.33ZM329.22,174.97c-.35.18-.63.43-.83.76s-.3.71-.3,1.15.1.81.3,1.14.48.59.83.77.76.27,1.21.27.82-.09,1.17-.27.62-.44.82-.77.3-.71.31-1.14c0-.44-.11-.82-.31-1.15s-.47-.58-.82-.76-.74-.27-1.18-.27-.86.09-1.21.27ZM336.84,182.19c.82.25,1.45.6,1.89,1.06s.66,1.02.66,1.66-.22,1.2-.66,1.66-1.07.82-1.89,1.06-1.78.37-2.89.37-2.07-.12-2.88-.37-1.44-.6-1.87-1.06-.65-1.02-.65-1.66c0-.64.21-1.2.65-1.66s1.06-.82,1.87-1.06,1.77-.37,2.88-.37,2.07.12,2.89.37ZM331.37,183.73c-.61.28-.91.67-.9,1.19,0,.5.29.88.9,1.16s1.47.41,2.58.41,1.99-.14,2.6-.41.91-.66.91-1.16-.3-.91-.91-1.19-1.48-.41-2.61-.41-1.97.14-2.58.41ZM334.6,176.88c0,.32-.04.65-.13,1h2.91v-2.02h-2.92c.09.35.14.69.14,1.02Z" fill="#5b6b8c"/><path d="M351.06,179.43c.24.79.6,1.5,1.08,2.14s1.08,1.16,1.8,1.54l-1.09,1.44c-.71-.38-1.33-.9-1.84-1.56s-.91-1.42-1.2-2.29c-.29.94-.7,1.77-1.21,2.49s-1.13,1.3-1.85,1.73l-1.14-1.48c.72-.42,1.33-.97,1.81-1.66s.85-1.45,1.09-2.27.35-1.67.35-2.54v-.49h-2.71v-1.58h2.71v-2.21h1.85v2.21h2.65v1.58h-2.65v.49c0,.84.12,1.66.36,2.45ZM356.29,187.25h-1.85v-7.4h-2.07v-1.62h2.07v-5.8h1.85v14.82ZM359.53,188.02h-1.86v-15.89h1.86v15.89Z" fill="#5b6b8c"/><path d="M371.83,187.27h-1.86v-5.31h-2.48v-1.6h2.48v-2.36h-2.2c-.39,1.36-1.02,2.6-1.89,3.71s-2.04,2.1-3.48,2.95l-1.14-1.39c1.62-.96,2.83-2.06,3.65-3.3s1.3-2.69,1.45-4.32h-4.25v-1.58h6.19c0,.82-.06,1.6-.17,2.34h1.85v-3.88h1.86v14.75ZM375.12,188.02h-1.86v-15.89h1.86v15.89Z" fill="#5b6b8c"/><path d="M391.48,186.18h-14.52v-1.62h6.26v-2.58h-4.54v-5.2h9.14v-1.97h-9.18v-1.58h11.11v5.1h-9.12v2.06h9.49v1.6h-4.97v2.58h6.33v1.62Z" fill="#5b6b8c"/><path d="M403.06,176.77c.29.62.71,1.17,1.28,1.66s1.24.87,2.04,1.14l-.98,1.55c-.86-.29-1.61-.73-2.24-1.3-.63-.57-1.12-1.24-1.48-2-.36.86-.87,1.61-1.53,2.25s-1.46,1.13-2.38,1.46l-1.02-1.55c.83-.28,1.53-.69,2.12-1.23.59-.54,1.03-1.14,1.33-1.81.3-.67.45-1.37.45-2.07v-.12h-3.31v-1.58h8.58v1.58h-3.29v.11c0,.66.14,1.29.43,1.91ZM407.62,182.33c.82.24,1.44.58,1.88,1.04s.65,1,.65,1.63-.22,1.18-.65,1.63-1.06.8-1.88,1.04c-.82.24-1.79.36-2.9.36s-2.08-.12-2.89-.36-1.44-.58-1.87-1.04c-.43-.45-.64-1-.64-1.63,0-.63.21-1.18.64-1.63.43-.45,1.05-.8,1.87-1.04s1.78-.36,2.89-.36,2.09.12,2.9.36ZM402.15,183.86c-.6.26-.9.64-.9,1.14s.3.87.9,1.12,1.45.39,2.57.39,1.97-.13,2.57-.39.91-.63.91-1.12-.3-.88-.91-1.14-1.46-.39-2.57-.39-1.97.13-2.57.39ZM410.1,181.57h-1.95v-3.88h-2.71v-1.6h2.71v-3.96h1.95v9.44Z" fill="#5b6b8c"/><path d="M418.5,177.29c.29.55.72,1.04,1.29,1.47s1.26.76,2.07.98l-.91,1.56c-.89-.26-1.66-.65-2.31-1.17s-1.16-1.14-1.53-1.85c-.35.78-.86,1.45-1.52,2.02-.66.57-1.45.99-2.36,1.27l-.95-1.53c.81-.23,1.5-.58,2.08-1.04s1.01-.98,1.31-1.57c.29-.59.44-1.21.44-1.85v-.12h-3.32v-1.55h3.32v-1.83h1.97v1.83h3.3v1.55h-3.32v.12c0,.59.14,1.16.44,1.71ZM424.88,188.04h-1.95v-3.9h-8.63v-1.56h10.58v5.47ZM424.88,176.16h2.21v1.65h-2.21v4.04h-1.95v-9.72h1.95v4.03Z" fill="#5b6b8c"/><path d="M437.36,180.31h-3.22v2.78c1.48-.06,2.84-.16,4.1-.3l.16,1.44c-1.56.23-3.15.39-4.77.46s-3.42.11-5.41.11l-.25-1.62h1.35c1.25,0,2.21,0,2.87-.03v-2.84h-3.11v-6.71h8.21v1.55h-6.28v3.59h6.35v1.58ZM441.14,188.04h-1.95v-15.91h1.95v15.91Z" fill="#5b6b8c"/><path d="M457.96,181.57h-14.52v-1.55h14.52v1.55ZM456.43,187.66h-11.25v-4.68h1.95v3.09h9.3v1.58ZM456.33,178.18h-11v-5.47h1.93v3.92h9.07v1.55Z" fill="#5b6b8c"/><path d="M468.16,183.01c1.8-.07,3.4-.19,4.8-.37l.11,1.46c-2.45.39-5.45.58-9,.58h-.72l-.19-1.56c1.37-.01,2.4-.03,3.08-.04v-4.75h1.93v4.69ZM472.17,174.91c0,1.04-.03,2.03-.07,2.96-.05.93-.17,1.99-.37,3.2l-1.93-.16c.17-1.08.28-2.05.34-2.92s.09-1.75.09-2.64h-6.23v-1.56h8.17v1.12ZM475.75,178.6h2.3v1.65h-2.3v7.77h-1.97v-15.89h1.97v6.47Z" fill="#5b6b8c"/><path d="M485.11,176.77c.29.62.71,1.17,1.27,1.66s1.24.87,2.04,1.14l-.98,1.55c-.86-.29-1.61-.73-2.24-1.3-.63-.57-1.12-1.24-1.48-2-.36.86-.87,1.61-1.53,2.25s-1.46,1.13-2.38,1.46l-1.02-1.55c.83-.28,1.53-.69,2.12-1.23s1.03-1.14,1.33-1.81.45-1.37.45-2.07v-.12h-3.3v-1.58h8.58v1.58h-3.29v.11c0,.66.14,1.29.43,1.91ZM489.68,182.33c.82.24,1.44.58,1.88,1.04s.65,1,.65,1.63-.22,1.18-.65,1.63-1.06.8-1.88,1.04c-.82.24-1.79.36-2.9.36s-2.08-.12-2.89-.36-1.44-.58-1.87-1.04c-.43-.45-.64-1-.64-1.63,0-.63.21-1.18.64-1.63.43-.45,1.05-.8,1.87-1.04s1.78-.36,2.89-.36,2.09.12,2.9.36ZM484.21,183.86c-.6.26-.9.64-.9,1.14s.3.87.9,1.12,1.45.39,2.57.39,1.97-.13,2.58-.39.91-.63.91-1.12-.3-.88-.91-1.14-1.46-.39-2.58-.39-1.97.13-2.57.39ZM492.15,181.57h-1.95v-3.88h-2.71v-1.6h2.71v-3.96h1.95v9.44Z" fill="#5b6b8c"/><path d="M94.99,93.64h14.26v-3.55h4.96v14.53h-9.61v3.01h13.75v3.98h-32.42v-3.98h13.67v-3.01h-9.53v-14.53h4.92v3.55ZM114.68,123.72h-24.84v-10.08h5v6.09h19.84v3.98ZM109.25,100.63v-3.16h-14.26v3.16h14.26Z" fill="#1a2a66"/><path d="M144.92,92.25c1.48.77,2.65,1.83,3.51,3.19s1.29,2.89,1.29,4.6-.43,3.28-1.28,4.66c-.85,1.37-2.02,2.44-3.51,3.21s-3.13,1.15-4.94,1.15-3.46-.38-4.94-1.15-2.65-1.84-3.51-3.21c-.85-1.37-1.28-2.93-1.28-4.66s.43-3.24,1.29-4.6,2.03-2.42,3.51-3.19c1.48-.77,3.12-1.15,4.93-1.15s3.45.38,4.93,1.15ZM137.49,95.97c-.74.37-1.32.91-1.74,1.61-.42.7-.62,1.52-.61,2.46-.01.96.19,1.8.61,2.51.42.71.99,1.25,1.73,1.62.74.37,1.57.56,2.51.56s1.73-.19,2.45-.56,1.3-.91,1.72-1.62c.42-.71.63-1.55.63-2.51s-.21-1.76-.63-2.46c-.42-.7-1-1.24-1.73-1.61-.73-.37-1.54-.55-2.44-.54-.92-.01-1.76.17-2.5.54ZM160.42,123.72h-24.77v-11.91h5.04v7.93h19.73v3.98ZM159.48,114.38h-5v-25.55h5v25.55Z" fill="#1a2a66"/><path d="M196.83,120.2h-32.54v-4.14h32.54v4.14ZM194.09,95.9h-5v10.78h4.84v3.91h-26.95v-3.91h4.77v-10.78h-4.92v-3.98h27.27v3.98ZM184.17,106.68v-10.78h-7.42v10.78h7.42Z" fill="#1a2a66"/><path d="M216.75,105.55h-11.45v6.45c2.75-.01,5.23-.1,7.46-.25s4.47-.42,6.72-.8l.43,3.98c-2.58.47-5.14.79-7.7.96-2.55.17-5.51.25-8.87.25h-3.01v-14.53h11.45v-5.82h-11.48v-4.02h16.45v13.79ZM226.9,102.23h5.23v4.1h-5.23v18.09h-4.92v-35.62h4.92v13.44Z" fill="#1a2a66"/><path d="M235.54,113.09c8.35,0,15.27-.38,20.78-1.13l.39,3.59c-3.49.68-7.05,1.11-10.68,1.31s-7.58.29-11.86.29l-.59-4.06h1.95ZM249.98,92.28c1.5.75,2.68,1.79,3.54,3.12.85,1.33,1.28,2.83,1.28,4.49s-.43,3.18-1.28,4.51c-.85,1.33-2.03,2.37-3.53,3.12-1.5.75-3.18,1.12-5.04,1.12s-3.54-.37-5.05-1.12-2.69-1.79-3.54-3.12-1.29-2.83-1.29-4.51.43-3.16,1.29-4.49,2.04-2.37,3.55-3.12c1.51-.75,3.19-1.12,5.04-1.1,1.85-.01,3.53.35,5.03,1.1ZM242.41,96c-.76.35-1.34.86-1.77,1.53-.42.67-.63,1.46-.62,2.35-.01.91.19,1.7.62,2.36.42.66,1.01,1.17,1.76,1.52.75.35,1.6.53,2.55.53s1.8-.18,2.55-.53c.75-.35,1.34-.86,1.78-1.52.44-.66.66-1.45.67-2.36-.01-.91-.23-1.7-.66-2.36s-1.02-1.17-1.78-1.52c-.76-.35-1.61-.53-2.56-.53s-1.78.18-2.54.53ZM263.31,124.42h-4.96v-35.62h4.96v35.62Z" fill="#1a2a66"/><path d="M300.11,106.26l.31,3.67c-2.7.53-5.66.93-8.91,1.19v12.17h-4.96v-11.88c-2.29.1-4.7.16-7.23.16-.31.03-.78.04-1.41.04l-.62-4.06c9.45,0,17.06-.43,22.81-1.29ZM293.64,91.21c1.42.63,2.53,1.52,3.34,2.68.81,1.15,1.21,2.46,1.21,3.94s-.4,2.76-1.21,3.92c-.81,1.15-1.92,2.05-3.35,2.69s-3.03.95-4.81.94c-1.8.01-3.41-.3-4.82-.94-1.42-.64-2.53-1.53-3.33-2.69s-1.19-2.46-1.18-3.92c-.01-1.47.38-2.78,1.18-3.94s1.91-2.04,3.33-2.68c1.42-.63,3.03-.94,4.82-.93,1.8-.01,3.4.3,4.82.93ZM285.54,95.21c-.83.63-1.25,1.5-1.25,2.61s.42,1.95,1.25,2.58c.83.62,1.93.92,3.28.9,1.39.03,2.52-.27,3.37-.9.85-.62,1.28-1.48,1.28-2.58s-.43-1.98-1.28-2.61c-.85-.63-1.98-.95-3.37-.95s-2.45.32-3.28.95ZM307.18,124.34h-4.92v-35.51h4.92v35.51Z" fill="#1a2a66"/><path d="M326.7,105.22c.67,1.76,1.67,3.35,3,4.79s2.94,2.54,4.82,3.32l-2.7,3.83c-1.97-.81-3.68-2-5.13-3.59-1.45-1.59-2.59-3.44-3.43-5.55-.82,2.25-1.96,4.22-3.43,5.91s-3.2,2.95-5.21,3.78l-2.66-3.83c1.88-.82,3.47-1.97,4.79-3.46,1.32-1.48,2.31-3.14,2.97-4.96.66-1.82.99-3.67.99-5.53v-1.37h-7.58v-3.98h7.54v-5h4.96v5h7.42v3.98h-7.38v1.37c0,1.77.33,3.54,1.01,5.29ZM341.51,124.34h-5v-35.55h5v35.55Z" fill="#1a2a66"/><path d="M88.3,150.52h4.25c.84,0,1.56.16,2.16.48.6.32,1.05.76,1.36,1.32.31.57.46,1.21.46,1.95s-.16,1.38-.46,1.94c-.31.57-.77,1.01-1.37,1.32-.6.32-1.33.47-2.18.47h-2.19v3.83h-2.03v-11.31ZM92.24,156.33c.74,0,1.29-.19,1.66-.56.37-.37.55-.87.55-1.5s-.19-1.13-.55-1.5c-.37-.36-.92-.55-1.66-.55h-1.91v4.11h1.91Z" fill="#5b6b8c"/><path d="M97.44,161.83l3.98-11.31h2.5l4,11.31h-2.17l-.95-2.8h-4.26l-.94,2.8h-2.17ZM104.26,157.39l-1.54-4.56h-.09l-1.53,4.56h3.16Z" fill="#5b6b8c"/><path d="M109.27,150.52h4.25c.85,0,1.57.15,2.17.45.6.3,1.05.72,1.36,1.26.31.54.46,1.18.46,1.9,0,.77-.17,1.43-.52,1.98-.35.55-.85.96-1.52,1.23l2.45,4.48h-2.27l-2.22-4.14h-2.12v4.14h-2.03v-11.31ZM113.21,155.99c1.48,0,2.22-.62,2.22-1.86,0-.61-.18-1.09-.55-1.41-.36-.33-.92-.49-1.67-.49h-1.91v3.77h1.91Z" fill="#5b6b8c"/><path d="M118.76,150.52h9.02v1.7h-3.48v9.61h-2.03v-9.61h-3.5v-1.7Z" fill="#5b6b8c"/><path d="M135.05,161.57c-.6-.28-1.07-.66-1.42-1.14-.35-.49-.53-1.04-.55-1.66h1.98c.02.3.12.57.3.81.18.24.42.43.72.56.3.14.63.2.98.2.42,0,.79-.09,1.12-.28.33-.19.59-.45.77-.78.18-.33.28-.7.28-1.11s-.1-.81-.29-1.14c-.19-.34-.46-.6-.8-.79-.34-.19-.72-.29-1.15-.29-.9-.02-1.52.31-1.88.97h-1.89l.69-6.41h6.69v1.7h-5.02l-.34,3h.11c.22-.25.53-.46.92-.62.39-.16.81-.24,1.27-.24.69,0,1.32.16,1.88.48.56.32.99.77,1.31,1.34.31.57.47,1.21.47,1.93s-.18,1.41-.53,2c-.35.59-.84,1.05-1.47,1.38-.63.33-1.34.5-2.14.5-.75,0-1.42-.14-2.02-.41Z" fill="#5b6b8c"/><path d="M152.35,163.42h-.92v-14.5h.92v14.5Z" fill="#5b6b8c"/><path d="M169.44,159.72h-6.69v-9.25h6.69v9.25ZM164.46,158.33h3.25v-6.5h-3.25v6.5ZM173.32,154.52h2.17v1.47h-2.17v7.23h-1.73v-14.12h1.73v5.42Z" fill="#5b6b8c"/><path d="M188.97,158.5h-5.62v4.7h-1.72v-4.7h-5.56v-1.41h12.91v1.41ZM187.4,155.44h-9.75v-5.62h9.75v5.62ZM179.35,154.08h6.31v-2.88h-6.31v2.88Z" fill="#5b6b8c"/><path d="M197.33,155.63h-4.86v2.84c1.19,0,2.29-.05,3.29-.12,1-.07,2.02-.2,3.06-.38l.16,1.42c-1.12.2-2.22.33-3.3.4-1.08.07-2.33.1-3.74.1h-1.23v-5.64h4.88v-2.52h-4.89v-1.41h6.66v5.3ZM201.68,163.24h-1.72v-14.14h1.72v14.14Z" fill="#5b6b8c"/><rect x="88.85" y="699.99" width="2.57" height="25.84" fill="#2a5ada"/><path d="M114.41,708.43h7.25v-1.88h.98v5.47h-4.12v1.58h5.78v.83h-12.56v-.83h5.8v-1.58h-4.11v-5.47h.98v1.88ZM122.91,719.45h-9.52v-3.81h1v2.98h8.52v.83ZM121.66,711.21v-1.98h-7.25v1.98h7.25Z"/><path d="M135.18,707.42c.54.28.97.68,1.27,1.19.31.51.46,1.08.46,1.73s-.15,1.23-.46,1.75c-.31.51-.73.91-1.27,1.2-.54.28-1.15.42-1.83.42-.68,0-1.29-.13-1.83-.42-.54-.28-.97-.68-1.28-1.2-.31-.51-.46-1.09-.45-1.75,0-.65.15-1.22.45-1.73.31-.51.73-.9,1.28-1.19.54-.28,1.15-.43,1.83-.43s1.29.14,1.83.43ZM132.01,708.18c-.4.22-.71.51-.93.89s-.34.8-.34,1.27.11.9.34,1.28.54.67.93.89c.4.21.84.32,1.34.32s.93-.11,1.33-.32.71-.51.94-.89.34-.8.34-1.28-.11-.89-.34-1.27c-.23-.38-.54-.67-.94-.89-.4-.22-.84-.32-1.33-.32s-.94.11-1.34.32ZM141.21,719.45h-9.25v-4.36h.98v3.53h8.27v.83ZM140.76,716.13h-.98v-10.14h.98v10.14Z"/><path d="M155.88,717.95h-12.62v-.86h12.62v.86ZM154.62,708.27h-2.27v5.03h2.25v.81h-10.17v-.81h2.25v-5.03h-2.27v-.83h10.2v.83ZM151.38,713.3v-5.03h-3.72v5.03h3.72Z"/><path d="M162.36,715.47c.99-.07,2-.2,3.02-.39l.11.83c-1.07.2-2.11.33-3.11.41s-2.23.11-3.65.11h-1.08v-5.14h5.22v-3.12h-5.25v-.84h6.23v4.81h-5.22v3.45h.09c1.43,0,2.64-.04,3.63-.11ZM167.69,711.55h2.38v.86h-2.38v7.38h-.98v-13.8h.98v5.56Z"/><path d="M172.05,715.8c1.5,0,2.93-.03,4.29-.1,1.35-.07,2.64-.19,3.85-.37l.08.75c-.98.18-2,.32-3.06.4-1.06.09-2.04.14-2.94.16-.9.02-1.94.03-3.12.03l-.16-.88h1.06ZM177.33,707.43c.56.27.99.64,1.3,1.12s.47,1.04.48,1.66c0,.63-.16,1.19-.48,1.67s-.75.86-1.3,1.12-1.19.4-1.91.4-1.35-.13-1.91-.4c-.56-.27-1-.64-1.31-1.12s-.47-1.04-.47-1.66.16-1.17.47-1.66c.31-.48.75-.86,1.31-1.13.56-.27,1.19-.4,1.91-.4s1.35.13,1.91.4ZM174.03,708.2c-.41.2-.74.47-.97.82s-.35.75-.34,1.19c0,.44.11.84.34,1.2s.56.63.97.83.88.29,1.4.29c.52,0,.99-.09,1.4-.29.41-.2.73-.47.97-.83s.35-.75.35-1.2-.12-.84-.35-1.19-.56-.63-.97-.82c-.41-.2-.88-.3-1.4-.3s-.99.1-1.4.3ZM182.13,719.79h-.98v-13.8h.98v13.8Z"/><path d="M192.43,713.85v-1.08c-.55-.04-1.02-.15-1.43-.32s-.72-.41-.94-.7c-.22-.29-.33-.63-.33-1.01,0-.42.13-.78.39-1.09.26-.31.64-.54,1.12-.71.48-.16,1.04-.24,1.68-.24.64,0,1.19.07,1.67.24.48.16.85.4,1.11.71.26.31.4.67.4,1.09,0,.38-.12.71-.34,1s-.53.52-.93.7c-.4.18-.88.29-1.42.33v1.04c1.52-.07,2.83-.2,3.95-.37l.08.73c-1.32.24-2.68.39-4.08.46s-2.95.1-4.67.1l-.14-.84c1.65,0,2.94-.02,3.88-.05ZM196.93,708.1h-8.02v-.78h3.52v-1.44h.98v1.44h3.52v.78ZM199.27,719.77h-.98v-3.05h-8.05v-.8h9.03v3.84ZM191.72,709.58c-.34.11-.6.26-.79.46-.19.2-.28.43-.28.7s.09.49.28.69c.18.2.45.36.79.46.34.11.73.16,1.19.16.45,0,.84-.05,1.18-.16s.6-.26.79-.46.28-.43.29-.69c0-.27-.1-.5-.29-.7-.19-.2-.45-.35-.79-.46-.34-.11-.73-.16-1.18-.15-.45,0-.85.05-1.19.15ZM199.27,710.24h2.16v.84h-2.16v4.09h-.98v-9.19h.98v4.25Z"/><path d="M207.41,710.39c.3.55.71,1.04,1.23,1.46.52.42,1.11.74,1.77.96l-.48.77c-.79-.27-1.49-.68-2.09-1.22s-1.05-1.18-1.34-1.9c-.29.81-.75,1.52-1.38,2.13-.63.61-1.36,1.08-2.2,1.38l-.5-.8c.67-.23,1.28-.57,1.82-1.02s.97-.98,1.28-1.58c.31-.6.48-1.24.48-1.91v-.8h-3.25v-.83h7.41v.83h-3.2v.78c0,.61.15,1.19.45,1.75ZM211.18,715.05c.67.2,1.19.48,1.55.85s.54.81.54,1.33-.18.98-.54,1.35-.88.66-1.55.86-1.48.29-2.41.29-1.75-.1-2.42-.29c-.68-.2-1.2-.48-1.56-.86-.36-.38-.54-.83-.54-1.35,0-.52.17-.96.54-1.33.36-.37.88-.65,1.56-.85s1.49-.29,2.42-.29,1.74.1,2.41.29ZM206.89,715.77c-.54.14-.95.33-1.24.58s-.43.54-.43.88c0,.35.14.65.43.91s.7.45,1.24.59c.54.14,1.16.2,1.88.2s1.34-.07,1.88-.2c.53-.14.95-.33,1.23-.59s.43-.56.43-.91-.14-.62-.43-.88-.7-.44-1.23-.58c-.53-.14-1.16-.2-1.88-.2s-1.35.07-1.88.2ZM213.16,709.62h2.12v.83h-2.12v3.91h-.98v-8.36h.98v3.62Z"/><path d="M228.82,714.13h-12.56v-.81h12.56v.81ZM225.08,706.8c.72.22,1.28.53,1.68.93.39.41.59.89.59,1.46s-.2,1.05-.59,1.46c-.39.41-.95.72-1.68.94s-1.58.32-2.56.32-1.84-.11-2.57-.32-1.29-.53-1.68-.94-.59-.89-.59-1.46.2-1.06.59-1.46.95-.72,1.67-.93c.72-.21,1.58-.32,2.57-.32s1.84.11,2.56.32ZM227.43,719.45h-9.52v-4h1v3.17h8.52v.83ZM220.51,707.53c-.58.16-1.02.38-1.34.66s-.47.62-.46,1c0,.39.15.72.46,1s.76.5,1.34.66,1.25.23,2.02.23,1.44-.08,2.02-.23,1.02-.37,1.34-.66c.31-.28.47-.62.47-1s-.16-.71-.47-1c-.32-.29-.76-.51-1.34-.66s-1.25-.24-2.02-.24c-.77,0-1.44.09-2.02.24Z"/><path d="M238.05,718.55h-1.12v-10.16h-.06l-2.67,1.77v-1.14l2.7-1.78h1.16v11.31Z"/><path d="M245.63,712.74c.31.73.74,1.39,1.27,1.96.53.58,1.12,1.02,1.76,1.34l-.59.77c-.76-.38-1.44-.94-2.04-1.68s-1.04-1.57-1.32-2.5c-.29.99-.75,1.88-1.38,2.66-.63.79-1.34,1.38-2.13,1.77l-.59-.75c.66-.31,1.26-.77,1.81-1.37.55-.6.99-1.28,1.31-2.05.33-.77.49-1.56.49-2.36v-1.28h-3.25v-.81h3.23v-2.22h.98v2.22h3.2v.81h-3.22v1.28c0,.75.16,1.48.47,2.21ZM251.3,711.74h2.38v.86h-2.38v7.17h-.98v-13.78h.98v5.75Z"/><path d="M269.32,711.18h-4.16v1.89h5.78v.83h-12.56v-.83h5.8v-1.89h-4.16v-4.61h9.3v4.61ZM269.37,719.77h-.98v-3.48h-8.61v-.81h9.59v4.3ZM260.99,710.37h7.36v-2.98h-7.36v2.98Z"/><path d="M284.83,718.02h-12.62v-.83h3.64v-3.5h-2.47v-.84h2.25v-4.69h-2.27v-.83h10.2v.83h-2.27v4.69h2.25v.84h-2.47v3.5h3.75v.83ZM280.33,712.85v-4.69h-3.72v4.69h3.72ZM280.1,717.2v-3.5h-3.25v3.5h3.25Z"/><path d="M295.18,712.29c.36.8.83,1.51,1.42,2.14.59.62,1.21,1.09,1.86,1.39l-.61.78c-.52-.26-1.02-.62-1.51-1.07s-.92-.98-1.29-1.57c-.38-.59-.67-1.22-.89-1.88-.21.7-.5,1.36-.88,1.98s-.8,1.18-1.29,1.66c-.48.48-.99.86-1.51,1.13l-.64-.83c.65-.31,1.27-.78,1.86-1.43s1.06-1.38,1.42-2.21.54-1.66.54-2.5v-2.66h.98v2.66c0,.8.17,1.6.53,2.41ZM301.21,719.79h-.98v-13.8h.98v13.8Z"/><path d="M308.71,710.39c.3.55.71,1.04,1.23,1.46.52.42,1.11.74,1.77.96l-.48.77c-.79-.27-1.49-.68-2.09-1.22s-1.05-1.18-1.34-1.9c-.29.81-.75,1.52-1.38,2.13-.63.61-1.36,1.08-2.2,1.38l-.5-.8c.67-.23,1.28-.57,1.82-1.02s.97-.98,1.28-1.58c.31-.6.48-1.24.48-1.91v-.8h-3.25v-.83h7.41v.83h-3.2v.78c0,.61.15,1.19.45,1.75ZM312.48,715.05c.67.2,1.19.48,1.55.85s.54.81.54,1.33-.18.98-.54,1.35-.88.66-1.55.86-1.48.29-2.41.29-1.75-.1-2.42-.29c-.68-.2-1.2-.48-1.56-.86-.36-.38-.54-.83-.54-1.35,0-.52.17-.96.54-1.33.36-.37.88-.65,1.56-.85s1.49-.29,2.42-.29,1.74.1,2.41.29ZM308.19,715.77c-.54.14-.95.33-1.24.58s-.43.54-.43.88c0,.35.14.65.43.91s.7.45,1.24.59c.54.14,1.16.2,1.88.2s1.34-.07,1.88-.2c.53-.14.95-.33,1.23-.59s.43-.56.43-.91-.14-.62-.43-.88-.7-.44-1.23-.58c-.53-.14-1.16-.2-1.88-.2s-1.35.07-1.88.2ZM314.46,709.62h2.12v.83h-2.12v3.91h-.98v-8.36h.98v3.62Z"/><path d="M318.69,715.8c1.5,0,2.93-.03,4.29-.1,1.35-.07,2.64-.19,3.85-.37l.08.75c-.98.18-2,.32-3.06.4-1.06.09-2.04.14-2.94.16-.9.02-1.94.03-3.12.03l-.16-.88h1.06ZM323.97,707.43c.56.27.99.64,1.3,1.12s.47,1.04.48,1.66c0,.63-.16,1.19-.48,1.67s-.75.86-1.3,1.12-1.19.4-1.91.4-1.35-.13-1.91-.4c-.56-.27-1-.64-1.31-1.12s-.47-1.04-.47-1.66.16-1.17.47-1.66c.31-.48.75-.86,1.31-1.13.56-.27,1.19-.4,1.91-.4s1.35.13,1.91.4ZM320.67,708.2c-.41.2-.74.47-.97.82s-.35.75-.34,1.19c0,.44.11.84.34,1.2s.56.63.97.83.88.29,1.4.29c.52,0,.99-.09,1.4-.29.41-.2.73-.47.97-.83s.35-.75.35-1.2-.12-.84-.35-1.19-.56-.63-.97-.82c-.41-.2-.88-.3-1.4-.3s-.99.1-1.4.3ZM328.77,719.79h-.98v-13.8h.98v13.8Z"/><path d="M341.23,707c.52.22.92.54,1.2.94.29.41.43.88.43,1.41,0,.48-.12.91-.36,1.29-.24.38-.57.69-1.01.93-.44.24-.94.38-1.51.44v1.45c1.53-.08,2.87-.21,4.02-.38l.08.75c-1.31.23-2.69.39-4.13.46-1.44.08-2.97.11-4.59.11l-.12-.84h.7c1.04,0,2.06-.02,3.06-.05v-1.49c-.58-.05-1.1-.2-1.55-.43-.45-.23-.79-.54-1.04-.93-.25-.39-.37-.82-.37-1.31,0-.54.14-1.01.43-1.41.29-.41.69-.72,1.2-.94s1.11-.33,1.77-.33,1.26.11,1.77.33ZM338.17,707.68c-.38.16-.67.39-.88.68-.21.29-.31.62-.3.99,0,.37.1.7.3.99.21.29.5.52.88.68.38.16.81.25,1.29.25.48,0,.91-.09,1.29-.25s.67-.39.88-.68c.21-.29.31-.62.32-.99,0-.37-.11-.7-.32-.99-.21-.29-.5-.52-.88-.68s-.8-.25-1.29-.25-.91.08-1.29.25ZM346.43,719.43h-9.11v-3.8h.98v2.95h8.12v.84ZM345.91,710.77h2.16v.84h-2.16v4.94h-.98v-10.56h.98v4.78Z"/><path d="M354.18,710.63c.3.57.72,1.07,1.25,1.51.53.44,1.12.77,1.76.99l-.52.8c-.78-.29-1.47-.72-2.08-1.3-.6-.57-1.05-1.23-1.34-1.96-.29.82-.75,1.54-1.39,2.17s-1.36,1.11-2.19,1.43l-.52-.81c.66-.23,1.26-.58,1.81-1.05.54-.46.98-1,1.29-1.62.32-.61.48-1.25.48-1.91v-.86h-3.23v-.84h7.41v.84h-3.19v.86c0,.6.15,1.18.46,1.75ZM360.83,719.45h-9.16v-4.25h.98v3.42h8.17v.83ZM360.43,716.12h-.98v-5.41h-3.03v-.83h3.03v-3.89h.98v10.12Z"/><path d="M371.16,708.59h-8.22v-.83h3.62v-1.75h.97v1.75h3.62v.83ZM368.77,709.75c.5.21.88.51,1.16.89s.41.83.41,1.34-.14.96-.41,1.34-.66.67-1.16.88c-.5.21-1.07.31-1.71.31s-1.23-.1-1.73-.31c-.5-.21-.88-.5-1.16-.88s-.41-.83-.41-1.34.14-.96.41-1.34.66-.68,1.16-.89c.5-.21,1.07-.31,1.73-.31s1.22.11,1.71.32ZM365.81,710.45c-.36.15-.64.35-.83.62s-.29.57-.29.91c0,.34.09.64.29.9s.47.47.83.61.77.21,1.24.21c.46,0,.87-.06,1.23-.21.35-.14.63-.35.83-.61.2-.26.3-.56.3-.9,0-.34-.11-.65-.3-.91-.2-.27-.47-.47-.83-.62-.35-.15-.76-.22-1.23-.22s-.88.07-1.24.22ZM374.3,719.45h-9.2v-3.95h.97v3.12h8.23v.83ZM373.63,710.65h2.12v.84h-2.12v4.84h-.98v-10.34h.98v4.66Z"/><path d="M393.21,718.01h-12.62v-.86h5.77v-3.39h-4.59v-.81h2.25v-4.73h-2.27v-.83h10.2v.83h-2.27v4.73h2.25v.81h-4.61v3.39h5.89v.86ZM388.71,712.95v-4.73h-3.72v4.73h3.72Z"/><path d="M399.41,709.83c.31.57.73,1.07,1.27,1.51.53.43,1.12.76,1.77.98l-.52.8c-.79-.29-1.49-.72-2.1-1.29s-1.06-1.22-1.35-1.96c-.29.81-.74,1.53-1.36,2.16s-1.33,1.09-2.14,1.41l-.52-.78c.66-.24,1.25-.59,1.79-1.07s.96-1.02,1.28-1.64.47-1.27.48-1.94v-1.52h.94v1.56c0,.61.15,1.21.46,1.78ZM397.97,716.05h6.81v-1.84h.97v5.36h-8.75v-5.36h.97v1.84ZM404.79,718.76v-1.91h-6.81v1.91h6.81ZM405.76,713.52h-.97v-3.95h-3.22v-.83h3.22v-2.75h.97v7.53Z"/><path d="M417.93,707.67c.53.39.94.95,1.24,1.67s.45,1.56.45,2.51-.15,1.79-.45,2.51-.71,1.28-1.24,1.67c-.53.39-1.13.59-1.8.59s-1.28-.2-1.81-.59c-.53-.39-.94-.95-1.23-1.67-.29-.72-.44-1.56-.44-2.51s.15-1.79.44-2.51c.29-.72.71-1.28,1.23-1.67.53-.39,1.13-.59,1.81-.59s1.27.2,1.8.59ZM414.82,708.45c-.38.33-.68.79-.9,1.38-.22.59-.32,1.26-.32,2.02s.11,1.43.32,2.02c.22.59.52,1.05.9,1.38s.82.49,1.31.49.92-.16,1.3-.49c.38-.33.68-.78.89-1.38.21-.59.32-1.27.32-2.03s-.11-1.43-.32-2.02c-.21-.59-.51-1.05-.89-1.38-.38-.33-.82-.49-1.3-.49s-.93.16-1.31.49ZM423.41,719.79h-.98v-13.8h.98v13.8Z"/><path d="M438.55,715.76h-5.86v4.03h-.98v-4.03h-5.78v-.84h12.62v.84ZM437.74,708.45h-11.14v-.83h5.11v-1.73h.98v1.73h5.05v.83ZM434.57,709.59c.66.18,1.17.44,1.52.78s.53.75.53,1.24-.18.88-.53,1.22-.86.6-1.52.78-1.45.27-2.37.27-1.71-.09-2.37-.27-1.17-.44-1.52-.78c-.35-.34-.52-.75-.52-1.22,0-.48.17-.9.52-1.24.35-.34.85-.6,1.52-.78.66-.18,1.45-.27,2.38-.27s1.71.09,2.38.27ZM430.38,710.27c-.51.12-.91.3-1.18.52-.27.23-.4.5-.4.81,0,.31.13.57.4.8s.67.4,1.18.52c.51.12,1.11.18,1.81.17.7,0,1.3-.05,1.81-.17.51-.12.9-.29,1.18-.52s.41-.49.42-.8c0-.31-.14-.58-.42-.81s-.67-.4-1.18-.52c-.51-.12-1.11-.18-1.81-.18s-1.3.06-1.82.18Z"/><path d="M448.95,712.52c.92-.06,1.85-.19,2.77-.38l.14.83c-.94.18-1.86.3-2.76.38s-1.98.11-3.25.11h-1.55v-6.25h6.11v.83h-5.12v4.58h.06c1.48,0,2.68-.03,3.6-.09ZM455.02,719.45h-9.2v-4.47h.97v3.64h8.23v.83ZM454.35,710.2h2.14v.83h-2.14v4.95h-.98v-10h.98v4.22Z"/><path d="M466.43,719.04h-.95v-4.86h-2.75v-.83h2.75v-2.64h-2.52c-.35,1.21-.93,2.33-1.73,3.36s-1.85,1.92-3.12,2.69l-.59-.72c1.5-.9,2.66-1.98,3.48-3.26s1.29-2.66,1.4-4.16h-4.34v-.84h5.3c0,.75-.07,1.45-.2,2.11h2.33v-3.5h.95v12.66ZM469.19,719.77h-.95v-13.78h.95v13.78Z"/><path d="M476.38,710.37c.3.57.72,1.07,1.25,1.5.53.43,1.11.77,1.77,1l-.52.78c-.79-.29-1.48-.72-2.08-1.29s-1.05-1.22-1.34-1.95c-.29.81-.75,1.53-1.39,2.16s-1.36,1.1-2.19,1.43l-.52-.78c.66-.24,1.26-.59,1.81-1.06.54-.47.98-1,1.29-1.62.32-.61.48-1.25.48-1.9v-.81h-3.23v-.83h7.41v.83h-3.19v.8c0,.6.15,1.18.46,1.75ZM482.63,719.77h-.98v-3.92h-8.22v-.81h9.2v4.73ZM482.63,714.26h-.98v-3.73h-2.98v-.83h2.98v-3.7h.98v8.27Z"/><path d="M497.72,717.88h-12.62v-.84h12.62v.84ZM493.94,707.41c.76.31,1.36.75,1.79,1.32s.64,1.22.64,1.95-.21,1.39-.64,1.95-1.02,1-1.79,1.31c-.76.31-1.62.46-2.57.45-.95,0-1.8-.15-2.56-.45s-1.35-.75-1.78-1.31-.64-1.22-.64-1.95.21-1.39.64-1.95,1.02-1.01,1.78-1.32,1.61-.47,2.56-.48c.95,0,1.81.16,2.57.48ZM489.29,708.12c-.62.25-1.1.6-1.46,1.05-.35.45-.53.95-.53,1.52s.18,1.07.53,1.51c.35.44.84.79,1.46,1.03s1.31.37,2.07.37,1.46-.12,2.07-.37,1.1-.59,1.46-1.03c.35-.44.53-.95.53-1.51s-.18-1.07-.53-1.52c-.35-.45-.84-.8-1.46-1.05s-1.31-.38-2.07-.38-1.46.12-2.07.38Z"/><path d="M511.55,718.01h-12.62v-.84h5.78v-2.78h-4.16v-4.12h8.39v-2.38h-8.44v-.83h9.41v4.03h-8.39v2.47h8.72v.83h-4.55v2.78h5.86v.84Z"/><path d="M522.92,709.97c-.53.92-1.28,1.72-2.25,2.38-.97.67-2.12,1.19-3.45,1.58l-.42-.78c1.14-.33,2.13-.75,2.98-1.28s1.53-1.14,2.02-1.84c.5-.7.79-1.46.86-2.29h-5.18v-.83h6.23c0,1.11-.27,2.13-.8,3.05ZM527.97,719.57h-8.89v-5.06h8.89v5.06ZM520.05,718.74h6.95v-3.44h-6.95v3.44ZM527.97,713.91h-.98v-3.44h-3.25v-.83h3.25v-3.66h.98v7.92Z"/><path d="M541.58,714.09h-4.38v3.06h5.86v.83h-12.62v-.83h5.78v-3.06h-4.11v-6.91h9.3v.83h-8.3v2.14h8.02v.83h-8.02v2.3h8.47v.81Z"/><rect x="85.93" y="333.25" width="550.25" height="33.53" fill="#1a2a66"/><rect x="636.18" y="333.25" width="550.25" height="33.53" fill="#1a2a66"/><rect x="85.93" y="399.45" width="550.25" height=".86" fill="#d8e0f0"/><rect x="636.18" y="399.45" width="550.25" height=".86" fill="#d8e0f0"/><rect x="85.93" y="432.12" width="550.25" height=".86" fill="#d8e0f0"/><rect x="636.18" y="432.12" width="550.25" height=".86" fill="#d8e0f0"/><rect x="85.93" y="465.65" width="550.25" height=".86" fill="#d8e0f0"/><rect x="636.18" y="465.65" width="550.25" height=".86" fill="#d8e0f0"/><path d="M107.54,345.28c0,.73-.02,1.38-.05,1.94-.03.56-.12,1.2-.25,1.91h1.52v1.3h-4.47v4.63h-1.61v-4.63h-4.37v-1.3h7.31c.13-.66.22-1.27.26-1.82.04-.55.06-1.14.06-1.77h-6.44v-1.29h8.04v1.03Z" fill="#fff"/><path d="M119.67,350.72h-4.32v1.85h-1.59v-1.85h-4.58v-1.26h10.49v1.26ZM118.51,354.84h-8.1v-3.17h1.59v1.89h6.51v1.28ZM112.11,345.14h4.6v-1.2h1.6v4.71h-7.78v-4.71h1.59v1.2ZM116.71,347.38v-1.04h-4.6v1.04h4.6Z" fill="#fff"/><path d="M650.64,350.84c1.07-.03,2.08-.14,3.04-.32l.16,1.38c-1.32.23-2.66.34-4.03.34h-.78v-7.39h1.61v5.99ZM658.44,355.04h-1.55v-5.73h-1.07v5.18h-1.51v-10.72h1.51v4.24h1.07v-4.43h1.55v11.46Z" fill="#fff"/><path d="M669.9,350.29h-10.45v-1.28h2.36v-1.37c-.42-.19-.75-.42-.97-.71s-.34-.6-.34-.97c0-.46.17-.85.51-1.19.34-.33.83-.59,1.45-.77.63-.18,1.37-.26,2.22-.26s1.57.09,2.2.26c.62.18,1.11.43,1.45.77.34.33.52.73.52,1.19,0,.37-.12.69-.35.98-.23.29-.56.52-1,.71v1.36h2.41v1.28ZM666.79,351.14c.6.16,1.05.39,1.37.7.32.31.48.68.49,1.12,0,.44-.17.82-.49,1.13s-.78.55-1.37.71c-.6.16-1.31.24-2.13.24s-1.56-.08-2.16-.24c-.6-.16-1.06-.4-1.38-.71-.32-.31-.48-.69-.48-1.13s.16-.81.48-1.12c.32-.31.78-.54,1.38-.7.6-.16,1.32-.24,2.16-.24s1.54.08,2.13.24ZM662.8,345.23c-.43.17-.64.41-.64.73,0,.31.21.55.64.71.43.16,1.05.24,1.87.24s1.43-.08,1.86-.24c.43-.16.65-.39.65-.71s-.22-.56-.65-.73c-.43-.17-1.05-.25-1.86-.25s-1.44.08-1.87.25ZM662.28,352.95c-.01.59.78.88,2.38.88s2.37-.29,2.38-.88c-.01-.56-.81-.84-2.38-.84s-2.39.28-2.38.84ZM665.89,349.01v-.96c-.36.04-.77.06-1.22.06-.48,0-.89-.02-1.25-.07v.96h2.47Z" fill="#fff"/><path d="M102.04,386.55h-1.15v-7.93h-.05l-2.22,1.47v-1.15l2.27-1.51h1.15v9.12Z" fill="#16223d"/><path d="M107.9,381.78c.24.58.57,1.11,1,1.57.43.47.91.83,1.44,1.08l-.58.77c-.61-.3-1.15-.74-1.62-1.31s-.82-1.23-1.05-1.96c-.24.78-.61,1.47-1.1,2.09-.49.62-1.06,1.08-1.7,1.38l-.57-.77c.54-.25,1.03-.62,1.46-1.1.43-.48.78-1.03,1.03-1.64.25-.61.38-1.23.38-1.87v-.89h-2.57v-.81h2.56v-1.74h1v1.74h2.52v.81h-2.54v.89c0,.59.12,1.17.36,1.75ZM112.48,380.98h1.88v.84h-1.88v5.76h-.98v-11.2h.98v4.6Z" fill="#16223d"/><path d="M126.59,380.64h-3.31v1.44h4.61v.81h-10.2v-.81h4.61v-1.44h-3.29v-3.78h7.58v3.78ZM126.62,387.58h-1v-2.73h-6.81v-.79h7.81v3.53ZM119.97,379.84h5.63v-2.19h-5.63v2.19Z" fill="#16223d"/><path d="M138.82,386.2h-10.25v-.82h2.86v-2.67h-1.93v-.82h1.75v-3.65h-1.78v-.82h8.36v.82h-1.78v3.65h1.75v.82h-1.93v2.67h2.93v.82ZM135.09,381.89v-3.65h-2.86v3.65h2.86ZM134.9,385.38v-2.67h-2.48v2.67h2.48Z" fill="#16223d"/><path d="M146.82,381.36c.27.65.64,1.23,1.11,1.74.47.51.97.89,1.52,1.13l-.6.78c-.64-.32-1.22-.78-1.73-1.41-.52-.62-.91-1.33-1.17-2.12-.26.84-.65,1.6-1.17,2.26-.52.67-1.11,1.16-1.76,1.5l-.63-.83c.55-.26,1.06-.65,1.52-1.17.47-.52.84-1.12,1.11-1.8.28-.68.42-1.36.42-2.06v-2.04h.98v2.04c0,.66.13,1.32.4,1.97ZM151.67,387.6h-1v-11.22h1v11.22Z" fill="#16223d"/><path d="M157.46,379.89c.23.44.55.83.96,1.16s.89.59,1.44.77l-.47.78c-.64-.21-1.2-.53-1.67-.95s-.84-.92-1.08-1.49c-.24.64-.61,1.2-1.1,1.68-.5.48-1.08.84-1.75,1.09l-.5-.79c.55-.19,1.05-.47,1.48-.83.43-.37.77-.79,1.01-1.28.24-.48.36-.99.37-1.52v-.48h-2.56v-.82h6.05v.82h-2.52v.48c0,.48.11.94.34,1.38ZM160.46,383.69c.55.16.98.4,1.27.7s.44.67.44,1.1-.15.8-.44,1.11-.72.55-1.27.71c-.55.16-1.21.24-1.98.24s-1.43-.08-1.98-.24c-.56-.16-.99-.4-1.28-.71-.3-.31-.45-.68-.45-1.11s.15-.79.45-1.1c.3-.31.73-.54,1.28-.7.56-.16,1.22-.24,1.98-.24s1.42.08,1.98.24ZM157.03,384.39c-.41.1-.73.24-.94.43-.22.19-.33.41-.32.67,0,.26.1.49.32.68.22.19.53.34.94.44.41.1.9.15,1.46.15s1.05-.05,1.46-.15c.41-.1.72-.25.94-.44.22-.19.33-.42.33-.68s-.11-.48-.33-.67-.53-.33-.94-.43c-.41-.1-.9-.15-1.46-.15s-1.04.05-1.45.15ZM162.08,379.24h1.69v.83h-1.69v3.07h-.98v-6.76h.98v2.86Z" fill="#16223d"/><path d="M657.58,377.81c0,.6-.02,1.15-.05,1.63-.03.49-.12,1.04-.25,1.65h1.64v.82h-10.25v-.82h7.61c.13-.62.22-1.17.25-1.66.04-.48.05-1.03.05-1.63h0s-6.62-.01-6.62-.01v-.82h7.61v.83ZM657.63,387.42h-7.7v-3.96h7.7v3.96ZM650.91,386.62h5.73v-2.37h-5.73v2.37Z" fill="#16223d"/><path d="M669.76,382.44h-2.54v1.55c.42.17.74.39.96.65.22.27.33.58.34.94,0,.42-.16.78-.47,1.08-.31.3-.75.53-1.32.68-.58.16-1.26.24-2.07.24-.81,0-1.5-.08-2.08-.24-.58-.16-1.02-.38-1.33-.68s-.46-.66-.46-1.08c0-.36.12-.68.35-.95.23-.27.56-.49,1-.65v-1.53h-2.58v-.81h10.2v.81ZM666.76,376.86c.59.17,1.05.41,1.37.72.32.32.48.69.48,1.13s-.16.81-.48,1.12c-.32.31-.78.55-1.37.71s-1.3.25-2.1.25-1.52-.08-2.12-.25c-.6-.16-1.05-.4-1.37-.71s-.48-.69-.48-1.12.16-.81.48-1.13c.32-.31.78-.56,1.37-.72.6-.17,1.3-.25,2.12-.25s1.51.08,2.1.25ZM663.09,377.55c-.44.1-.78.25-1.02.45s-.36.43-.35.71c0,.27.11.5.35.7s.58.34,1.02.45c.44.1.97.15,1.57.15s1.12-.05,1.56-.15c.44-.1.79-.25,1.03-.45.24-.2.36-.43.36-.7s-.12-.51-.36-.71c-.24-.2-.58-.35-1.03-.45-.44-.1-.96-.15-1.56-.15s-1.13.05-1.57.15ZM662.55,384.68c-.5.21-.75.51-.75.89,0,.39.24.68.75.89s1.21.31,2.11.31,1.6-.1,2.1-.31.76-.51.76-.89-.25-.68-.76-.89-1.21-.32-2.1-.33c-.91,0-1.61.12-2.11.33ZM666.22,383.72v-1.28h-3.09v1.27c.45-.08.96-.11,1.52-.11.59,0,1.11.04,1.56.12Z" fill="#16223d"/><path d="M674.36,382.38c1.24-.05,2.42-.16,3.53-.32l.06.74c-.99.18-2.07.31-3.26.38v4.05h-.98v-3.99c-.74.03-1.79.05-3.15.06l-.14-.84c1.38,0,2.69-.03,3.94-.08ZM675.62,377.21c.43.19.77.46,1.02.81.25.35.37.75.37,1.2s-.12.85-.37,1.2c-.25.35-.59.62-1.02.81-.43.19-.93.29-1.48.28-.55,0-1.05-.09-1.48-.28-.43-.19-.77-.46-1.02-.81-.25-.35-.37-.75-.37-1.2s.12-.85.37-1.2c.25-.35.58-.62,1.02-.81.43-.19.93-.28,1.48-.28.55,0,1.05.09,1.48.28ZM673.15,377.92c-.29.12-.52.3-.68.53-.16.23-.24.48-.24.77,0,.29.07.55.24.77.16.22.39.4.68.52.29.12.62.18.99.18.37,0,.71-.06,1-.18.29-.12.52-.3.68-.52.16-.22.25-.48.25-.77s-.08-.54-.25-.77c-.16-.23-.39-.4-.68-.53s-.62-.18-1-.18c-.37,0-.7.06-.99.18ZM679.68,387.59h-.97v-11.2h.97v11.2Z" fill="#16223d"/><path d="M694.53,382.54h-10.21v-.83h10.21v.83ZM691.48,383.76c.58.16,1.02.39,1.33.69.31.3.46.67.47,1.09,0,.43-.16.79-.47,1.1-.31.3-.75.53-1.32.69s-1.26.23-2.07.23-1.5-.08-2.08-.23c-.58-.16-1.02-.38-1.33-.69-.31-.3-.46-.67-.46-1.1s.15-.79.46-1.09c.31-.3.75-.53,1.33-.69.58-.16,1.27-.24,2.08-.24s1.49.08,2.06.24ZM693.33,380.64h-7.72v-3.8h7.64v.83h-6.67v2.17h6.75v.81ZM687.87,384.44c-.43.1-.76.24-.98.43-.23.19-.34.41-.33.66,0,.4.24.7.75.91.5.21,1.21.32,2.11.32s1.59-.11,2.1-.32c.51-.21.76-.52.76-.91,0-.26-.11-.48-.34-.66-.23-.19-.56-.33-.99-.43-.43-.1-.94-.15-1.53-.15-.6,0-1.11.06-1.54.15Z" fill="#16223d"/><path d="M705.44,383.37h-10.25v-.82h4.63v-1.18h-3.3v-2.73h6.6v-1.16h-6.64v-.81h7.63v2.71h-6.61v1.2h6.85v.79h-3.56v1.18h4.65v.82ZM704.18,387.47h-1v-2.44h-6.85v-.81h7.85v3.25Z" fill="#16223d"/><path d="M713.68,378.57h-3.21v5.39c.83,0,1.53-.03,2.11-.07s1.16-.12,1.75-.24l.09.83c-.64.13-1.27.22-1.89.26s-1.39.07-2.32.07h-.72v-7.05h4.19v.82ZM718.64,387.58h-.95v-5.87h-1.65v5.29h-.91v-10.36h.91v4.26h1.65v-4.51h.95v11.2Z" fill="#16223d"/><path d="M730.19,383.83h-4.67v3.74h-.97v-3.74h-4.61v-.81h10.25v.81ZM722.24,378.39h5.64v-1.55h1v4.82h-7.62v-4.82h.98v1.55ZM727.88,380.86v-1.66h-5.64v1.66h5.64Z" fill="#16223d"/><path d="M735.28,377.17c.41.18.74.43,1,.76.26.33.43.71.5,1.13h2.34v-2.68h1v6.01h-1v-2.51h-2.34c-.06.44-.23.82-.49,1.16s-.6.59-1.01.77-.87.27-1.37.27c-.56,0-1.06-.11-1.5-.33-.44-.22-.79-.52-1.03-.92-.25-.39-.37-.84-.37-1.35s.12-.95.37-1.34c.25-.39.59-.7,1.04-.92.44-.22.94-.33,1.5-.32.5,0,.95.08,1.35.26ZM732.92,377.97c-.3.15-.53.35-.7.62-.17.26-.25.57-.25.91s.08.64.25.91.4.48.7.63c.3.15.64.23,1.01.23s.71-.08,1-.23c.29-.15.52-.36.69-.63s.25-.57.25-.91-.08-.64-.25-.91c-.17-.26-.4-.47-.69-.62-.29-.15-.63-.22-1-.21-.38,0-.72.07-1.01.21ZM733.9,384.38h5.23v-1.42h1v4.47h-7.22v-4.47h1v1.42ZM739.13,386.62v-1.45h-5.23v1.45h5.23Z" fill="#16223d"/><path d="M745.3,381.61c.2.58.48,1.11.85,1.58s.8.84,1.3,1.11l-.57.74c-.55-.29-1.02-.71-1.42-1.26s-.7-1.16-.91-1.85c-.21.73-.51,1.4-.9,1.98s-.87,1.05-1.41,1.38l-.59-.75c.5-.29.93-.68,1.29-1.18.37-.5.65-1.06.84-1.67s.29-1.23.3-1.85v-.55h-2.13v-.82h2.13v-1.66h.94v1.66h2.09v.82h-2.1v.55c0,.6.1,1.19.3,1.78ZM749.04,387h-.93v-5.35h-1.76v-.84h1.76v-4.14h.93v10.34ZM751.3,387.58h-.95v-11.2h.95v11.2Z" fill="#16223d"/><path d="M760.26,377.39c.45.22.8.54,1.05.94.25.4.38.86.39,1.37,0,.52-.13.98-.39,1.38-.25.4-.6.72-1.05.94s-.95.34-1.51.34-1.07-.11-1.51-.34c-.45-.22-.8-.54-1.05-.94-.25-.4-.38-.86-.37-1.38,0-.51.12-.96.37-1.36.25-.4.6-.71,1.05-.94.45-.22.95-.33,1.51-.33.56,0,1.06.1,1.51.33ZM757.74,378.13c-.3.15-.54.36-.71.63-.17.27-.25.58-.25.93,0,.35.08.67.25.94.17.28.41.49.71.64.3.15.64.22,1.01.22.38,0,.72-.07,1.02-.22.3-.15.54-.36.71-.64.17-.27.25-.59.25-.94s-.08-.66-.25-.93c-.17-.27-.41-.48-.71-.63-.3-.15-.64-.23-1.02-.23s-.71.08-1.01.23ZM764.35,387.58h-.98v-3.2h-6.35v-.82h7.33v4.02ZM766.02,378.92h-1.66v1.57h1.66v.84h-1.66v1.7h-.98v-6.66h.98v1.74h1.66v.81Z" fill="#16223d"/><path d="M771.23,386.36c-.49-.22-.88-.52-1.15-.9-.27-.39-.41-.83-.4-1.32,0-.39.07-.75.24-1.08.16-.33.39-.61.67-.83.29-.22.6-.35.94-.41v-.05c-.3-.07-.56-.2-.79-.4s-.4-.44-.53-.72c-.12-.29-.19-.59-.19-.92,0-.46.12-.87.37-1.24s.59-.66,1.03-.87.93-.31,1.48-.31,1.04.1,1.48.31.78.5,1.04.86c.25.37.38.78.38,1.24,0,.33-.07.63-.2.92-.13.29-.31.53-.53.72s-.49.33-.78.4v.05c.34.05.65.19.93.41.28.22.51.49.67.83s.25.69.25,1.08c0,.49-.14.93-.42,1.32-.28.39-.66.69-1.15.9s-1.05.32-1.67.32-1.19-.11-1.68-.32ZM774.04,385.48c.32-.13.56-.32.74-.57.17-.24.26-.52.26-.84s-.09-.63-.27-.9c-.18-.27-.43-.47-.76-.63s-.68-.23-1.09-.23-.77.08-1.09.23-.58.36-.75.63c-.18.27-.27.57-.26.9,0,.32.07.6.24.84.17.24.42.43.73.57.32.13.69.2,1.13.2s.8-.07,1.12-.2ZM773.84,381.17c.27-.13.49-.31.64-.55s.23-.5.23-.81-.07-.56-.22-.79c-.15-.23-.36-.41-.63-.54-.27-.13-.58-.19-.94-.19s-.67.06-.94.19c-.27.13-.48.31-.63.54-.15.23-.22.5-.22.79s.08.57.23.81.37.42.64.55c.27.13.58.2.92.2s.65-.07.92-.2Z" fill="#16223d"/><path d="M777.6,389.14h-.93l.69-3.43h1.22l-.98,3.43Z" fill="#16223d"/><path d="M781.16,386.13c-.48-.37-.84-.9-1.09-1.6s-.37-1.55-.37-2.54.13-1.82.38-2.52c.25-.7.62-1.24,1.1-1.61.48-.37,1.05-.55,1.71-.55s1.23.18,1.71.55c.48.37.84.91,1.1,1.61s.38,1.54.38,2.52-.12,1.84-.37,2.54c-.25.7-.61,1.23-1.09,1.6s-1.05.55-1.72.55-1.25-.18-1.72-.55ZM784,385.25c.31-.29.55-.7.71-1.25.16-.55.25-1.22.25-2s-.08-1.45-.25-2c-.16-.55-.4-.98-.71-1.27-.31-.29-.68-.43-1.12-.43s-.81.14-1.12.43c-.31.29-.55.71-.72,1.27-.17.55-.25,1.22-.25,2s.08,1.45.25,2c.16.55.4.97.71,1.25.31.29.69.43,1.13.43s.81-.14,1.12-.43Z" fill="#16223d"/><path d="M788.58,386.13c-.48-.37-.84-.9-1.09-1.6s-.37-1.55-.37-2.54.13-1.82.38-2.52c.25-.7.62-1.24,1.1-1.61.48-.37,1.05-.55,1.71-.55s1.23.18,1.71.55c.48.37.84.91,1.1,1.61s.38,1.54.38,2.52-.12,1.84-.37,2.54c-.25.7-.61,1.23-1.09,1.6s-1.05.55-1.72.55-1.25-.18-1.72-.55ZM791.43,385.25c.31-.29.55-.7.71-1.25.16-.55.25-1.22.25-2s-.08-1.45-.25-2c-.16-.55-.4-.98-.71-1.27-.31-.29-.68-.43-1.12-.43s-.81.14-1.12.43c-.31.29-.55.71-.72,1.27-.17.55-.25,1.22-.25,2s.08,1.45.25,2c.16.55.4.97.71,1.25.31.29.69.43,1.13.43s.81-.14,1.12-.43Z" fill="#16223d"/><path d="M796.01,386.13c-.48-.37-.84-.9-1.09-1.6s-.37-1.55-.37-2.54.13-1.82.38-2.52c.25-.7.62-1.24,1.1-1.61.48-.37,1.05-.55,1.71-.55s1.23.18,1.71.55c.48.37.84.91,1.1,1.61s.38,1.54.38,2.52-.12,1.84-.37,2.54c-.25.7-.61,1.23-1.09,1.6s-1.05.55-1.72.55-1.25-.18-1.72-.55ZM798.85,385.25c.31-.29.55-.7.71-1.25.16-.55.25-1.22.25-2s-.08-1.45-.25-2c-.16-.55-.4-.98-.71-1.27-.31-.29-.68-.43-1.12-.43s-.81.14-1.12.43c-.31.29-.55.71-.72,1.27-.17.55-.25,1.22-.25,2s.08,1.45.25,2c.16.55.4.97.71,1.25.31.29.69.43,1.13.43s.81-.14,1.12-.43Z" fill="#16223d"/><path d="M805.6,382.04c-.65,1.24-1.73,2.29-3.25,3.13l-.58-.69c2.38-1.33,3.66-3.27,3.84-5.82h-3.41v-.82h4.38c0,1.56-.34,2.96-.99,4.2ZM811.33,387.58h-.97v-5.86h-1.55v5.3h-.94v-10.34h.94v4.22h1.55v-4.52h.97v11.2Z" fill="#16223d"/><path d="M816.8,381.31c.26.64.61,1.21,1.05,1.72.44.5.93.89,1.45,1.15l-.6.79c-.62-.32-1.17-.8-1.66-1.42-.49-.63-.86-1.33-1.11-2.1-.25.83-.62,1.57-1.12,2.24-.5.67-1.06,1.17-1.69,1.5l-.63-.79c.54-.26,1.04-.66,1.48-1.19s.8-1.13,1.06-1.8c.26-.67.4-1.34.4-2.01v-2.04h.97v2.04c0,.64.13,1.28.39,1.92ZM821.32,380.93h1.88v.86h-1.88v5.79h-.98v-11.2h.98v4.55Z" fill="#16223d"/><path d="M838.51,383.15h-12.54v-1h12.54v1Z" fill="#16223d"/><path d="M843.93,378.26h5.54v-1.42h.98v4.47h-3.27v1.2h4.61v.82h-10.2v-.82h4.61v-1.2h-3.25v-4.47h.98v1.42ZM850.65,387.34h-7.75v-3.12h1v2.29h6.75v.83ZM849.47,380.51v-1.47h-5.54v1.47h5.54Z" fill="#16223d"/><path d="M859.83,381.36c.27.65.64,1.23,1.11,1.74.47.51.97.89,1.52,1.13l-.6.78c-.64-.32-1.22-.78-1.74-1.41-.52-.62-.91-1.33-1.17-2.12-.26.84-.65,1.6-1.17,2.26-.52.67-1.11,1.16-1.76,1.5l-.63-.83c.55-.26,1.06-.65,1.52-1.17.47-.52.84-1.12,1.12-1.8.28-.68.42-1.36.42-2.06v-2.04h.98v2.04c0,.66.13,1.32.4,1.97ZM864.68,387.6h-.99v-11.22h.99v11.22Z" fill="#16223d"/><path d="M870.47,379.89c.23.44.55.83.96,1.16.41.33.89.59,1.44.77l-.47.78c-.64-.21-1.2-.53-1.67-.95s-.84-.92-1.08-1.49c-.24.64-.61,1.2-1.1,1.68-.5.48-1.08.84-1.75,1.09l-.5-.79c.55-.19,1.05-.47,1.48-.83s.77-.79,1.01-1.28c.24-.48.36-.99.37-1.52v-.48h-2.56v-.82h6.04v.82h-2.52v.48c0,.48.11.94.34,1.38ZM873.48,383.69c.55.16.98.4,1.27.7s.44.67.44,1.1-.15.8-.44,1.11-.72.55-1.27.71c-.55.16-1.21.24-1.98.24s-1.43-.08-1.98-.24c-.56-.16-.99-.4-1.29-.71s-.45-.68-.45-1.11.15-.79.45-1.1.73-.54,1.29-.7c.56-.16,1.22-.24,1.98-.24s1.42.08,1.98.24ZM870.05,384.39c-.41.1-.73.24-.94.43-.22.19-.33.41-.32.67,0,.26.1.49.32.68.22.19.53.34.94.44.41.1.9.15,1.46.15s1.05-.05,1.46-.15c.41-.1.72-.25.94-.44.22-.19.33-.42.33-.68s-.11-.48-.33-.67c-.22-.19-.53-.33-.94-.43s-.9-.15-1.46-.15-1.04.05-1.46.15ZM875.09,379.24h1.69v.83h-1.69v3.07h-.98v-6.76h.98v2.86Z" fill="#16223d"/><path d="M881.25,384.22c1.19-.05,2.33-.15,3.43-.31l.08.73c-1.12.21-2.27.34-3.44.4-1.17.06-2.46.09-3.89.09l-.14-.84c1.45,0,2.77-.02,3.96-.07ZM882.45,377.53c.46.22.81.53,1.07.93s.38.85.38,1.37-.13.97-.38,1.37c-.26.4-.61.71-1.07.93-.46.22-.97.33-1.56.33s-1.1-.11-1.56-.33-.82-.53-1.08-.93c-.26-.4-.38-.85-.38-1.37,0-.51.12-.97.38-1.37.26-.4.62-.71,1.08-.93s.98-.33,1.56-.33,1.1.11,1.56.33ZM879.83,378.29c-.31.15-.56.36-.73.62-.18.27-.26.57-.26.92,0,.34.08.65.26.92.18.27.42.47.73.62.31.15.67.22,1.06.22s.74-.08,1.05-.22c.31-.15.55-.36.73-.62.17-.27.26-.57.26-.92s-.09-.65-.26-.92c-.17-.27-.42-.47-.73-.62-.31-.15-.66-.22-1.05-.22s-.75.07-1.06.22ZM886.41,387.6h-.98v-11.22h.98v11.22Z" fill="#16223d"/><path d="M895.95,377.18c.42.18.75.44.99.78.24.33.35.72.35,1.16,0,.38-.09.72-.28,1.03-.19.31-.45.56-.79.76s-.74.32-1.18.38v1.1c1.14-.05,2.17-.15,3.09-.3l.08.74c-1.05.19-2.14.31-3.28.37s-2.38.08-3.71.08l-.13-.82h.58c.74,0,1.54-.01,2.38-.04v-1.13c-.46-.05-.86-.17-1.21-.37s-.62-.45-.81-.76-.28-.66-.28-1.04c0-.44.11-.82.34-1.16.23-.34.56-.6.98-.78s.9-.28,1.45-.28,1.02.09,1.45.28ZM893.55,377.86c-.28.12-.5.29-.66.51-.16.22-.23.47-.23.76,0,.28.07.52.23.74.16.22.37.38.66.51s.6.18.96.19c.36,0,.68-.07.96-.19.28-.12.5-.29.65-.51.16-.22.24-.46.24-.74,0-.29-.08-.54-.24-.76s-.37-.39-.65-.51c-.28-.12-.6-.18-.96-.18s-.68.06-.96.18ZM900.24,387.32h-7.52v-3.11h1v2.28h6.52v.83ZM899.83,380.18h1.68v.84h-1.68v3.93h-.99v-8.56h.99v3.79Z" fill="#16223d"/><path d="M906.22,380.1c.23.46.56.86.98,1.21.42.35.89.62,1.43.8l-.52.79c-.63-.23-1.17-.56-1.65-1.01-.47-.45-.83-.96-1.07-1.55-.24.65-.61,1.22-1.11,1.71-.5.49-1.07.86-1.74,1.11l-.52-.81c.55-.19,1.03-.47,1.47-.85.43-.37.77-.8,1.01-1.29.24-.49.37-1,.37-1.53v-.58h-2.53v-.82h6.03v.82h-2.51v.58c0,.48.12.95.35,1.4ZM911.58,387.34h-7.51v-3.48h1v2.64h6.51v.83ZM911.26,384.6h-1v-4.29h-2.3v-.82h2.3v-3.1h1v8.21Z" fill="#16223d"/><path d="M919.57,378.57h-6.67v-.81h2.85v-1.37h.98v1.37h2.85v.81ZM917.63,379.45c.41.17.72.42.95.73.23.31.34.68.35,1.1,0,.42-.12.78-.35,1.09s-.54.55-.95.72-.87.25-1.4.25-1-.08-1.41-.25-.73-.41-.95-.72-.33-.67-.33-1.09c0-.42.11-.79.33-1.1.22-.32.54-.56.95-.73s.88-.26,1.41-.26,1,.09,1.4.26ZM915.31,380.13c-.27.11-.47.26-.62.46s-.21.43-.21.69c0,.26.07.49.21.68s.35.35.62.45c.27.11.57.16.92.15.34,0,.65-.05.92-.15.27-.1.47-.25.62-.45s.22-.42.23-.68c0-.26-.08-.49-.23-.69s-.35-.35-.62-.46c-.27-.11-.57-.16-.92-.16s-.66.05-.92.16ZM922.14,387.34h-7.52v-3.22h.97v2.39h6.55v.83ZM921.62,380.08h1.69v.83h-1.69v3.87h-.98v-8.39h.98v3.69Z" fill="#16223d"/><path d="M931.44,377.52c.45.23.8.56,1.05.98.25.42.38.89.38,1.42s-.13,1.01-.38,1.43c-.25.42-.6.74-1.05.98s-.95.35-1.5.35-1.05-.12-1.5-.35-.8-.56-1.05-.98c-.25-.42-.38-.89-.38-1.43s.13-1,.38-1.42c.25-.42.6-.74,1.05-.98s.95-.35,1.5-.35,1.05.12,1.5.35ZM928.93,378.28c-.3.16-.54.38-.71.67-.17.29-.25.61-.25.97,0,.37.08.69.25.98.17.29.41.51.71.67s.64.24,1.01.24.7-.08,1-.24.54-.38.71-.67c.17-.29.26-.61.26-.98s-.09-.68-.26-.96c-.17-.29-.41-.51-.71-.67-.3-.16-.63-.24-1-.24s-.71.08-1.01.24ZM936.33,387.34h-7.58v-3.59h.98v2.76h6.6v.83ZM935.98,384.58h-.98v-8.19h.98v8.19Z" fill="#16223d"/><path d="M947.88,386.14h-10.25v-.84h10.25v.84ZM946.89,378.33h-1.78v3.92h1.75v.81h-8.31v-.81h1.75v-3.92h-1.78v-.82h8.36v.82ZM944.15,382.25v-3.92h-2.86v3.92h2.86Z" fill="#16223d"/><path d="M954.04,381.43h-4.08v2.62c1.11,0,2.06-.03,2.84-.08.78-.05,1.58-.16,2.38-.31l.1.82c-.84.16-1.66.26-2.47.32s-1.79.09-2.95.1h-.89v-4.28h4.08v-2.37h-4.11v-.82h5.09v4ZM957.18,380.84h1.88v.83h-1.88v5.93h-.98v-11.22h.98v4.46Z" fill="#16223d"/><path d="M962.35,384.55v-1.24c-.43-.05-.81-.17-1.14-.34-.33-.18-.58-.41-.75-.7-.17-.29-.26-.61-.25-.98,0-.42.1-.78.32-1.09.22-.31.53-.55.93-.73.4-.17.86-.26,1.39-.26s.97.09,1.38.26c.4.17.71.41.94.73.22.31.34.68.34,1.09,0,.37-.1.69-.28.98-.18.29-.43.52-.76.7s-.7.3-1.13.35v1.2c1.19-.06,2.22-.15,3.07-.28l.06.76c-1.08.18-2.2.3-3.34.36-1.14.05-2.38.08-3.72.08l-.16-.84c1.32,0,2.35-.01,3.09-.04ZM966.21,378.56h-6.75v-.81h2.88v-1.35h1v1.35h2.87v.81ZM961.95,380.14c-.26.11-.46.26-.61.46-.15.2-.22.43-.22.68s.07.48.21.68c.14.2.35.34.61.45.26.1.56.15.9.15.34,0,.63-.04.89-.15.26-.1.46-.25.6-.45.14-.19.21-.42.21-.68s-.07-.48-.21-.68c-.14-.2-.34-.35-.6-.46-.26-.11-.56-.16-.89-.16s-.64.05-.9.16ZM968.09,381.15h1.79v.83h-1.79v5.59h-1v-11.2h1v4.77Z" fill="#16223d"/><path d="M104.77,412.1h-6.33v-.81h2.72v-1.38h.98v1.38h2.63v.81ZM102.96,412.99c.39.18.69.43.91.75.22.32.32.7.32,1.12s-.11.79-.32,1.11c-.22.32-.52.58-.91.76-.39.18-.83.27-1.33.27s-.94-.09-1.32-.27-.68-.43-.9-.76c-.21-.32-.32-.69-.31-1.11,0-.42.1-.8.31-1.12.21-.32.51-.57.9-.75.38-.18.82-.27,1.32-.27s.94.09,1.33.27ZM100.79,413.68c-.25.11-.44.27-.57.48-.13.21-.2.44-.2.71s.07.5.2.7c.13.2.32.36.57.48s.53.17.84.17.6-.06.84-.17c.25-.11.44-.27.57-.48.14-.2.21-.44.21-.7,0-.26-.07-.5-.21-.71-.14-.21-.33-.37-.57-.48-.25-.11-.53-.17-.84-.18-.31,0-.6.06-.84.18ZM107.95,420.87h-7.49v-3.16h1v2.33h6.5v.83ZM107.7,418.46h-1v-2.41h-1.94v-.81h1.94v-1.52h-1.94v-.82h1.94v-2.99h1v8.54Z" fill="#16223d"/><path d="M112.9,414.92c.19.61.46,1.15.83,1.62.37.47.81.84,1.33,1.11l-.59.77c-.56-.3-1.03-.72-1.42-1.25-.39-.53-.68-1.15-.88-1.85-.19.79-.49,1.49-.88,2.08-.4.59-.89,1.06-1.47,1.4l-.62-.76c.53-.29.98-.69,1.35-1.19.37-.5.65-1.08.84-1.74.19-.66.28-1.37.28-2.13v-.89h-2.2v-.83h5.24v.83h-2.08v.89c0,.69.09,1.34.28,1.95ZM118.93,421.11h-.96v-5.82h-1.52v5.25h-.94v-10.39h.94v4.29h1.52v-4.53h.96v11.2Z" fill="#16223d"/><path d="M127.69,415.65c-.84,1.35-2.13,2.46-3.89,3.33l-.55-.78c1.44-.72,2.55-1.61,3.34-2.66.79-1.06,1.24-2.25,1.35-3.59h-4.18v-.83h5.18c0,1.67-.42,3.18-1.25,4.53ZM131.84,414.47h1.81v.83h-1.81v5.81h-.98v-11.2h.98v4.56Z" fill="#16223d"/><path d="M144.27,416.25h-10.21v-.79h4.62v-1.31h-3.33v-3.7h7.65v.79h-6.68v2.1h6.75v.81h-3.44v1.31h4.63v.79ZM141.22,417.3c.58.16,1.02.39,1.33.69.31.3.46.67.47,1.09,0,.43-.16.79-.47,1.1-.31.3-.75.53-1.32.69-.58.16-1.26.24-2.07.24-.81,0-1.5-.08-2.08-.24-.58-.16-1.02-.39-1.33-.69-.31-.3-.46-.67-.46-1.1s.15-.79.46-1.09c.31-.3.75-.53,1.33-.69.58-.16,1.27-.24,2.08-.24s1.48.08,2.06.24ZM137.62,417.99c-.43.1-.76.24-.99.42-.23.18-.34.41-.33.66,0,.26.11.48.33.67.23.18.56.33.99.42.43.1.94.14,1.54.14s1.1-.05,1.53-.14.76-.24.99-.42c.23-.19.34-.41.34-.67s-.11-.48-.34-.66c-.23-.18-.56-.33-.99-.42s-.94-.15-1.53-.15-1.11.05-1.54.15Z" fill="#16223d"/><path d="M652.84,413.63c.23.42.56.79.98,1.12.42.33.9.57,1.44.75l-.47.77c-.64-.21-1.2-.51-1.68-.92-.48-.41-.85-.89-1.09-1.44-.24.62-.6,1.16-1.09,1.62s-1.07.81-1.73,1.04l-.48-.79c.54-.18,1.02-.45,1.45-.8s.75-.76.99-1.22c.24-.46.36-.94.36-1.45v-.26h-2.53v-.81h2.53v-1.37h1v1.37h2.51v.81h-2.53v.26c0,.46.12.9.35,1.32ZM655.36,418.57c.35.44.82.8,1.4,1.1.58.3,1.22.5,1.9.61l-.42.78c-.88-.16-1.67-.45-2.37-.88-.71-.43-1.22-.97-1.54-1.6-.33.63-.85,1.16-1.56,1.6-.71.44-1.5.73-2.37.89l-.37-.78c.66-.11,1.29-.32,1.86-.62.58-.3,1.05-.67,1.4-1.1.35-.44.53-.9.54-1.4v-.24h1.01v.24c0,.51.17.98.52,1.42ZM657.95,417.68h-1v-3.75h-2.28v-.83h2.28v-3.19h1v7.77Z" fill="#16223d"/><path d="M671.82,418.21h-1v-4.31h-2.64v2.39h-5.08v-5.63h.98v1.99h3.12v-1.99h.97v2.41h2.64v-3.15h1v8.29ZM667.21,415.48v-2.04h-3.12v2.04h3.12ZM672.07,420.87h-7.49v-3.48h.99v2.64h6.5v.83Z" fill="#16223d"/><path d="M675.65,413.47c0,1.63.29,2.88.88,3.76.24-.36.43-.77.55-1.23.13-.46.21-.9.25-1.33.04-.43.06-.89.06-1.39v-1.2h-.69v-.81h2.67v.81h-1.11v1.2c0,.88.1,1.73.34,2.54.23.81.64,1.45,1.24,1.9l-.58.69c-.65-.52-1.12-1.34-1.4-2.48-.25,1.19-.69,2.06-1.34,2.59-.64-.55-1.08-1.44-1.32-2.65-.29,1.16-.75,2-1.4,2.53l-.59-.69c.59-.46,1-1.09,1.23-1.91.23-.82.35-1.66.35-2.53v-1.2h-1.17v-.81h2.75v.81h-.69v1.38ZM683.15,421.11h-.94v-5.79h-1.25v5.23h-.93v-10.39h.93v4.34h1.25v-4.58h.94v11.2Z" fill="#16223d"/><path d="M687.07,420.09l3.34-9.12h1.2l3.34,9.12h-1.2l-.91-2.57h-3.67l-.91,2.57h-1.18ZM692.48,416.52l-1.45-4.08h-.08l-1.45,4.08h2.97Z" fill="#16223d"/><path d="M695.91,410.97h3.2c.62,0,1.14.1,1.56.31s.73.5.94.86.31.78.31,1.24c0,.55-.14.97-.41,1.28-.27.3-.63.52-1.08.64v.09c.29.02.58.12.87.3.29.18.52.45.71.78.18.34.28.74.28,1.19s-.11.89-.32,1.25c-.22.36-.55.65-1.01.85-.46.21-1.03.31-1.72.31h-3.31v-9.12ZM699.97,414.77c.27-.13.48-.31.64-.55.16-.24.23-.51.23-.82,0-.42-.14-.76-.43-1.03-.29-.26-.72-.4-1.29-.4h-2.07v2.98h2.03c.33,0,.62-.06.89-.19ZM700.71,418.69c.32-.26.48-.6.48-1.03,0-.31-.08-.6-.24-.86-.16-.26-.38-.47-.67-.62-.29-.15-.63-.23-1-.23h-2.23v3.14h2.17c.68,0,1.17-.13,1.5-.39Z" fill="#16223d"/><path d="M703.64,410.97h1.13v8.11h4.23v1.01h-5.37v-9.12Z" fill="#16223d"/><path d="M716.83,414.84c.26.64.61,1.21,1.05,1.72.44.5.93.89,1.45,1.15l-.6.79c-.62-.32-1.17-.8-1.66-1.42-.49-.63-.86-1.33-1.11-2.1-.25.83-.62,1.57-1.12,2.24-.5.67-1.06,1.17-1.69,1.5l-.63-.79c.54-.26,1.04-.66,1.48-1.19s.8-1.13,1.06-1.8c.26-.67.4-1.34.4-2.01v-2.04h.97v2.04c0,.64.13,1.28.39,1.92ZM721.35,414.46h1.88v.86h-1.88v5.79h-.98v-11.2h.98v4.55Z" fill="#16223d"/><path d="M728.33,411.27c.43.32.77.78,1.01,1.36s.37,1.27.37,2.05-.12,1.47-.37,2.05c-.24.59-.58,1.04-1.01,1.36-.43.32-.93.48-1.48.48s-1.05-.16-1.48-.48c-.43-.32-.77-.77-1.01-1.36-.24-.59-.36-1.27-.36-2.05s.12-1.46.36-2.05c.24-.59.58-1.04,1.01-1.36.43-.32.93-.48,1.49-.49.55,0,1.05.17,1.48.49ZM725.85,412.04c-.29.25-.51.6-.67,1.06-.16.46-.24.98-.24,1.58s.08,1.13.24,1.58c.16.46.38.81.67,1.05.29.25.62.37.99.37s.7-.12.99-.37c.29-.25.51-.6.67-1.05.16-.46.24-.98.24-1.58s-.08-1.13-.24-1.58c-.16-.46-.38-.81-.67-1.06-.29-.25-.62-.38-.99-.38-.37,0-.7.13-.99.38ZM732.8,421.13h-.99v-11.22h.99v11.22Z" fill="#16223d"/><path d="M743.36,411.31c0,.6-.02,1.14-.05,1.61s-.11,1-.22,1.59h1.57v.81h-10.19v-.81h7.63c.1-.5.18-.99.22-1.45l-6.7.29-.13-.79,6.88-.21c0-.24.01-.59.01-1.04v-.04h-6.62v-.81h7.61v.84ZM743.45,418.98h-6.78v1.18h7.17v.79h-8.15v-2.73h6.78v-1.06h-6.8v-.77h7.78v2.58Z" fill="#16223d"/><path d="M750.83,410.58h.96c-.29.42-.56.96-.81,1.63-.25.67-.45,1.39-.61,2.16s-.23,1.52-.23,2.24.08,1.47.23,2.25c.15.78.36,1.5.61,2.17.25.67.52,1.21.81,1.63h-.96c-.59-.86-1.04-1.79-1.35-2.79s-.46-2.08-.47-3.25c.01-2.29.62-4.3,1.81-6.03Z" fill="#16223d"/><path d="M754.38,410.97l3.07,7.51h.11l3.07-7.51h1.36v9.12h-1.07v-6.89h-.09l-2.83,6.89h-1.01l-2.83-6.89h-.08v6.89h-1.07v-9.12h1.36Z" fill="#16223d"/><path d="M764.02,416.65c.49-.29,1.1-.46,1.84-.52.29-.02.61-.04.96-.06.35-.02.65-.03.89-.04v-.55c0-.44-.13-.78-.39-1.02-.26-.24-.65-.36-1.16-.36-.42,0-.76.08-1.02.25-.26.17-.44.39-.52.67h-1.13c.05-.37.19-.69.43-.97s.56-.5.95-.66c.4-.16.84-.24,1.34-.24.65,0,1.25.17,1.78.5.53.33.79.97.79,1.92v4.51h-1.07v-.93h-.05c-.08.18-.21.35-.39.51s-.4.3-.68.42-.6.17-.97.17c-.44,0-.83-.08-1.18-.25s-.63-.41-.84-.73c-.21-.32-.31-.69-.31-1.12,0-.71.24-1.21.73-1.5ZM764.77,419c.26.19.61.28,1.04.28.39,0,.73-.08,1.02-.23.29-.16.51-.36.66-.62s.23-.53.23-.83v-.69l-1.73.12c-.51.03-.91.14-1.19.33-.28.19-.42.46-.42.83s.13.62.39.8Z" fill="#16223d"/><path d="M773.6,414.33c-.23-.17-.54-.25-.92-.25-.28,0-.53.05-.75.14s-.39.21-.52.37c-.12.16-.19.33-.19.53,0,.23.1.42.29.58.19.16.49.29.88.38l1.02.25c.61.15,1.07.37,1.37.68.3.3.45.7.45,1.17,0,.4-.11.75-.32,1.06s-.52.55-.92.73c-.4.18-.88.26-1.44.26-.77,0-1.38-.17-1.83-.49-.45-.33-.72-.81-.81-1.43h1.13c.06.33.22.58.46.74.24.16.58.24,1.01.24.49,0,.87-.09,1.16-.28.29-.19.43-.44.43-.76,0-.24-.09-.45-.27-.61s-.46-.29-.85-.38l-1.03-.24c-.6-.14-1.05-.37-1.36-.68-.31-.32-.47-.7-.47-1.16,0-.39.11-.73.32-1.04.21-.31.51-.54.89-.72.38-.17.82-.26,1.32-.26.46,0,.87.08,1.22.23.35.16.63.37.84.66s.33.61.38.98h-1.06c-.08-.3-.23-.53-.46-.7Z" fill="#16223d"/><path d="M779.39,414.15h-1.44v3.97c0,.4.08.67.24.81s.38.21.66.21c.21,0,.42,0,.64-.03v1.01c-.22.03-.47.05-.76.05-.32,0-.62-.07-.91-.2-.29-.13-.52-.33-.7-.6-.18-.27-.27-.59-.27-.98v-4.24h-1.03v-.91h1.03v-1.64h1.1v1.64h1.44v.91Z" fill="#16223d"/><path d="M781.63,419.79c-.48-.29-.85-.7-1.11-1.23-.26-.53-.39-1.14-.39-1.84s.13-1.32.39-1.85c.26-.54.62-.96,1.09-1.26.47-.3,1.01-.45,1.62-.45.52,0,1,.11,1.44.34.44.23.81.6,1.09,1.11.28.51.42,1.16.42,1.96v.45h-4.96c.02.47.12.88.3,1.22s.43.59.74.76c.31.17.67.26,1.08.26s.71-.07.98-.22c.27-.14.47-.33.61-.56h1.16c-.11.34-.29.65-.54.91s-.57.47-.94.61c-.38.15-.79.22-1.26.22-.65,0-1.22-.14-1.7-.43ZM785.08,416.11c0-.38-.08-.72-.23-1.02-.15-.3-.37-.54-.65-.71-.28-.17-.6-.26-.97-.26s-.72.09-1.02.27c-.3.18-.53.42-.7.73s-.27.63-.29.99h3.86Z" fill="#16223d"/><path d="M787.33,413.25h1.04v1.05h.08c.13-.35.35-.63.67-.84s.69-.32,1.09-.32c.21,0,.4,0,.57.03v1.1s-.14-.03-.27-.05c-.13-.02-.26-.02-.39-.02-.32,0-.62.07-.88.21-.26.14-.47.33-.61.57-.15.24-.22.52-.22.82v4.31h-1.08v-6.84Z" fill="#16223d"/><path d="M794.7,410.97h5.49v1.01h-4.36v3.05h3.94v.99h-3.94v4.07h-1.13v-9.12Z" fill="#16223d"/><path d="M801.87,416.65c.49-.29,1.1-.46,1.84-.52.29-.02.61-.04.96-.06.35-.02.65-.03.89-.04v-.55c0-.44-.13-.78-.39-1.02-.26-.24-.65-.36-1.16-.36-.42,0-.76.08-1.02.25-.26.17-.44.39-.52.67h-1.13c.05-.37.19-.69.43-.97s.56-.5.95-.66c.4-.16.84-.24,1.34-.24.65,0,1.25.17,1.78.5.53.33.79.97.79,1.92v4.51h-1.07v-.93h-.05c-.08.18-.21.35-.39.51s-.4.3-.68.42-.6.17-.97.17c-.44,0-.83-.08-1.18-.25s-.63-.41-.84-.73c-.21-.32-.31-.69-.31-1.12,0-.71.24-1.21.73-1.5ZM802.62,419c.26.19.61.28,1.04.28.39,0,.73-.08,1.02-.23.29-.16.51-.36.66-.62s.23-.53.23-.83v-.69l-1.73.12c-.51.03-.91.14-1.19.33-.28.19-.42.46-.42.83s.13.62.39.8Z" fill="#16223d"/><path d="M809.25,419.77c-.47-.3-.83-.72-1.09-1.25-.25-.53-.38-1.14-.38-1.83s.13-1.3.39-1.84c.26-.54.62-.95,1.09-1.25.47-.3,1.01-.45,1.62-.45.48,0,.92.09,1.31.27.39.18.71.43.95.76.25.33.4.7.46,1.13h-1.08c-.05-.22-.15-.42-.29-.6-.14-.18-.33-.33-.55-.43s-.48-.16-.77-.16c-.4,0-.76.11-1.07.31-.31.21-.55.51-.72.89s-.25.83-.25,1.34.08.98.25,1.37.4.69.71.9.67.32,1.08.32.75-.1,1.04-.31c.29-.21.48-.5.57-.87h1.08c-.06.41-.21.78-.44,1.1-.23.33-.54.58-.93.77s-.83.28-1.32.28c-.63,0-1.19-.15-1.66-.45Z" fill="#16223d"/><path d="M814.69,411.91c-.15-.14-.22-.31-.22-.51s.07-.37.22-.51c.15-.14.33-.21.54-.21s.39.07.54.21.23.31.23.51-.08.37-.23.51-.33.21-.54.21-.39-.07-.54-.21ZM814.68,413.25h1.08v6.84h-1.08v-6.84Z" fill="#16223d"/><path d="M818.32,420.09h-1.08v-9.12h1.08v9.12Z" fill="#16223d"/><path d="M819.79,411.91c-.15-.14-.22-.31-.22-.51s.07-.37.22-.51c.15-.14.33-.21.54-.21s.39.07.54.21.23.31.23.51-.08.37-.23.51-.33.21-.54.21-.39-.07-.54-.21ZM819.78,413.25h1.08v6.84h-1.08v-6.84Z" fill="#16223d"/><path d="M825.32,414.15h-1.44v3.97c0,.4.08.67.24.81s.38.21.66.21c.21,0,.42,0,.64-.03v1.01c-.22.03-.47.05-.76.05-.32,0-.62-.07-.91-.2-.29-.13-.52-.33-.7-.6-.18-.27-.27-.59-.27-.98v-4.24h-1.03v-.91h1.03v-1.64h1.1v1.64h1.44v.91Z" fill="#16223d"/><path d="M826.55,422.63v-.97c.15.02.33.03.53.03.18,0,.33-.02.45-.06s.24-.13.37-.28c.12-.15.24-.38.35-.7l.2-.52-2.53-6.89h1.18l1.86,5.43h.08l1.86-5.43h1.18l-2.9,7.82c-.2.53-.47.93-.81,1.19-.34.26-.75.39-1.23.39-.22,0-.42,0-.6-.03Z" fill="#16223d"/><path d="M840.25,410.65c.44.21.78.5,1.03.88.25.38.37.8.37,1.28s-.12.91-.37,1.28c-.25.38-.59.67-1.03.88-.44.21-.93.31-1.49.31s-1.06-.1-1.5-.31c-.44-.21-.79-.5-1.03-.88-.25-.38-.37-.8-.37-1.28s.12-.91.37-1.28c.25-.38.59-.67,1.03-.88s.94-.32,1.5-.32c.55,0,1.05.11,1.49.32ZM837.77,411.37c-.3.14-.53.34-.7.59s-.25.53-.25.85c0,.32.08.61.25.86s.4.45.7.59.63.21,1,.21.7-.07.99-.21.53-.34.7-.59.25-.54.25-.86-.08-.6-.25-.85-.4-.45-.7-.59-.63-.21-.99-.21-.7.07-1,.21ZM844.83,418.9h-6.28v1.26h6.69v.79h-7.66v-2.8h6.27v-1.16h-6.3v-.79h7.28v2.7ZM844.83,415.67h-.98v-5.75h.98v5.75Z" fill="#16223d"/><path d="M847.93,412.4h2.49v-1.78h.93v5.21h-4.36v-5.21h.93v1.78ZM850.42,415.02v-1.83h-2.49v1.83h2.49ZM855.99,421.11h-.97v-2.97h-6.57v-.82h7.54v3.79ZM855.99,416.63h-.94v-2.98h-1.49v2.92h-.93v-6.44h.93v2.7h1.49v-2.91h.94v6.71Z" fill="#16223d"/><path d="M866.65,416.51h-1v-2.87h-2.34c-.07.45-.23.85-.5,1.19-.26.34-.6.61-1.01.8-.41.19-.86.28-1.36.28-.55,0-1.05-.11-1.49-.33-.44-.23-.79-.54-1.04-.95s-.38-.88-.38-1.4.13-.97.38-1.38c.25-.4.6-.72,1.04-.95.44-.23.94-.34,1.49-.34.5,0,.95.09,1.36.28.41.19.75.46,1.01.8.26.34.43.73.5,1.17h2.34v-2.9h1v6.6ZM859.45,411.63c-.3.16-.54.38-.71.65-.17.28-.25.59-.25.94s.08.68.25.96.41.5.71.66c.3.16.64.24,1,.24s.69-.08.99-.24c.3-.16.53-.38.7-.66s.25-.6.25-.96-.08-.66-.25-.94c-.17-.28-.4-.5-.7-.65s-.62-.24-.99-.24-.7.08-1,.24ZM866.65,421.13h-1v-3.19h-6.54v-.79h7.53v3.98Z" fill="#16223d"/><path d="M872.2,415.04c1.14-.04,2.23-.12,3.28-.26l.06.72c-.92.15-1.95.25-3.07.32v2.21h-1v-2.16c-.84.03-1.68.04-2.54.04h-.6l-.14-.81c1.54,0,2.87-.03,4.01-.07ZM873.31,410.62c.42.16.74.39.98.69.23.3.35.64.36,1.02,0,.39-.12.74-.36,1.03-.23.29-.56.52-.98.67s-.9.24-1.44.24-1.03-.08-1.45-.24c-.42-.16-.75-.38-.98-.67s-.35-.63-.35-1.03.12-.73.35-1.02.56-.52.98-.69c.42-.16.9-.24,1.45-.24s1.02.08,1.44.24ZM877.76,420.87h-7.96v-3.28h.99v2.44h6.96v.83ZM870.91,411.28c-.28.1-.49.24-.64.42-.15.18-.23.39-.22.63,0,.24.07.45.22.63.15.18.37.32.65.42s.6.15.96.15.66-.05.94-.15c.28-.1.49-.24.65-.42.16-.18.23-.39.24-.63,0-.24-.08-.44-.24-.63-.16-.18-.37-.32-.65-.42-.27-.1-.59-.15-.93-.14-.36,0-.68.04-.96.14ZM877.49,418.42h-.99v-1.16h-2.32v-.72h2.32v-6.62h.99v8.5Z" fill="#16223d"/><path d="M880,422.67h-.93l.69-3.43h1.22l-.98,3.43Z" fill="#16223d"/><path d="M887.51,411.79h5.54v-1.42h.98v4.47h-3.27v1.2h4.61v.82h-10.2v-.82h4.61v-1.2h-3.25v-4.47h.98v1.42ZM894.24,420.87h-7.75v-3.12h1v2.29h6.75v.83ZM893.05,414.04v-1.47h-5.54v1.47h5.54Z" fill="#16223d"/><path d="M903.21,415.14c.26.61.61,1.15,1.05,1.64.45.49.94.86,1.47,1.11l-.57.78c-.63-.3-1.19-.76-1.69-1.39-.5-.62-.88-1.31-1.14-2.08-.17.55-.4,1.06-.69,1.56s-.63.92-1.01,1.3c-.38.38-.78.67-1.19.88l-.6-.78c.53-.26,1.03-.64,1.49-1.17s.83-1.1,1.1-1.75c.28-.65.42-1.28.42-1.91v-1.46h-2.61v-.82h6.09v.82h-2.52v1.46c0,.59.12,1.19.38,1.79ZM907.7,414.44h1.88v.84h-1.88v5.82h-.98v-11.2h.98v4.53Z" fill="#16223d"/><path d="M920.18,419.72h-10.25v-.83h2.88v-2.13h-1.6v-3.45h6.7v-1.75h-6.73v-.82h7.7v3.39h-6.69v1.81h6.95v.82h-1.75v2.13h2.78v.83ZM916.42,418.89v-2.13h-2.64v2.13h2.64Z" fill="#16223d"/><path d="M924.84,417.75c1.19-.05,2.33-.15,3.43-.31l.08.73c-1.12.21-2.27.34-3.44.4-1.17.06-2.46.09-3.89.09l-.14-.84c1.45,0,2.77-.02,3.96-.07ZM926.04,411.06c.46.22.81.53,1.07.93s.38.85.38,1.37-.13.97-.38,1.37c-.26.4-.61.71-1.07.93-.46.22-.97.33-1.56.33s-1.1-.11-1.56-.33-.82-.53-1.08-.93c-.26-.4-.38-.85-.38-1.37,0-.51.12-.97.38-1.37.26-.4.62-.71,1.08-.93s.98-.33,1.56-.33,1.1.11,1.56.33ZM923.42,411.82c-.31.15-.56.36-.73.62-.18.27-.26.57-.26.92,0,.34.08.65.26.92.18.27.42.47.73.62.31.15.67.22,1.06.22s.74-.08,1.05-.22c.31-.15.55-.36.73-.62.17-.27.26-.57.26-.92s-.09-.65-.26-.92c-.17-.27-.42-.47-.73-.62-.31-.15-.66-.22-1.05-.22s-.75.07-1.06.22ZM929.99,421.13h-.98v-11.22h.98v11.22Z" fill="#16223d"/><path d="M939.33,411.06c.45.24.8.56,1.05.98.26.42.39.89.39,1.43,0,.53-.13,1.01-.39,1.43-.26.42-.61.74-1.05.98-.45.23-.95.35-1.5.35s-1.05-.12-1.5-.35c-.45-.24-.8-.56-1.06-.98-.26-.42-.38-.89-.38-1.43,0-.53.12-1.01.38-1.43.26-.42.61-.74,1.06-.98.45-.24.95-.35,1.5-.35s1.06.12,1.5.35ZM936.83,411.81c-.3.16-.54.39-.71.67-.17.29-.26.61-.25.97,0,.36.08.69.25.97.17.29.41.51.71.67.3.16.64.24,1,.24s.71-.08,1.01-.24c.3-.16.54-.39.71-.67.17-.29.26-.61.26-.98s-.09-.69-.26-.98c-.17-.29-.41-.51-.71-.67-.3-.16-.64-.24-1.01-.24s-.7.08-1,.24ZM943.95,420.87h-7.52v-3.55h.97v2.72h6.55v.83ZM943.43,413.32h1.69v.83h-1.69v4.02h-.98v-8.26h.98v3.41Z" fill="#16223d"/><path d="M947.12,417.33c.62,0,1.23-.04,1.83-.09.59-.05,1.2-.14,1.84-.27l.13.88c-.74.13-1.44.22-2.1.28s-1.32.08-1.98.08h-.69v-6.93h.98v6.05ZM955.13,421.11h-.97v-5.79h-1.61v5.21h-.93v-10.36h.93v4.31h1.61v-4.56h.97v11.2Z" fill="#16223d"/><path d="M964.04,412.1h-3.21v5.39c.83,0,1.53-.03,2.11-.07s1.16-.12,1.75-.24l.09.83c-.64.13-1.27.22-1.89.26s-1.39.07-2.32.07h-.72v-7.05h4.19v.82ZM969.01,421.11h-.95v-5.87h-1.65v5.29h-.91v-10.36h.91v4.26h1.65v-4.51h.95v11.2Z" fill="#16223d"/><path d="M974.42,413.17c.24.46.57.87.99,1.22s.9.62,1.44.81l-.54.78c-.62-.23-1.16-.56-1.63-1-.47-.44-.83-.96-1.08-1.54-.24.66-.6,1.24-1.08,1.74-.48.5-1.05.87-1.7,1.12l-.53-.79c.55-.21,1.04-.51,1.46-.89.42-.39.75-.83.99-1.34.24-.51.35-1.05.36-1.62v-1.16h.97v1.23c0,.5.12.98.36,1.45ZM977.46,417.25c.55.16.98.39,1.27.7s.44.67.44,1.09-.15.8-.44,1.11c-.29.31-.72.54-1.27.7s-1.21.24-1.98.24-1.43-.08-1.99-.24c-.56-.16-.98-.39-1.28-.7-.3-.3-.45-.67-.45-1.1s.15-.79.45-1.09.73-.54,1.29-.7c.56-.16,1.22-.24,1.98-.24s1.42.08,1.98.24ZM974.03,417.95c-.41.1-.73.24-.94.43s-.33.41-.32.66c0,.26.1.48.32.67.22.19.53.33.94.43s.9.15,1.46.15c.86,0,1.53-.12,2.01-.34.48-.22.72-.52.72-.92,0-.26-.11-.48-.33-.66-.22-.19-.53-.33-.94-.43s-.9-.15-1.46-.15-1.04.05-1.46.15ZM979.08,412.83h1.69v.83h-1.69v3.06h-.98v-6.81h.98v2.92Z" fill="#16223d"/><path d="M983.54,419.87c-.31,1-.76,1.93-1.35,2.79h-.96c.29-.42.56-.96.81-1.63.25-.67.45-1.39.61-2.17.15-.78.23-1.53.23-2.25s-.08-1.47-.23-2.24-.36-1.49-.61-2.16c-.25-.67-.52-1.21-.81-1.63h.96c1.2,1.73,1.8,3.74,1.81,6.03,0,1.17-.16,2.26-.47,3.25Z" fill="#16223d"/><path d="M103.56,445.83c-.42.75-1.02,1.4-1.8,1.95-.78.55-1.71.97-2.8,1.28l-.42-.78c.89-.25,1.67-.58,2.34-.99.66-.41,1.19-.88,1.57-1.41s.62-1.11.69-1.74h-4.02v-.82h5.08c0,.92-.22,1.76-.64,2.52ZM107.7,453.63h-7.27v-4.17h7.27v4.17ZM101.39,452.82h5.33v-2.57h-5.33v2.57ZM107.7,448.98h-1v-2.67h-2.48v-.83h2.48v-2.88h1v6.39Z" fill="#16223d"/><path d="M119.51,448.73h-10.2v-.82h10.2v.82ZM118.6,443.98h-3.55c.01.41.2.79.56,1.13.36.35.84.64,1.43.87.59.23,1.22.39,1.9.46l-.37.79c-.62-.08-1.21-.22-1.77-.43-.56-.21-1.05-.47-1.47-.79-.42-.32-.73-.68-.93-1.08-.2.4-.5.76-.92,1.08-.42.32-.91.58-1.47.79-.56.21-1.15.35-1.78.43l-.35-.79c.66-.08,1.29-.23,1.88-.46.59-.23,1.06-.52,1.43-.87s.56-.73.57-1.13h-3.53v-.82h8.36v.82ZM116.47,449.95c.58.16,1.02.39,1.33.7.31.3.46.67.47,1.09,0,.43-.16.79-.47,1.1-.31.3-.75.53-1.32.69s-1.26.23-2.07.23-1.5-.08-2.08-.23c-.58-.16-1.02-.38-1.33-.69-.31-.3-.46-.67-.46-1.1s.15-.79.46-1.09c.31-.3.75-.54,1.33-.7.58-.16,1.27-.24,2.07-.24s1.48.08,2.06.24ZM112.29,450.82c-.5.21-.75.52-.75.91,0,.39.24.69.75.9.5.21,1.21.32,2.11.32.59,0,1.1-.05,1.53-.14.43-.09.76-.23.99-.42.23-.18.34-.4.34-.66,0-.39-.25-.7-.76-.91-.5-.21-1.2-.33-2.1-.33-.91,0-1.61.12-2.11.33Z" fill="#16223d"/><path d="M133.42,452.32h-10.25v-.82h10.25v.82ZM132.24,449.45h-7.75v-5.89h7.62v.83h-6.61v1.66h6.37v.79h-6.37v1.8h6.74v.81Z" fill="#16223d"/><path d="M138.8,446.54h-3.26v1.66c.81,0,1.51-.03,2.11-.08.59-.05,1.2-.14,1.82-.27l.11.83c-.69.12-1.36.21-2,.26s-1.4.07-2.27.07h-.73v-3.22h3.27v-1.57h-3.3v-.81h4.24v3.14ZM143.57,453.78h-.97v-2.82h-6.57v-.81h7.54v3.63ZM143.57,449.58h-.94v-3.17h-1.57v3.07h-.92v-6.67h.92v2.78h1.57v-3h.94v6.99Z" fill="#16223d"/><path d="M650.57,452.57c-.44-.21-.79-.5-1.06-.86-.26-.37-.4-.78-.42-1.24h1.1c.03.27.13.51.3.73.17.22.39.39.67.51.27.12.57.19.89.19.39,0,.73-.09,1.04-.26.31-.18.55-.42.73-.72s.26-.65.26-1.03-.09-.74-.27-1.05c-.18-.31-.43-.56-.75-.74-.32-.18-.68-.27-1.09-.27-.81-.01-1.38.26-1.7.82h-1.1l.64-4.99h4.94v1.01h-3.99l-.34,2.67h.09c.21-.16.46-.29.75-.38.29-.1.6-.14.91-.14.57,0,1.09.13,1.55.39.46.26.82.63,1.08,1.09.26.47.39.99.39,1.57s-.14,1.1-.41,1.56c-.27.46-.65.82-1.13,1.08-.48.26-1.02.39-1.61.39-.54,0-1.03-.1-1.48-.31Z" fill="#16223d"/><path d="M657.77,448.38c.85,0,1.65-.04,2.4-.09.75-.06,1.53-.16,2.33-.31l.1.82c-.85.16-1.66.27-2.44.33-.78.06-1.63.09-2.55.1h-.84v-5.82h1v4.97ZM665.69,453.54h-7.52v-3.36h1v2.53h6.52v.83ZM665.39,450.88h-1v-3.88h-3.22v-.79h3.22v-1.35h-3.22v-.79h3.22v-1.47h1v8.29Z" fill="#16223d"/><rect x="675.71" y="441.41" width=".52" height="12.9" fill="#16223d"/><path d="M695.83,450.04h-4.67v3.74h-.97v-3.74h-4.61v-.81h10.25v.81ZM687.87,444.6h5.64v-1.55h1v4.82h-7.62v-4.82h.98v1.55ZM693.51,447.07v-1.66h-5.64v1.66h5.64Z" fill="#16223d"/><path d="M700.81,445.25c.24.47.58.88,1.02,1.24s.93.62,1.48.8l-.49.77c-.66-.22-1.24-.56-1.73-1.01-.5-.45-.87-.98-1.12-1.58-.25.65-.63,1.22-1.13,1.71s-1.09.86-1.75,1.1l-.52-.78c.56-.2,1.06-.48,1.49-.86s.78-.81,1.02-1.31c.25-.5.37-1.02.37-1.56v-.86h1.01v.86c0,.52.12,1.02.36,1.49ZM705.72,451.64h-6.28v1.21h6.69v.81h-7.66v-2.78h6.27v-1.12h-6.3v-.79h7.28v2.68ZM705.71,448.39h-.97v-5.81h.97v5.81Z" fill="#16223d"/><path d="M717.57,448.1h-2.85v1.11h1.54v2.51h-6.65v1.16h6.99v.78h-7.97v-2.67h6.66v-1.02h-6.69v-.76h1.55v-1.11h-2.78v-.81h10.2v.81ZM714.6,442.95c.59.15,1.04.37,1.35.66.31.29.47.64.47,1.05s-.16.77-.47,1.06c-.31.29-.76.51-1.35.66s-1.3.23-2.13.23c-.83,0-1.54-.08-2.14-.23s-1.05-.37-1.36-.66c-.31-.29-.47-.64-.47-1.06s.16-.76.47-1.05c.31-.29.77-.51,1.36-.66.59-.15,1.31-.23,2.14-.23s1.54.08,2.13.23ZM710.3,443.8c-.51.21-.77.49-.76.86,0,.38.25.67.76.88.51.2,1.23.31,2.17.32.94,0,1.66-.11,2.18-.32.51-.2.77-.5.77-.88s-.26-.66-.78-.86c-.52-.21-1.24-.31-2.17-.32-.94,0-1.66.12-2.17.32ZM713.74,449.21v-1.11h-2.62v1.11h2.62Z" fill="#16223d"/><path d="M722.9,452.34c-.48-.37-.84-.9-1.09-1.6s-.37-1.55-.37-2.54.13-1.82.38-2.52c.25-.7.62-1.24,1.1-1.61.48-.37,1.05-.55,1.71-.55s1.23.18,1.71.55c.48.37.84.91,1.1,1.61s.38,1.54.38,2.52-.12,1.84-.37,2.54c-.25.7-.61,1.23-1.09,1.6s-1.05.55-1.72.55-1.25-.18-1.72-.55ZM725.74,451.45c.31-.29.55-.7.71-1.25.16-.55.25-1.22.25-2s-.08-1.45-.25-2c-.16-.55-.4-.98-.71-1.27-.31-.29-.68-.43-1.12-.43s-.81.14-1.12.43c-.31.29-.55.71-.72,1.27-.17.55-.25,1.22-.25,2s.08,1.45.25,2c.16.55.4.97.71,1.25.31.29.69.43,1.13.43s.81-.14,1.12-.43Z" fill="#16223d"/><path d="M729.12,452.72c-.12-.07-.22-.17-.3-.3-.07-.13-.11-.26-.1-.41,0-.14.03-.28.1-.4.07-.12.17-.22.3-.3.12-.07.26-.11.41-.11s.28.04.4.11c.12.07.22.17.3.3.07.12.11.26.11.4s-.04.28-.11.41-.17.23-.3.3c-.12.07-.26.11-.4.11s-.28-.04-.41-.11Z" fill="#16223d"/><path d="M731.75,451.93l3.11-3.27c.41-.43.72-.78.94-1.05.22-.27.38-.52.49-.77.11-.25.17-.51.17-.78,0-.3-.08-.57-.24-.81-.16-.24-.38-.42-.65-.55-.28-.13-.58-.2-.92-.2-.36,0-.67.07-.94.21-.27.14-.47.34-.62.6-.14.26-.22.56-.22.89h-1.07c0-.53.12-1,.37-1.4s.59-.72,1.04-.95c.44-.23.93-.34,1.48-.34s1.03.11,1.46.33c.43.22.77.53,1.01.91.24.39.37.81.37,1.28,0,.35-.06.68-.19,1-.13.32-.34.67-.63,1.05s-.72.86-1.27,1.43l-2.09,2.15v.08h4.34v1.01h-5.92v-.83Z" fill="#16223d"/><path d="M738.65,449.96l4.11-6.32h1.4v6.26h1.27v1h-1.27v1.86h-1.08v-1.86h-4.42v-.93ZM743.07,449.9v-4.82h-.11l-3.08,4.75v.08h3.2Z" fill="#16223d"/><path d="M747.6,447.6c-.28-.18-.48-.44-.62-.77-.14-.33-.21-.71-.21-1.16s.07-.81.22-1.14c.14-.33.35-.58.63-.77.28-.18.6-.27.98-.27s.72.09,1,.27c.27.18.48.44.62.76s.21.71.21,1.14-.07.82-.21,1.15-.35.59-.63.77c-.27.18-.6.27-.99.27s-.72-.09-.99-.27ZM753.93,443.64h1.02l-6.27,9.12h-1.02l6.27-9.12ZM749.27,446.72c.15-.25.23-.59.23-1.04s-.07-.79-.22-1.03c-.15-.25-.38-.37-.69-.37-.29,0-.52.12-.67.37-.16.25-.23.59-.23,1.02s.08.78.23,1.03.38.38.67.38.53-.12.68-.38ZM753.16,452.62c-.28-.18-.49-.44-.63-.76-.14-.33-.21-.71-.21-1.15,0-.43.07-.81.21-1.15.15-.33.36-.59.63-.77.28-.18.61-.27.98-.27s.72.09.99.27c.27.18.48.44.62.77.14.33.21.71.21,1.15s-.07.81-.21,1.15c-.14.33-.35.59-.62.77-.27.18-.6.27-.98.26-.39,0-.72-.08-.99-.26ZM754.83,451.73c.15-.25.23-.59.23-1.03s-.07-.79-.21-1.04-.36-.38-.66-.38-.54.12-.7.38c-.16.25-.25.59-.25,1.04s.08.77.23,1.02c.16.25.38.37.69.37s.52-.12.67-.37Z" fill="#16223d"/><path d="M762.61,443.25h.96c-.29.42-.56.96-.81,1.63-.25.67-.45,1.39-.61,2.16s-.23,1.52-.23,2.24.08,1.47.23,2.25c.15.78.36,1.5.61,2.17.25.67.52,1.21.81,1.63h-.96c-.59-.86-1.04-1.79-1.35-2.79s-.46-2.08-.47-3.25c.01-2.29.62-4.3,1.81-6.03Z" fill="#16223d"/><path d="M770.52,445.46c-.25-.29-.55-.51-.91-.67-.35-.15-.73-.23-1.14-.23-.56,0-1.06.14-1.5.42-.44.28-.79.7-1.05,1.24-.26.54-.38,1.2-.38,1.96s.13,1.42.38,1.96c.26.55.61.96,1.05,1.24.44.28.94.42,1.5.42.4,0,.78-.08,1.13-.22.35-.15.65-.37.9-.66.25-.29.42-.64.51-1.04h1.13c-.11.61-.34,1.14-.68,1.59-.34.45-.78.8-1.29,1.04s-1.09.36-1.7.36c-.78,0-1.48-.19-2.08-.57s-1.08-.93-1.43-1.63c-.34-.71-.52-1.53-.52-2.48s.17-1.77.52-2.48c.34-.71.82-1.25,1.43-1.63s1.3-.57,2.08-.57c.61,0,1.18.12,1.7.36.52.24.95.58,1.3,1.04.35.45.57.99.68,1.6h-1.13c-.08-.41-.25-.76-.5-1.05Z" fill="#16223d"/><path d="M780.67,450.68c-.34.71-.82,1.25-1.43,1.63-.61.38-1.3.57-2.08.57s-1.48-.19-2.08-.57-1.08-.93-1.43-1.63c-.34-.71-.52-1.53-.52-2.48s.17-1.77.52-2.48c.34-.71.82-1.25,1.43-1.63s1.3-.57,2.08-.57,1.47.19,2.08.57c.61.38,1.09.93,1.43,1.63.34.71.52,1.53.52,2.48s-.17,1.77-.52,2.48ZM779.71,446.23c-.26-.55-.61-.96-1.05-1.24-.44-.28-.94-.42-1.5-.42s-1.06.14-1.5.42c-.44.28-.79.7-1.05,1.24-.26.54-.38,1.2-.38,1.96s.13,1.42.38,1.96c.26.55.61.96,1.05,1.24.44.28.94.42,1.5.42s1.06-.14,1.5-.42c.44-.28.79-.7,1.05-1.24.26-.54.38-1.2.38-1.96s-.13-1.42-.38-1.96Z" fill="#16223d"/><path d="M785.25,451.28h.1l2.7-7.64h1.2l-3.34,9.12h-1.2l-3.34-9.12h1.2l2.68,7.64Z" fill="#16223d"/><path d="M791.36,452.76h-1.13v-9.12h1.13v9.12Z" fill="#16223d"/><path d="M793.11,452.76v-9.12h2.95c.88,0,1.63.18,2.27.54s1.12.89,1.46,1.57c.34.68.5,1.49.5,2.43s-.17,1.76-.51,2.45c-.34.68-.83,1.21-1.49,1.57-.65.37-1.43.55-2.35.55h-2.83ZM795.87,451.75c1.1,0,1.93-.31,2.48-.93.55-.62.83-1.5.83-2.63s-.27-1.99-.81-2.61-1.34-.93-2.39-.93h-1.74v7.1h1.62Z" fill="#16223d"/><path d="M805.48,449.36h-3.99v-1h3.99v1Z" fill="#16223d"/><path d="M810.09,452.76h-1.15v-7.93h-.05l-2.22,1.47v-1.15l2.27-1.51h1.15v9.12Z" fill="#16223d"/><path d="M816.9,443.91c.5.27.91.72,1.23,1.36.32.64.48,1.5.48,2.56s-.14,1.98-.42,2.74-.68,1.33-1.2,1.73-1.13.59-1.85.59c-.52,0-1-.1-1.42-.31-.42-.2-.76-.49-1.03-.85s-.44-.79-.51-1.27h1.12c.11.43.32.77.63,1.03.32.26.72.39,1.21.39s.92-.14,1.28-.41c.36-.28.63-.67.83-1.2.19-.52.29-1.15.3-1.89h-.13c-.27.38-.6.68-1.01.89-.4.21-.84.32-1.32.32-.54,0-1.04-.13-1.5-.39-.46-.26-.82-.62-1.09-1.07-.27-.46-.4-.97-.4-1.55s.13-1.08.39-1.54c.26-.47.63-.83,1.11-1.11.48-.27,1.03-.41,1.66-.41.58,0,1.12.13,1.62.4ZM814.25,444.78c-.32.18-.57.43-.75.74s-.27.65-.27,1.01.09.73.26,1.04c.17.31.41.56.72.74s.66.27,1.06.27.74-.09,1.06-.29.58-.45.77-.76c.19-.32.28-.65.28-1s-.09-.68-.27-.99c-.18-.31-.43-.56-.75-.75-.32-.19-.67-.28-1.06-.28s-.74.09-1.05.27Z" fill="#16223d"/><path d="M831.72,443.82h-1.72v2.46h1.69v.79h-3.6v1.38h4.61v.81h-10.2v-.81h4.61v-1.38h-3.61v-.79h1.69v-2.46h-1.73v-.82h8.27v.82ZM831.43,453.78h-1v-2.58h-6.81v-.82h7.81v3.4ZM829.02,446.27v-2.46h-2.86v2.46h2.86Z" fill="#16223d"/><path d="M838.93,446.35h-4.08v1.62c1.06,0,1.98-.02,2.76-.08.78-.05,1.59-.15,2.42-.29l.1.82c-.85.14-1.68.24-2.49.29-.81.05-1.77.08-2.89.08h-.87v-3.22h4.08v-1.5h-4.11v-.81h5.08v3.09ZM842.13,453.78h-.98v-2.99h-6.35v-.81h7.33v3.79ZM842.13,445.47h1.7v.83h-1.7v3.1h-.98v-6.8h.98v2.87Z" fill="#16223d"/><path d="M848.93,448.36c-.85,1.35-2.17,2.45-3.98,3.32l-.54-.81c1.49-.71,2.64-1.59,3.44-2.65.79-1.05,1.25-2.26,1.36-3.61h-4.28v-.81h5.29c0,1.69-.44,3.21-1.28,4.56ZM853.52,453.78h-1v-11.2h1v11.2Z" fill="#16223d"/><path d="M868.39,452.39h-10.25v-.84h4.6v-2.58h-3.67v-.79h1.75v-3.68h-1.78v-.82h8.36v.82h-1.78v3.68h1.75v.79h-3.68v2.58h4.68v.84ZM864.66,448.17v-3.68h-2.86v3.68h2.86Z" fill="#16223d"/><path d="M875.72,444.6h-6.67v-.82h2.85v-1.29h.98v1.29h2.85v.82ZM873.79,445.4c.41.17.72.4.94.7s.34.65.34,1.04c0,.4-.12.76-.34,1.06-.22.3-.54.54-.94.7-.41.16-.87.25-1.41.25s-1.01-.08-1.42-.25c-.41-.16-.73-.4-.95-.7-.22-.3-.33-.65-.33-1.06,0-.39.1-.74.33-1.04s.54-.53.95-.7c.41-.17.88-.25,1.42-.25s1,.08,1.41.25ZM871.46,446.07c-.27.1-.47.25-.62.43s-.21.4-.21.64c0,.25.07.47.21.66s.35.33.61.43.57.15.93.16c.35,0,.65-.06.92-.16s.47-.25.62-.43.22-.41.23-.66c0-.24-.08-.45-.23-.64-.15-.18-.36-.33-.62-.43-.26-.1-.57-.15-.91-.15s-.66.05-.92.15ZM877.78,453.63h-7.07v-3.65h7.07v3.65ZM871.68,452.82h5.11v-2.05h-5.11v2.05ZM877.78,445.57h1.69v.84h-1.69v2.92h-.98v-6.75h.98v2.98Z" fill="#16223d"/><path d="M882.24,452.54c-.31,1-.76,1.93-1.35,2.79h-.96c.29-.42.56-.96.81-1.63.25-.67.45-1.39.61-2.17.15-.78.23-1.53.23-2.25s-.08-1.47-.23-2.24-.36-1.49-.61-2.16c-.25-.67-.52-1.21-.81-1.63h.96c1.2,1.73,1.8,3.74,1.81,6.03,0,1.17-.16,2.26-.47,3.25Z" fill="#16223d"/><path d="M100.76,477.99h5.54v-1.42h.98v4.47h-3.27v1.2h4.61v.82h-10.2v-.82h4.61v-1.2h-3.25v-4.47h.98v1.42ZM107.49,487.07h-7.75v-3.12h.99v2.29h6.75v.83ZM106.3,480.24v-1.47h-5.54v1.47h5.54Z" fill="#16223d"/><path d="M116.46,481.34c.26.61.61,1.15,1.05,1.64.44.49.94.86,1.47,1.11l-.57.78c-.63-.3-1.19-.76-1.69-1.39s-.88-1.31-1.14-2.08c-.17.55-.4,1.06-.69,1.56-.29.49-.63.92-1.01,1.3-.38.38-.77.67-1.19.88l-.6-.78c.53-.26,1.03-.64,1.49-1.17.46-.52.83-1.1,1.1-1.75.27-.65.41-1.28.42-1.91v-1.46h-2.61v-.82h6.1v.82h-2.52v1.46c0,.59.12,1.19.38,1.79ZM120.95,480.65h1.88v.84h-1.88v5.82h-.98v-11.2h.98v4.53Z" fill="#16223d"/><path d="M133.42,485.92h-10.25v-.83h2.88v-2.13h-1.6v-3.45h6.7v-1.75h-6.73v-.82h7.69v3.39h-6.69v1.81h6.95v.82h-1.75v2.13h2.78v.83ZM129.67,485.09v-2.13h-2.65v2.13h2.65Z" fill="#16223d"/><path d="M138.09,483.95c1.19-.05,2.33-.15,3.43-.31l.08.73c-1.12.21-2.27.34-3.44.4-1.17.06-2.47.09-3.89.09l-.14-.84c1.45,0,2.77-.02,3.96-.07ZM139.28,477.26c.46.22.81.53,1.07.93.26.4.38.85.38,1.37s-.13.97-.38,1.37c-.26.4-.61.71-1.07.93s-.98.33-1.56.33-1.1-.11-1.56-.33c-.46-.22-.82-.53-1.08-.93-.26-.4-.39-.85-.38-1.37,0-.51.12-.97.38-1.37s.62-.71,1.08-.93c.46-.22.98-.33,1.56-.33s1.1.11,1.56.33ZM136.66,478.02c-.31.15-.56.36-.73.62s-.26.57-.26.92c0,.34.08.65.26.92.18.27.42.47.73.62.31.15.67.22,1.06.22s.74-.08,1.05-.22c.31-.15.55-.36.73-.62.17-.27.26-.57.26-.92s-.09-.65-.26-.92c-.17-.27-.42-.47-.73-.62-.31-.15-.66-.22-1.05-.22s-.75.07-1.06.22ZM143.24,487.33h-.98v-11.22h.98v11.22Z" fill="#16223d"/><path d="M151.95,483.95c1.19-.05,2.33-.15,3.43-.31l.08.73c-1.12.21-2.27.34-3.44.4-1.17.06-2.47.09-3.89.09l-.14-.84c1.45,0,2.77-.02,3.96-.07ZM153.15,477.26c.46.22.81.53,1.07.93.26.4.38.85.38,1.37s-.13.97-.38,1.37c-.26.4-.61.71-1.07.93s-.98.33-1.56.33-1.1-.11-1.56-.33c-.46-.22-.82-.53-1.08-.93-.26-.4-.39-.85-.38-1.37,0-.51.12-.97.38-1.37s.62-.71,1.08-.93c.46-.22.98-.33,1.56-.33s1.1.11,1.56.33ZM150.53,478.02c-.31.15-.56.36-.73.62s-.26.57-.26.92c0,.34.08.65.26.92.18.27.42.47.73.62.31.15.67.22,1.06.22s.74-.08,1.05-.22c.31-.15.55-.36.73-.62.17-.27.26-.57.26-.92s-.09-.65-.26-.92c-.17-.27-.42-.47-.73-.62-.31-.15-.66-.22-1.05-.22s-.75.07-1.06.22ZM157.11,487.33h-.98v-11.22h.98v11.22Z" fill="#16223d"/><path d="M162.84,483.95c1.19-.05,2.33-.15,3.43-.31l.08.73c-1.12.21-2.27.34-3.44.4-1.17.06-2.47.09-3.89.09l-.14-.84c1.45,0,2.77-.02,3.96-.07ZM164.04,477.26c.46.22.81.53,1.07.93.26.4.38.85.38,1.37s-.13.97-.38,1.37c-.26.4-.61.71-1.07.93s-.98.33-1.56.33-1.1-.11-1.56-.33c-.46-.22-.82-.53-1.08-.93-.26-.4-.39-.85-.38-1.37,0-.51.12-.97.38-1.37s.62-.71,1.08-.93c.46-.22.98-.33,1.56-.33s1.1.11,1.56.33ZM161.42,478.02c-.31.15-.56.36-.73.62s-.26.57-.26.92c0,.34.08.65.26.92.18.27.42.47.73.62.31.15.67.22,1.06.22s.74-.08,1.05-.22c.31-.15.55-.36.73-.62.17-.27.26-.57.26-.92s-.09-.65-.26-.92c-.17-.27-.42-.47-.73-.62-.31-.15-.66-.22-1.05-.22s-.75.07-1.06.22ZM168,487.33h-.98v-11.22h.98v11.22Z" fill="#16223d"/><path d="M651.01,477.99h5.54v-1.42h.98v4.47h-3.27v1.2h4.61v.82h-10.2v-.82h4.61v-1.2h-3.25v-4.47h.98v1.42ZM657.74,487.07h-7.75v-3.12h1v2.29h6.75v.83ZM656.56,480.24v-1.47h-5.54v1.47h5.54Z" fill="#16223d"/><path d="M667.24,477.26c.45.23.8.56,1.05.98.25.42.38.89.38,1.42s-.13,1.01-.38,1.43c-.25.42-.6.74-1.05.98s-.95.35-1.5.35-1.05-.12-1.5-.35-.8-.56-1.05-.98c-.25-.42-.38-.89-.38-1.43s.13-1,.38-1.42c.25-.42.6-.74,1.05-.98s.95-.35,1.5-.35,1.05.12,1.5.35ZM664.73,478.01c-.3.16-.54.38-.71.67-.17.29-.25.61-.25.97,0,.37.08.69.25.98.17.29.41.51.71.67s.64.24,1.01.24.7-.08,1-.24.54-.38.71-.67c.17-.29.26-.61.26-.98s-.09-.68-.26-.96c-.17-.29-.41-.51-.71-.67-.3-.16-.63-.24-1-.24s-.71.08-1.01.24ZM672.13,487.07h-7.58v-3.59h.98v2.76h6.6v.83ZM671.78,484.31h-.98v-8.19h.98v8.19Z" fill="#16223d"/><path d="M683.68,485.87h-10.25v-.84h10.25v.84ZM682.69,478.06h-1.78v3.92h1.75v.81h-8.31v-.81h1.75v-3.92h-1.78v-.82h8.36v.82ZM679.95,481.98v-3.92h-2.86v3.92h2.86Z" fill="#16223d"/><path d="M689.84,481.16h-4.08v2.62c1.11,0,2.06-.03,2.84-.08.78-.05,1.58-.16,2.38-.31l.1.82c-.84.16-1.66.26-2.47.32s-1.79.09-2.95.1h-.89v-4.28h4.08v-2.37h-4.11v-.82h5.09v4ZM692.98,480.57h1.88v.83h-1.88v5.93h-.98v-11.22h.98v4.46Z" fill="#16223d"/><path d="M702.09,482.12c1.24-.05,2.42-.16,3.53-.32l.06.74c-.99.18-2.07.31-3.26.38v4.05h-.98v-3.99c-.74.03-1.79.05-3.15.06l-.14-.84c1.38,0,2.69-.03,3.94-.08ZM703.35,476.94c.43.19.77.46,1.02.81.25.35.37.75.37,1.2s-.12.85-.37,1.2c-.25.35-.59.62-1.02.81-.43.19-.93.29-1.48.28-.55,0-1.05-.09-1.48-.28-.43-.19-.77-.46-1.02-.81-.25-.35-.37-.75-.37-1.2s.12-.85.37-1.2c.25-.35.58-.62,1.02-.81.43-.19.93-.28,1.48-.28.55,0,1.05.09,1.48.28ZM700.88,477.65c-.29.12-.52.3-.68.53-.16.23-.24.48-.24.77,0,.29.07.55.24.77.16.22.39.4.68.52.29.12.62.18.99.18.37,0,.71-.06,1-.18.29-.12.52-.3.68-.52.16-.22.25-.48.25-.77s-.08-.54-.25-.77c-.16-.23-.39-.4-.68-.53s-.62-.18-1-.18c-.37,0-.7.06-.99.18ZM707.41,487.32h-.97v-11.2h.97v11.2Z" fill="#16223d"/><path d="M716.41,486.74h-.94v-5.44h-1.44c-.03.72-.15,1.35-.36,1.88-.21.53-.49.94-.84,1.23-.35.29-.76.43-1.22.43-.48,0-.91-.16-1.27-.48-.36-.32-.64-.77-.84-1.36-.2-.59-.3-1.27-.3-2.06s.1-1.47.3-2.06.48-1.04.84-1.36c.36-.32.79-.48,1.27-.48.45,0,.85.14,1.2.42.35.28.63.67.83,1.19s.33,1.12.38,1.82h1.45v-4.13h.94v10.39ZM710.83,478.35c-.22.24-.39.58-.51,1.03-.12.45-.18.97-.17,1.57,0,.6.05,1.12.17,1.57.12.45.29.79.52,1.03.22.24.49.36.78.35.3,0,.56-.11.78-.35s.4-.58.52-1.03c.12-.44.18-.97.18-1.57s-.06-1.13-.18-1.57c-.12-.45-.29-.79-.52-1.03-.22-.24-.48-.36-.79-.36s-.56.12-.79.36ZM718.67,487.31h-.96v-11.2h.96v11.2Z" fill="#16223d"/><path d="M724.29,481.09c.26.65.61,1.22,1.06,1.72.45.5.94.88,1.47,1.12l-.59.81c-.63-.33-1.2-.81-1.7-1.44-.5-.63-.87-1.35-1.12-2.15-.25.84-.63,1.6-1.12,2.27s-1.06,1.18-1.7,1.52l-.64-.79c.54-.26,1.04-.66,1.49-1.19s.8-1.13,1.07-1.81.39-1.35.39-2.02v-2.04h1.01v2.04c0,.66.13,1.32.39,1.96ZM729.24,487.33h-.98v-6.59h-2.66v-.81h2.66v-3.83h.98v11.22Z" fill="#16223d"/><path d="M744.06,482.62h-4.55v2.29h-1v-2.29h-4.71v-.82h10.25v.82ZM741.01,476.68c.59.18,1.05.44,1.38.78s.49.74.49,1.19-.16.85-.49,1.19c-.32.34-.78.59-1.38.77-.59.18-1.29.27-2.08.27s-1.49-.09-2.08-.27c-.6-.18-1.06-.44-1.38-.77-.33-.33-.49-.73-.49-1.19s.16-.86.49-1.19c.33-.34.79-.6,1.38-.78s1.29-.28,2.08-.28c.79,0,1.49.1,2.08.28ZM742.92,487.07h-7.78v-3.28h.99v2.43h6.79v.84ZM737.4,477.38c-.44.12-.78.29-1.02.5-.24.22-.36.47-.35.77,0,.29.11.54.36.75.24.21.58.38,1.02.5.44.12.95.18,1.52.18s1.08-.06,1.52-.17c.44-.12.78-.28,1.02-.5.24-.22.36-.47.36-.75s-.12-.55-.36-.77c-.24-.22-.58-.39-1.02-.5-.44-.12-.95-.18-1.52-.18s-1.08.06-1.52.18Z" fill="#16223d"/><path d="M754.91,482.47h-10.2v-.82h2.53v-1.57c-.45-.18-.8-.41-1.04-.69-.24-.28-.36-.61-.36-.99,0-.44.16-.81.48-1.12s.78-.55,1.37-.71c.59-.16,1.3-.25,2.12-.25s1.51.08,2.11.25c.59.16,1.05.4,1.37.71.32.31.48.68.48,1.12,0,.37-.12.7-.36.98-.24.28-.58.51-1.03.69v1.58h2.53v.82ZM751.88,483.55c.58.15,1.02.38,1.32.67.31.3.46.66.47,1.08,0,.42-.16.78-.47,1.07-.31.3-.75.52-1.32.67s-1.26.23-2.07.23-1.5-.08-2.08-.23-1.02-.38-1.33-.67c-.31-.3-.46-.65-.46-1.07s.15-.78.46-1.08c.3-.3.75-.52,1.33-.67.58-.15,1.27-.23,2.08-.23s1.49.08,2.07.23ZM748.24,477.26c-.44.1-.79.25-1.02.45-.24.2-.35.42-.35.69,0,.27.11.5.35.7.24.2.58.34,1.02.45s.97.15,1.58.15,1.13-.05,1.57-.15.78-.25,1.02-.45.36-.43.36-.7-.12-.49-.36-.69-.58-.35-1.02-.45c-.44-.11-.96-.16-1.57-.16s-1.13.05-1.57.16ZM747.7,484.42c-.5.21-.75.51-.75.89,0,.25.11.47.33.65.23.18.55.32.99.42.43.1.94.14,1.54.14s1.1-.05,1.53-.14.76-.24.99-.42c.23-.18.34-.4.34-.65,0-.38-.25-.68-.76-.89s-1.21-.32-2.1-.33c-.91,0-1.61.12-2.11.33ZM751.4,481.65v-1.31c-.48.08-1.01.13-1.59.13s-1.1-.04-1.59-.13v1.31h3.17Z" fill="#16223d"/><path d="M763.09,481.85c-.84,1.35-2.13,2.46-3.89,3.33l-.55-.78c1.44-.72,2.55-1.61,3.34-2.66.79-1.06,1.24-2.25,1.35-3.59h-4.18v-.83h5.18c0,1.67-.42,3.18-1.25,4.53ZM767.24,480.67h1.81v.83h-1.81v5.81h-.98v-11.2h.98v4.56Z" fill="#16223d"/><path d="M779.68,482.2h-10.21v-.82h10.21v.82ZM776.63,483.44c.58.16,1.02.39,1.32.69.31.3.46.67.47,1.1,0,.43-.16.79-.47,1.1-.31.3-.75.54-1.32.69s-1.26.24-2.07.24-1.5-.08-2.08-.24c-.58-.16-1.02-.39-1.33-.69s-.46-.67-.46-1.1.15-.79.46-1.1c.31-.3.75-.54,1.33-.69.58-.16,1.27-.24,2.08-.24s1.49.08,2.07.24ZM778.51,480.07h-7.64v-3.73h.98v2.91h6.66v.82ZM772.45,484.32c-.5.21-.75.52-.75.91,0,.26.11.48.33.67.23.19.55.33.99.43.43.1.94.15,1.54.15s1.1-.05,1.53-.15c.43-.1.76-.25.99-.43.23-.19.34-.41.34-.67,0-.39-.25-.7-.76-.91-.5-.21-1.21-.33-2.1-.33-.91,0-1.61.12-2.11.33Z" fill="#16223d"/><path d="M787.05,478.3h-6.67v-.81h2.85v-1.37h.98v1.37h2.85v.81ZM785.12,479.18c.41.17.72.42.95.73.23.31.34.68.35,1.1,0,.42-.12.78-.35,1.09s-.54.55-.95.72-.87.25-1.4.25-1-.08-1.41-.25-.73-.41-.95-.72-.33-.67-.33-1.09c0-.42.11-.79.33-1.1.22-.32.54-.56.95-.73s.88-.26,1.41-.26,1,.09,1.4.26ZM782.79,479.86c-.27.11-.47.26-.62.46s-.21.43-.21.69c0,.26.07.49.21.68s.35.35.62.45c.27.11.57.16.92.15.34,0,.65-.05.92-.15.27-.1.47-.25.62-.45s.22-.42.23-.68c0-.26-.08-.49-.23-.69s-.35-.35-.62-.46c-.27-.11-.57-.16-.92-.16s-.66.05-.92.16ZM789.62,487.07h-7.52v-3.22h.97v2.39h6.55v.83ZM789.11,479.81h1.69v.83h-1.69v3.87h-.98v-8.39h.98v3.69Z" fill="#16223d"/><path d="M798.39,481.34c.26.61.61,1.15,1.05,1.64.45.49.94.86,1.47,1.11l-.57.78c-.63-.3-1.19-.76-1.69-1.39-.5-.62-.88-1.31-1.14-2.08-.17.55-.4,1.06-.69,1.56s-.63.92-1.01,1.3c-.38.38-.78.67-1.19.88l-.6-.78c.53-.26,1.03-.64,1.49-1.17s.83-1.1,1.1-1.75c.28-.65.42-1.28.42-1.91v-1.46h-2.61v-.82h6.09v.82h-2.52v1.46c0,.59.12,1.19.38,1.79ZM802.89,480.65h1.88v.84h-1.88v5.82h-.98v-11.2h.98v4.53Z" fill="#16223d"/><path d="M814.01,477.55c0,.6-.02,1.15-.05,1.63-.03.49-.12,1.04-.25,1.65h1.64v.82h-10.25v-.82h7.61c.13-.62.22-1.17.25-1.66.04-.48.05-1.03.05-1.63h0s-6.62-.01-6.62-.01v-.82h7.61v.83ZM814.06,487.16h-7.7v-3.96h7.7v3.96ZM807.35,486.35h5.73v-2.37h-5.73v2.37Z" fill="#16223d"/><path d="M820.02,483.95c1.19-.05,2.33-.15,3.43-.31l.08.73c-1.12.21-2.27.34-3.44.4-1.17.06-2.46.09-3.89.09l-.14-.84c1.45,0,2.77-.02,3.96-.07ZM821.22,477.26c.46.22.81.53,1.07.93s.38.85.38,1.37-.13.97-.38,1.37c-.26.4-.61.71-1.07.93-.46.22-.97.33-1.56.33s-1.1-.11-1.56-.33-.82-.53-1.08-.93c-.26-.4-.38-.85-.38-1.37,0-.51.12-.97.38-1.37.26-.4.62-.71,1.08-.93s.98-.33,1.56-.33,1.1.11,1.56.33ZM818.6,478.02c-.31.15-.56.36-.73.62-.18.27-.26.57-.26.92,0,.34.08.65.26.92.18.27.42.47.73.62.31.15.67.22,1.06.22s.74-.08,1.05-.22c.31-.15.55-.36.73-.62.17-.27.26-.57.26-.92s-.09-.65-.26-.92c-.17-.27-.42-.47-.73-.62-.31-.15-.66-.22-1.05-.22s-.75.07-1.06.22ZM825.18,487.33h-.98v-11.22h.98v11.22Z" fill="#16223d"/><path d="M835.01,479.36c-.42.75-1.02,1.4-1.8,1.95-.78.55-1.71.97-2.8,1.28l-.42-.78c.89-.25,1.67-.58,2.34-.99.66-.41,1.19-.88,1.57-1.41.39-.53.61-1.11.69-1.74h-4.02v-.82h5.08c0,.92-.22,1.76-.64,2.52ZM839.15,487.16h-7.27v-4.17h7.27v4.17ZM832.84,486.35h5.33v-2.57h-5.33v2.57ZM839.15,482.51h-1v-2.67h-2.48v-.83h2.48v-2.88h1v6.39Z" fill="#16223d"/><path d="M849.82,482.75h-3.48v2.34h4.66v.82h-10.25v-.82h4.61v-2.34h-3.29v-5.72h7.62v.82h-6.61v1.6h6.37v.81h-6.37v1.69h6.74v.81Z" fill="#16223d"/><path d="M859.27,477.26c.45.24.8.56,1.05.98.26.42.39.89.39,1.43,0,.53-.13,1.01-.39,1.43-.26.42-.61.74-1.05.98-.45.23-.95.35-1.5.35s-1.05-.12-1.5-.35c-.45-.24-.8-.56-1.06-.98-.26-.42-.38-.89-.38-1.43,0-.53.12-1.01.38-1.43.26-.42.61-.74,1.06-.98.45-.24.95-.35,1.5-.35s1.06.12,1.5.35ZM856.77,478.02c-.3.16-.54.39-.71.67-.17.29-.26.61-.25.97,0,.36.08.69.25.97.17.29.41.51.71.67.3.16.64.24,1,.24s.71-.08,1.01-.24c.3-.16.54-.39.71-.67.17-.29.26-.61.26-.98s-.09-.69-.26-.98c-.17-.29-.41-.51-.71-.67-.3-.16-.64-.24-1.01-.24s-.7.08-1,.24ZM863.89,487.07h-7.52v-3.55h.97v2.72h6.55v.83ZM863.37,479.53h1.69v.83h-1.69v4.02h-.98v-8.26h.98v3.41Z" fill="#16223d"/><path d="M867.06,483.53c.62,0,1.23-.04,1.83-.09.59-.05,1.2-.14,1.84-.27l.13.88c-.74.13-1.44.22-2.1.28s-1.32.08-1.98.08h-.69v-6.93h.98v6.05ZM875.07,487.31h-.97v-5.79h-1.61v5.21h-.93v-10.36h.93v4.31h1.61v-4.56h.97v11.2Z" fill="#16223d"/></svg>